<svg width="40" height="40" viewBox="0 0 40 40" fill="none" xmlns="http://www.w3.org/2000/svg">
<path d="M23.9074 20.0001C23.9074 17.8426 22.1584 16.0938 20.0011 16.0938C17.8436 16.0938 16.0948 17.8426 16.0948 20.0001C16.0948 22.1574 17.8436 23.9064 20.0011 23.9064C22.1584 23.9064 23.9074 22.1574 23.9074 20.0001Z" fill="#FCFCFC"/>
<path fill-rule="evenodd" clip-rule="evenodd" d="M19.6105 10.393C19.3736 10.3929 19.1539 10.3928 18.9498 10.3931V10.3902C16.7657 10.3926 16.3468 10.4073 15.2657 10.4561C14.1232 10.5086 13.5028 10.6991 13.0897 10.8602C12.5428 11.073 12.1522 11.327 11.742 11.7371C11.3318 12.1473 11.0775 12.5379 10.865 13.0848C10.7046 13.4979 10.5137 14.118 10.4614 15.2606C10.4053 16.496 10.394 16.8651 10.394 19.9945C10.394 23.124 10.4053 23.495 10.4614 24.7304C10.5134 25.873 10.7046 26.4931 10.865 26.9057C11.0779 27.4529 11.3318 27.8425 11.7419 28.2527C12.1521 28.6629 12.5428 28.9167 13.0896 29.1291C13.503 29.2896 14.1232 29.4805 15.2657 29.5332C16.501 29.5893 16.8719 29.6015 20.0011 29.6015C23.1301 29.6015 23.5011 29.5893 24.7365 29.5332C25.8791 29.4809 26.4997 29.2905 26.9123 29.1294C27.4595 28.9169 27.8489 28.6631 28.259 28.2529C28.6692 27.843 28.9236 27.4536 29.1359 26.9067C29.2964 26.4941 29.4873 25.8739 29.5395 24.7313C29.5957 23.4961 29.6079 23.1249 29.6079 19.9974C29.6079 16.8699 29.5957 16.4989 29.5395 15.2635C29.4875 14.1209 29.2964 13.5008 29.1359 13.0883C28.923 12.5414 28.6692 12.1508 28.259 11.7406C27.8491 11.3304 27.4592 11.0764 26.9123 10.8641C26.4992 10.7036 25.8791 10.5127 24.7365 10.4605C23.5009 10.4043 23.1301 10.3931 20.0011 10.3931C19.8658 10.3931 19.7358 10.393 19.6105 10.393ZM24.8503 13.7446C24.8503 12.9682 25.4802 12.3389 26.2565 12.3389C27.0329 12.3389 27.6628 12.9683 27.6628 13.7446C27.6628 14.521 27.0329 15.1509 26.2565 15.1509C25.4802 15.1509 24.8503 14.521 24.8503 13.7446ZM13.983 20.0001C13.983 16.6766 16.6775 13.9821 20.0008 13.982C23.3244 13.982 26.0183 16.6767 26.0183 20.0001C26.0183 23.3237 23.3246 26.017 20.0011 26.017C16.6776 26.017 13.983 23.3237 13.983 20.0001Z" fill="#FCFCFC"/>
<path fill-rule="evenodd" clip-rule="evenodd" d="M12.0312 5H27.9688C31.852 5 35 8.148 35 12.0312V27.9688C35 31.852 31.852 35 27.9688 35H12.0312C8.148 35 5 31.852 5 27.9688V12.0312C5 8.148 8.148 5 12.0312 5ZM15.1691 8.35203C16.419 8.2952 16.8185 8.28125 20.0011 8.28125H19.9974C23.1811 8.28125 23.579 8.2952 24.8291 8.35203C26.0766 8.4091 26.9287 8.60668 27.6758 8.8966C28.4472 9.19555 29.0991 9.59598 29.7509 10.2478C30.4029 10.8992 30.8032 11.553 31.1035 12.3239C31.3916 13.0689 31.5894 13.9204 31.648 15.168C31.7041 16.418 31.7188 16.8174 31.7188 20.0001C31.7188 23.1828 31.7041 23.5812 31.648 24.8312C31.5894 26.0783 31.3916 26.9301 31.1035 27.6755C30.8032 28.4461 30.4029 29.0998 29.7509 29.7512C29.0998 30.4031 28.447 30.8045 27.6765 31.1038C26.9308 31.3936 26.0783 31.591 24.8307 31.6482C23.5808 31.705 23.1826 31.719 19.9996 31.719C16.8172 31.719 16.418 31.705 15.168 31.6482C13.9207 31.591 13.0689 31.3936 12.3233 31.1038C11.553 30.8045 10.8992 30.4031 10.248 29.7512C9.59645 29.0998 9.19602 28.4461 8.89648 27.6752C8.60691 26.9301 8.40945 26.0785 8.35203 24.8309C8.29531 23.581 8.28125 23.1828 8.28125 20.0001C8.28125 16.8174 8.2959 16.4178 8.3518 15.1678C8.40793 13.9208 8.60563 13.0688 8.89625 12.3235C9.19648 11.553 9.59691 10.8992 10.2488 10.2478C10.9002 9.59621 11.5539 9.19578 12.3248 8.89648C13.0699 8.60668 13.9215 8.40922 15.1691 8.35203Z" fill="#FCFCFC"/>
</svg>
