<svg width="40" height="40" viewBox="0 0 40 40" fill="none" xmlns="http://www.w3.org/2000/svg">
<path d="M30.5614 30.5618H26.1164V23.6005C26.1164 21.9406 26.0867 19.8037 23.8045 19.8037C21.4893 19.8037 21.1351 21.6123 21.1351 23.4797V30.5614H16.6902V16.2462H20.9573V18.2025H21.0171C21.4441 17.4723 22.0612 16.8716 22.8026 16.4644C23.5441 16.0572 24.3821 15.8587 25.2274 15.8901C29.7326 15.8901 30.5633 18.8535 30.5633 22.7087L30.5614 30.5618ZM11.6745 14.2895C10.2499 14.2898 9.09476 13.135 9.09453 11.7103C9.0943 10.2857 10.2489 9.13058 11.6736 9.13035C13.0982 9.12999 14.2534 10.2848 14.2536 11.7094C14.2537 12.3936 13.9821 13.0497 13.4984 13.5336C13.0147 14.0175 12.3587 14.2894 11.6745 14.2895ZM13.8971 30.5619H9.44738V16.2462H13.897V30.5618L13.8971 30.5619ZM32.7774 5.00218H7.21379C6.00559 4.98859 5.01477 5.95644 5 7.16464V32.8349C5.0143 34.0437 6.005 35.0125 7.21367 34.9998H32.7774C33.9887 35.0148 34.9832 34.046 35 32.8349V7.16265C34.9828 5.9521 33.9881 4.98437 32.7774 5.00019" fill="#FCFCFC"/>
</svg>
