<svg width="198" height="54" viewBox="0 0 198 54" fill="none" xmlns="http://www.w3.org/2000/svg">
<path d="M129.835 16.4498C125.314 9.93434 118.617 5.89462 111.446 4.63018C104.27 3.36574 96.6182 4.87657 90.1954 9.46368C88.8326 10.436 87.5643 11.5219 86.4052 12.7037C85.2489 13.8841 84.1857 15.1765 83.2301 16.5679L80.3692 14.551C81.4266 13.0106 82.6236 11.5603 83.9413 10.2161C85.2547 8.87793 86.6786 7.65775 88.1941 6.57479C95.4038 1.42555 103.988 -0.271191 112.034 1.14669C120.087 2.56605 127.608 7.10152 132.684 14.4167L129.836 16.4483L129.835 16.4498Z" fill="#FCFCFC"/>
<path d="M76.7658 27.2117C78.2703 27.2117 79.49 25.9744 79.49 24.4482C79.49 22.922 78.2703 21.6847 76.7658 21.6847C75.2613 21.6847 74.0416 22.922 74.0416 24.4482C74.0416 25.9744 75.2613 27.2117 76.7658 27.2117Z" fill="#FCFCFC"/>
<path d="M163.58 31.4903C163.536 38.8314 163.275 46.1724 162.577 53.4692H169.073C169.116 44.5803 169.334 38.0353 169.901 31.4903H163.58Z" fill="#FCFCFC"/>
<path d="M169.901 27.7756L170.075 23.6186H163.798L163.711 27.7756H169.901Z" fill="#FCFCFC"/>
<path d="M6.88785 53.4692C7.06223 40.6445 7.41098 32.3748 8.0213 23.9724H1.17704C1.17704 35.0264 0.642139 43.406 0.10887 51.7601L0 53.4692H6.88785Z" fill="#FCFCFC"/>
<path d="M19.918 31.4903H13.8149C13.6841 40.0696 13.2481 46.7915 12.6378 53.4692H18.8718C18.8763 53.2619 18.8809 53.0081 18.8861 52.7156C18.9311 50.2004 19.0271 44.8307 19.6129 41.6616C20.2232 38.4776 22.0977 35.9126 25.5416 35.9126C28.724 35.9126 30.1626 37.4604 30.1626 40.6445C30.1626 44.8899 29.7267 49.2238 29.16 53.4692H35.6119C35.6119 49.4191 35.8394 45.5339 36.0166 42.508C36.1296 40.5784 36.2222 38.9973 36.2222 37.9469C36.2222 32.7728 32.7347 30.9597 28.1137 30.9597C24.5826 30.9597 21.6182 32.021 19.7872 35.0724H19.7001L19.918 31.4903Z" fill="#FCFCFC"/>
<path d="M41.87 31.4903H47.9731L47.7552 35.0724H47.8424C49.6733 32.021 52.6377 30.9597 56.1688 30.9597C60.7898 30.9597 64.2773 32.7728 64.2773 37.9469C64.2773 38.9973 64.1848 40.5773 64.0718 42.5069C63.8946 45.5328 63.667 49.4193 63.667 53.4692H57.2151C57.7818 49.2238 58.2177 44.8899 58.2177 40.6445C58.2177 37.4604 56.7791 35.9126 53.5968 35.9126C50.1528 35.9126 48.2783 38.4776 47.668 41.6616C47.0822 44.8307 46.9862 50.1997 46.9412 52.715C46.936 53.0073 46.9314 53.2619 46.9269 53.4692H40.6929C41.3033 46.7915 41.7392 40.0696 41.87 31.4903Z" fill="#FCFCFC"/>
<path d="M68.1377 43.0325C68.1377 36.0822 72.4599 31.6644 78.8651 31.0369V35.4623C75.4999 36.2365 74.1973 39.5653 74.1973 43.1652C74.1973 46.703 76.1154 49.666 79.8645 49.666C84.2239 49.666 86.0113 45.907 86.0113 41.9712C86.0113 39.5025 85.2817 37.334 83.597 36.1785V31.2638C88.7217 32.319 92.0708 36.0893 92.0708 42.1039C92.0708 46.3935 89.804 53.9998 79.7773 53.9998C70.9714 53.9998 68.1377 47.8086 68.1377 43.0325Z" fill="#FCFCFC"/>
<path d="M93.691 31.4903H99.9249L104.895 47.7202H104.982L111.172 31.4903H117.493C114.137 38.7429 110.911 46.0839 107.859 53.4692H101.276C99.5151 47.9438 97.5831 42.4927 95.6445 37.0233L95.6433 37.0198C94.9912 35.1799 94.3383 33.3379 93.691 31.4903Z" fill="#FCFCFC"/>
<path d="M129.339 31.0517C123.013 31.7312 118.756 36.1347 118.756 43.0325C118.756 47.8086 121.59 53.9998 130.396 53.9998C140.422 53.9998 142.689 46.3935 142.689 42.1039C142.689 36.0329 139.277 32.2484 134.071 31.2348V36.0832C135.858 37.2119 136.63 39.433 136.63 41.9712C136.63 45.907 134.842 49.666 130.483 49.666C126.734 49.666 124.816 46.703 124.816 43.1652C124.816 39.6174 126.081 36.3329 129.339 35.4975V31.0517Z" fill="#FCFCFC"/>
<path d="M159.872 31.4903L159.698 35.8242H154.249C154.223 36.3868 154.171 37.3674 154.109 38.5095C153.964 41.2279 153.769 44.8614 153.769 45.9513C153.769 47.8086 154.118 49.3122 156.036 49.3122C157.526 49.3122 158.252 49.1186 159.084 48.8968C159.226 48.8589 159.371 48.8202 159.524 48.7815L158.739 53.3365C157.126 53.7787 155.513 53.9998 153.856 53.9998C149.759 53.9998 147.71 52.6289 147.71 48.2951C147.71 46.0397 148.32 36.7971 148.407 35.8242H145.356L145.53 31.4903H148.756L148.974 27.466L154.598 26.2278L154.423 31.4903H159.872Z" fill="#FCFCFC"/>
<path fill-rule="evenodd" clip-rule="evenodd" d="M173.845 43.0325C173.845 35.5146 178.902 30.9597 186.182 30.9597C193.026 30.9597 197.778 34.9397 197.778 42.1039C197.778 46.3935 195.511 53.9998 185.484 53.9998C176.678 53.9998 173.845 47.8086 173.845 43.0325ZM191.718 41.9712C191.718 38.3007 190.105 35.2935 186.138 35.2935C181.604 35.2935 179.904 39.0525 179.904 43.1652C179.904 46.703 181.822 49.666 185.571 49.666C189.931 49.666 191.718 45.907 191.718 41.9712Z" fill="#FCFCFC"/>
<path d="M130.499 24.668C130.499 26.1943 129.279 27.4315 127.775 27.4315C126.27 27.4315 125.05 26.1943 125.05 24.668C125.05 23.1418 126.27 21.9046 127.775 21.9046C129.279 21.9046 130.499 23.1418 130.499 24.668Z" fill="#FCFCFC"/>
<path d="M86.1396 27.4315C87.6441 27.4315 88.8638 26.1943 88.8638 24.668C88.8638 23.1418 87.6441 21.9046 86.1396 21.9046C84.6351 21.9046 83.4155 23.1418 83.4155 24.668C83.4155 26.1943 84.6351 27.4315 86.1396 27.4315Z" fill="#FCFCFC"/>
<path d="M139.871 24.8893C139.871 26.4156 138.651 27.6528 137.147 27.6528C135.642 27.6528 134.423 26.4156 134.423 24.8893C134.423 23.3631 135.642 22.1259 137.147 22.1259C138.651 22.1259 139.871 23.3631 139.871 24.8893Z" fill="#FCFCFC"/>
<path d="M129.835 16.4498C125.314 9.93434 118.617 5.89462 111.446 4.63018C104.27 3.36574 96.6182 4.87657 90.1954 9.46368C88.8326 10.436 87.5643 11.5219 86.4052 12.7037C85.2489 13.8841 84.1857 15.1765 83.2301 16.5679L80.3692 14.551C81.4266 13.0106 82.6236 11.5603 83.9413 10.2161C85.2547 8.87793 86.6786 7.65775 88.1941 6.57479C95.4038 1.42555 103.988 -0.271191 112.034 1.14669C120.087 2.56605 127.608 7.10152 132.684 14.4167L129.836 16.4483L129.835 16.4498Z" fill="#FFCC00"/>
</svg>
