<svg width="40" height="40" viewBox="0 0 40 40" fill="none" xmlns="http://www.w3.org/2000/svg">
<path fill-rule="evenodd" clip-rule="evenodd" d="M12.0312 5H27.9688C31.852 5 35 8.148 35 12.0312V27.9688C35 31.852 31.852 35 27.9688 35H12.0312C8.148 35 5 31.852 5 27.9688V12.0312C5 8.148 8.148 5 12.0312 5ZM28.4002 16.2719C28.4002 16.0842 28.4002 15.8982 28.3873 15.7122C29.2348 15.0993 29.9661 14.3403 30.5469 13.4705C29.7574 13.821 28.9196 14.0507 28.0617 14.1518C28.965 13.6109 29.641 12.7603 29.9641 11.7583C29.1145 12.2623 28.1851 12.6176 27.2159 12.8089C25.5774 11.0668 22.8361 10.9828 21.093 12.6213C20.5406 13.1406 20.1343 13.7958 19.9146 14.5214C19.6949 15.247 19.6695 16.0175 19.8411 16.756C18.1205 16.67 16.4372 16.223 14.9005 15.4441C13.3639 14.6652 12.0083 13.5717 10.9218 12.2347C9.77363 14.2126 10.3598 16.7423 12.2613 18.0132C11.5727 17.9925 10.8991 17.8068 10.2972 17.4716V17.5264C10.2972 19.5866 11.7498 21.3604 13.7687 21.7684C13.1317 21.9424 12.4633 21.9679 11.8149 21.8429C12.0915 22.7027 12.6299 23.4546 13.3548 23.9934C14.0797 24.5322 14.9548 24.8311 15.8579 24.8482C14.3252 26.0521 12.4322 26.7058 10.4832 26.7043C10.1387 26.7035 9.79508 26.683 9.45312 26.6418C11.4323 27.9118 13.7352 28.5853 16.0868 28.5819V28.5854C24.047 28.5854 28.4002 21.9903 28.4002 16.2719Z" fill="#FCFCFC"/>
</svg>
