<svg xmlns="http://www.w3.org/2000/svg" width="24" height="24" viewBox="0 0 24 24" fill="none">
  <path d="M4.5 22V19.8947H9.85714V17.7895C8.375 17.7895 7.11143 17.2761 6.06643 16.2495C5.02143 15.2228 4.49929 13.9818 4.5 12.5263C4.5 11.4561 4.79929 10.4825 5.39786 9.60526C5.99643 8.72807 6.80429 8.08772 7.82143 7.68421C7.96429 7.08772 8.28143 6.60526 8.77286 6.23684C9.26429 5.86842 9.82214 5.68421 10.4464 5.68421L9.85714 4.05263L10.875 3.68421L10.5 2.73684L12.5357 2L12.8571 3L13.875 2.63158L16.8214 10.5263L15.8036 10.8947L16.1786 11.8947L14.1429 12.6316L13.8214 11.6316L12.8036 12L12.1607 10.2632C11.8929 10.5088 11.5846 10.693 11.2361 10.8158C10.8875 10.9386 10.535 10.9825 10.1786 10.9474C9.78571 10.9123 9.41964 10.7937 9.08036 10.5916C8.74107 10.3895 8.44643 10.1396 8.19643 9.84211C7.71429 10.1228 7.335 10.5 7.05857 10.9737C6.78214 11.4474 6.64357 11.9649 6.64286 12.5263C6.64286 13.4035 6.95536 14.1491 7.58036 14.7632C8.20536 15.3772 8.96429 15.6842 9.85714 15.6842H18.4286V17.7895H13.0714V19.8947H19.5V22H4.5ZM13.7679 9.94737L14.7321 9.57895L12.9107 4.63158L11.8929 5L13.7679 9.94737ZM10.3929 9.36842C10.6964 9.36842 10.9511 9.26737 11.1568 9.06526C11.3625 8.86316 11.465 8.61333 11.4643 8.31579C11.4643 8.01754 11.3614 7.76737 11.1557 7.56526C10.95 7.36316 10.6957 7.26246 10.3929 7.26316C10.0893 7.26316 9.83464 7.36421 9.62893 7.56632C9.42321 7.76842 9.32071 8.01825 9.32143 8.31579C9.32143 8.61404 9.42429 8.86421 9.63 9.06632C9.83571 9.26842 10.09 9.36912 10.3929 9.36842Z" fill="#FFCC00"/>
</svg>