<svg xmlns="http://www.w3.org/2000/svg" width="24" height="24" viewBox="0 0 24 24" fill="none">
  <path d="M17.7835 4.23035C16.7105 2.8962 15.1246 2.06597 13.4303 1.80988C11.7314 1.54966 9.91956 1.85944 8.39476 2.8012C8.07004 2.99946 7.77355 3.22251 7.49589 3.46621C7.22293 3.7099 6.9688 3.97426 6.7429 4.25926L6.06522 3.84621C6.31464 3.53229 6.59701 3.2349 6.91232 2.95815C7.22293 2.68554 7.56177 2.43358 7.91944 2.21054C9.62778 1.15726 11.6608 0.806169 13.5668 1.09943C15.4728 1.38857 17.2565 2.31793 18.4565 3.8173L17.7835 4.23448V4.23035Z" fill="#FFCC00"/>
  <path d="M9.38807 8.9844C10.3798 8.9844 11.1838 8.26539 11.1838 7.37844C11.1838 6.4915 10.3798 5.77249 9.38807 5.77249C8.39634 5.77249 7.59238 6.4915 7.59238 7.37844C7.59238 8.26539 8.39634 8.9844 9.38807 8.9844Z" fill="#FFCC00"/>
  <path d="M15.2975 9.27639C16.2893 9.27639 17.0932 8.55738 17.0932 7.67043C17.0932 6.78349 16.2893 6.06448 15.2975 6.06448C14.3058 6.06448 13.5019 6.78349 13.5019 7.67043C13.5019 8.55738 14.3058 9.27639 15.2975 9.27639Z" fill="#FFCC00"/>
  <path d="M12.2322 10.2692C7.6694 10.2692 4.5 12.786 4.5 16.94C4.5 19.579 6.27596 23 11.7951 23C18.0792 23 19.5 18.7971 19.5 16.4269C19.5 12.4683 16.5219 10.2692 12.2322 10.2692ZM12.2049 12.6638C14.6913 12.6638 15.7022 14.3254 15.7022 16.3536C15.7022 18.5283 14.582 20.6053 11.8497 20.6053C9.5 20.6053 8.29781 18.9682 8.29781 17.0133C8.29781 14.7408 9.36339 12.6638 12.2049 12.6638Z" fill="#FFCC00"/>
</svg>