<svg width="375" height="375" viewBox="0 0 375 375" fill="none" xmlns="http://www.w3.org/2000/svg">
<path d="M288.75 45C287.755 45 286.802 45.3951 286.098 46.0984C285.395 46.8016 285 47.7554 285 48.75C285 49.7446 285.395 50.6984 286.098 51.4016C286.802 52.1049 287.755 52.5 288.75 52.5C289.745 52.5 290.698 52.1049 291.402 51.4016C292.105 50.6984 292.5 49.7446 292.5 48.75C292.5 47.7554 292.105 46.8016 291.402 46.0984C290.698 45.3951 289.745 45 288.75 45Z" fill="#F1BC19"/>
<path d="M311.25 41.25C307.272 41.25 303.456 42.8304 300.643 45.6434C297.83 48.4564 296.25 52.2718 296.25 56.25C296.25 60.2282 297.83 64.0436 300.643 66.8566C303.456 69.6696 307.272 71.25 311.25 71.25C315.228 71.25 319.044 69.6696 321.857 66.8566C324.67 64.0436 326.25 60.2282 326.25 56.25C326.25 52.2718 324.67 48.4564 321.857 45.6434C319.044 42.8304 315.228 41.25 311.25 41.25Z" fill="#F1BC19"/>
<path d="M326.25 82.5C324.261 82.5 322.353 83.2902 320.947 84.6967C319.54 86.1032 318.75 88.0109 318.75 90C318.75 91.9891 319.54 93.8968 320.947 95.3033C322.353 96.7098 324.261 97.5 326.25 97.5C328.239 97.5 330.147 96.7098 331.553 95.3033C332.96 93.8968 333.75 91.9891 333.75 90C333.75 88.0109 332.96 86.1032 331.553 84.6967C330.147 83.2902 328.239 82.5 326.25 82.5Z" fill="#88AE45"/>
<path d="M303.75 277.5C301.761 277.5 299.853 278.29 298.447 279.697C297.04 281.103 296.25 283.011 296.25 285C296.25 286.989 297.04 288.897 298.447 290.303C299.853 291.71 301.761 292.5 303.75 292.5C305.739 292.5 307.647 291.71 309.053 290.303C310.46 288.897 311.25 286.989 311.25 285C311.25 283.011 310.46 281.103 309.053 279.697C307.647 278.29 305.739 277.5 303.75 277.5ZM56.25 221.25C52.2718 221.25 48.4564 222.83 45.6434 225.643C42.8304 228.456 41.25 232.272 41.25 236.25C41.25 240.228 42.8304 244.044 45.6434 246.857C48.4564 249.67 52.2718 251.25 56.25 251.25C60.2282 251.25 64.0436 249.67 66.8566 246.857C69.6696 244.044 71.25 240.228 71.25 236.25C71.25 232.272 69.6696 228.456 66.8566 225.643C64.0436 222.83 60.2282 221.25 56.25 221.25Z" fill="#FBCD59"/>
<path d="M93.75 318.75C91.7609 318.75 89.8532 319.54 88.4467 320.947C87.0402 322.353 86.25 324.261 86.25 326.25C86.25 328.239 87.0402 330.147 88.4467 331.553C89.8532 332.96 91.7609 333.75 93.75 333.75C95.7391 333.75 97.6468 332.96 99.0533 331.553C100.46 330.147 101.25 328.239 101.25 326.25C101.25 324.261 100.46 322.353 99.0533 320.947C97.6468 319.54 95.7391 318.75 93.75 318.75Z" fill="#88AE45"/>
<path d="M69.375 183.75C66.8886 183.75 64.504 184.738 62.7459 186.496C60.9877 188.254 60 190.639 60 193.125C60 195.611 60.9877 197.996 62.7459 199.754C64.504 201.512 66.8886 202.5 69.375 202.5C71.8614 202.5 74.246 201.512 76.0041 199.754C77.7623 197.996 78.75 195.611 78.75 193.125C78.75 190.639 77.7623 188.254 76.0041 186.496C74.246 184.738 71.8614 183.75 69.375 183.75ZM298.125 120C296.633 120 295.202 120.593 294.148 121.648C293.093 122.702 292.5 124.133 292.5 125.625C292.5 127.117 293.093 128.548 294.148 129.602C295.202 130.657 296.633 131.25 298.125 131.25C299.617 131.25 301.048 130.657 302.102 129.602C303.157 128.548 303.75 127.117 303.75 125.625C303.75 124.133 303.157 122.702 302.102 121.648C301.048 120.593 299.617 120 298.125 120Z" fill="white"/>
<path d="M100.125 235.125H128.625V271.125H100.125V235.125Z" fill="#39C2D8"/>
<path d="M126 237.75V268.5H102.75V237.75H126ZM131.25 232.5H97.5V273.75H131.25V232.5Z" fill="#FFCC00"/>
<path d="M148.875 205.125H177.375V271.125H148.875V205.125Z" fill="#39C2D8"/>
<path d="M174.75 207.75V268.5H151.5V207.75H174.75ZM180 202.5H146.25V273.75H180V202.5Z" fill="#FFCC00"/>
<path d="M197.625 171.375H226.125V271.125H197.625V171.375Z" fill="#39C2D8"/>
<path d="M223.5 174V268.5H200.25V174H223.5ZM228.75 168.75H195V273.75H228.75V168.75Z" fill="#FFCC00"/>
<path d="M246.375 137.625H274.875V271.125H246.375V137.625Z" fill="#39C2D8"/>
<path d="M272.25 140.25V268.5H249V140.25H272.25ZM277.5 135H243.75V273.75H277.5V135Z" fill="#FFCC00"/>
<path d="M166.875 273.75C165.84 273.75 165 272.91 165 271.875V228.75C165 227.715 165.84 226.875 166.875 226.875C167.91 226.875 168.75 227.715 168.75 228.75V271.875C168.75 272.91 167.91 273.75 166.875 273.75Z" fill="#FFCC00"/>
<path d="M256.875 225C255.84 225 255 224.16 255 223.125V140.625C255 139.59 255.84 138.75 256.875 138.75C257.91 138.75 258.75 139.59 258.75 140.625V223.125C258.75 224.16 257.91 225 256.875 225Z" fill="#FFCC00"/>
<path d="M256.875 247.5C255.84 247.5 255 246.66 255 245.625V234.375C255 233.34 255.84 232.5 256.875 232.5C257.91 232.5 258.75 233.34 258.75 234.375V245.625C258.75 246.66 257.91 247.5 256.875 247.5Z" fill="#FFCC00"/>
<path d="M256.875 262.5C255.84 262.5 255 261.66 255 260.625V253.125C255 252.09 255.84 251.25 256.875 251.25C257.91 251.25 258.75 252.09 258.75 253.125V260.625C258.75 261.66 257.91 262.5 256.875 262.5Z" fill="#FFCC00"/>
<path d="M166.875 221.25C165.84 221.25 165 220.41 165 219.375V208.125C165 207.09 165.84 206.25 166.875 206.25C167.91 206.25 168.75 207.09 168.75 208.125V219.375C168.75 220.41 167.91 221.25 166.875 221.25Z" fill="#FFCC00"/>
<path d="M112.5 197.145C111.784 197.145 111.064 196.853 110.546 196.275C109.575 195.195 109.669 193.538 110.745 192.57L225.12 89.925C226.196 88.9575 227.854 89.04 228.825 90.1238C229.796 91.2038 229.703 92.8612 228.626 93.8287L114.251 196.474C113.753 196.924 113.126 197.145 112.5 197.145Z" fill="#FFCC00"/>
<path d="M226.875 124.5C225.424 124.5 224.25 123.326 224.25 121.875V94.5H198.518C197.066 94.5 195.893 93.3263 195.893 91.875C195.893 90.4238 197.066 89.25 198.518 89.25H226.875C228.326 89.25 229.5 90.4238 229.5 91.875V121.875C229.5 123.326 228.326 124.5 226.875 124.5Z" fill="#FFCC00"/>
</svg>
