<svg width="327" height="136" viewBox="0 0 327 136" fill="none" xmlns="http://www.w3.org/2000/svg">
<g clip-path="url(#clip0_445_10443)">
<path d="M48.8839 6.52115C48.8801 6.51992 48.8767 6.51758 48.8741 6.51443C48.8716 6.51127 48.8701 6.50745 48.8697 6.50343C48.8693 6.49941 48.8702 6.49537 48.8721 6.49181C48.874 6.48826 48.8769 6.48535 48.8805 6.48344C51.6599 4.85372 54.4519 3.23201 57.2565 1.6183C58.3262 1.00572 59.1068 0.645724 59.5982 0.538295C62.5845 -0.109705 64.8302 3.29144 63.1262 5.82172C62.8291 6.26058 62.2816 6.7143 61.4839 7.18287C59.7171 8.22058 57.9845 9.22401 56.2862 10.1932C56.1767 10.2563 56.0519 10.2881 55.9255 10.2851C55.7991 10.282 55.676 10.2443 55.5696 10.176C53.4256 8.80229 51.1971 7.58401 48.8839 6.52115Z" fill="#A3A3A3"/>
<path d="M86.2673 7.94943L74.0346 0.858357C72.4193 -0.0779831 70.3508 0.472399 69.4145 2.08767L69.3251 2.24191C68.3887 3.85718 68.9391 5.92567 70.5544 6.86201L82.7871 13.9531C84.4024 14.8894 86.4709 14.339 87.4072 12.7238L87.4966 12.5695C88.433 10.9543 87.8826 8.88577 86.2673 7.94943Z" fill="#A3A3A3"/>
<path d="M108.572 12.336L103.501 12.2914C103.348 12.2892 103.271 12.2114 103.271 12.0583V10.6286C103.271 10.5143 103.329 10.4572 103.443 10.4572H110.65C110.814 10.4572 110.9 10.5394 110.907 10.704C111.147 16.1349 107.379 19.464 102.246 18.768C93.8908 17.64 93.0988 5.87316 101.187 3.47316C103.261 2.85945 107.441 3.26402 108.946 5.44459C109.003 5.52459 108.995 5.59888 108.922 5.66745L107.825 6.69602C107.759 6.75601 107.674 6.78987 107.586 6.79113C107.497 6.7924 107.411 6.76098 107.345 6.70288C102.997 2.91774 96.9834 6.35316 97.7446 11.9417C98.588 18.1235 107.999 18.8469 108.726 12.5074C108.738 12.3954 108.686 12.3383 108.572 12.336Z" fill="#A3A3A3"/>
<path d="M112.958 3.44915C112.958 3.39459 112.979 3.34227 113.018 3.30369C113.056 3.26511 113.109 3.24344 113.163 3.24344H118.227C120.129 3.24344 121.952 4.00129 123.297 5.35026C124.641 6.69924 125.396 8.52884 125.396 10.4366V11.2526C125.396 13.1603 124.641 14.9899 123.297 16.3389C121.952 17.6879 120.129 18.4457 118.227 18.4457H113.163C113.109 18.4457 113.056 18.4241 113.018 18.3855C112.979 18.3469 112.958 18.2946 112.958 18.24V3.44915ZM115.118 5.25601V16.4263C115.118 16.4781 115.138 16.5278 115.175 16.5645C115.211 16.6011 115.261 16.6217 115.313 16.6217H117.847C119.278 16.6217 120.651 16.0593 121.663 15.0582C122.675 14.0571 123.243 12.6992 123.243 11.2834V10.3989C123.243 8.98307 122.675 7.62525 121.663 6.62413C120.651 5.62301 119.278 5.06058 117.847 5.06058H115.313C115.261 5.06058 115.211 5.08117 115.175 5.11782C115.138 5.15447 115.118 5.20418 115.118 5.25601Z" fill="#A3A3A3"/>
<path d="M139.8 12.36L134.722 12.3051C134.692 12.3047 134.663 12.2985 134.636 12.2868C134.609 12.2751 134.585 12.2583 134.564 12.2372C134.544 12.2162 134.528 12.1913 134.517 12.1641C134.507 12.1369 134.502 12.108 134.503 12.0789L134.537 10.6354C134.538 10.5878 134.557 10.5425 134.591 10.5092C134.625 10.4758 134.671 10.4571 134.719 10.4571H141.932C141.993 10.4571 142.052 10.4806 142.096 10.5228C142.14 10.5649 142.166 10.6225 142.169 10.6834C142.34 14.7771 140.623 17.3966 137.016 18.5417C135.97 18.8743 133.765 18.9326 132.661 18.6309C124.837 16.4811 124.673 5.23544 132.757 3.46286C135.297 2.90744 137.676 3.39429 139.896 4.92344C139.964 4.96954 140.02 5.03018 140.062 5.10098C140.103 5.17179 140.128 5.25101 140.136 5.33295C140.143 5.4149 140.132 5.49754 140.103 5.57493C140.075 5.65232 140.03 5.72255 139.971 5.78058L138.984 6.75772C138.885 6.85372 138.785 6.85715 138.682 6.76801C134.581 3.24001 128.818 5.78058 128.935 11.1429C129.085 18.048 139.121 19.1417 139.94 12.5211C139.954 12.4137 139.907 12.36 139.8 12.36Z" fill="#A3A3A3"/>
<path d="M153 3.25372L155.249 3.26058C155.273 3.26045 155.296 3.26761 155.316 3.28109C155.335 3.29458 155.35 3.31374 155.359 3.33601L160.906 18.2709C160.913 18.2886 160.915 18.3076 160.913 18.3264C160.91 18.3451 160.903 18.3631 160.893 18.3786C160.882 18.3941 160.867 18.4068 160.851 18.4155C160.834 18.4242 160.815 18.4287 160.796 18.4286H158.698C158.674 18.4287 158.651 18.4216 158.631 18.4081C158.612 18.3946 158.597 18.3754 158.588 18.3532L157.234 14.592C157.226 14.5696 157.212 14.5501 157.193 14.536C157.174 14.522 157.151 14.514 157.128 14.5132L151.183 14.3863C151.159 14.3862 151.135 14.3933 151.116 14.4068C151.096 14.4203 151.081 14.4395 151.073 14.4617L149.667 18.3532C149.659 18.3754 149.644 18.3946 149.624 18.4081C149.604 18.4216 149.581 18.4287 149.557 18.4286H147.425C147.406 18.4287 147.387 18.4242 147.37 18.4155C147.354 18.4068 147.339 18.3941 147.329 18.3786C147.318 18.3631 147.311 18.3451 147.309 18.3264C147.306 18.3076 147.308 18.2886 147.315 18.2709L152.89 3.32915C152.898 3.30688 152.913 3.28772 152.933 3.27424C152.953 3.26075 152.976 3.25359 153 3.25372ZM151.769 12.5246C151.763 12.5421 151.761 12.5608 151.764 12.5791C151.766 12.5974 151.773 12.6148 151.784 12.6299C151.795 12.6449 151.809 12.6572 151.825 12.6658C151.842 12.6743 151.86 12.6788 151.879 12.6789L156.363 12.6857C156.382 12.6856 156.4 12.6811 156.416 12.6726C156.433 12.6641 156.447 12.6518 156.458 12.6367C156.468 12.6216 156.475 12.6042 156.478 12.5859C156.481 12.5676 156.479 12.5489 156.473 12.5314L154.241 6.06858C154.233 6.04585 154.219 6.02607 154.199 6.01194C154.18 5.99782 154.156 5.99004 154.132 5.98966C154.108 5.98928 154.085 5.99634 154.065 6.00985C154.045 6.02336 154.03 6.04268 154.021 6.06515L151.769 12.5246Z" fill="#A3A3A3"/>
<path d="M163.358 6.17145C164.176 6.17145 164.839 5.50832 164.839 4.69031C164.839 3.8723 164.176 3.20917 163.358 3.20917C162.54 3.20917 161.876 3.8723 161.876 4.69031C161.876 5.50832 162.54 6.17145 163.358 6.17145Z" fill="#A3A3A3"/>
<path d="M179.52 9.30171C180.128 8.55886 180.913 8.12914 181.875 8.01257C187.957 7.27543 186.709 13.8549 186.655 18.264C186.655 18.3737 186.6 18.4286 186.49 18.4286H184.632C184.513 18.4286 184.453 18.3691 184.453 18.2503C184.437 16.1886 184.431 14.1349 184.433 12.0891C184.436 10.0766 182.383 9.15086 180.792 10.2343C178.882 11.5406 179.29 15.2983 179.479 18.24C179.485 18.3657 179.426 18.4286 179.3 18.4286H177.531C177.392 18.4286 177.322 18.36 177.322 18.2229L177.271 3.50057C177.271 3.33828 177.352 3.25714 177.514 3.25714H179.225C179.344 3.25714 179.403 3.31771 179.403 3.43886L179.379 9.25028C179.377 9.40114 179.424 9.41828 179.52 9.30171Z" fill="#A3A3A3"/>
<path d="M62.0317 14.9369L49.7865 7.86717C48.1696 6.93365 46.1021 7.48764 45.1686 9.10454L45.0795 9.25894C44.1459 10.8758 44.6999 12.9434 46.3168 13.8769L58.5619 20.9466C60.1788 21.8801 62.2464 21.3261 63.1799 19.7092L63.269 19.5548C64.2025 17.9379 63.6486 15.8704 62.0317 14.9369Z" fill="#A3A3A3"/>
<path d="M166.467 9.54514C168.754 7.17943 173.797 7.15543 175.035 10.5463C175.686 12.3326 175.319 15.8571 175.409 18.2023C175.415 18.3531 175.343 18.4286 175.193 18.4286H173.519C173.463 18.4286 173.409 18.4068 173.369 18.3678C173.329 18.3287 173.305 18.2755 173.303 18.2194L173.293 17.616C173.292 17.5902 173.283 17.5654 173.268 17.5446C173.253 17.5238 173.232 17.508 173.208 17.4992C173.183 17.4904 173.157 17.489 173.132 17.4951C173.107 17.5013 173.084 17.5147 173.067 17.5337C170.807 20.1634 165.229 18.5829 166.155 14.544C166.827 11.6194 170.945 11.5509 173.19 12.3257C173.213 12.3332 173.237 12.3348 173.261 12.3303C173.284 12.3258 173.306 12.3155 173.324 12.3002C173.342 12.285 173.356 12.2654 173.363 12.2434C173.371 12.2214 173.373 12.1978 173.369 12.1749C172.919 9.51429 170.211 9.22629 168.305 10.7931C168.263 10.828 168.211 10.8485 168.157 10.8515C168.102 10.8546 168.048 10.8402 168.003 10.8103L166.501 9.84343C166.369 9.75657 166.357 9.65714 166.467 9.54514ZM168.678 14.496C166.594 16.4571 171.682 18.5966 173.283 14.8217C173.306 14.7666 173.319 14.7074 173.319 14.6474C173.32 14.5875 173.309 14.5279 173.286 14.4722C173.263 14.4165 173.23 14.3657 173.188 14.3227C173.145 14.2797 173.095 14.2454 173.039 14.2217C171.798 13.6937 169.717 13.5189 168.678 14.496Z" fill="#A3A3A3"/>
<path d="M162.226 19.584C162.249 15.9154 162.253 12.24 162.24 8.55773C162.237 8.39544 162.317 8.3143 162.48 8.3143H164.194C164.331 8.3143 164.4 8.38287 164.4 8.52001C164.388 12.344 164.36 16.1612 164.314 19.9714C164.284 22.3463 163.005 23.4034 160.477 23.1429C160.153 23.1109 160.029 22.936 160.107 22.6183L160.422 21.3189C160.427 21.2977 160.436 21.2777 160.449 21.2601C160.461 21.2424 160.477 21.2274 160.495 21.2159C160.513 21.2045 160.534 21.1968 160.555 21.1932C160.576 21.1897 160.597 21.1905 160.618 21.1954C162.054 21.5383 162.219 20.7669 162.226 19.584Z" fill="#A3A3A3"/>
<path d="M83.6155 15.2434C83.6239 15.2477 83.6311 15.2537 83.6365 15.2609C83.6419 15.268 83.6453 15.2762 83.6464 15.2846C83.6578 15.3532 83.6327 15.4046 83.5709 15.4389C80.8098 17.0503 78.0395 18.6492 75.2601 20.2354C74.0395 20.9303 73.1092 21.2949 72.4692 21.3292C69.7024 21.4697 67.9127 18.4149 69.3972 16.1074C70.4532 14.4686 74.5675 12.624 76.3401 11.6332C76.4556 11.5684 76.5867 11.537 76.7187 11.5424C76.8507 11.5479 76.9784 11.59 77.0875 11.664C79.0784 12.992 81.2544 14.1852 83.6155 15.2434Z" fill="#A3A3A3"/>
</g>
<g clip-path="url(#clip1_445_10443)">
<path d="M228.046 0H229.332C233.386 0.589714 236.081 2.62629 237.416 6.10971C239.813 12.3737 235.191 18.8777 228.564 18.9223C226.913 18.9314 225.414 18.5429 224.065 17.7566C215.782 12.9189 218.6 1.03543 228.046 0ZM225.937 10.4777C226.961 10.7726 227.986 10.7669 229.013 10.4606C229.127 10.4286 229.212 10.464 229.266 10.5669C230.153 12.1989 231.406 12.7691 233.024 12.2777C236.778 11.136 235.037 5.59886 231.361 6.528C229.876 6.90286 229.108 7.94171 229.057 9.64457C229.053 9.768 228.99 9.84457 228.869 9.87429C227.904 10.1143 226.943 10.1109 225.985 9.864C225.938 9.85172 225.895 9.82565 225.862 9.78906C225.829 9.75247 225.807 9.70698 225.8 9.65829C225.481 7.41257 222.557 7.368 222.084 9.32572C221.518 11.6606 224.514 12.4834 225.684 10.5737C225.743 10.4777 225.828 10.4457 225.937 10.4777Z" fill="#A3A3A3"/>
<path d="M244.317 15.0994L251.504 15.0788C251.534 15.0788 251.564 15.0849 251.592 15.0967C251.62 15.1085 251.645 15.1258 251.666 15.1475C251.687 15.1693 251.704 15.195 251.715 15.2233C251.726 15.2515 251.731 15.2817 251.73 15.312C251.713 16.2445 251.966 17.6743 250.708 17.7017C247.6 17.7634 244.491 17.7714 241.382 17.7257C241.261 17.7234 241.201 17.6617 241.201 17.5405C241.217 13.2343 241.222 8.94398 241.218 4.66969C241.214 2.85598 242.552 2.92798 244.067 3.02398C244.165 3.02855 244.214 3.08112 244.214 3.18169V14.9965C244.214 15.0238 244.225 15.05 244.245 15.0693C244.264 15.0886 244.29 15.0994 244.317 15.0994Z" fill="#A3A3A3"/>
<path d="M225.684 10.5737C224.514 12.4834 221.518 11.6605 222.084 9.32569C222.557 7.36798 225.481 7.41255 225.8 9.65826C225.807 9.70696 225.829 9.75245 225.862 9.78904C225.895 9.82563 225.938 9.85169 225.985 9.86398C226.943 10.1108 227.904 10.1143 228.869 9.87426C228.99 9.84455 229.053 9.76798 229.057 9.64455C229.108 7.94169 229.876 6.90283 231.361 6.52798C235.037 5.59883 236.778 11.136 233.024 12.2777C231.406 12.7691 230.153 12.1988 229.266 10.5668C229.212 10.464 229.127 10.4285 229.013 10.4605C227.986 10.7668 226.961 10.7725 225.937 10.4777C225.828 10.4457 225.743 10.4777 225.684 10.5737Z" fill="black"/>
<path d="M275.84 17.8046C276.066 19.536 276.203 22.3097 274.763 23.5029C274.32 23.8709 273.865 23.8834 273.398 23.5406C273.309 23.4766 273.264 23.3886 273.261 23.2766C273.179 19.0411 273.106 14.8103 273.042 10.584C273.028 9.56686 273.117 8.86629 273.309 8.48229C273.707 7.69371 274.476 7.40114 275.617 7.60457C275.729 7.62286 275.784 7.68914 275.781 7.80343L275.768 8.83886C275.765 8.99429 275.814 9.01257 275.915 8.89372C278.524 5.856 282.738 7.33371 283.458 11.0606C284.205 14.9417 282.779 18.8811 278.147 18.768C277.331 18.7497 276.59 18.4149 275.925 17.7634C275.857 17.6949 275.828 17.7086 275.84 17.8046ZM278.781 9.82286C275.294 8.89371 274.64 15.6411 277.818 16.2446C281.315 16.9097 281.682 10.5943 278.781 9.82286Z" fill="#A3A3A3"/>
<path d="M262.18 11.3966C262.182 11.4095 262.189 11.4212 262.199 11.4299C262.209 11.4386 262.221 11.4438 262.234 11.4446C262.247 11.4454 262.26 11.4418 262.271 11.4343C262.282 11.4268 262.289 11.416 262.293 11.4034C263.507 8.04343 266.881 6.21257 270.059 8.15657C274.393 10.8137 272.774 17.8183 267.608 18.0103C265.057 18.1063 263.058 16.4331 262.338 14.0229C262.294 13.8811 262.251 13.8811 262.208 14.0229C261.6 15.9223 260.48 17.144 258.848 17.688C253.396 19.5086 249.621 12.7303 253.629 8.80457C256.52 5.976 261.165 7.65257 262.18 11.3966ZM258.93 12.8537C260.626 13.5234 262.318 13.5131 264.008 12.8229C264.138 12.7703 264.218 12.8126 264.248 12.9497C264.824 15.5829 267.453 16.7863 269.531 15.0274C271.005 13.7829 270.762 11.0606 269.099 10.0629C267.23 8.94172 265.084 9.85029 264.34 11.8869C264.301 11.992 264.23 12.0686 264.128 12.1166C262.352 12.9531 260.57 12.9634 258.782 12.1474C258.402 11.9726 258.388 11.5749 257.977 11.3691C256.862 10.8103 255.683 11.4 255.604 12.6514C255.491 14.4617 258.196 14.952 258.686 12.9806C258.721 12.8457 258.802 12.8034 258.93 12.8537Z" fill="#A3A3A3"/>
</g>
<g clip-path="url(#clip2_445_10443)">
<path d="M25.2711 63.0423C25.245 63.0382 25.2208 63.0259 25.2019 63.0074C25.1831 62.9888 25.1705 62.9648 25.1659 62.9387C25.1614 62.9126 25.1651 62.8858 25.1766 62.8619C25.1881 62.8381 25.2068 62.8184 25.23 62.8057C28.1923 61.0914 31.1694 59.3714 34.1614 57.6457C35.2037 57.0446 35.9774 56.688 36.4826 56.576C39.8117 55.8389 42.27 59.816 40.0757 62.4114C39.7328 62.816 39.0528 63.312 38.0357 63.8994C36.326 64.8891 34.6071 65.8617 32.8791 66.8171C32.7763 66.8743 32.6734 66.8743 32.5706 66.8171C30.6323 65.7497 28.7031 64.672 26.7831 63.584C26.3306 63.328 25.8266 63.1474 25.2711 63.0423Z" fill="#A3A3A3"/>
<path d="M64.7596 64.3922L51.8078 56.9145C50.0991 55.9279 47.9141 56.5134 46.9276 58.2221L46.835 58.3824C45.8485 60.0912 46.4339 62.2761 48.1427 63.2627L61.0944 70.7404C62.8032 71.7269 64.9881 71.1415 65.9747 69.4327L66.0672 69.2724C67.0538 67.5637 66.4683 65.3787 64.7596 64.3922Z" fill="#A3A3A3"/>
<path d="M88.3506 69.032L82.8992 68.9154C82.7666 68.9131 82.7003 68.8457 82.7003 68.7131V67.3143C82.7003 67.1428 82.786 67.0571 82.9575 67.0571H90.5689C90.6877 67.0571 90.7506 67.1154 90.7575 67.232C91.0432 71.5177 89.3037 74.2777 85.5392 75.512C84.3323 75.9063 82.1037 75.9783 80.8317 75.6628C71.1083 73.2388 73.114 58.8251 83.554 59.4388C85.6272 59.56 87.3552 60.2834 88.738 61.6091C88.76 61.6307 88.7773 61.6566 88.789 61.6852C88.8006 61.7137 88.8062 61.7443 88.8056 61.7752C88.805 61.806 88.798 61.8364 88.7852 61.8644C88.7724 61.8924 88.754 61.9176 88.7312 61.9383L87.4626 63.0834C87.3803 63.1588 87.2935 63.1623 87.202 63.0937C84.354 60.9063 81.698 60.7531 79.234 62.6343C77.0946 64.2663 76.2546 67.0983 77.0603 69.6114C78.8569 75.2103 87.2466 75.5737 88.5152 69.2343C88.5403 69.1017 88.4855 69.0343 88.3506 69.032Z" fill="#A3A3A3"/>
<path d="M92.9962 59.6686C92.9962 59.5958 93.0251 59.5261 93.0765 59.4746C93.128 59.4232 93.1977 59.3943 93.2705 59.3943L98.4373 59.4011C99.4562 59.4029 100.465 59.6059 101.405 59.9983C102.346 60.3907 103.2 60.965 103.92 61.6884C104.639 62.4117 105.209 63.2699 105.597 64.2141C105.985 65.1582 106.184 66.1697 106.182 67.1909V67.7257C106.179 69.788 105.358 71.7644 103.9 73.2202C102.443 74.6759 100.468 75.4916 98.4099 75.488L93.243 75.4811C93.1703 75.4811 93.1005 75.4522 93.0491 75.4008C92.9976 75.3494 92.9688 75.2796 92.9688 75.2069L92.9962 59.6686ZM95.2899 61.4446L95.3105 73.4583C95.3105 73.4883 95.3224 73.5171 95.3436 73.5383C95.3648 73.5595 95.3936 73.5714 95.4236 73.5714L98.1493 73.568C98.9021 73.5667 99.6473 73.4167 100.342 73.1267C101.037 72.8366 101.668 72.4122 102.2 71.8777C102.731 71.3431 103.152 70.7089 103.439 70.0112C103.726 69.3135 103.873 68.566 103.872 67.8114V67.064C103.869 65.54 103.262 64.0795 102.185 63.0038C101.108 61.9281 99.6491 61.3253 98.1288 61.328L95.403 61.3314C95.373 61.3314 95.3442 61.3434 95.323 61.3646C95.3018 61.3858 95.2899 61.4146 95.2899 61.4446Z" fill="#A3A3A3"/>
<path d="M107.869 69.7863C106.861 65.7954 108.675 61.4446 112.721 60.008C115.676 58.9588 118.576 59.3326 121.419 61.1291C121.505 61.1832 121.576 61.2563 121.629 61.3427C121.682 61.4291 121.714 61.5265 121.723 61.6274C121.732 61.7282 121.718 61.8298 121.681 61.9241C121.644 62.0185 121.586 62.1031 121.512 62.1714L120.414 63.176C120.392 63.1965 120.366 63.2123 120.337 63.2225C120.309 63.2328 120.279 63.2373 120.249 63.2357C120.218 63.2341 120.189 63.2264 120.162 63.2132C120.135 63.2 120.112 63.1815 120.092 63.1588C118.206 60.944 114.812 60.9543 112.707 62.3017C106.827 66.0697 110.605 75.5977 117.74 73.6434C119.88 73.056 121.141 71.5886 121.525 69.2411C121.548 69.1131 121.493 69.0468 121.361 69.0423L116.009 68.9188C115.977 68.9184 115.945 68.9117 115.916 68.899C115.886 68.8864 115.86 68.868 115.838 68.8451C115.815 68.8222 115.798 68.7951 115.786 68.7654C115.774 68.7357 115.768 68.704 115.769 68.672L115.789 67.376C115.792 67.1634 115.899 67.0571 116.112 67.0571H123.668C123.715 67.0571 123.761 67.0751 123.795 67.1077C123.83 67.1402 123.851 67.1847 123.853 67.232C124.089 71.4423 122.373 74.192 118.707 75.4811C117.442 75.9268 114.956 75.9988 113.633 75.6011C110.533 74.6686 108.612 72.7303 107.869 69.7863Z" fill="#A3A3A3"/>
<path d="M139.258 66.9714C139.23 66.9862 139.206 67.0087 139.189 67.0362C139.173 67.0637 139.164 67.0952 139.164 67.127C139.165 67.1588 139.174 67.1897 139.191 67.2161C139.208 67.2426 139.233 67.2635 139.261 67.2766C142.573 68.8228 142.282 73.4411 139.224 74.9051C137.245 75.8548 133.299 75.464 130.772 75.4537C130.707 75.4528 130.645 75.4264 130.6 75.3802C130.554 75.334 130.529 75.2717 130.529 75.2068V59.6823C130.529 59.6243 130.551 59.5687 130.591 59.5271C130.63 59.4855 130.684 59.4612 130.741 59.4594C132.943 59.3908 136.957 59 138.833 59.9668C141.469 61.3314 142.241 65.4286 139.258 66.9714ZM132.829 61.4L132.843 66.2206C132.843 66.2303 132.845 66.24 132.849 66.2489C132.853 66.2579 132.858 66.266 132.865 66.2727C132.872 66.2795 132.881 66.2847 132.89 66.2881C132.899 66.2915 132.909 66.293 132.919 66.2926L136.213 66.2823C136.915 66.2793 137.587 66.0328 138.082 65.5969C138.576 65.1609 138.852 64.5713 138.85 63.9577V63.6217C138.849 63.3177 138.779 63.017 138.645 62.7366C138.511 62.4563 138.315 62.2019 138.068 61.988C137.821 61.774 137.528 61.6047 137.207 61.4897C136.885 61.3747 136.54 61.3162 136.193 61.3177L132.898 61.328C132.879 61.3289 132.862 61.3368 132.849 61.3503C132.836 61.3637 132.829 61.3815 132.829 61.4ZM132.836 68.2846V73.4891C132.836 73.5146 132.846 73.539 132.864 73.557C132.882 73.575 132.907 73.5851 132.932 73.5851H136.344C137.143 73.5851 137.91 73.3149 138.475 72.834C139.04 72.353 139.357 71.7007 139.357 71.0206V70.7531C139.357 70.073 139.04 69.4207 138.475 68.9397C137.91 68.4588 137.143 68.1886 136.344 68.1886H132.932C132.907 68.1886 132.882 68.1987 132.864 68.2167C132.846 68.2347 132.836 68.2591 132.836 68.2846Z" fill="#A3A3A3"/>
<path d="M168.473 62.4834C169.323 62.4834 170.012 61.7942 170.012 60.944C170.012 60.0938 169.323 59.4046 168.473 59.4046C167.622 59.4046 166.933 60.0938 166.933 60.944C166.933 61.7942 167.622 62.4834 168.473 62.4834Z" fill="#A3A3A3"/>
<path d="M39.116 71.7901L26.1713 64.2864C24.466 63.2978 22.2821 63.8789 21.2935 65.5842L21.1972 65.7504C20.2087 67.4557 20.7898 69.6396 22.4951 70.6282L35.4398 78.1319C37.1451 79.1205 39.329 78.5394 40.3176 76.834L40.4139 76.6679C41.4024 74.9625 40.8214 72.7787 39.116 71.7901Z" fill="#A3A3A3"/>
<path d="M149.344 75.824C141.722 76.9314 140.286 65.6548 147.143 64.4994C151.586 63.7485 153.167 66.3474 153.654 70.1223C153.659 70.1676 153.655 70.2137 153.642 70.2574C153.629 70.3012 153.606 70.3416 153.576 70.376C153.546 70.4103 153.509 70.4379 153.467 70.4568C153.426 70.4757 153.38 70.4856 153.335 70.4857H145.284C145.248 70.4859 145.213 70.4937 145.18 70.5086C145.147 70.5235 145.118 70.5452 145.094 70.5721C145.07 70.5991 145.053 70.6307 145.042 70.6649C145.032 70.699 145.029 70.735 145.034 70.7703C145.408 73.5851 148.511 74.8263 150.756 73.0537C151.003 72.8571 151.256 72.6708 151.514 72.4948C151.603 72.4331 151.699 72.4217 151.802 72.4605L153.324 73.0503C153.347 73.059 153.367 73.0727 153.384 73.0903C153.4 73.108 153.413 73.1291 153.42 73.1521C153.427 73.1752 153.429 73.1996 153.426 73.2235C153.422 73.2474 153.413 73.2702 153.4 73.2903C152.395 74.7611 151.137 75.5634 149.344 75.824ZM145.353 68.6103L151.202 68.5897C151.205 68.5897 151.207 68.5886 151.209 68.5867C151.211 68.5847 151.212 68.5821 151.212 68.5794V68.5554C151.21 67.9681 150.903 67.406 150.359 66.9926C149.814 66.5792 149.077 66.3483 148.308 66.3508H148.233C147.852 66.3521 147.476 66.4106 147.125 66.5231C146.773 66.6356 146.454 66.7999 146.186 67.0065C145.918 67.2132 145.705 67.4581 145.56 67.7274C145.416 67.9967 145.342 68.285 145.343 68.576V68.6C145.343 68.6013 145.343 68.6027 145.343 68.6039C145.344 68.6052 145.345 68.6063 145.346 68.6073C145.347 68.6082 145.348 68.609 145.349 68.6095C145.35 68.61 145.352 68.6103 145.353 68.6103Z" fill="#A3A3A3"/>
<path d="M157.511 65.7543C159.223 64.2388 161.166 63.9623 163.34 64.9245C165.798 66.0114 165.236 73.0983 165.098 75.2685C165.092 75.3943 165.025 75.4571 164.9 75.4571H163.021C162.972 75.4571 162.925 75.438 162.89 75.4039C162.855 75.3698 162.836 75.3236 162.836 75.2754C162.838 73.2983 162.857 71.3337 162.894 69.3817C162.976 64.8731 157.504 65.5623 157.466 69.8C157.446 72.3348 157.446 74.152 157.466 75.2514C157.469 75.3885 157.401 75.4571 157.264 75.4571H155.385C155.271 75.4571 155.214 75.4 155.214 75.2857V64.976C155.214 64.9238 155.234 64.8738 155.271 64.8366C155.307 64.7994 155.357 64.778 155.409 64.7771L157.168 64.736C157.193 64.7355 157.217 64.74 157.24 64.7491C157.263 64.7582 157.284 64.7717 157.301 64.789C157.319 64.8062 157.333 64.8268 157.342 64.8495C157.352 64.8722 157.357 64.8965 157.357 64.9211V65.6823C157.357 65.8217 157.408 65.8457 157.511 65.7543Z" fill="#A3A3A3"/>
<path d="M179.653 68.8606C179.691 65.1029 174.37 65.6891 174.349 69.5429C174.338 71.456 174.33 73.3703 174.325 75.2857C174.323 75.4 174.265 75.4571 174.15 75.4571H172.313C172.171 75.4571 172.1 75.3851 172.1 75.2411L172.093 64.9554C172.093 64.8046 172.169 64.7303 172.32 64.7326L174.068 64.7669C174.097 64.7676 174.125 64.7743 174.151 64.7866C174.177 64.799 174.2 64.8166 174.219 64.8383C174.237 64.8601 174.251 64.8855 174.258 64.9127C174.266 64.94 174.268 64.9686 174.264 64.9966L174.147 65.7646C174.143 65.7869 174.147 65.8097 174.157 65.8296C174.168 65.8495 174.184 65.8656 174.205 65.8755C174.226 65.8854 174.249 65.8886 174.272 65.8847C174.295 65.8808 174.316 65.87 174.332 65.8537C175.464 64.6811 176.836 64.1931 178.45 64.3897C180.843 64.6811 181.782 66.2 181.885 68.5383C181.981 70.7897 182.004 73.04 181.954 75.2891C181.952 75.4011 181.894 75.4571 181.782 75.4571H179.821C179.777 75.4571 179.735 75.4395 179.704 75.4081C179.672 75.3767 179.654 75.334 179.653 75.2891C179.63 73.136 179.63 70.9931 179.653 68.8606Z" fill="#A3A3A3"/>
<path d="M169.388 64.7926L167.413 64.8029C167.349 64.8033 167.297 64.8557 167.297 64.9201L167.352 75.3428C167.352 75.4072 167.404 75.4591 167.469 75.4588L169.444 75.4485C169.508 75.4481 169.56 75.3957 169.56 75.3313L169.505 64.9086C169.505 64.8442 169.452 64.7923 169.388 64.7926Z" fill="#A3A3A3"/>
<path d="M60.9075 71.7303C61.1269 71.8606 61.6961 71.9909 61.9635 72.0389C61.9848 72.042 62.0046 72.0518 62.0201 72.0668C62.0356 72.0818 62.0459 72.1013 62.0497 72.1225C62.0535 72.1438 62.0505 72.1656 62.0412 72.1851C62.0319 72.2045 62.0167 72.2205 61.9978 72.2309C59.3601 73.76 56.7349 75.2754 54.1224 76.7772C52.4698 77.728 51.5555 78.2354 51.3795 78.2994C48.0572 79.5474 44.8755 75.8103 47.0115 72.8377C47.3384 72.3829 47.9566 71.888 48.8664 71.3532C50.6744 70.2949 52.4915 69.2572 54.3178 68.24C54.4184 68.1852 54.5189 68.1829 54.6195 68.2332C56.7475 69.3349 58.8435 70.5006 60.9075 71.7303Z" fill="#A3A3A3"/>
</g>
<g clip-path="url(#clip3_445_10443)">
<path d="M222.008 69.8617L222.018 69.2754C222.02 69.1589 222.08 69.1006 222.196 69.1006L234.964 69.1212C235.17 69.1212 235.252 69.2229 235.211 69.4263C233.589 77.552 224.185 79.5646 218.325 74.3429C218.303 74.3229 218.287 74.2966 218.28 74.2675C218.273 74.2384 218.275 74.2079 218.286 74.18C218.297 74.1521 218.316 74.1281 218.341 74.1113C218.365 74.0944 218.395 74.0855 218.425 74.0857H226.557C226.729 74.0857 226.814 74.1714 226.814 74.3429V74.7886C226.814 74.8234 226.823 74.8578 226.84 74.8882C226.856 74.9187 226.881 74.9444 226.911 74.9627C226.94 74.9809 226.974 74.9912 227.009 74.9926C227.044 74.9939 227.078 74.9862 227.109 74.9703L231.076 72.9577C231.106 72.9431 231.13 72.9203 231.147 72.8921C231.164 72.8638 231.173 72.8313 231.171 72.7984C231.17 72.7655 231.16 72.7336 231.141 72.7065C231.122 72.6795 231.096 72.6583 231.066 72.6457C229.774 72.1017 228.502 71.4789 227.25 70.7772C227.065 70.6743 226.942 70.6674 226.883 70.7566C226.826 70.8457 226.803 71.0023 226.814 71.2263C226.826 71.4754 226.706 71.6 226.454 71.6H216.704C216.65 71.6001 216.598 71.5838 216.553 71.5533C216.508 71.5227 216.474 71.4793 216.453 71.4286C215.512 69.0606 215.51 66.6892 216.45 64.3143C216.496 64.2 216.579 64.1429 216.7 64.1429H226.492C226.629 64.1429 226.725 64.2046 226.78 64.328C226.853 64.4949 226.838 64.6549 226.736 64.808C226.714 64.84 226.704 64.8782 226.707 64.9165C226.709 64.9549 226.724 64.9914 226.75 65.0203C226.775 65.0492 226.809 65.0689 226.847 65.0764C226.885 65.0839 226.924 65.0787 226.958 65.0617L231.124 62.9977C231.139 62.9903 231.152 62.9787 231.161 62.9644C231.171 62.9501 231.176 62.9335 231.176 62.9165C231.176 62.8995 231.172 62.8827 231.163 62.868C231.155 62.8533 231.142 62.8413 231.128 62.8332L227.078 60.7452C226.902 60.6537 226.814 60.7074 226.814 60.9063V61.3863C226.814 61.5463 226.733 61.6263 226.571 61.6263L218.521 61.6434C218.301 61.6434 218.27 61.5669 218.428 61.4137C224.264 55.7909 233.603 58.4137 235.242 66.4846C235.26 66.5783 235.221 66.6252 235.125 66.6252L222.265 66.6354C222.098 66.6354 222.014 66.552 222.014 66.3852V65.936C222.015 65.9039 222.007 65.8723 221.991 65.8441C221.976 65.8159 221.954 65.7921 221.927 65.7749C221.9 65.7577 221.868 65.7478 221.836 65.746C221.804 65.7442 221.772 65.7506 221.744 65.7646L217.664 67.7463C217.517 67.8172 217.517 67.8903 217.664 67.9657L221.733 70.0263C221.762 70.0408 221.793 70.0479 221.825 70.0468C221.857 70.0457 221.889 70.0365 221.916 70.02C221.943 70.0036 221.966 69.9804 221.982 69.9527C221.998 69.925 222.007 69.8937 222.008 69.8617Z" fill="#A3A3A3"/>
<path d="M278.97 63.1931L278.991 59.3668C278.991 59.2548 279.048 59.2 279.162 59.2023L281.024 59.2297C281.122 59.2297 281.171 59.28 281.171 59.3806L281.161 70.8286C281.161 70.9063 281.123 70.936 281.048 70.9177C280.554 70.7874 280.057 70.8 279.556 70.9554C279.524 70.9649 279.491 70.967 279.458 70.9613C279.425 70.9557 279.394 70.9426 279.367 70.923C279.34 70.9035 279.318 70.8779 279.303 70.8485C279.288 70.819 279.279 70.7864 279.279 70.7531L279.268 70.1977C279.267 70.1522 279.253 70.1079 279.228 70.07C279.202 70.0322 279.167 70.0023 279.125 69.984C279.083 69.9656 279.037 69.9596 278.992 69.9664C278.947 69.9733 278.905 69.9929 278.871 70.0229C277.396 71.3097 275.953 71.456 274.54 70.4617C272.953 69.344 272.949 67.3246 273.104 65.5211C273.351 62.5554 276.57 61.0468 278.744 63.2823C278.892 63.4354 278.968 63.4057 278.97 63.1931ZM277.107 69.3234C277.352 69.3239 277.596 69.2554 277.822 69.1219C278.049 68.9884 278.256 68.7925 278.43 68.5455C278.604 68.2984 278.742 68.005 278.836 67.6819C278.931 67.3589 278.98 67.0125 278.98 66.6627C278.981 65.9561 278.786 65.2782 278.436 64.778C278.087 64.2778 277.612 63.9963 277.116 63.9954C276.871 63.995 276.628 64.0635 276.401 64.197C276.174 64.3304 275.968 64.5263 275.794 64.7734C275.62 65.0204 275.482 65.3139 275.387 65.6369C275.293 65.96 275.244 66.3063 275.243 66.6562C275.242 67.3627 275.438 68.0406 275.787 68.5408C276.137 69.041 276.611 69.3226 277.107 69.3234Z" fill="#A3A3A3"/>
<path d="M243.796 66.5188C243.606 64.5714 244.062 62.7874 245.164 61.1668C245.219 61.0851 245.299 61.0234 245.393 60.9907C245.486 60.958 245.587 60.9562 245.681 60.9854C245.775 61.0146 245.857 61.0734 245.916 61.153C245.974 61.2326 246.005 61.3288 246.004 61.4274L245.99 66.4674C245.99 66.4937 245.996 66.5196 246.006 66.5438C246.016 66.568 246.031 66.5898 246.05 66.6081C246.069 66.6263 246.091 66.6406 246.116 66.65C246.14 66.6594 246.166 66.6638 246.193 66.6628L247.18 66.6217C247.336 66.6171 247.411 66.6925 247.406 66.848L247.379 67.9965C247.376 68.1073 247.33 68.2126 247.253 68.2909C247.175 68.3693 247.071 68.4148 246.961 68.4183L246.176 68.4457C246.032 68.4525 245.962 68.5268 245.966 68.6685L246.032 70.7223C246.036 70.8365 245.981 70.8914 245.867 70.8868L243.944 70.8045C243.838 70.8 243.786 70.7463 243.786 70.6434V68.864C243.786 68.7521 243.741 68.6449 243.662 68.5658C243.583 68.4867 243.476 68.4423 243.364 68.4423L239.058 68.4217C238.914 68.4217 238.833 68.3508 238.814 68.2091C238.705 67.3383 238.92 66.4594 239.459 65.5725C240.394 64.0343 241.149 62.112 241.725 59.8057C241.76 59.6685 241.848 59.6 241.989 59.6H243.872C244.038 59.6 244.1 59.6811 244.057 59.8434C243.405 62.2708 242.301 64.2423 240.916 66.44C240.841 66.5588 240.874 66.6205 241.016 66.6251L243.642 66.6868C243.756 66.6891 243.808 66.6331 243.796 66.5188Z" fill="#A3A3A3"/>
<path d="M251.809 61.8286H248.524C248.495 61.8286 248.467 61.817 248.447 61.7964C248.426 61.7759 248.415 61.748 248.415 61.7189V59.9566C248.415 59.9275 248.426 59.8996 248.447 59.879C248.467 59.8584 248.495 59.8469 248.524 59.8469L257.733 59.84C257.763 59.84 257.79 59.8516 257.811 59.8721C257.832 59.8927 257.843 59.9206 257.843 59.9497V61.7223C257.843 61.7514 257.832 61.7793 257.811 61.7999C257.79 61.8204 257.763 61.832 257.733 61.832L254.439 61.8286C254.409 61.8286 254.382 61.8401 254.361 61.8607C254.34 61.8813 254.329 61.9092 254.329 61.9383V70.7566C254.329 70.7857 254.317 70.8136 254.297 70.8341C254.276 70.8547 254.248 70.8663 254.219 70.8663L252.042 70.8354C252.013 70.8354 251.985 70.8239 251.964 70.8033C251.944 70.7827 251.932 70.7548 251.932 70.7257L251.919 61.9383C251.919 61.9092 251.907 61.8813 251.886 61.8607C251.866 61.8401 251.838 61.8286 251.809 61.8286Z" fill="#A3A3A3"/>
<path d="M260.301 63.5154C260.84 62.5326 261.67 62.1188 262.79 62.2743C262.851 62.2831 262.91 62.3049 262.962 62.3384C263.015 62.3719 263.059 62.4163 263.093 62.4685C263.127 62.5208 263.149 62.5797 263.158 62.6414C263.167 62.7031 263.164 62.7661 263.147 62.8263C263.026 63.2583 263.027 63.688 263.15 64.1154C263.187 64.2366 263.144 64.3188 263.023 64.3623C261.909 64.7668 260.644 64.232 260.442 65.9463C260.327 66.9086 260.3 68.488 260.359 70.6846C260.364 70.8103 260.302 70.8708 260.174 70.8663L258.426 70.8114C258.259 70.8068 258.175 70.7211 258.175 70.5543L258.189 62.6411C258.19 62.5844 258.213 62.5304 258.252 62.4906C258.292 62.4509 258.346 62.4286 258.402 62.4286H259.814C259.882 62.4286 259.948 62.4556 259.996 62.5039C260.044 62.5521 260.071 62.6175 260.071 62.6857V63.4571C260.072 63.4838 260.082 63.5095 260.099 63.5303C260.115 63.5511 260.138 63.5659 260.164 63.5724C260.19 63.579 260.217 63.577 260.242 63.5667C260.267 63.5564 260.287 63.5384 260.301 63.5154Z" fill="#A3A3A3"/>
<path d="M269.079 70.0503C264.255 74.1269 259.876 65.6137 268.698 65.7817C268.801 65.784 268.867 65.736 268.897 65.6377C269.528 63.6457 266.891 63.1829 266.195 64.7326C266.145 64.8423 266.059 64.8983 265.938 64.9006L264.22 64.9417C264.088 64.944 264.018 64.8789 264.011 64.7463C263.864 61.8183 268.441 62.0103 270.111 62.8263C271.684 63.5977 271.235 66.7006 271.204 68.6994C271.195 69.2251 271.503 69.4457 272.127 69.3611C272.152 69.3577 272.178 69.3598 272.202 69.3672C272.227 69.3746 272.249 69.3871 272.268 69.4041C272.288 69.421 272.303 69.4418 272.313 69.4652C272.324 69.4885 272.329 69.5139 272.329 69.5394V70.5714C272.329 70.6221 272.314 70.6718 272.286 70.7145C272.258 70.7571 272.218 70.7908 272.171 70.8114C270.962 71.3257 269.987 71.0789 269.247 70.0709C269.237 70.0577 269.226 70.0466 269.212 70.0383C269.198 70.03 269.183 70.0248 269.167 70.0228C269.151 70.0209 269.135 70.0223 269.12 70.027C269.105 70.0318 269.09 70.0397 269.079 70.0503ZM268.338 67.112L266.099 67.6297C266.045 67.6422 265.993 67.6654 265.947 67.6979C265.902 67.7304 265.863 67.7715 265.834 67.819C265.804 67.8664 265.784 67.9193 265.775 67.9744C265.766 68.0296 265.768 68.0861 265.78 68.1406L265.811 68.2811C265.855 68.469 265.935 68.6464 266.047 68.8033C266.159 68.9601 266.302 69.0933 266.466 69.1952C266.63 69.2971 266.812 69.3657 267.003 69.3971C267.194 69.4285 267.389 69.4221 267.577 69.3783L267.776 69.3337C267.964 69.2904 268.142 69.2104 268.3 69.0983C268.457 68.9863 268.591 68.8443 268.694 68.6807C268.796 68.517 268.865 68.3348 268.897 68.1444C268.929 67.9541 268.923 67.7594 268.88 67.5714L268.845 67.4309C268.82 67.3215 268.752 67.2266 268.657 67.1668C268.562 67.1071 268.447 67.0874 268.338 67.112Z" fill="#A3A3A3"/>
<path d="M285.117 67.3417C285.148 69.0148 286.619 70.0674 288.21 69.1485C288.336 69.0759 288.431 68.9588 288.477 68.8194C288.806 67.8 289.569 67.5028 290.764 67.928C290.846 67.9571 290.914 68.0154 290.955 68.0914C290.997 68.1675 291.008 68.2559 290.987 68.3394C290.113 72.0251 284.123 72.0148 283.081 68.5451C282.103 65.288 283.334 62.0891 287.246 62.2811C290.356 62.4354 290.795 64.2217 291.001 66.8034C291.021 67.0685 290.898 67.2 290.63 67.1977L285.319 67.1394C285.182 67.1371 285.115 67.2045 285.117 67.3417ZM285.381 65.8057L288.46 65.744C288.483 65.7435 288.506 65.7386 288.527 65.7294C288.548 65.7202 288.567 65.7069 288.583 65.6903C288.599 65.6738 288.611 65.6543 288.619 65.6329C288.628 65.6115 288.632 65.5887 288.631 65.5657L288.628 65.4217C288.619 65.007 288.437 64.6127 288.12 64.3254C287.803 64.0382 287.378 63.8812 286.938 63.8891H286.835C286.616 63.8934 286.401 63.9382 286.2 64.021C286 64.1038 285.819 64.2229 285.667 64.3716C285.516 64.5203 285.397 64.6957 285.317 64.8876C285.237 65.0796 285.199 65.2844 285.203 65.4903V65.6343C285.203 65.6572 285.208 65.6799 285.218 65.7009C285.227 65.722 285.24 65.741 285.257 65.7569C285.273 65.7728 285.293 65.7853 285.314 65.7937C285.335 65.8021 285.358 65.8061 285.381 65.8057Z" fill="#A3A3A3"/>
<path d="M294.827 63.5189C295.451 62.6309 296.075 61.9589 297.344 62.3326C297.38 62.344 297.413 62.3663 297.437 62.3968C297.462 62.4273 297.477 62.4646 297.481 62.504L297.638 64.1977C297.641 64.2222 297.638 64.2469 297.63 64.2703C297.622 64.2937 297.61 64.3153 297.593 64.3336C297.576 64.352 297.556 64.3668 297.533 64.377C297.51 64.3872 297.485 64.3927 297.46 64.3931C296.061 64.4137 294.899 64.712 294.889 66.2857C294.88 67.7669 294.873 69.248 294.868 70.7291C294.868 70.8297 294.818 70.8777 294.717 70.8731L292.804 70.808C292.697 70.8057 292.643 70.7509 292.643 70.6434V62.696C292.643 62.5177 292.732 62.4286 292.91 62.4286H294.299C294.434 62.4286 294.509 62.4949 294.525 62.6274L294.638 63.4743C294.661 63.648 294.724 63.6629 294.827 63.5189Z" fill="#A3A3A3"/>
<path d="M302.14 68.0343L300.47 70.7737C300.46 70.7906 300.445 70.8045 300.428 70.8141C300.41 70.8237 300.391 70.8287 300.371 70.8286H298.06C298.039 70.8283 298.018 70.8221 298 70.8107C297.982 70.7994 297.967 70.7833 297.958 70.7641C297.948 70.745 297.944 70.7237 297.946 70.7024C297.947 70.6811 297.955 70.6607 297.968 70.6434L300.889 66.5806C300.903 66.5606 300.911 66.5366 300.911 66.512C300.911 66.4874 300.903 66.4634 300.889 66.4434L298.204 62.6137C298.191 62.5962 298.184 62.5755 298.182 62.5539C298.181 62.5323 298.185 62.5107 298.195 62.4915C298.205 62.4722 298.22 62.4562 298.239 62.4451C298.257 62.434 298.279 62.4283 298.3 62.4286H300.752C300.772 62.4282 300.793 62.4335 300.811 62.4437C300.829 62.454 300.844 62.4689 300.854 62.4869L302.298 64.9691C302.308 64.987 302.323 65.0018 302.341 65.012C302.358 65.0223 302.379 65.0278 302.399 65.0278C302.42 65.0278 302.44 65.0223 302.457 65.012C302.475 65.0018 302.49 64.987 302.5 64.9691L304.005 62.4834C304.016 62.4666 304.031 62.4527 304.048 62.4431C304.065 62.4335 304.085 62.4285 304.105 62.4286H306.398C306.42 62.4289 306.441 62.4351 306.459 62.4464C306.477 62.4578 306.492 62.4739 306.501 62.493C306.511 62.5121 306.515 62.5335 306.513 62.5548C306.511 62.576 306.504 62.5964 306.491 62.6137L303.748 66.4091C303.734 66.4291 303.726 66.4531 303.726 66.4777C303.726 66.5024 303.734 66.5264 303.748 66.5463L306.68 70.6914C306.692 70.7089 306.7 70.7297 306.702 70.7512C306.703 70.7728 306.699 70.7945 306.689 70.8137C306.679 70.8329 306.664 70.849 306.645 70.8601C306.627 70.8712 306.605 70.8769 306.584 70.8766L304.156 70.8629C304.136 70.863 304.117 70.858 304.099 70.8484C304.082 70.8388 304.067 70.8249 304.057 70.808L302.339 68.0343C302.329 68.0173 302.314 68.0032 302.297 67.9934C302.279 67.9837 302.26 67.9786 302.24 67.9786C302.22 67.9786 302.2 67.9837 302.183 67.9934C302.165 68.0032 302.151 68.0173 302.14 68.0343Z" fill="#A3A3A3"/>
<path d="M258.998 73.6743L258.984 73.6743C258.872 73.6745 258.782 73.7652 258.782 73.8769L258.789 77.9089C258.789 78.0207 258.88 78.1111 258.992 78.1109L259.005 78.1108C259.117 78.1106 259.208 78.0199 259.207 77.9082L259.2 73.8762C259.2 73.7645 259.109 73.6741 258.998 73.6743Z" fill="#A3A3A3"/>
<path d="M262.496 75.0354L263.613 75.1726C263.652 75.1769 263.689 75.1916 263.72 75.215C263.752 75.2385 263.776 75.27 263.792 75.3063L264.529 77.0686C264.545 77.1093 264.574 77.1443 264.61 77.169C264.646 77.1937 264.689 77.2071 264.733 77.2074C264.777 77.2078 264.821 77.1951 264.857 77.171C264.894 77.1469 264.923 77.1125 264.94 77.072L265.791 75.104C265.81 75.061 265.842 75.0243 265.882 74.9982C265.922 74.9722 265.968 74.9577 266.017 74.9566H266.123C266.256 74.9566 266.296 75.0171 266.243 75.1383L264.405 79.3211C264.368 79.4075 264.307 79.4817 264.23 79.5357C264.153 79.5896 264.062 79.6212 263.968 79.6269C263.874 79.6325 263.78 79.6121 263.697 79.5678C263.614 79.5236 263.545 79.4572 263.497 79.376L263.425 79.256C263.361 79.1486 263.389 79.0777 263.511 79.0434C265.105 78.584 263.857 76.7086 263.517 75.728C263.479 75.6183 263.405 75.5394 263.298 75.4914C262.978 75.3428 262.692 75.3806 262.441 75.6046C262.399 75.6423 262.365 75.6886 262.342 75.7406C262.319 75.7926 262.307 75.8491 262.307 75.9063L262.29 77.9703C262.29 78.0021 262.282 78.0334 262.266 78.0611C262.25 78.0889 262.228 78.1122 262.2 78.129C262.173 78.1458 262.142 78.1554 262.109 78.157C262.077 78.1586 262.045 78.1522 262.016 78.1383L261.868 78.0663C261.819 78.0432 261.778 78.0041 261.754 77.9555C261.73 77.9068 261.723 77.8515 261.735 77.7988C261.911 76.9851 261.841 76.216 261.525 75.4914C261.48 75.384 261.479 75.2754 261.522 75.1657L262.005 73.9863C262.036 73.9138 262.094 73.856 262.167 73.8251C262.521 73.6766 262.881 73.6697 263.247 73.8046C263.274 73.8163 263.297 73.8373 263.311 73.8639C263.325 73.8906 263.329 73.9213 263.323 73.9508C263.317 73.9803 263.301 74.0068 263.278 74.0258C263.254 74.0447 263.225 74.055 263.195 74.0548C262.781 74.0388 262.468 74.1897 262.256 74.5074C262.224 74.5562 262.204 74.6123 262.2 74.6704C262.195 74.7286 262.205 74.7868 262.229 74.8397C262.253 74.8926 262.29 74.9383 262.337 74.9726C262.384 75.0068 262.438 75.0285 262.496 75.0354Z" fill="#A3A3A3"/>
<path d="M244.622 77.3531C245.528 77.5691 245.805 77.8537 246.793 77.576C246.904 77.5442 247.002 77.4774 247.073 77.3856C247.144 77.2938 247.183 77.1817 247.185 77.0659C247.188 76.95 247.153 76.8365 247.086 76.7419C247.019 76.6474 246.923 76.5768 246.813 76.5406L244.962 75.9406C244.877 75.9138 244.804 75.8595 244.753 75.7863C243.635 74.1989 246.066 73.4206 247.286 74.1474C247.398 74.2137 247.462 74.2903 247.478 74.3771C247.49 74.4434 247.482 74.5029 247.454 74.5554C247.443 74.5764 247.427 74.5948 247.408 74.6094C247.39 74.624 247.368 74.6346 247.345 74.6404C247.322 74.6462 247.299 74.6471 247.275 74.6431C247.252 74.6391 247.23 74.6303 247.211 74.6171C246.493 74.1349 245.845 74.104 245.267 74.5246C244.936 74.7646 244.868 75.0274 245.065 75.3131C245.37 75.7623 246.594 75.9714 247.108 76.0914C247.222 76.1166 247.308 76.1794 247.365 76.28C248.6 78.3989 245.531 78.2171 244.496 77.7063C244.453 77.6861 244.42 77.6511 244.402 77.6078C244.385 77.5646 244.383 77.5163 244.399 77.4724C244.415 77.4284 244.447 77.3918 244.488 77.3698C244.529 77.3478 244.577 77.3418 244.622 77.3531Z" fill="#A3A3A3"/>
<path d="M248.415 73.8868C248.421 73.8651 248.432 73.8454 248.448 73.8295C248.464 73.8137 248.484 73.8023 248.506 73.7964C248.528 73.7905 248.551 73.7904 248.573 73.796C248.594 73.8017 248.614 73.8129 248.631 73.8286L248.929 74.1268C249.077 74.2777 249.048 74.3668 248.84 74.3943L248.487 74.4423C248.322 74.4651 248.264 74.3966 248.312 74.2366L248.415 73.8868Z" fill="#A3A3A3"/>
<path d="M266.991 74.4388C267.153 74.4388 267.286 74.3068 267.286 74.144C267.286 73.9811 267.153 73.8491 266.991 73.8491C266.828 73.8491 266.696 73.9811 266.696 74.144C266.696 74.3068 266.828 74.4388 266.991 74.4388Z" fill="#A3A3A3"/>
<path d="M260.27 74.4269C260.426 74.4683 260.581 74.392 260.617 74.2566C260.653 74.1212 260.556 73.9779 260.401 73.9365C260.245 73.8951 260.09 73.9713 260.054 74.1068C260.018 74.2422 260.115 74.3855 260.27 74.4269Z" fill="#A3A3A3"/>
<path d="M300.189 75.7657V77.4183C300.189 77.4534 300.196 77.4882 300.209 77.5206C300.223 77.5531 300.242 77.5826 300.267 77.6074C300.291 77.6322 300.32 77.6519 300.352 77.6654C300.384 77.6788 300.419 77.6857 300.453 77.6857H300.786C300.809 77.6857 300.831 77.6903 300.852 77.6991C300.873 77.7079 300.892 77.7208 300.908 77.7371C300.924 77.7534 300.937 77.7727 300.945 77.7939C300.954 77.8151 300.958 77.8378 300.957 77.8606C300.957 77.8903 300.957 77.92 300.957 77.9497C300.953 78.0594 300.896 78.1143 300.786 78.1143H300.326C300.218 78.1144 300.112 78.0896 300.015 78.0417C299.918 77.9938 299.833 77.9242 299.767 77.8383C299.702 77.7524 299.657 77.6524 299.636 77.5463C299.615 77.4401 299.619 77.3306 299.648 77.2263C299.858 76.4537 299.683 75.8171 299.123 75.3166C299.102 75.2981 299.086 75.2738 299.078 75.2468C299.07 75.2197 299.07 75.1909 299.078 75.1638C299.086 75.1367 299.102 75.1125 299.123 75.094C299.144 75.0755 299.17 75.0635 299.198 75.0594C299.571 74.9954 299.747 74.7497 299.726 74.3223C299.725 74.2847 299.735 74.2475 299.754 74.2155C299.774 74.1835 299.803 74.1581 299.837 74.1426C299.871 74.1271 299.91 74.1222 299.947 74.1286C299.984 74.135 300.018 74.1523 300.045 74.1783C300.169 74.2971 300.198 74.4857 300.134 74.744C300.121 74.7963 300.128 74.8518 300.155 74.8987C300.182 74.9455 300.226 74.9798 300.278 74.9943L300.806 75.1451C300.85 75.1566 300.872 75.1851 300.872 75.2309V75.3714C300.872 75.4857 300.814 75.5429 300.7 75.5429H300.412C300.353 75.5429 300.296 75.5663 300.255 75.6081C300.213 75.6499 300.189 75.7066 300.189 75.7657Z" fill="#A3A3A3"/>
<path d="M248.682 75.0579L248.6 75.0554C248.498 75.0524 248.413 75.1328 248.41 75.235L248.331 77.8944C248.328 77.9966 248.408 78.0819 248.51 78.085L248.592 78.0874C248.695 78.0904 248.78 78.0101 248.783 77.9078L248.862 75.2484C248.865 75.1462 248.785 75.0609 248.682 75.0579Z" fill="#A3A3A3"/>
<path d="M253.722 78.1006C254.078 77.1497 254.042 76.4571 253.612 76.0228L253.245 75.536C253.184 75.456 253.106 75.4331 253.012 75.4674C251.747 75.9337 252.429 77.048 252.22 77.9874C252.211 78.0465 252.179 78.0996 252.131 78.1358C252.083 78.172 252.024 78.1885 251.964 78.1819C251.905 78.1753 251.85 78.146 251.812 78.1003C251.773 78.0545 251.754 77.9957 251.757 77.936V76.2217C251.757 76.0983 251.717 75.9908 251.637 75.8994C251.374 75.5954 251.042 75.512 250.64 75.6491C250.507 75.6948 250.434 75.7874 250.42 75.9268L250.225 78.1006C250.222 78.1469 250.202 78.1905 250.167 78.2217C250.133 78.2529 250.088 78.2691 250.041 78.2668C249.995 78.2646 249.951 78.244 249.92 78.2096C249.889 78.1752 249.873 78.1298 249.875 78.0834L249.872 75.2583C249.872 75.1188 249.939 75.0674 250.074 75.104L250.434 75.1966C250.523 75.2194 250.609 75.2103 250.691 75.1691C251.173 74.9314 251.636 74.9817 252.08 75.32C252.118 75.3482 252.164 75.3629 252.211 75.3617C252.258 75.3604 252.302 75.3433 252.337 75.3131C252.526 75.1486 252.706 75.0571 252.875 75.0388C254.634 74.8434 254.274 76.7668 254.198 77.8468C254.194 77.9383 254.147 77.9954 254.058 78.0183L253.722 78.1006Z" fill="#A3A3A3"/>
<path d="M255.635 75.2926L255.745 75.7829C255.049 77.5863 257.027 78.4812 257.387 76.9966C257.531 76.4046 257.435 75.9417 257.099 75.608C256.818 75.3292 256.525 75.3143 256.221 75.5634L255.995 75.536C255.915 75.5269 255.873 75.4812 255.868 75.3989C255.866 75.3669 255.867 75.3326 255.872 75.296C257.788 73.6949 259.328 78.56 256.002 78.0972C255.913 78.0834 255.869 78.032 255.872 77.9429C255.872 77.904 255.873 77.8674 255.875 77.8332C255.88 77.6846 255.83 77.664 255.728 77.7714C255.686 77.8126 255.653 77.8663 255.628 77.9326C255.488 78.2926 255.683 78.9132 255.563 79.3006C255.545 79.3507 255.51 79.3931 255.464 79.4203C255.418 79.4476 255.365 79.4581 255.312 79.4499C255.259 79.4418 255.211 79.4157 255.175 79.3759C255.14 79.3361 255.119 79.2853 255.117 79.232L255.09 75.2069C255.09 75.0537 255.163 75.0012 255.309 75.0492C255.403 75.0789 255.512 75.16 255.635 75.2926Z" fill="#A3A3A3"/>
<path d="M260.41 75.0491L260.389 75.0492C260.255 75.0499 260.147 75.1595 260.147 75.2939L260.161 77.8653C260.161 77.9997 260.271 78.1081 260.405 78.1074L260.426 78.1073C260.56 78.1066 260.669 77.9971 260.668 77.8626L260.655 75.2912C260.654 75.1568 260.544 75.0484 260.41 75.0491Z" fill="#A3A3A3"/>
<path d="M267.105 75.074L267.051 75.0729C266.916 75.0703 266.805 75.1772 266.802 75.3116L266.754 77.8483C266.751 77.9827 266.858 78.0938 266.992 78.0964L267.047 78.0974C267.182 78.1 267.293 77.9931 267.295 77.8587L267.344 75.322C267.347 75.1876 267.24 75.0765 267.105 75.074Z" fill="#A3A3A3"/>
<path d="M273.858 78.7383V77.9566C273.858 77.9267 273.849 77.8975 273.834 77.8719C273.819 77.8463 273.797 77.8253 273.771 77.811C273.744 77.7967 273.715 77.7896 273.685 77.7905C273.655 77.7913 273.626 77.8002 273.601 77.816C271.129 79.3314 270.724 73.8869 273.7 75.2549C273.719 75.2635 273.739 75.2683 273.76 75.2688C273.78 75.2694 273.801 75.2658 273.82 75.2583L274.249 75.0903C274.402 75.0309 274.473 75.0834 274.461 75.248C274.317 77.1886 275.339 80.0583 272.051 79.2526C271.914 79.2183 271.82 79.1509 271.77 79.0503C271.715 78.9383 271.749 78.8857 271.873 78.8926L273.591 78.992C273.625 78.9944 273.659 78.9895 273.692 78.9778C273.724 78.9661 273.754 78.9478 273.779 78.924C273.804 78.9002 273.824 78.8715 273.837 78.8395C273.851 78.8076 273.858 78.7731 273.858 78.7383ZM272.826 77.5967C272.948 77.6186 273.075 77.6123 273.198 77.5782C273.321 77.5442 273.438 77.483 273.543 77.3981C273.648 77.3133 273.738 77.2065 273.808 77.0838C273.879 76.9611 273.928 76.825 273.953 76.6831C273.978 76.5413 273.979 76.3965 273.955 76.2571C273.932 76.1177 273.884 75.9863 273.815 75.8706C273.746 75.7548 273.657 75.6569 273.554 75.5824C273.45 75.5079 273.333 75.4583 273.21 75.4364C273.088 75.4146 272.961 75.4208 272.838 75.4549C272.715 75.489 272.598 75.5502 272.493 75.635C272.388 75.7198 272.298 75.8267 272.228 75.9493C272.157 76.072 272.108 76.2082 272.083 76.35C272.058 76.4919 272.057 76.6366 272.081 76.776C272.104 76.9155 272.152 77.0468 272.221 77.1626C272.29 77.2783 272.379 77.3763 272.482 77.4507C272.586 77.5252 272.703 77.5748 272.826 77.5967Z" fill="#A3A3A3"/>
<path d="M277.043 75.1177C277.766 75.2446 278.257 74.9737 278.761 75.032C280.146 75.1931 280.567 78.6217 277.718 77.9908C277.688 77.9842 277.657 77.9844 277.627 77.9917C277.597 77.9989 277.569 78.013 277.545 78.0327C277.521 78.0525 277.501 78.0775 277.488 78.1058C277.475 78.1342 277.468 78.1652 277.468 78.1966C277.477 78.5303 277.476 78.8663 277.465 79.2046C277.465 79.2705 277.438 79.3334 277.392 79.3794C277.345 79.4254 277.282 79.4507 277.216 79.4498C277.15 79.4489 277.087 79.4218 277.04 79.3745C276.994 79.3273 276.967 79.2637 276.967 79.1977L276.933 75.2103C276.933 75.1965 276.936 75.1829 276.941 75.1704C276.947 75.1579 276.955 75.1468 276.966 75.1379C276.976 75.1291 276.989 75.1226 277.002 75.1191C277.015 75.1156 277.029 75.1152 277.043 75.1177ZM278.34 77.7635C278.468 77.7691 278.596 77.7446 278.717 77.6914C278.838 77.6382 278.949 77.5574 279.045 77.4535C279.14 77.3496 279.218 77.2248 279.273 77.086C279.328 76.9473 279.36 76.7974 279.366 76.6449C279.38 76.3369 279.29 76.0371 279.116 75.8113C278.943 75.5856 278.7 75.4524 278.441 75.4411C278.313 75.4355 278.185 75.46 278.064 75.5132C277.943 75.5663 277.831 75.6472 277.736 75.751C277.64 75.8549 277.563 75.9798 277.508 76.1185C277.453 76.2573 277.421 76.4072 277.414 76.5597C277.401 76.8676 277.491 77.1675 277.664 77.3932C277.838 77.619 278.081 77.7522 278.34 77.7635Z" fill="#A3A3A3"/>
<path d="M283.297 77.8914C283.297 77.9469 283.275 78.0001 283.236 78.0393C283.196 78.0785 283.143 78.1006 283.088 78.1006L281.661 78.0971C281.503 78.0967 281.347 78.065 281.201 78.0039C281.055 77.9429 280.923 77.8536 280.811 77.7412C280.7 77.6288 280.612 77.4955 280.552 77.3489C280.492 77.2023 280.461 77.0453 280.461 76.8868V76.2971C280.462 76.1386 280.493 75.9818 280.554 75.8355C280.615 75.6893 280.704 75.5565 280.816 75.4448C280.928 75.333 281.061 75.2445 281.207 75.1842C281.354 75.124 281.51 75.0932 281.668 75.0937L283.095 75.0971C283.15 75.0971 283.203 75.1192 283.242 75.1584C283.282 75.1976 283.304 75.2508 283.304 75.3063L283.297 77.8914ZM281.789 77.7553C281.916 77.7635 282.043 77.7418 282.164 77.6914C282.285 77.641 282.397 77.563 282.493 77.4617C282.59 77.3604 282.669 77.2379 282.727 77.1012C282.784 76.9644 282.819 76.8161 282.829 76.6647C282.848 76.3589 282.766 76.059 282.599 75.8311C282.432 75.6031 282.194 75.4658 281.938 75.4492C281.812 75.441 281.684 75.4628 281.563 75.5131C281.443 75.5635 281.331 75.6416 281.234 75.7428C281.138 75.8441 281.058 75.9666 281.001 76.1034C280.943 76.2401 280.909 76.3884 280.899 76.5399C280.879 76.8457 280.962 77.1455 281.129 77.3735C281.296 77.6014 281.533 77.7387 281.789 77.7553Z" fill="#A3A3A3"/>
<path d="M285.186 77.0343C285.207 77.0616 285.235 77.0829 285.267 77.0963C285.298 77.1096 285.333 77.1144 285.367 77.1103C285.402 77.1061 285.434 77.0931 285.462 77.0726C285.49 77.0521 285.511 77.0247 285.525 76.9931L286.355 75.0731C286.375 75.0222 286.414 74.9813 286.465 74.9594C286.515 74.9376 286.572 74.9365 286.622 74.9565C286.673 74.9766 286.714 75.016 286.736 75.0661C286.758 75.1163 286.759 75.1731 286.739 75.224C286.393 76.1805 285.347 79.6125 284.013 79.3691C283.987 79.3644 283.962 79.3509 283.944 79.3308C283.926 79.3106 283.916 79.2849 283.914 79.258C283.913 79.231 283.92 79.2043 283.936 79.1821C283.951 79.16 283.974 79.1437 284 79.136C285.848 78.5497 284.301 76.448 283.979 75.3234C283.936 75.1771 283.99 75.1085 284.144 75.1177C284.217 75.1223 284.284 75.152 284.346 75.2068C284.6 75.4331 284.87 76.6297 285.186 77.0343Z" fill="#A3A3A3"/>
<path d="M289.839 75.9063L289.804 78.0354C289.804 78.088 289.777 78.1143 289.722 78.1143H289.544C289.42 78.1143 289.356 78.0526 289.352 77.9291L289.28 75.8617C289.277 75.8031 289.256 75.747 289.221 75.701C289.186 75.6551 289.138 75.6214 289.084 75.6046C287.456 75.0834 287.85 77.0343 287.898 77.8366C287.907 77.9828 287.84 78.0663 287.696 78.0868L287.565 78.1074C287.547 78.1104 287.527 78.1093 287.509 78.1041C287.491 78.0989 287.474 78.0898 287.46 78.0774C287.445 78.065 287.434 78.0496 287.426 78.0322C287.418 78.0149 287.414 77.9961 287.415 77.9771V75.2788C287.415 75.1417 287.482 75.088 287.617 75.1177C288.436 75.296 288.714 74.7714 289.561 75.3406C289.607 75.3702 289.66 75.386 289.715 75.386C289.77 75.386 289.823 75.3702 289.869 75.3406C290.384 75.0137 290.936 74.9783 291.525 75.2343C291.656 75.2914 291.722 75.3897 291.724 75.5291L291.762 77.9703C291.763 78.0141 291.751 78.0573 291.726 78.0938C291.702 78.1302 291.667 78.1583 291.626 78.1741C291.585 78.1898 291.54 78.1926 291.498 78.1819C291.455 78.1712 291.417 78.1475 291.388 78.1143C291.148 77.84 291.306 76.4411 291.213 75.7177C291.193 75.544 291.096 75.4697 290.922 75.4948L290.099 75.6114C289.928 75.6343 289.841 75.7326 289.839 75.9063Z" fill="#A3A3A3"/>
<path d="M293.007 76.8354C293.092 77.8606 294.217 77.7646 294.882 77.624C294.925 77.6145 294.969 77.6214 295.007 77.6433C295.044 77.6652 295.072 77.7005 295.085 77.7424C295.098 77.7843 295.094 77.8298 295.076 77.87C295.058 77.9102 295.025 77.9423 294.985 77.96C293.929 78.392 292.667 78.1794 292.499 76.8628C292.228 74.7234 295.242 74.2503 295.125 76.4754C295.121 76.5966 295.057 76.6571 294.933 76.6571H293.171C293.052 76.6571 292.997 76.7166 293.007 76.8354ZM293.264 76.3177L294.525 76.3108C294.566 76.31 294.604 76.2933 294.632 76.2645C294.661 76.2356 294.676 76.1969 294.676 76.1566V76.1086C294.676 76.0118 294.656 75.916 294.619 75.8267C294.581 75.7375 294.527 75.6565 294.458 75.5883C294.389 75.5202 294.308 75.4663 294.218 75.4296C294.128 75.393 294.033 75.3744 293.936 75.3748H293.84C293.743 75.3753 293.647 75.3948 293.558 75.4323C293.469 75.4697 293.388 75.5244 293.319 75.5932C293.251 75.6619 293.197 75.7435 293.161 75.8331C293.124 75.9227 293.106 76.0186 293.106 76.1154V76.1634C293.106 76.184 293.11 76.2043 293.118 76.2233C293.126 76.2422 293.138 76.2594 293.152 76.2737C293.167 76.2881 293.185 76.2994 293.204 76.307C293.223 76.3145 293.243 76.3182 293.264 76.3177Z" fill="#A3A3A3"/>
<path d="M297.861 75.0423C297.943 75.0338 298.025 75.0422 298.104 75.067C298.182 75.0919 298.254 75.1326 298.316 75.1867C298.378 75.2407 298.428 75.307 298.463 75.3812C298.498 75.4555 298.517 75.5362 298.52 75.6183L298.574 77.912C298.577 78.0469 298.509 78.1166 298.372 78.1211C298.155 78.128 298.059 78.0491 298.084 77.8846C298.201 77.1303 298.157 76.3909 297.954 75.6663C297.92 75.5383 297.836 75.4754 297.704 75.4777L296.874 75.4983C296.796 75.4999 296.721 75.5309 296.665 75.585C296.609 75.6392 296.576 75.7123 296.572 75.7897L296.469 77.9394C296.468 77.9663 296.461 77.9925 296.449 78.0166C296.437 78.0406 296.421 78.0619 296.4 78.079C296.379 78.0961 296.355 78.1087 296.329 78.116C296.303 78.1233 296.276 78.125 296.25 78.1211C296.202 78.1143 296.158 78.1131 296.12 78.1177C296.03 78.1246 295.986 78.0846 295.986 77.9977V75.4366C295.986 75.3063 296.05 75.2343 296.178 75.2206L297.861 75.0423Z" fill="#A3A3A3"/>
<path d="M270.282 75.1108C270.379 75.1091 270.474 75.1405 270.55 75.1998C270.626 75.2592 270.679 75.3428 270.7 75.4366C270.881 76.2251 270.918 77.0514 270.81 77.9154C270.794 78.0457 270.767 78.1223 270.728 78.1451C270.69 78.1661 270.647 78.1773 270.604 78.1776C270.56 78.178 270.518 78.1674 270.481 78.147C270.443 78.1266 270.412 78.097 270.391 78.0612C270.369 78.0254 270.358 77.9846 270.358 77.9428V75.968C270.358 75.9109 270.344 75.8546 270.318 75.8039C270.291 75.7532 270.253 75.7095 270.207 75.6766C269.859 75.4366 269.487 75.4023 269.089 75.5737C268.922 75.6468 268.833 75.7737 268.822 75.9543L268.684 77.9703C268.683 77.9873 268.678 78.0038 268.67 78.0186C268.662 78.0335 268.65 78.0462 268.636 78.056C268.408 78.2183 268.287 78.1508 268.273 77.8537C268.234 77.0194 268.228 76.1851 268.256 75.3508C268.26 75.2206 268.328 75.1543 268.458 75.152L270.282 75.1108Z" fill="#A3A3A3"/>
</g>
<g clip-path="url(#clip4_445_10443)">
<path d="M53.6251 112H56.8788C61.1028 112.848 64.1325 115.186 65.968 119.015C66.2011 119.502 66.1977 119.872 65.7657 120.256C64.0171 121.815 62.152 123.159 60.1703 124.288C60.124 124.315 60.0724 124.33 60.0193 124.334C59.9661 124.338 59.9128 124.329 59.8633 124.31C59.8139 124.29 59.7695 124.259 59.7336 124.22C59.6977 124.18 59.6712 124.133 59.656 124.082C58.9451 121.678 57.7005 119.602 55.9223 117.856C55.8414 117.777 55.7421 117.72 55.6336 117.69C55.5251 117.66 55.4109 117.658 55.3017 117.685L49.9908 118.939C49.7691 118.992 49.7337 119.104 49.8845 119.275L50.7897 120.311C50.803 120.327 50.8115 120.346 50.814 120.366C50.8166 120.387 50.8131 120.408 50.804 120.426C50.7949 120.445 50.7806 120.46 50.7628 120.471C50.7451 120.481 50.7246 120.487 50.704 120.486C50.1737 120.451 49.7108 120.613 49.3154 120.969C49.2646 121.014 49.2337 121.077 49.2292 121.146C49.2247 121.214 49.247 121.282 49.2914 121.336L49.9805 122.166C49.995 122.184 50.0049 122.205 50.0095 122.228C50.014 122.25 50.0131 122.274 50.0067 122.296C50.0003 122.318 49.9887 122.338 49.9728 122.355C49.9569 122.372 49.9372 122.384 49.9154 122.392L49.0137 122.701C48.8925 122.742 48.8457 122.826 48.8731 122.954L48.9965 123.541C49.0263 123.675 48.976 123.767 48.8457 123.815C48.5943 123.904 48.4983 124.09 48.5577 124.374C48.5681 124.425 48.5913 124.473 48.625 124.512C48.6587 124.551 48.7017 124.58 48.7497 124.597C50.432 125.209 51.8651 126.182 53.0491 127.514C53.0622 127.53 53.0714 127.548 53.0759 127.568C53.0805 127.587 53.0802 127.608 53.0751 127.627C53.07 127.646 53.0603 127.664 53.0468 127.679C53.0333 127.693 53.0164 127.704 52.9977 127.71L48.7085 129.088C48.6425 129.109 48.5719 129.11 48.5059 129.091C48.4399 129.073 48.3815 129.034 48.3383 128.982L47.7965 128.337C47.7773 128.314 47.7525 128.296 47.7246 128.285C47.6967 128.274 47.6664 128.27 47.6364 128.273C47.6065 128.276 47.5779 128.287 47.5532 128.304C47.5285 128.322 47.5084 128.345 47.4948 128.371L46.2503 130.765C46.1291 131 45.9988 131.006 45.8594 130.782C43.08 126.311 42.8263 122.046 45.0983 117.986C46.9394 114.702 49.9497 112.658 53.6251 112Z" fill="#A3A3A3"/>
<path d="M81.8934 126.205V128.769C81.8935 128.808 81.8784 128.845 81.8515 128.872C81.8246 128.9 81.7879 128.916 81.7494 128.917L79.8877 128.978C79.8681 128.979 79.8485 128.975 79.8303 128.968C79.812 128.961 79.7953 128.95 79.7813 128.936C79.7672 128.923 79.756 128.906 79.7484 128.888C79.7408 128.87 79.7369 128.85 79.7369 128.831L79.7197 118.49C79.7197 118.451 79.7353 118.414 79.7629 118.386C79.7906 118.358 79.8281 118.343 79.8672 118.343H81.6329C81.6714 118.343 81.7084 118.358 81.7359 118.385C81.7635 118.412 81.7794 118.448 81.7803 118.487L81.8763 124.309C81.877 124.34 81.8874 124.369 81.9061 124.394C81.9248 124.419 81.9507 124.437 81.9803 124.446C82.0099 124.455 82.0416 124.455 82.071 124.445C82.1003 124.435 82.1258 124.416 82.1437 124.391L83.7483 122.114C83.7612 122.095 83.7785 122.079 83.7988 122.068C83.819 122.056 83.8417 122.05 83.8649 122.049L86.0386 121.991C86.0666 121.99 86.0941 121.998 86.1179 122.013C86.1417 122.028 86.1608 122.049 86.173 122.074C86.1853 122.099 86.1901 122.127 86.1869 122.155C86.1837 122.183 86.1727 122.209 86.1552 122.231L83.8854 125.032C83.8643 125.058 83.8528 125.091 83.8528 125.125C83.8528 125.158 83.8643 125.191 83.8854 125.217L86.7689 128.745C86.7878 128.767 86.7998 128.794 86.8034 128.823C86.8071 128.851 86.8022 128.881 86.7894 128.907C86.7766 128.932 86.7565 128.954 86.7315 128.969C86.7065 128.983 86.6778 128.99 86.6489 128.989L84.434 128.934C84.412 128.933 84.3904 128.927 84.3708 128.917C84.3512 128.907 84.3342 128.893 84.3209 128.875L82.1574 126.115C82.1387 126.091 82.1128 126.073 82.0835 126.065C82.0541 126.056 82.0227 126.056 81.9937 126.066C81.9647 126.076 81.9394 126.094 81.9214 126.119C81.9035 126.144 81.8937 126.174 81.8934 126.205Z" fill="#A3A3A3"/>
<path d="M52.2296 120.859C51.9691 120.517 51.3451 120.167 51.1668 119.567C51.1325 119.45 51.1748 119.377 51.2936 119.347L55.2708 118.336C55.3218 118.323 55.3753 118.323 55.4259 118.337C55.4765 118.35 55.5223 118.377 55.5588 118.415C57.2891 120.147 58.4765 122.202 59.1211 124.579C59.1497 124.686 59.1395 124.799 59.0924 124.899C59.0453 124.999 58.9644 125.079 58.8639 125.125L55.7371 126.558C55.7089 126.571 55.6783 126.578 55.6471 126.579C55.6159 126.58 55.5848 126.575 55.5556 126.563C55.5264 126.552 55.4998 126.534 55.4773 126.512C55.4549 126.49 55.4371 126.463 55.4251 126.434C54.6136 124.45 53.5485 122.592 52.2296 120.859ZM56.1485 123.225C55.7188 123.161 55.4354 123.32 55.2982 123.702C55.2827 123.744 55.2794 123.791 55.2888 123.835C55.2981 123.879 55.3197 123.92 55.3511 123.953C55.3825 123.986 55.4224 124.009 55.4664 124.021C55.5104 124.032 55.5566 124.031 55.5999 124.017C56.1828 123.837 56.6822 123.949 57.0982 124.353C57.1267 124.382 57.1642 124.4 57.2046 124.405C57.2449 124.41 57.2856 124.401 57.32 124.379C57.3544 124.357 57.3804 124.325 57.3936 124.286C57.4069 124.248 57.4067 124.206 57.3931 124.168C57.2079 123.592 57.1508 123 57.2216 122.392C57.2323 122.296 57.2207 122.198 57.1878 122.108C57.1548 122.017 57.1014 121.935 57.0317 121.868C56.962 121.801 56.8778 121.751 56.7859 121.723C56.6939 121.694 56.5967 121.687 56.5016 121.703C56.1794 121.753 55.8136 121.805 55.4045 121.857C55.3451 121.864 55.2959 121.857 55.2571 121.837C55.1771 121.795 55.1302 121.737 55.1165 121.662C55.113 121.645 55.1133 121.627 55.1173 121.61C55.1213 121.593 55.1289 121.577 55.1397 121.563C55.1505 121.55 55.1641 121.539 55.1796 121.531C55.1952 121.523 55.2122 121.518 55.2296 121.518L55.5759 121.507C55.6923 121.51 55.805 121.467 55.8893 121.386C55.9735 121.306 56.0223 121.195 56.0251 121.079C56.0278 120.962 55.9842 120.85 55.9038 120.766C55.8234 120.681 55.7129 120.632 55.5965 120.63C55.1508 120.591 54.7656 120.431 54.4411 120.15C54.424 120.134 54.4026 120.124 54.3796 120.12C54.3566 120.117 54.3331 120.12 54.3121 120.13C54.2911 120.14 54.2735 120.156 54.2617 120.176C54.2499 120.196 54.2443 120.219 54.2456 120.242L54.3142 122.327C54.3162 122.374 54.3302 122.42 54.3548 122.46C54.3794 122.5 54.4138 122.533 54.4548 122.557C55.2125 123.002 55.4868 122.526 56.0696 122.704C56.2205 122.75 56.3154 122.847 56.3542 122.995C56.3619 123.025 56.3621 123.056 56.3549 123.086C56.3477 123.115 56.3333 123.143 56.3129 123.165C56.2926 123.188 56.2669 123.205 56.2382 123.216C56.2095 123.226 56.1787 123.229 56.1485 123.225Z" fill="#A3A3A3"/>
<path d="M70.1061 128.91C70.0033 128.91 69.9713 128.863 70.0101 128.769L73.8056 119.491C73.8385 119.41 73.895 119.34 73.968 119.29C74.0409 119.241 74.127 119.214 74.2154 119.214C74.3038 119.214 74.3906 119.24 74.4647 119.288C74.5388 119.337 74.5969 119.407 74.6318 119.488L78.585 128.779C78.6398 128.907 78.5976 128.971 78.4581 128.971H76.6238C76.5572 128.972 76.4923 128.95 76.4386 128.911C76.3849 128.871 76.3453 128.816 76.3256 128.752L76.0718 127.915C76.0359 127.799 75.964 127.698 75.8665 127.625C75.769 127.553 75.6511 127.514 75.5301 127.514L72.7324 127.518C72.6748 127.518 72.6189 127.537 72.5735 127.573C72.5281 127.61 72.4959 127.66 72.4821 127.717L72.2421 128.69C72.2263 128.75 72.1911 128.803 72.1422 128.841C72.0932 128.879 72.0331 128.899 71.9713 128.899L70.1061 128.91ZM73.3084 125.663C73.2991 125.687 73.2958 125.714 73.2987 125.739C73.3016 125.765 73.3106 125.79 73.325 125.812C73.3394 125.834 73.3588 125.852 73.3815 125.865C73.4043 125.877 73.4298 125.885 73.4558 125.886L74.9336 125.937C74.96 125.938 74.9862 125.932 75.01 125.921C75.0338 125.909 75.0545 125.892 75.0703 125.871C75.0861 125.85 75.0966 125.825 75.1008 125.799C75.1051 125.773 75.103 125.746 75.0947 125.721L74.4261 123.613C74.4163 123.579 74.3963 123.55 74.3689 123.529C74.3416 123.508 74.3083 123.496 74.2738 123.495C74.2393 123.494 74.2053 123.504 74.1767 123.523C74.148 123.542 74.1261 123.57 74.1141 123.602L73.3084 125.663Z" fill="#A3A3A3"/>
<path d="M51.2591 120.743C51.2687 120.735 51.2798 120.73 51.2916 120.727C51.3034 120.724 51.3157 120.723 51.3278 120.724C51.3399 120.726 51.3516 120.73 51.3621 120.736C51.3727 120.742 51.382 120.75 51.3894 120.76L51.4271 120.811C52.269 121.885 53.0373 122.946 53.5636 123.762C54.09 124.577 54.3314 125.081 54.2351 125.162L54.2282 125.166C54.1794 125.205 54.0488 125.139 53.8437 124.971C53.6386 124.803 53.3631 124.537 53.0329 124.188C52.7027 123.839 52.3243 123.413 51.9194 122.935C51.5144 122.458 51.0908 121.938 50.6728 121.405L50.6317 121.353C50.6242 121.343 50.6187 121.332 50.6155 121.321C50.6123 121.309 50.6115 121.297 50.6131 121.284C50.6147 121.272 50.6187 121.261 50.6248 121.25C50.6309 121.24 50.6391 121.23 50.6488 121.223L51.2591 120.743Z" fill="#A3A3A3"/>
<path d="M112.758 125.947C112.659 125.946 112.563 125.977 112.484 126.036C112.405 126.095 112.348 126.178 112.322 126.273C112.295 126.367 112.3 126.468 112.337 126.559C112.374 126.651 112.44 126.727 112.524 126.777C114.019 127.638 114.588 127.302 116.032 126.945C116.148 126.918 116.235 126.957 116.292 127.062L116.728 127.864C116.772 127.946 116.784 128.042 116.759 128.132C116.735 128.222 116.677 128.299 116.598 128.347C115.56 128.976 114.49 129.213 113.388 129.057C108.852 128.416 109.511 121.415 113.999 121.83C116.076 122.025 117.139 123.856 116.975 125.855C116.97 125.906 116.947 125.954 116.909 125.988C116.87 126.022 116.82 126.041 116.769 126.04L112.758 125.947ZM112.408 124.583L114.931 124.651C114.943 124.651 114.953 124.647 114.962 124.64C114.97 124.632 114.975 124.621 114.976 124.61V124.597C114.981 124.446 114.952 124.295 114.893 124.154C114.834 124.013 114.745 123.883 114.631 123.773C114.517 123.663 114.38 123.574 114.229 123.512C114.078 123.45 113.914 123.415 113.748 123.41H113.659C113.325 123.401 113.002 123.513 112.759 123.721C112.517 123.929 112.376 124.217 112.367 124.521V124.535C112.366 124.541 112.367 124.547 112.369 124.552C112.371 124.558 112.374 124.563 112.377 124.567C112.381 124.572 112.386 124.576 112.391 124.578C112.396 124.581 112.402 124.582 112.408 124.583Z" fill="#A3A3A3"/>
<path d="M104.711 122.57C105.818 121.333 107.848 121.771 108.578 123.054C109.281 124.288 108.979 127.144 108.979 128.749C108.979 128.845 108.931 128.895 108.835 128.899L106.98 128.968C106.951 128.969 106.921 128.964 106.893 128.953C106.865 128.942 106.84 128.926 106.818 128.905C106.797 128.884 106.78 128.86 106.768 128.832C106.757 128.805 106.751 128.775 106.751 128.745C106.757 127.435 106.745 126.15 106.713 124.888C106.668 123.119 104.344 123.307 104.364 125.197C104.378 126.387 104.357 127.576 104.303 128.762C104.296 128.902 104.223 128.971 104.083 128.971H102.338C102.194 128.971 102.122 128.901 102.122 128.759V122.224C102.122 122.082 102.192 122.013 102.331 122.015L104.097 122.035C104.14 122.036 104.182 122.051 104.216 122.077C104.251 122.102 104.276 122.138 104.289 122.179L104.388 122.502C104.398 122.533 104.416 122.562 104.441 122.584C104.465 122.606 104.495 122.622 104.528 122.629C104.561 122.636 104.595 122.634 104.627 122.624C104.659 122.613 104.688 122.595 104.711 122.57Z" fill="#A3A3A3"/>
<path d="M90.2933 122.961L90.8145 122.138C90.8449 122.089 90.8872 122.047 90.9374 122.018C90.9876 121.989 91.0443 121.972 91.1025 121.97L92.347 121.933C92.3823 121.931 92.4175 121.938 92.4501 121.951C92.4826 121.965 92.5119 121.986 92.5357 122.013C92.5595 122.039 92.5773 122.07 92.588 122.104C92.5986 122.139 92.6018 122.175 92.5973 122.21L92.3882 123.87C92.3745 123.977 92.3139 124.018 92.2065 123.993C89.2682 123.283 89.9196 126.76 89.995 128.687C89.9996 128.815 89.9379 128.882 89.8099 128.889L88.0305 128.975C88.0017 128.976 87.973 128.972 87.946 128.962C87.919 128.952 87.8943 128.936 87.8735 128.916C87.8526 128.896 87.836 128.873 87.8247 128.846C87.8134 128.82 87.8076 128.791 87.8076 128.762V122.21C87.8076 122.089 87.8682 122.029 87.9893 122.029H89.7619C89.8042 122.028 89.845 122.044 89.8761 122.073C89.9072 122.101 89.9265 122.141 89.9299 122.183L89.9985 122.893C90.0282 123.203 90.1265 123.226 90.2933 122.961Z" fill="#A3A3A3"/>
<path d="M97.7126 128.522L96.9206 128.968C96.8957 128.982 96.8691 128.991 96.8418 128.995C90.9309 129.87 92.6006 119.546 97.5721 122.306C97.6704 122.361 97.7709 122.363 97.8738 122.313C98.5389 122 99.2464 121.914 99.9961 122.056C100.097 122.074 100.148 122.135 100.15 122.238L100.174 128.81C100.175 128.834 100.169 128.858 100.159 128.88C100.148 128.901 100.133 128.92 100.114 128.935C100.096 128.95 100.074 128.96 100.05 128.966C100.027 128.971 100.002 128.97 99.9789 128.965C99.3309 128.803 98.3709 129.201 98.0041 128.598C97.9309 128.477 97.8338 128.451 97.7126 128.522ZM96.5219 127.228C96.722 127.237 96.9223 127.201 97.1114 127.121C97.3005 127.041 97.4747 126.918 97.6239 126.761C97.7732 126.604 97.8947 126.414 97.9814 126.203C98.0681 125.992 98.1183 125.765 98.1293 125.532C98.1402 125.3 98.1116 125.069 98.0451 124.851C97.9787 124.633 97.8756 124.433 97.7418 124.262C97.608 124.091 97.4462 123.953 97.2654 123.855C97.0847 123.758 96.8887 123.703 96.6886 123.693C96.4884 123.684 96.2881 123.72 96.099 123.8C95.9099 123.88 95.7358 124.003 95.5865 124.16C95.4372 124.318 95.3158 124.507 95.2291 124.718C95.1424 124.929 95.0921 125.157 95.0812 125.389C95.0702 125.621 95.0988 125.852 95.1653 126.07C95.2318 126.288 95.3349 126.489 95.4686 126.659C95.6024 126.83 95.7643 126.968 95.945 127.066C96.1257 127.163 96.3217 127.218 96.5219 127.228Z" fill="#A3A3A3"/>
<path d="M120.979 123.637L121.902 122.121C121.914 122.101 121.932 122.083 121.953 122.072C121.974 122.06 121.998 122.053 122.022 122.053L124.093 121.984C124.119 121.983 124.146 121.989 124.169 122.003C124.192 122.016 124.211 122.035 124.224 122.059C124.237 122.082 124.243 122.109 124.242 122.136C124.24 122.163 124.231 122.188 124.216 122.21L122.077 125.275C122.059 125.3 122.051 125.33 122.051 125.36C122.052 125.39 122.062 125.419 122.08 125.443L124.442 128.683C124.458 128.705 124.468 128.73 124.47 128.756C124.472 128.783 124.467 128.809 124.456 128.833C124.444 128.857 124.426 128.877 124.404 128.891C124.381 128.905 124.356 128.913 124.329 128.913L122.21 128.937C122.186 128.938 122.162 128.932 122.14 128.921C122.119 128.909 122.1 128.892 122.087 128.872L120.832 127.014C120.818 126.994 120.8 126.977 120.778 126.966C120.757 126.955 120.733 126.949 120.708 126.95C120.684 126.951 120.66 126.958 120.639 126.97C120.618 126.982 120.601 127 120.589 127.021L119.526 128.783C119.513 128.803 119.496 128.82 119.476 128.832C119.456 128.844 119.433 128.85 119.409 128.851L117.283 128.958C117.256 128.96 117.228 128.954 117.204 128.941C117.179 128.928 117.159 128.908 117.146 128.884C117.132 128.86 117.126 128.832 117.128 128.804C117.13 128.777 117.14 128.75 117.157 128.728L119.543 125.44C119.561 125.416 119.571 125.387 119.572 125.357C119.572 125.326 119.563 125.297 119.546 125.272L117.397 122.231C117.381 122.209 117.373 122.184 117.371 122.157C117.369 122.131 117.375 122.104 117.388 122.081C117.4 122.058 117.419 122.038 117.441 122.025C117.464 122.011 117.49 122.004 117.517 122.005L119.587 122.042C119.61 122.043 119.633 122.048 119.653 122.059C119.673 122.07 119.691 122.085 119.704 122.104L120.736 123.643C120.75 123.664 120.768 123.68 120.79 123.691C120.811 123.702 120.835 123.708 120.86 123.707C120.884 123.706 120.908 123.7 120.929 123.687C120.95 123.675 120.967 123.657 120.979 123.637Z" fill="#A3A3A3"/>
<path d="M50.539 122.581C50.5555 122.565 50.5773 122.557 50.5997 122.558C50.6221 122.558 50.6434 122.568 50.659 122.584L50.6899 122.615C51.6366 123.582 52.5195 124.533 53.145 125.261C53.7704 125.989 54.0872 126.433 54.0259 126.496L53.9539 126.568C53.9256 126.602 53.8044 126.54 53.5972 126.387C53.39 126.233 53.1009 125.991 52.7465 125.673C52.3922 125.356 51.9796 124.97 51.5325 124.537C51.0854 124.105 50.6126 123.634 50.1413 123.153L50.1104 123.119C50.0947 123.103 50.0859 123.081 50.0859 123.059C50.0859 123.036 50.0947 123.015 50.1104 122.999L50.539 122.581Z" fill="#A3A3A3"/>
<path d="M49.0755 131.971L49.2881 131.347C49.3338 131.217 49.4241 131.137 49.5589 131.107C55.8995 129.629 61.5715 126.809 66.5749 122.649C66.6801 122.562 66.7406 122.586 66.7566 122.721C67.6584 130.693 59.5875 137.265 52.0446 134.862C50.0035 134.21 48.1658 133.087 46.5315 131.491C46.5086 131.469 46.4943 131.44 46.491 131.409C46.4877 131.377 46.4955 131.346 46.5132 131.319C46.531 131.293 46.5575 131.273 46.5883 131.263C46.6191 131.253 46.6523 131.254 46.6824 131.265L48.7944 132.102C48.9315 132.157 49.0252 132.113 49.0755 131.971Z" fill="#A3A3A3"/>
<path d="M49.6338 124.641C49.2863 124.49 49.1618 124.219 49.26 123.829C49.2667 123.804 49.2789 123.781 49.2957 123.762C49.3124 123.743 49.3333 123.728 49.3568 123.718C49.3802 123.708 49.4056 123.704 49.431 123.705C49.4564 123.706 49.4812 123.713 49.5035 123.726C50.5275 124.304 51.4098 125.053 52.1503 125.971C52.3286 126.191 52.3023 126.219 52.0715 126.057C51.1778 125.429 50.3652 124.957 49.6338 124.641Z" fill="#A3A3A3"/>
</g>
<g clip-path="url(#clip5_445_10443)">
<path d="M160.026 127.225L162.595 128.638C162.616 128.649 162.633 128.665 162.644 128.684C162.656 128.704 162.663 128.726 162.663 128.749V131.819C162.663 131.841 162.657 131.862 162.646 131.881C162.635 131.901 162.619 131.916 162.6 131.928C162.581 131.939 162.559 131.945 162.537 131.945C162.515 131.946 162.493 131.941 162.474 131.93L156.9 128.895C156.879 128.883 156.862 128.867 156.85 128.847C156.838 128.826 156.832 128.803 156.832 128.78V118.145C156.832 118.122 156.838 118.099 156.85 118.078C156.862 118.058 156.879 118.042 156.9 118.03L166.753 112.666C166.772 112.656 166.793 112.651 166.814 112.651C166.835 112.651 166.856 112.656 166.875 112.666L176.793 117.99C176.813 118.001 176.831 118.018 176.842 118.038C176.854 118.058 176.861 118.081 176.86 118.105V128.807C176.861 128.83 176.854 128.853 176.842 128.874C176.831 128.894 176.813 128.911 176.793 128.922L168.393 133.434C168.372 133.445 168.355 133.462 168.343 133.482C168.331 133.503 168.325 133.526 168.325 133.549V135.787C168.325 135.821 168.311 135.854 168.287 135.878C168.263 135.902 168.231 135.915 168.197 135.915H165.411C165.377 135.915 165.344 135.902 165.32 135.878C165.296 135.854 165.283 135.821 165.283 135.787V123.598C165.283 123.581 165.286 123.564 165.293 123.548C165.3 123.532 165.309 123.518 165.322 123.506C165.334 123.494 165.348 123.484 165.364 123.478C165.38 123.472 165.397 123.469 165.415 123.469L168.2 123.506C168.233 123.507 168.264 123.521 168.287 123.544C168.311 123.567 168.324 123.599 168.325 123.632V129.919C168.325 129.941 168.33 129.963 168.341 129.983C168.352 130.002 168.368 130.019 168.387 130.03C168.406 130.042 168.428 130.048 168.45 130.049C168.472 130.05 168.495 130.044 168.514 130.034L173.757 127.221C173.778 127.21 173.795 127.194 173.807 127.173C173.819 127.153 173.825 127.13 173.825 127.106L173.703 119.754C173.703 119.731 173.696 119.709 173.684 119.689C173.673 119.67 173.656 119.654 173.635 119.643L166.878 116.009C166.86 115.999 166.839 115.994 166.817 115.994C166.796 115.994 166.775 115.999 166.757 116.009L160.026 119.68C160.006 119.691 159.988 119.708 159.977 119.728C159.965 119.748 159.958 119.771 159.959 119.795V127.113C159.959 127.136 159.966 127.159 159.977 127.178C159.989 127.198 160.006 127.214 160.026 127.225Z" fill="#A3A3A3"/>
<path d="M186.494 125.866V130.93C186.494 131.042 186.438 131.099 186.325 131.099H183.959C183.846 131.099 183.79 131.042 183.79 130.93V116.401C183.79 116.356 183.808 116.313 183.84 116.282C183.871 116.25 183.914 116.232 183.959 116.232C186.325 116.202 190.463 115.87 192.369 116.837C195.709 118.534 195.236 124.105 191.761 125.369C190.331 125.886 188.32 125.673 186.66 125.697C186.549 125.697 186.494 125.753 186.494 125.866ZM186.498 118.571L186.491 123.479C186.491 123.501 186.499 123.522 186.515 123.537C186.53 123.552 186.55 123.561 186.572 123.561L189.564 123.564C190.162 123.565 190.735 123.327 191.159 122.903C191.582 122.479 191.821 121.903 191.822 121.303V120.762C191.822 120.464 191.764 120.17 191.651 119.895C191.538 119.62 191.373 119.37 191.164 119.159C190.955 118.949 190.706 118.781 190.433 118.667C190.16 118.553 189.866 118.494 189.57 118.494L186.579 118.49C186.557 118.49 186.537 118.499 186.521 118.514C186.506 118.529 186.498 118.55 186.498 118.571Z" fill="#A3A3A3"/>
<path d="M253.38 116.475L253.387 118.328C253.387 118.354 253.381 118.379 253.371 118.403C253.361 118.427 253.346 118.449 253.328 118.467C253.309 118.485 253.287 118.499 253.263 118.508C253.239 118.517 253.213 118.521 253.187 118.521L248.962 118.402C248.936 118.401 248.91 118.406 248.886 118.415C248.862 118.424 248.84 118.438 248.821 118.456C248.803 118.474 248.788 118.496 248.778 118.52C248.768 118.543 248.762 118.569 248.762 118.595L248.8 130.903C248.8 130.954 248.779 131.003 248.743 131.039C248.707 131.075 248.658 131.095 248.607 131.095L246.264 131.099C246.213 131.099 246.164 131.078 246.128 131.042C246.092 131.006 246.072 130.957 246.072 130.906V118.693C246.072 118.642 246.051 118.593 246.015 118.557C245.979 118.521 245.93 118.5 245.879 118.5L241.785 118.477C241.734 118.477 241.685 118.456 241.649 118.42C241.613 118.384 241.593 118.335 241.593 118.284V116.469C241.593 116.418 241.613 116.369 241.649 116.332C241.685 116.296 241.734 116.276 241.785 116.276L253.187 116.283C253.238 116.283 253.287 116.303 253.323 116.339C253.36 116.375 253.38 116.424 253.38 116.475Z" fill="#A3A3A3"/>
<path d="M255.706 122.232C255.704 122.25 255.71 122.269 255.721 122.283C255.732 122.298 255.748 122.307 255.766 122.311C255.784 122.314 255.803 122.311 255.819 122.301C255.834 122.292 255.846 122.277 255.851 122.259C256.433 120.706 257.573 120.019 259.272 120.197C259.337 120.204 259.397 120.234 259.441 120.282C259.485 120.33 259.509 120.393 259.509 120.457V122.641C259.509 122.779 259.442 122.83 259.309 122.797C254.8 121.607 255.598 128.479 255.76 130.879C255.769 131.025 255.7 131.099 255.554 131.099H253.36C253.218 131.099 253.147 131.028 253.147 130.886L253.137 120.596C253.135 120.443 253.21 120.366 253.363 120.366H255.493C255.635 120.366 255.706 120.436 255.706 120.576V122.232Z" fill="#A3A3A3"/>
<path d="M283.678 124.706V126.116H275.071C275.047 126.116 275.024 126.122 275.002 126.132C274.98 126.142 274.961 126.157 274.946 126.175C274.93 126.193 274.919 126.215 274.913 126.238C274.906 126.261 274.905 126.285 274.909 126.309C275.484 129.642 279.513 129.77 281.693 127.901C281.733 127.867 281.783 127.85 281.835 127.852C281.886 127.854 281.935 127.875 281.971 127.911L283.228 129.172C283.334 129.278 283.331 129.38 283.218 129.479C281.638 130.845 279.911 131.466 278.036 131.342C274.747 131.129 272.103 128.895 272.33 125.44C272.766 118.852 282.528 118.189 283.678 124.706ZM275.251 124.341L280.99 124.335C280.996 124.335 281.001 124.334 281.007 124.331C281.012 124.329 281.016 124.326 281.02 124.322C281.024 124.317 281.027 124.313 281.029 124.307C281.031 124.302 281.031 124.296 281.031 124.291V124.277C281.03 124.013 280.955 123.751 280.811 123.507C280.667 123.262 280.456 123.041 280.19 122.854C279.924 122.668 279.608 122.52 279.261 122.42C278.915 122.32 278.543 122.268 278.168 122.269H278.06C277.302 122.271 276.576 122.485 276.042 122.864C275.508 123.243 275.208 123.756 275.21 124.291V124.304C275.211 124.314 275.215 124.324 275.223 124.331C275.23 124.338 275.24 124.341 275.251 124.341Z" fill="#A3A3A3"/>
<path d="M206.13 129.473C201.793 133.357 193.846 130.869 195.459 124.169C196.878 118.26 206.955 118.919 206.647 125.988C206.643 126.071 206.599 126.113 206.516 126.113H198.062C197.924 126.113 197.861 126.181 197.872 126.319C198.166 129.75 202.547 129.625 204.613 127.918C204.644 127.891 204.685 127.878 204.727 127.88C204.769 127.882 204.809 127.899 204.839 127.928L206.137 129.152C206.159 129.173 206.176 129.198 206.187 129.226C206.199 129.254 206.204 129.283 206.203 129.314C206.203 129.344 206.196 129.373 206.183 129.401C206.171 129.428 206.153 129.453 206.13 129.473ZM198.176 124.341L203.916 124.335C203.921 124.335 203.927 124.334 203.931 124.332C203.936 124.329 203.94 124.326 203.944 124.323C203.947 124.319 203.95 124.314 203.952 124.309C203.953 124.304 203.954 124.299 203.953 124.294V124.284C203.953 124.019 203.878 123.757 203.734 123.513C203.59 123.269 203.379 123.048 203.113 122.861C202.848 122.675 202.533 122.527 202.186 122.427C201.84 122.326 201.468 122.275 201.094 122.276H200.986C200.229 122.278 199.504 122.492 198.97 122.871C198.437 123.25 198.138 123.763 198.139 124.297V124.308C198.14 124.317 198.144 124.325 198.151 124.332C198.158 124.338 198.167 124.341 198.176 124.341Z" fill="#A3A3A3"/>
<path d="M211.109 121.87C211.555 121.269 211.957 120.758 212.691 120.515C219.675 118.172 218.373 127.357 218.397 130.879C218.397 131.025 218.325 131.099 218.181 131.099H215.919C215.8 131.099 215.74 131.039 215.74 130.919C215.733 129.263 216.22 123.686 214.885 122.756C213.661 121.904 211.964 122.553 211.359 123.817C210.616 125.372 210.906 129.097 210.981 130.855C210.982 130.887 210.977 130.918 210.966 130.948C210.955 130.977 210.938 131.004 210.916 131.027C210.894 131.049 210.868 131.068 210.839 131.08C210.81 131.092 210.779 131.099 210.747 131.099H208.557C208.449 131.099 208.394 131.045 208.391 130.936L208.357 120.545C208.355 120.426 208.415 120.366 208.537 120.366L210.771 120.37C210.798 120.37 210.824 120.375 210.848 120.386C210.873 120.396 210.895 120.412 210.913 120.431C210.932 120.451 210.946 120.474 210.955 120.5C210.964 120.525 210.968 120.552 210.967 120.579L210.896 121.793C210.883 122.052 210.954 122.078 211.109 121.87Z" fill="#A3A3A3"/>
<path d="M223.519 121.84C224.704 120.319 226.197 119.801 227.997 120.285C230.283 120.9 230.678 122.942 230.746 125.214C230.802 127.097 230.829 128.985 230.827 130.875C230.827 131.024 230.752 131.099 230.604 131.099H228.342C228.223 131.099 228.163 131.039 228.163 130.919C228.156 129.283 228.603 123.892 227.45 122.881C226.28 121.85 224.458 122.486 223.809 123.743C223.028 125.261 223.421 129.074 223.397 130.872C223.395 131.023 223.318 131.099 223.167 131.099H221.071C220.895 131.099 220.808 131.011 220.808 130.835L220.801 120.579C220.799 120.437 220.87 120.366 221.014 120.366H223.133C223.275 120.366 223.348 120.438 223.353 120.583L223.394 121.799C223.398 121.928 223.44 121.941 223.519 121.84Z" fill="#A3A3A3"/>
<path d="M269.352 127.945C269.437 127.879 269.519 127.884 269.595 127.958L270.761 129.128C270.795 129.161 270.821 129.201 270.838 129.245C270.855 129.289 270.863 129.336 270.86 129.384C270.857 129.431 270.844 129.477 270.822 129.52C270.8 129.562 270.769 129.599 270.731 129.628C267.141 132.437 260.955 131.859 260.002 126.762C258.586 119.166 271.265 117.185 271.39 125.967C271.39 126.064 271.343 126.113 271.248 126.113H262.794C262.755 126.113 262.717 126.122 262.682 126.138C262.648 126.155 262.617 126.179 262.593 126.21C262.568 126.24 262.551 126.275 262.542 126.312C262.533 126.35 262.533 126.389 262.541 126.427C263.234 129.716 267.124 129.679 269.352 127.945ZM262.899 124.338H268.618C268.629 124.338 268.639 124.334 268.647 124.326C268.655 124.319 268.659 124.308 268.659 124.297V124.287C268.659 123.756 268.359 123.246 267.825 122.87C267.291 122.494 266.568 122.283 265.813 122.283H265.705C264.95 122.283 264.226 122.494 263.692 122.87C263.158 123.246 262.858 123.756 262.858 124.287V124.297C262.858 124.308 262.863 124.319 262.87 124.326C262.878 124.334 262.888 124.338 262.899 124.338Z" fill="#A3A3A3"/>
<path d="M236.543 136H234.058L236.127 130.612C236.168 130.504 236.164 130.398 236.117 130.294L231.712 120.569C231.651 120.434 231.694 120.366 231.841 120.366H234.305C234.497 120.366 234.627 120.455 234.697 120.633L237.357 127.377C237.45 127.611 237.54 127.611 237.628 127.377L240.234 120.542C240.279 120.425 240.364 120.366 240.488 120.366H243.013C243.166 120.366 243.212 120.437 243.151 120.579L236.543 136Z" fill="#A3A3A3"/>
</g>
<defs>
<clipPath id="clip0_445_10443">
<rect width="144" height="24" fill="white" transform="translate(43.1001)"/>
</clipPath>
<clipPath id="clip1_445_10443">
<rect width="64.8" height="24" fill="white" transform="translate(219.1)"/>
</clipPath>
<clipPath id="clip2_445_10443">
<rect width="163.886" height="24" fill="white" transform="translate(19.7856 56)"/>
</clipPath>
<clipPath id="clip3_445_10443">
<rect width="91.5429" height="24" fill="white" transform="translate(215.671 56)"/>
</clipPath>
<clipPath id="clip4_445_10443">
<rect width="81.2572" height="24" fill="white" transform="translate(43.3223 112)"/>
</clipPath>
<clipPath id="clip5_445_10443">
<rect width="127.099" height="24" fill="white" transform="translate(156.579 112)"/>
</clipPath>
</defs>
</svg>
