<svg width="1280" height="36" viewBox="0 0 1280 36" fill="none" xmlns="http://www.w3.org/2000/svg">
<g clip-path="url(#clip0_1677_8962)">
<g clip-path="url(#clip1_1677_8962)">
<path d="M23.7905 10.5634C23.7513 10.5572 23.715 10.5389 23.6867 10.5111C23.6584 10.4832 23.6395 10.4472 23.6327 10.4081C23.6259 10.369 23.6315 10.3287 23.6487 10.2929C23.666 10.2571 23.6939 10.2277 23.7288 10.2086C28.1722 7.63715 32.6379 5.05715 37.1259 2.46858C38.6893 1.56687 39.8499 1.03201 40.6076 0.864008C45.6013 -0.241706 49.2888 5.72401 45.9973 9.61715C45.4831 10.224 44.4631 10.968 42.9373 11.8492C40.3728 13.3337 37.7945 14.7926 35.2025 16.2257C35.0482 16.3114 34.8939 16.3114 34.7396 16.2257C31.8322 14.6246 28.9385 13.008 26.0585 11.376C25.3796 10.992 24.6236 10.7212 23.7905 10.5634Z" fill="#A3A3A3"/>
<path d="M83.0222 12.5883L63.5945 1.3717C61.0314 -0.108103 57.754 0.77008 56.2742 3.33318L56.1353 3.57369C54.6555 6.13679 55.5337 9.41422 58.0968 10.894L77.5245 22.1106C80.0876 23.5904 83.365 22.7122 84.8448 20.1491L84.9837 19.9086C86.4635 17.3455 85.5853 14.0681 83.0222 12.5883Z" fill="#A3A3A3"/>
<path d="M118.409 19.548L110.232 19.3732C110.033 19.3697 109.933 19.2686 109.933 19.0697V16.9714C109.933 16.7143 110.062 16.5857 110.319 16.5857H121.736C121.914 16.5857 122.009 16.6732 122.019 16.848C122.448 23.2766 119.838 27.4166 114.192 29.268C112.381 29.8594 109.038 29.9674 107.13 29.4943C92.5453 25.8583 95.5539 4.23773 111.214 5.1583C114.324 5.34001 116.916 6.42515 118.99 8.41373C119.023 8.44615 119.049 8.48497 119.066 8.5278C119.084 8.57063 119.092 8.61657 119.091 8.6628C119.09 8.70903 119.08 8.75458 119.061 8.79665C119.041 8.83872 119.014 8.87642 118.98 8.90744L117.077 10.6252C116.953 10.7383 116.823 10.7434 116.686 10.6406C112.414 7.35944 108.43 7.12973 104.734 9.95144C101.525 12.3994 100.265 16.6474 101.473 20.4172C104.168 28.8154 116.753 29.3606 118.656 19.8514C118.693 19.6526 118.611 19.5514 118.409 19.548Z" fill="#A3A3A3"/>
<path d="M125.377 5.50286C125.377 5.39374 125.421 5.28909 125.498 5.21194C125.575 5.13478 125.68 5.09143 125.789 5.09143L133.539 5.10172C135.067 5.10441 136.58 5.40878 137.991 5.99744C139.402 6.5861 140.684 7.44754 141.763 8.53255C142.841 9.61756 143.696 10.9049 144.279 12.3211C144.861 13.7373 145.159 15.2545 145.157 16.7863V17.5886C145.151 20.6821 143.92 23.6467 141.733 25.8302C139.547 28.0138 136.585 29.2375 133.498 29.232L125.748 29.2217C125.638 29.2217 125.534 29.1784 125.457 29.1012C125.38 29.0241 125.336 28.9194 125.336 28.8103L125.377 5.50286ZM128.818 8.16686L128.849 26.1874C128.849 26.2324 128.867 26.2756 128.898 26.3074C128.93 26.3393 128.973 26.3571 129.018 26.3571L133.107 26.352C134.236 26.35 135.354 26.125 136.397 25.69C137.439 25.255 138.386 24.6184 139.183 23.8165C139.98 23.0147 140.612 22.0634 141.042 21.0168C141.472 19.9703 141.693 18.8491 141.69 17.7171V16.596C141.686 14.31 140.776 12.1192 139.161 10.5057C137.546 8.89211 135.357 7.98792 133.076 7.992L128.988 7.99715C128.943 7.99715 128.899 8.01503 128.868 8.04685C128.836 8.07868 128.818 8.12185 128.818 8.16686Z" fill="#A3A3A3"/>
<path d="M147.687 20.6794C146.175 14.6931 148.895 8.16686 154.964 6.01201C159.397 4.43829 163.746 4.99886 168.011 7.69372C168.14 7.77484 168.248 7.88447 168.327 8.0141C168.406 8.14372 168.454 8.28984 168.468 8.4411C168.481 8.59235 168.459 8.74467 168.404 8.8862C168.349 9.02774 168.262 9.15468 168.15 9.25715L166.505 10.764C166.471 10.7947 166.432 10.8185 166.389 10.8338C166.346 10.8492 166.301 10.8559 166.256 10.8535C166.211 10.8511 166.167 10.8397 166.126 10.8199C166.086 10.8001 166.05 10.7723 166.021 10.7383C163.193 7.41601 158.101 7.43144 154.943 9.45258C146.123 15.1046 151.791 29.3966 162.493 26.4652C165.702 25.584 167.595 23.3829 168.171 19.8617C168.205 19.6697 168.123 19.5703 167.924 19.5634L159.896 19.3783C159.848 19.3776 159.801 19.3675 159.757 19.3485C159.713 19.3296 159.673 19.3021 159.639 19.2677C159.606 19.2333 159.58 19.1927 159.562 19.1481C159.544 19.1036 159.535 19.056 159.536 19.008L159.567 17.064C159.57 16.7451 159.731 16.5857 160.05 16.5857H171.385C171.456 16.5856 171.525 16.6127 171.576 16.6615C171.628 16.7103 171.659 16.7771 171.663 16.848C172.016 23.1634 169.443 27.288 163.943 29.2217C162.046 29.8903 158.317 29.9983 156.332 29.4017C151.683 28.0029 148.801 25.0954 147.687 20.6794Z" fill="#A3A3A3"/>
<path d="M194.77 16.4571C194.727 16.4794 194.692 16.5131 194.667 16.5543C194.642 16.5956 194.629 16.6428 194.63 16.6905C194.63 16.7382 194.644 16.7846 194.67 16.8242C194.695 16.8639 194.732 16.8953 194.775 16.9149C199.743 19.2343 199.306 26.1617 194.719 28.3577C191.751 29.7823 185.832 29.196 182.041 29.1806C181.944 29.1792 181.851 29.1396 181.783 29.0703C181.715 29.001 181.676 28.9076 181.676 28.8103V5.52343C181.676 5.43653 181.709 5.35302 181.769 5.29062C181.828 5.22821 181.91 5.19182 181.995 5.18915C185.297 5.08629 191.319 4.5 194.132 5.95029C198.087 7.99714 199.244 14.1429 194.77 16.4571ZM185.127 8.1L185.148 15.3309C185.148 15.3455 185.151 15.36 185.156 15.3734C185.162 15.3869 185.171 15.399 185.181 15.4091C185.192 15.4192 185.204 15.427 185.218 15.4322C185.232 15.4373 185.246 15.4396 185.261 15.4389L190.203 15.4234C191.256 15.419 192.264 15.0492 193.005 14.3953C193.747 13.7414 194.162 12.857 194.158 11.9366V11.4326C194.156 10.9766 194.052 10.5255 193.85 10.105C193.649 9.68449 193.355 9.30288 192.985 8.98194C192.615 8.66101 192.176 8.40703 191.693 8.23453C191.211 8.06202 190.694 7.97437 190.172 7.97657L185.23 7.992C185.202 7.99332 185.176 8.00528 185.157 8.0254C185.138 8.04551 185.127 8.07223 185.127 8.1ZM185.137 18.4269V26.2337C185.137 26.2719 185.153 26.3085 185.18 26.3355C185.207 26.3625 185.243 26.3777 185.281 26.3777H190.399C191.597 26.3777 192.747 25.9724 193.595 25.251C194.443 24.5296 194.919 23.5511 194.919 22.5309V22.1297C194.919 21.1095 194.443 20.131 193.595 19.4096C192.747 18.6882 191.597 18.2829 190.399 18.2829H185.281C185.243 18.2829 185.207 18.298 185.18 18.325C185.153 18.352 185.137 18.3887 185.137 18.4269Z" fill="#A3A3A3"/>
<path d="M238.592 9.72514C239.867 9.72514 240.901 8.6913 240.901 7.416C240.901 6.1407 239.867 5.10686 238.592 5.10686C237.317 5.10686 236.283 6.1407 236.283 7.416C236.283 8.6913 237.317 9.72514 238.592 9.72514Z" fill="#A3A3A3"/>
<path d="M44.5568 23.6852L25.1398 12.4295C22.5818 10.9467 19.306 11.8183 17.8231 14.3764L17.6787 14.6255C16.1958 17.1836 17.0674 20.4594 19.6255 21.9423L39.0425 33.1979C41.6005 34.6807 44.8763 33.8091 46.3592 31.251L46.5036 31.0019C47.9865 28.4438 47.1148 25.168 44.5568 23.6852Z" fill="#A3A3A3"/>
<path d="M209.9 29.736C198.468 31.3972 196.313 14.4823 206.599 12.7492C213.264 11.6229 215.635 15.5212 216.365 21.1834C216.374 21.2515 216.368 21.3206 216.348 21.3862C216.328 21.4518 216.294 21.5124 216.249 21.564C216.204 21.6155 216.148 21.6569 216.085 21.6853C216.023 21.7136 215.955 21.7284 215.887 21.7286H203.811C203.757 21.7289 203.703 21.7406 203.654 21.763C203.605 21.7854 203.561 21.8178 203.526 21.8583C203.49 21.8987 203.464 21.9461 203.448 21.9973C203.433 22.0486 203.428 22.1025 203.436 22.1554C203.996 26.3777 208.651 28.2394 212.019 25.5806C212.389 25.2857 212.768 25.0063 213.156 24.7423C213.289 24.6497 213.433 24.6326 213.588 24.6909L215.871 25.5754C215.905 25.5886 215.935 25.6091 215.96 25.6356C215.985 25.662 216.003 25.6937 216.014 25.7283C216.025 25.7628 216.028 25.7994 216.023 25.8353C216.018 25.8711 216.004 25.9054 215.984 25.9354C214.477 28.1417 212.59 29.3452 209.9 29.736ZM203.914 18.9154L212.688 18.8846C212.692 18.8846 212.696 18.883 212.699 18.8801C212.702 18.8772 212.703 18.8732 212.703 18.8692V18.8332C212.7 17.9522 212.239 17.109 211.422 16.4889C210.606 15.8688 209.499 15.5225 208.347 15.5263H208.234C207.663 15.5282 207.098 15.616 206.571 15.7847C206.045 15.9535 205.566 16.1999 205.164 16.5098C204.761 16.8198 204.442 17.1872 204.225 17.5912C204.008 17.9951 203.897 18.4276 203.899 18.864V18.9C203.899 18.902 203.899 18.904 203.9 18.9059C203.9 18.9078 203.902 18.9095 203.903 18.9109C203.904 18.9124 203.906 18.9135 203.908 18.9143C203.91 18.915 203.912 18.9154 203.914 18.9154Z" fill="#A3A3A3"/>
<path d="M222.151 14.6314C224.719 12.3583 227.633 11.9434 230.893 13.3869C234.581 15.0172 233.737 25.6474 233.532 28.9029C233.521 29.0914 233.422 29.1857 233.233 29.1857H230.415C230.341 29.1857 230.271 29.157 230.219 29.1059C230.167 29.0548 230.137 28.9854 230.137 28.9132C230.141 25.9474 230.17 23.0006 230.225 20.0726C230.348 13.3097 222.14 14.3434 222.084 20.7C222.053 24.5023 222.053 27.228 222.084 28.8772C222.087 29.0829 221.986 29.1857 221.78 29.1857H218.962C218.791 29.1857 218.705 29.1 218.705 28.9286V13.464C218.705 13.3858 218.736 13.3107 218.79 13.2549C218.845 13.1991 218.92 13.1671 218.998 13.1657L221.636 13.104C221.673 13.1033 221.71 13.11 221.744 13.1237C221.778 13.1373 221.81 13.1577 221.836 13.1835C221.862 13.2094 221.883 13.2402 221.897 13.2742C221.912 13.3083 221.919 13.3448 221.919 13.3817V14.5234C221.919 14.7326 221.996 14.7686 222.151 14.6314Z" fill="#A3A3A3"/>
<path d="M255.363 19.2909C255.42 13.6543 247.438 14.5337 247.407 20.3143C247.39 23.184 247.378 26.0554 247.371 28.9286C247.368 29.1 247.28 29.1857 247.109 29.1857H244.352C244.14 29.1857 244.033 29.0777 244.033 28.8617L244.023 13.4332C244.023 13.2069 244.136 13.0954 244.362 13.0989L246.985 13.1503C247.028 13.1514 247.071 13.1615 247.11 13.18C247.149 13.1985 247.183 13.2249 247.211 13.2575C247.239 13.2901 247.259 13.3282 247.271 13.3691C247.282 13.4101 247.285 13.4529 247.278 13.4949L247.104 14.6469C247.098 14.6804 247.103 14.7145 247.119 14.7444C247.135 14.7743 247.16 14.7984 247.19 14.8133C247.221 14.8281 247.256 14.833 247.291 14.8271C247.325 14.8212 247.357 14.8049 247.381 14.7806C249.078 13.0217 251.137 12.2897 253.558 12.5846C257.148 13.0217 258.557 15.3 258.711 18.8074C258.855 22.1846 258.889 25.56 258.814 28.9337C258.81 29.1017 258.725 29.1857 258.557 29.1857H255.615C255.549 29.1857 255.486 29.1593 255.439 29.1122C255.391 29.0651 255.364 29.001 255.363 28.9337C255.329 25.704 255.329 22.4897 255.363 19.2909Z" fill="#A3A3A3"/>
<path d="M239.964 13.1889L237.002 13.2044C236.906 13.2049 236.828 13.2836 236.828 13.3802L236.91 29.0143C236.911 29.1108 236.989 29.1887 237.086 29.1882L240.048 29.1727C240.145 29.1722 240.223 29.0935 240.222 28.9969L240.14 13.3629C240.14 13.2663 240.061 13.1884 239.964 13.1889Z" fill="#A3A3A3"/>
<path d="M77.2453 23.5955C77.5744 23.7909 78.4281 23.9863 78.8293 24.0583C78.8613 24.063 78.891 24.0777 78.9142 24.1002C78.9374 24.1227 78.9529 24.152 78.9586 24.1838C78.9643 24.2156 78.9598 24.2484 78.9458 24.2776C78.9319 24.3068 78.9091 24.3308 78.8807 24.3463C74.9242 26.64 70.9864 28.9132 67.0676 31.1657C64.5887 32.592 63.2173 33.3532 62.9533 33.4492C57.9699 35.3212 53.1973 29.7155 56.4013 25.2566C56.8916 24.5743 57.819 23.832 59.1836 23.0297C61.8956 21.4423 64.6213 19.8857 67.3607 18.36C67.5116 18.2777 67.6624 18.2743 67.8133 18.3497C71.0053 20.0023 74.1493 21.7509 77.2453 23.5955Z" fill="#A3A3A3"/>
</g>
<g clip-path="url(#clip2_1677_8962)">
<path d="M318.894 20.7926L318.91 19.9131C318.913 19.7383 319.002 19.6509 319.177 19.6509L338.329 19.6817C338.638 19.6817 338.761 19.8343 338.699 20.1394C336.267 32.328 322.16 35.3469 313.371 27.5143C313.338 27.4843 313.314 27.4449 313.304 27.4012C313.293 27.3576 313.296 27.3118 313.312 27.27C313.329 27.2281 313.357 27.1922 313.394 27.1669C313.431 27.1417 313.475 27.1283 313.52 27.1286H325.719C325.976 27.1286 326.105 27.2571 326.105 27.5143V28.1829C326.104 28.2351 326.117 28.2866 326.142 28.3324C326.168 28.3781 326.204 28.4165 326.249 28.444C326.293 28.4714 326.344 28.4868 326.396 28.4888C326.449 28.4909 326.5 28.4793 326.547 28.4554L332.497 25.4366C332.541 25.4147 332.578 25.3805 332.604 25.3381C332.629 25.2957 332.642 25.247 332.64 25.1976C332.639 25.1482 332.623 25.1004 332.595 25.0598C332.567 25.0192 332.527 24.9875 332.482 24.9686C330.545 24.1526 328.637 23.2183 326.758 22.1657C326.48 22.0114 326.297 22.0011 326.207 22.1349C326.122 22.2686 326.087 22.5034 326.105 22.8394C326.122 23.2131 325.942 23.4 325.565 23.4H310.938C310.858 23.4002 310.78 23.3757 310.713 23.3299C310.646 23.2841 310.594 23.2189 310.563 23.1429C309.15 19.5909 309.149 16.0337 310.558 12.4714C310.626 12.3 310.751 12.2143 310.933 12.2143H325.621C325.827 12.2143 325.971 12.3069 326.053 12.492C326.163 12.7423 326.141 12.9823 325.986 13.212C325.954 13.26 325.939 13.3172 325.943 13.3748C325.947 13.4324 325.97 13.487 326.008 13.5304C326.046 13.5737 326.097 13.6033 326.154 13.6145C326.21 13.6258 326.269 13.6181 326.321 13.5926L332.569 10.4966C332.592 10.4854 332.612 10.4681 332.625 10.4466C332.639 10.4251 332.647 10.4002 332.647 10.3747C332.648 10.3492 332.641 10.3241 332.628 10.302C332.615 10.28 332.597 10.2619 332.574 10.2497L326.501 7.11772C326.237 6.98057 326.105 7.06114 326.105 7.35943V8.07943C326.105 8.31943 325.983 8.43943 325.739 8.43943L313.664 8.46514C313.335 8.46514 313.289 8.35029 313.525 8.12057C322.278 -0.313714 336.287 3.62057 338.746 15.7269C338.773 15.8674 338.715 15.9377 338.571 15.9377L319.28 15.9531C319.03 15.9531 318.905 15.828 318.905 15.5777V14.904C318.905 14.8559 318.893 14.8084 318.87 14.7661C318.847 14.7238 318.814 14.6881 318.773 14.6624C318.732 14.6366 318.686 14.6217 318.638 14.619C318.59 14.6162 318.542 14.6258 318.498 14.6469L312.378 17.6194C312.159 17.7257 312.159 17.8354 312.378 17.9486L318.483 21.0394C318.526 21.0613 318.573 21.0718 318.621 21.0702C318.669 21.0686 318.716 21.0547 318.757 21.0301C318.798 21.0054 318.832 20.9706 318.856 20.9291C318.88 20.8875 318.893 20.8406 318.894 20.7926Z" fill="#A3A3A3"/>
<path d="M404.338 10.7897L404.369 5.05029C404.369 4.88229 404.454 4.8 404.626 4.80343L407.418 4.84458C407.566 4.84458 407.639 4.92 407.639 5.07086L407.624 22.2429C407.624 22.3594 407.567 22.404 407.454 22.3766C406.714 22.1811 405.968 22.2 405.217 22.4331C405.169 22.4474 405.119 22.4504 405.07 22.442C405.021 22.4336 404.974 22.4139 404.934 22.3846C404.893 22.3552 404.86 22.3169 404.837 22.2727C404.814 22.2285 404.802 22.1796 404.801 22.1297L404.785 21.2966C404.784 21.2282 404.762 21.1618 404.724 21.105C404.686 21.0483 404.633 21.0035 404.57 20.976C404.508 20.9485 404.439 20.9394 404.371 20.9497C404.303 20.96 404.24 20.9894 404.189 21.0343C401.977 22.9646 399.812 23.184 397.693 21.6926C395.312 20.016 395.307 16.9869 395.538 14.2817C395.909 9.83315 400.738 7.57029 403.998 10.9234C404.221 11.1531 404.334 11.1086 404.338 10.7897ZM401.543 19.9851C401.911 19.9858 402.276 19.8831 402.616 19.6829C402.957 19.4826 403.266 19.1888 403.527 18.8182C403.788 18.4476 403.995 18.0074 404.137 17.5229C404.279 17.0383 404.352 16.5188 404.353 15.994C404.355 14.9342 404.062 13.9173 403.537 13.167C403.013 12.4167 402.301 11.9945 401.557 11.9931C401.189 11.9925 400.825 12.0952 400.484 12.2954C400.144 12.4957 399.834 12.7895 399.573 13.1601C399.312 13.5307 399.105 13.9708 398.964 14.4554C398.822 14.94 398.748 15.4595 398.747 15.9843C398.746 17.0441 399.039 18.061 399.563 18.8113C400.088 19.5616 400.8 19.9838 401.543 19.9851Z" fill="#A3A3A3"/>
<path d="M351.577 15.7783C351.293 12.8572 351.977 10.1812 353.629 7.7503C353.712 7.62775 353.832 7.53512 353.972 7.48611C354.111 7.4371 354.263 7.4343 354.404 7.47813C354.546 7.52195 354.669 7.61008 354.756 7.72949C354.844 7.84889 354.89 7.99322 354.889 8.14115L354.869 15.7012C354.869 15.7405 354.877 15.7795 354.892 15.8158C354.907 15.852 354.93 15.8848 354.958 15.9122C354.986 15.9395 355.02 15.9609 355.057 15.975C355.094 15.9891 355.133 15.9957 355.172 15.9943L356.653 15.9326C356.886 15.9257 357 16.0389 356.993 16.272L356.952 17.9949C356.946 18.161 356.879 18.3189 356.762 18.4364C356.646 18.5539 356.489 18.6222 356.324 18.6274L355.146 18.6686C354.93 18.6789 354.826 18.7903 354.833 19.0029L354.93 22.0834C354.937 22.2549 354.855 22.3372 354.684 22.3303L351.798 22.2069C351.641 22.2 351.562 22.1194 351.562 21.9652V19.296C351.562 19.1282 351.495 18.9673 351.377 18.8487C351.258 18.7301 351.097 18.6634 350.929 18.6634L344.47 18.6326C344.254 18.6326 344.132 18.5263 344.105 18.3137C343.94 17.0074 344.262 15.6892 345.072 14.3589C346.474 12.0514 347.607 9.16801 348.471 5.70858C348.522 5.50287 348.654 5.40001 348.867 5.40001H351.69C351.941 5.40001 352.033 5.52172 351.968 5.76515C350.991 9.4063 349.335 12.3634 347.257 15.66C347.144 15.8383 347.194 15.9309 347.406 15.9377L351.346 16.0303C351.517 16.0337 351.594 15.9497 351.577 15.7783Z" fill="#A3A3A3"/>
<path d="M363.596 8.74285H358.669C358.626 8.74285 358.584 8.72551 358.553 8.69465C358.522 8.66379 358.505 8.62193 358.505 8.57828V5.93485C358.505 5.8912 358.522 5.84935 358.553 5.81848C358.584 5.78762 358.626 5.77028 358.669 5.77028L372.483 5.75999C372.527 5.75999 372.568 5.77733 372.599 5.8082C372.63 5.83906 372.647 5.88092 372.647 5.92457V8.58342C372.647 8.62707 372.63 8.66893 372.599 8.69979C372.568 8.73066 372.527 8.748 372.483 8.748L367.541 8.74285C367.497 8.74285 367.455 8.76019 367.424 8.79105C367.393 8.82192 367.376 8.86378 367.376 8.90742V22.1349C367.376 22.1785 367.359 22.2204 367.328 22.2512C367.297 22.2821 367.255 22.2994 367.211 22.2994L363.946 22.2531C363.902 22.2531 363.86 22.2358 363.829 22.2049C363.799 22.1741 363.781 22.1322 363.781 22.0886L363.761 8.90742C363.761 8.86378 363.743 8.82192 363.712 8.79105C363.682 8.76019 363.64 8.74285 363.596 8.74285Z" fill="#A3A3A3"/>
<path d="M376.335 11.2731C377.144 9.79886 378.389 9.17829 380.069 9.41143C380.161 9.42461 380.249 9.45742 380.327 9.50768C380.405 9.55793 380.472 9.62447 380.523 9.70284C380.573 9.78122 380.607 9.86963 380.621 9.96216C380.635 10.0547 380.629 10.1492 380.604 10.2394C380.422 10.8874 380.424 11.532 380.609 12.1731C380.664 12.3549 380.6 12.4783 380.418 12.5434C378.747 13.1503 376.849 12.348 376.546 14.9194C376.374 16.3629 376.333 18.732 376.422 22.0269C376.429 22.2154 376.337 22.3063 376.145 22.2994L373.522 22.2171C373.272 22.2103 373.146 22.0817 373.146 21.8314L373.167 9.96172C373.168 9.8767 373.203 9.79561 373.262 9.73596C373.322 9.67631 373.402 9.64287 373.486 9.64286H375.605C375.707 9.64286 375.805 9.6835 375.878 9.75583C375.95 9.82817 375.99 9.92628 375.99 10.0286V11.1857C375.992 11.2258 376.006 11.2643 376.031 11.2954C376.057 11.3266 376.091 11.3488 376.13 11.3587C376.169 11.3685 376.21 11.3655 376.247 11.3501C376.284 11.3347 376.315 11.3077 376.335 11.2731Z" fill="#A3A3A3"/>
<path d="M389.501 21.0754C382.265 27.1903 375.697 14.4206 388.93 14.6726C389.084 14.676 389.183 14.604 389.228 14.4566C390.174 11.4686 386.219 10.7743 385.175 13.0989C385.1 13.2634 384.971 13.3474 384.79 13.3509L382.213 13.4126C382.014 13.416 381.91 13.3183 381.899 13.1194C381.678 8.72744 388.544 9.01544 391.049 10.2394C393.409 11.3966 392.735 16.0509 392.689 19.0492C392.675 19.8377 393.137 20.1686 394.073 20.0417C394.111 20.0366 394.149 20.0396 394.186 20.0507C394.223 20.0618 394.257 20.0807 394.285 20.1061C394.314 20.1315 394.337 20.1627 394.353 20.1978C394.368 20.2328 394.376 20.2708 394.376 20.3092V21.8572C394.376 21.9332 394.354 22.0078 394.312 22.0717C394.27 22.1356 394.21 22.1862 394.139 22.2172C392.326 22.9886 390.863 22.6183 389.753 21.1063C389.739 21.0865 389.721 21.0699 389.701 21.0575C389.68 21.0451 389.657 21.0371 389.634 21.0342C389.61 21.0313 389.586 21.0335 389.563 21.0406C389.54 21.0477 389.519 21.0596 389.501 21.0754ZM388.39 16.668L385.031 17.4446C384.95 17.4634 384.872 17.4981 384.804 17.5468C384.736 17.5955 384.678 17.6573 384.633 17.7284C384.589 17.7996 384.559 17.8789 384.545 17.9617C384.531 18.0445 384.534 18.1291 384.553 18.2109L384.599 18.4217C384.665 18.7035 384.785 18.9696 384.954 19.2049C385.122 19.4401 385.335 19.6399 385.581 19.7927C385.827 19.9456 386.101 20.0485 386.387 20.0956C386.673 20.1428 386.966 20.1332 387.248 20.0674L387.546 20.0006C387.829 19.9356 388.096 19.8156 388.332 19.6475C388.569 19.4794 388.769 19.2665 388.923 19.021C389.077 18.7755 389.181 18.5021 389.229 18.2166C389.277 17.9311 389.268 17.6391 389.202 17.3572L389.151 17.1463C389.113 16.9822 389.011 16.8398 388.869 16.7502C388.726 16.6606 388.554 16.6311 388.39 16.668Z" fill="#A3A3A3"/>
<path d="M413.559 17.0126C413.605 19.5223 415.812 21.1011 418.198 19.7229C418.387 19.6138 418.529 19.4382 418.599 19.2291C419.093 17.7 420.236 17.2543 422.029 17.892C422.152 17.9357 422.255 18.0231 422.316 18.1372C422.378 18.2513 422.395 18.3839 422.364 18.5091C421.052 24.0377 412.068 24.0223 410.504 18.8177C409.038 13.932 410.885 9.13371 416.753 9.42171C421.417 9.65314 422.076 12.3326 422.384 16.2051C422.415 16.6029 422.23 16.8 421.829 16.7966L413.862 16.7091C413.657 16.7057 413.556 16.8069 413.559 17.0126ZM413.955 14.7086L418.573 14.616C418.608 14.6153 418.642 14.6079 418.673 14.5941C418.705 14.5803 418.733 14.5604 418.757 14.5356C418.781 14.5107 418.8 14.4814 418.813 14.4493C418.825 14.4173 418.831 14.383 418.83 14.3486L418.825 14.1326C418.813 13.5105 418.538 12.9191 418.063 12.4882C417.588 12.0573 416.95 11.8219 416.29 11.8337H416.136C415.808 11.8401 415.484 11.9073 415.184 12.0315C414.883 12.1557 414.612 12.3344 414.384 12.5575C414.157 12.7805 413.978 13.0435 413.859 13.3315C413.739 13.6194 413.681 13.9266 413.688 14.2354V14.4514C413.688 14.4859 413.696 14.5198 413.71 14.5514C413.723 14.583 413.743 14.6115 413.768 14.6354C413.793 14.6593 413.822 14.678 413.854 14.6906C413.886 14.7031 413.921 14.7092 413.955 14.7086Z" fill="#A3A3A3"/>
<path d="M428.123 11.2783C429.059 9.94629 429.995 8.93829 431.898 9.49886C431.953 9.51595 432.002 9.54945 432.039 9.59518C432.075 9.6409 432.098 9.69683 432.104 9.756L432.341 12.2966C432.344 12.3333 432.34 12.3704 432.328 12.4055C432.316 12.4406 432.297 12.4729 432.272 12.5005C432.247 12.528 432.216 12.5501 432.182 12.5655C432.148 12.5809 432.111 12.5891 432.073 12.5897C429.975 12.6206 428.231 13.068 428.216 15.4286C428.202 17.6503 428.192 19.872 428.185 22.0937C428.185 22.2446 428.11 22.3166 427.959 22.3097L425.089 22.212C424.928 22.2086 424.847 22.1263 424.847 21.9651V10.044C424.847 9.77657 424.981 9.64286 425.249 9.64286H427.331C427.534 9.64286 427.647 9.74229 427.671 9.94114L427.841 11.2114C427.875 11.472 427.969 11.4943 428.123 11.2783Z" fill="#A3A3A3"/>
<path d="M439.093 18.0514L436.589 22.1606C436.573 22.1859 436.551 22.2067 436.525 22.2211C436.499 22.2355 436.469 22.243 436.44 22.2429H432.973C432.941 22.2424 432.91 22.2331 432.883 22.2161C432.856 22.1991 432.834 22.1749 432.819 22.1462C432.805 22.1176 432.799 22.0855 432.802 22.0536C432.804 22.0217 432.816 21.9911 432.834 21.9651L437.216 15.8709C437.238 15.841 437.25 15.805 437.25 15.768C437.25 15.731 437.238 15.695 437.216 15.6651L433.189 9.92058C433.17 9.89431 433.159 9.86325 433.156 9.83086C433.154 9.79847 433.161 9.76604 433.176 9.73721C433.19 9.70837 433.213 9.68427 433.241 9.66761C433.269 9.65095 433.301 9.64238 433.333 9.64286H437.01C437.042 9.64235 437.072 9.65019 437.1 9.66557C437.127 9.68094 437.149 9.70328 437.165 9.73029L439.33 13.4537C439.345 13.4804 439.367 13.5026 439.394 13.5181C439.421 13.5335 439.451 13.5416 439.482 13.5416C439.512 13.5416 439.543 13.5335 439.569 13.5181C439.596 13.5026 439.618 13.4804 439.633 13.4537L441.891 9.72515C441.907 9.69985 441.929 9.67902 441.955 9.66461C441.981 9.65021 442.01 9.64272 442.04 9.64286H445.481C445.513 9.64333 445.544 9.65258 445.571 9.66963C445.598 9.68667 445.62 9.71084 445.635 9.7395C445.649 9.76816 445.655 9.80021 445.653 9.83214C445.65 9.86407 445.638 9.89467 445.62 9.92058L441.505 15.6137C441.484 15.6436 441.472 15.6796 441.472 15.7166C441.472 15.7535 441.484 15.7895 441.505 15.8194L445.902 22.0371C445.922 22.0634 445.933 22.0945 445.935 22.1269C445.938 22.1593 445.931 22.1917 445.916 22.2205C445.901 22.2493 445.879 22.2734 445.851 22.2901C445.823 22.3068 445.791 22.3153 445.758 22.3149L442.117 22.2943C442.088 22.2944 442.058 22.2869 442.032 22.2725C442.006 22.2581 441.984 22.2373 441.968 22.212L439.392 18.0514C439.376 18.0259 439.354 18.0048 439.328 17.9902C439.302 17.9755 439.272 17.9679 439.242 17.9679C439.213 17.9679 439.183 17.9755 439.157 17.9902C439.131 18.0048 439.109 18.0259 439.093 18.0514Z" fill="#A3A3A3"/>
<path d="M374.38 26.5114L374.36 26.5115C374.192 26.5118 374.056 26.6478 374.057 26.8154L374.067 32.8634C374.068 33.031 374.204 33.1666 374.371 33.1663L374.392 33.1663C374.559 33.166 374.695 33.0299 374.695 32.8623L374.684 26.8143C374.684 26.6467 374.548 26.5111 374.38 26.5114Z" fill="#A3A3A3"/>
<path d="M379.627 28.5531L381.303 28.7589C381.361 28.7654 381.416 28.7874 381.463 28.8226C381.51 28.8578 381.547 28.9051 381.571 28.9594L382.676 31.6029C382.701 31.664 382.744 31.7164 382.798 31.7535C382.853 31.7905 382.917 31.8106 382.983 31.8112C383.049 31.8117 383.114 31.7927 383.169 31.7566C383.224 31.7204 383.268 31.6687 383.293 31.608L384.569 28.656C384.598 28.5915 384.645 28.5365 384.705 28.4974C384.765 28.4583 384.836 28.4366 384.908 28.4349H385.068C385.267 28.4349 385.327 28.5257 385.248 28.7074L382.491 34.9817C382.435 35.1112 382.344 35.2226 382.228 35.3035C382.112 35.3845 381.976 35.4318 381.835 35.4403C381.694 35.4488 381.553 35.4182 381.429 35.3518C381.304 35.2854 381.2 35.1858 381.128 35.064L381.02 34.884C380.924 34.7229 380.967 34.6166 381.149 34.5651C383.54 33.876 381.668 31.0629 381.159 29.592C381.101 29.4274 380.991 29.3091 380.83 29.2371C380.35 29.0143 379.921 29.0709 379.544 29.4069C379.481 29.4634 379.431 29.533 379.396 29.6109C379.362 29.6889 379.344 29.7736 379.344 29.8594L379.318 32.9554C379.318 33.0032 379.306 33.0501 379.282 33.0917C379.259 33.1333 379.225 33.1683 379.184 33.1935C379.143 33.2186 379.096 33.2331 379.047 33.2356C378.999 33.238 378.95 33.2283 378.907 33.2074L378.685 33.0994C378.611 33.0648 378.55 33.0062 378.514 32.9332C378.477 32.8602 378.467 32.7773 378.485 32.6983C378.749 31.4777 378.644 30.324 378.171 29.2371C378.103 29.076 378.101 28.9131 378.166 28.7486L378.891 26.9794C378.937 26.8707 379.024 26.784 379.133 26.7377C379.664 26.5149 380.204 26.5046 380.753 26.7069C380.794 26.7245 380.829 26.7559 380.85 26.7959C380.871 26.8359 380.877 26.8819 380.868 26.9262C380.859 26.9705 380.835 27.0102 380.8 27.0386C380.765 27.0671 380.721 27.0825 380.676 27.0823C380.055 27.0583 379.585 27.2846 379.267 27.7611C379.218 27.8342 379.19 27.9184 379.183 28.0056C379.176 28.0928 379.191 28.1803 379.227 28.2596C379.263 28.3389 379.319 28.4075 379.389 28.4589C379.459 28.5102 379.54 28.5427 379.627 28.5531Z" fill="#A3A3A3"/>
<path d="M352.817 32.0297C354.174 32.3537 354.591 32.7806 356.072 32.364C356.239 32.3163 356.387 32.2162 356.493 32.0785C356.599 31.9407 356.658 31.7726 356.661 31.5988C356.665 31.4251 356.612 31.2547 356.512 31.1129C356.411 30.9711 356.268 30.8652 356.103 30.8109L353.326 29.9109C353.199 29.8707 353.088 29.7893 353.012 29.6794C351.335 27.2983 354.982 26.1309 356.813 27.2212C356.981 27.3206 357.077 27.4354 357.101 27.5657C357.118 27.6652 357.106 27.7543 357.065 27.8332C357.047 27.8646 357.024 27.8922 356.996 27.9141C356.968 27.9361 356.935 27.9519 356.901 27.9606C356.866 27.9693 356.831 27.9707 356.796 27.9647C356.761 27.9587 356.729 27.9454 356.699 27.9257C355.623 27.2023 354.651 27.156 353.783 27.7869C353.286 28.1469 353.185 28.5412 353.48 28.9697C353.938 29.6434 355.774 29.9572 356.545 30.1372C356.717 30.1749 356.845 30.2692 356.931 30.42C358.782 33.5983 354.179 33.3257 352.626 32.5594C352.563 32.5292 352.513 32.4766 352.487 32.4118C352.46 32.347 352.458 32.2745 352.482 32.2086C352.506 32.1426 352.553 32.0878 352.615 32.0547C352.677 32.0217 352.749 32.0128 352.817 32.0297Z" fill="#A3A3A3"/>
<path d="M358.505 26.8303C358.514 26.7977 358.531 26.7681 358.555 26.7444C358.579 26.7206 358.609 26.7034 358.642 26.6946C358.674 26.6858 358.709 26.6856 358.742 26.6941C358.774 26.7025 358.804 26.7194 358.829 26.7429L359.276 27.1903C359.499 27.4166 359.454 27.5503 359.142 27.5914L358.613 27.6634C358.366 27.6977 358.278 27.5949 358.35 27.3549L358.505 26.8303Z" fill="#A3A3A3"/>
<path d="M386.369 27.6583C386.613 27.6583 386.811 27.4603 386.811 27.216C386.811 26.9717 386.613 26.7737 386.369 26.7737C386.124 26.7737 385.926 26.9717 385.926 27.216C385.926 27.4603 386.124 27.6583 386.369 27.6583Z" fill="#A3A3A3"/>
<path d="M376.288 27.6403C376.522 27.7024 376.755 27.5881 376.809 27.385C376.863 27.1819 376.718 26.9669 376.484 26.9048C376.251 26.8427 376.018 26.957 375.964 27.1602C375.91 27.3633 376.055 27.5783 376.288 27.6403Z" fill="#A3A3A3"/>
<path d="M436.167 29.6486V32.1274C436.167 32.1801 436.177 32.2323 436.197 32.281C436.217 32.3296 436.246 32.3738 436.283 32.4111C436.32 32.4483 436.363 32.4779 436.411 32.4981C436.459 32.5182 436.511 32.5286 436.563 32.5286H437.062C437.096 32.5286 437.13 32.5354 437.161 32.5486C437.193 32.5619 437.222 32.5813 437.245 32.6057C437.269 32.6301 437.288 32.6591 437.301 32.6909C437.313 32.7227 437.32 32.7567 437.319 32.7909C437.319 32.8354 437.319 32.88 437.319 32.9246C437.312 33.0892 437.226 33.1714 437.062 33.1714H436.373C436.21 33.1716 436.05 33.1344 435.905 33.0626C435.759 32.9908 435.632 32.8864 435.534 32.7575C435.435 32.6286 435.368 32.4787 435.337 32.3194C435.306 32.1602 435.312 31.996 435.354 31.8394C435.67 30.6806 435.408 29.7257 434.568 28.9749C434.536 28.9471 434.512 28.9108 434.5 28.8701C434.488 28.8295 434.488 28.7863 434.5 28.7457C434.512 28.7051 434.536 28.6688 434.568 28.641C434.6 28.6133 434.639 28.5953 434.681 28.5892C435.24 28.4932 435.504 28.1246 435.473 27.4834C435.47 27.4271 435.485 27.3713 435.514 27.3232C435.544 27.2752 435.587 27.2371 435.639 27.2139C435.69 27.1907 435.747 27.1834 435.803 27.1929C435.859 27.2025 435.91 27.2284 435.951 27.2674C436.136 27.4457 436.181 27.7286 436.085 28.116C436.064 28.1944 436.075 28.2777 436.116 28.348C436.156 28.4182 436.223 28.4698 436.301 28.4914L437.093 28.7177C437.158 28.7349 437.19 28.7777 437.19 28.8463V29.0572C437.19 29.2286 437.105 29.3143 436.933 29.3143H436.501C436.413 29.3143 436.328 29.3495 436.265 29.4122C436.202 29.4749 436.167 29.5599 436.167 29.6486Z" fill="#A3A3A3"/>
<path d="M358.907 28.5868L358.783 28.5832C358.63 28.5786 358.502 28.6992 358.497 28.8525L358.379 32.8416C358.374 32.9949 358.495 33.1229 358.648 33.1275L358.772 33.1311C358.925 33.1357 359.053 33.0151 359.058 32.8618L359.176 28.8727C359.18 28.7194 359.06 28.5914 358.907 28.5868Z" fill="#A3A3A3"/>
<path d="M366.466 33.1509C367.001 31.7246 366.946 30.6857 366.301 30.0343L365.751 29.304C365.658 29.184 365.542 29.1497 365.401 29.2012C363.504 29.9006 364.527 31.572 364.213 32.9812C364.199 33.0697 364.151 33.1494 364.08 33.2037C364.008 33.258 363.919 33.2827 363.829 33.2728C363.74 33.2629 363.658 33.2191 363.601 33.1505C363.543 33.0818 363.514 32.9936 363.519 32.904V30.3326C363.519 30.1474 363.459 29.9863 363.339 29.8492C362.945 29.3932 362.446 29.268 361.842 29.4737C361.644 29.5423 361.534 29.6812 361.513 29.8903L361.22 33.1509C361.217 33.2204 361.186 33.2858 361.134 33.3326C361.083 33.3793 361.015 33.4037 360.945 33.4003C360.875 33.3969 360.81 33.366 360.763 33.3144C360.717 33.2628 360.692 33.1947 360.696 33.1252L360.69 28.8874C360.69 28.6783 360.792 28.6012 360.994 28.656L361.534 28.7949C361.668 28.8292 361.796 28.8154 361.92 28.7537C362.643 28.3972 363.337 28.4726 364.002 28.98C364.06 29.0223 364.129 29.0444 364.199 29.0425C364.269 29.0406 364.336 29.015 364.388 28.9697C364.673 28.7229 364.942 28.5857 365.196 28.5583C367.834 28.2652 367.294 31.1503 367.181 32.7703C367.174 32.9074 367.104 32.9932 366.97 33.0274L366.466 33.1509Z" fill="#A3A3A3"/>
<path d="M369.336 28.9389L369.5 29.6743C368.456 32.3795 371.424 33.7217 371.964 31.4949C372.18 30.6069 372.036 29.9126 371.532 29.412C371.11 28.9937 370.671 28.9714 370.215 29.3452L369.876 29.304C369.756 29.2903 369.692 29.2217 369.685 29.0983C369.682 29.0503 369.684 28.9989 369.69 28.944C372.565 26.5423 374.874 33.84 369.886 33.1457C369.752 33.1252 369.687 33.048 369.69 32.9143C369.69 32.856 369.692 32.8012 369.696 32.7497C369.702 32.5269 369.629 32.496 369.474 32.6572C369.413 32.7189 369.363 32.7995 369.325 32.8989C369.114 33.4389 369.408 34.3697 369.228 34.9509C369.2 35.0261 369.148 35.0896 369.079 35.1305C369.011 35.1714 368.93 35.1871 368.851 35.1749C368.772 35.1628 368.7 35.1235 368.646 35.0639C368.593 35.0042 368.562 34.9279 368.559 34.848L368.518 28.8103C368.518 28.5806 368.628 28.5017 368.847 28.5737C368.988 28.6183 369.15 28.74 369.336 28.9389Z" fill="#A3A3A3"/>
<path d="M376.498 28.5737L376.467 28.5738C376.265 28.5749 376.103 28.7392 376.104 28.9409L376.124 32.798C376.125 32.9996 376.289 33.1623 376.491 33.1612L376.522 33.161C376.723 33.16 376.886 32.9956 376.885 32.794L376.865 28.9369C376.864 28.7352 376.699 28.5726 376.498 28.5737Z" fill="#A3A3A3"/>
<path d="M386.541 28.6109L386.459 28.6094C386.257 28.6055 386.09 28.7658 386.086 28.9674L386.013 32.7724C386.01 32.9741 386.17 33.1406 386.372 33.1445L386.454 33.1461C386.655 33.15 386.822 32.9897 386.826 32.788L386.899 28.983C386.903 28.7814 386.742 28.6148 386.541 28.6109Z" fill="#A3A3A3"/>
<path d="M396.67 34.1074V32.9349C396.67 32.8901 396.657 32.8463 396.634 32.8079C396.611 32.7695 396.578 32.7379 396.539 32.7165C396.5 32.695 396.455 32.6844 396.411 32.6857C396.366 32.687 396.322 32.7002 396.284 32.724C392.576 34.9971 391.969 26.8303 396.433 28.8823C396.461 28.8952 396.492 28.9024 396.523 28.9033C396.553 28.9042 396.584 28.8988 396.613 28.8874L397.256 28.6354C397.486 28.5463 397.592 28.6251 397.575 28.872C397.359 31.7829 398.892 36.0874 393.96 34.8789C393.754 34.8274 393.613 34.7263 393.538 34.5754C393.456 34.4074 393.507 34.3286 393.692 34.3389L396.269 34.488C396.32 34.4915 396.372 34.4843 396.42 34.4668C396.469 34.4492 396.513 34.4218 396.551 34.3861C396.589 34.3504 396.619 34.3072 396.639 34.2593C396.66 34.2113 396.67 34.1596 396.67 34.1074ZM395.121 32.3951C395.306 32.4279 395.495 32.4185 395.68 32.3673C395.865 32.3162 396.041 32.2244 396.198 32.0972C396.355 31.9699 396.49 31.8097 396.595 31.6257C396.701 31.4417 396.775 31.2375 396.813 31.0247C396.85 30.8119 396.852 30.5948 396.816 30.3856C396.781 30.1765 396.709 29.9795 396.606 29.8059C396.502 29.6322 396.369 29.4853 396.213 29.3736C396.058 29.2618 395.883 29.1875 395.699 29.1546C395.514 29.1218 395.325 29.1313 395.14 29.1824C394.955 29.2335 394.779 29.3253 394.622 29.4525C394.465 29.5798 394.33 29.74 394.225 29.924C394.119 30.108 394.045 30.3122 394.008 30.525C393.97 30.7378 393.968 30.9549 394.004 31.1641C394.039 31.3732 394.111 31.5702 394.214 31.7439C394.318 31.9175 394.451 32.0644 394.607 32.1761C394.762 32.2879 394.937 32.3623 395.121 32.3951Z" fill="#A3A3A3"/>
<path d="M401.447 28.6766C402.532 28.8669 403.268 28.4606 404.024 28.548C406.102 28.7897 406.734 33.9326 402.46 32.9863C402.415 32.9763 402.368 32.9767 402.323 32.9876C402.278 32.9984 402.236 33.0195 402.2 33.0491C402.164 33.0787 402.135 33.1162 402.115 33.1588C402.095 33.2013 402.085 33.2478 402.085 33.2949C402.099 33.7954 402.097 34.2994 402.08 34.8069C402.08 34.9058 402.041 35.0001 401.971 35.0691C401.901 35.1381 401.806 35.1761 401.707 35.1747C401.608 35.1733 401.513 35.1327 401.443 35.0618C401.373 34.9909 401.334 34.8955 401.334 34.7966L401.283 28.8154C401.282 28.7948 401.287 28.7744 401.295 28.7556C401.304 28.7368 401.316 28.7202 401.332 28.7069C401.348 28.6936 401.366 28.684 401.386 28.6788C401.406 28.6735 401.427 28.6728 401.447 28.6766ZM403.392 32.6452C403.585 32.6536 403.777 32.6169 403.959 32.5371C404.14 32.4573 404.307 32.3361 404.45 32.1803C404.593 32.0245 404.709 31.8372 404.792 31.6291C404.875 31.4209 404.923 31.1961 404.933 30.9674C404.953 30.5054 404.818 30.0557 404.558 29.717C404.297 29.3784 403.933 29.1786 403.545 29.1617C403.352 29.1533 403.16 29.19 402.978 29.2698C402.797 29.3495 402.63 29.4708 402.487 29.6266C402.344 29.7824 402.228 29.9697 402.145 30.1778C402.062 30.3859 402.014 30.6108 402.004 30.8395C401.984 31.3015 402.119 31.7512 402.379 32.0899C402.64 32.4285 403.004 32.6283 403.392 32.6452Z" fill="#A3A3A3"/>
<path d="M410.828 32.8371C410.828 32.9203 410.795 33.0001 410.736 33.059C410.678 33.1178 410.598 33.1509 410.515 33.1509L408.375 33.1457C408.138 33.145 407.904 33.0976 407.685 33.006C407.466 32.9144 407.267 32.7804 407.1 32.6119C406.933 32.4433 406.801 32.2433 406.711 32.0234C406.621 31.8036 406.575 31.568 406.575 31.3303V30.4457C406.576 30.208 406.623 29.9727 406.715 29.7533C406.806 29.534 406.939 29.3348 407.108 29.1672C407.276 28.9995 407.475 28.8668 407.694 28.7764C407.914 28.6861 408.148 28.6399 408.385 28.6406L410.525 28.6457C410.608 28.6457 410.688 28.6788 410.747 28.7376C410.806 28.7964 410.839 28.8762 410.839 28.9594L410.828 32.8371ZM408.567 32.633C408.757 32.6453 408.948 32.6127 409.129 32.5371C409.31 32.4616 409.478 32.3445 409.623 32.1926C409.768 32.0407 409.887 31.8569 409.973 31.6518C410.059 31.4466 410.111 31.2242 410.126 30.997C410.156 30.5383 410.032 30.0886 409.781 29.7466C409.531 29.4047 409.174 29.1987 408.79 29.1739C408.6 29.1616 408.409 29.1942 408.228 29.2697C408.047 29.3453 407.879 29.4624 407.734 29.6143C407.59 29.7662 407.471 29.95 407.384 30.1551C407.298 30.3602 407.246 30.5827 407.231 30.8098C407.202 31.2685 407.326 31.7183 407.576 32.0602C407.827 32.4021 408.183 32.6081 408.567 32.633Z" fill="#A3A3A3"/>
<path d="M413.662 31.5514C413.693 31.5924 413.735 31.6245 413.783 31.6444C413.83 31.6644 413.882 31.6717 413.934 31.6654C413.985 31.6592 414.034 31.6397 414.076 31.6089C414.117 31.5781 414.15 31.537 414.171 31.4897L415.415 28.6097C415.445 28.5333 415.504 28.472 415.58 28.4392C415.655 28.4064 415.74 28.4049 415.817 28.4349C415.893 28.4649 415.954 28.524 415.987 28.5992C416.02 28.6745 416.021 28.7596 415.991 28.836C415.472 30.2709 413.903 35.4189 411.903 35.0537C411.863 35.0467 411.826 35.0264 411.8 34.9962C411.773 34.9659 411.757 34.9275 411.754 34.887C411.752 34.8465 411.763 34.8065 411.786 34.7733C411.81 34.74 411.843 34.7156 411.882 34.704C414.654 33.8246 412.335 30.672 411.851 28.9851C411.786 28.7657 411.869 28.6629 412.098 28.6766C412.208 28.6834 412.309 28.728 412.402 28.8103C412.782 29.1497 413.189 30.9446 413.662 31.5514Z" fill="#A3A3A3"/>
<path d="M420.641 29.8594L420.589 33.0532C420.589 33.132 420.548 33.1714 420.466 33.1714H420.198C420.013 33.1714 419.917 33.0789 419.91 32.8937L419.802 29.7926C419.798 29.7046 419.767 29.6205 419.715 29.5516C419.662 29.4826 419.591 29.4321 419.509 29.4069C417.066 28.6252 417.658 31.5514 417.73 32.7549C417.744 32.9743 417.642 33.0994 417.426 33.1303L417.231 33.1612C417.203 33.1657 417.174 33.1639 417.147 33.1562C417.119 33.1484 417.094 33.1347 417.072 33.1161C417.051 33.0975 417.034 33.0744 417.022 33.0484C417.01 33.0224 417.004 32.9942 417.005 32.9657V28.9183C417.005 28.7126 417.106 28.632 417.308 28.6766C418.537 28.944 418.954 28.1572 420.224 29.0109C420.293 29.0554 420.373 29.079 420.456 29.079C420.538 29.079 420.618 29.0554 420.687 29.0109C421.458 28.5206 422.286 28.4674 423.171 28.8514C423.366 28.9372 423.466 29.0846 423.469 29.2937L423.526 32.9554C423.527 33.0212 423.509 33.0859 423.472 33.1407C423.436 33.1954 423.383 33.2375 423.322 33.2611C423.26 33.2848 423.193 33.2889 423.129 33.2728C423.065 33.2568 423.008 33.2214 422.965 33.1714C422.605 32.76 422.842 30.6617 422.703 29.5766C422.672 29.316 422.526 29.2046 422.266 29.2423L421.032 29.4172C420.774 29.4514 420.644 29.5989 420.641 29.8594Z" fill="#A3A3A3"/>
<path d="M425.393 31.2532C425.521 32.7909 427.208 32.6469 428.206 32.436C428.27 32.4218 428.337 32.4322 428.393 32.465C428.449 32.4978 428.491 32.5508 428.51 32.6137C428.529 32.6765 428.525 32.7447 428.497 32.8051C428.469 32.8654 428.42 32.9135 428.36 32.94C426.776 33.588 424.884 33.2692 424.632 31.2943C424.225 28.0852 428.746 27.3754 428.571 30.7132C428.564 30.8949 428.468 30.9857 428.283 30.9857H425.64C425.461 30.9857 425.379 31.0749 425.393 31.2532ZM425.778 30.4766L427.671 30.4663C427.731 30.465 427.789 30.44 427.831 30.3967C427.874 30.3535 427.897 30.2954 427.897 30.2349V30.1629C427.897 30.0177 427.867 29.874 427.811 29.7401C427.755 29.6062 427.673 29.4847 427.57 29.3825C427.467 29.2803 427.344 29.1994 427.21 29.1445C427.076 29.0896 426.932 29.0616 426.786 29.0623H426.642C426.497 29.063 426.354 29.0922 426.22 29.1484C426.086 29.2046 425.964 29.2866 425.862 29.3898C425.76 29.4929 425.679 29.6152 425.624 29.7496C425.569 29.884 425.541 30.028 425.542 30.1732V30.2452C425.542 30.276 425.548 30.3065 425.56 30.3349C425.572 30.3633 425.589 30.3891 425.611 30.4106C425.633 30.4322 425.66 30.4491 425.688 30.4605C425.717 30.4718 425.748 30.4773 425.778 30.4766Z" fill="#A3A3A3"/>
<path d="M432.675 28.5634C432.797 28.5507 432.921 28.5633 433.039 28.6006C433.156 28.6378 433.264 28.6989 433.357 28.78C433.45 28.8611 433.525 28.9605 433.577 29.0719C433.63 29.1833 433.659 29.3043 433.662 29.4275L433.745 32.868C433.748 33.0703 433.647 33.1749 433.441 33.1817C433.116 33.192 432.972 33.0737 433.009 32.8269C433.184 31.6955 433.119 30.5863 432.814 29.4994C432.762 29.3074 432.637 29.2132 432.438 29.2166L431.194 29.2474C431.076 29.2499 430.964 29.2964 430.88 29.3776C430.796 29.4588 430.746 29.5685 430.741 29.6846L430.587 32.9092C430.585 32.9494 430.575 32.9888 430.557 33.0249C430.539 33.061 430.514 33.0929 430.483 33.1185C430.452 33.1442 430.416 33.1631 430.377 33.174C430.338 33.1849 430.298 33.1875 430.258 33.1817C430.186 33.1714 430.121 33.1697 430.062 33.1766C429.929 33.1869 429.862 33.1269 429.862 32.9966V29.1549C429.862 28.9594 429.958 28.8515 430.15 28.8309L432.675 28.5634Z" fill="#A3A3A3"/>
<path d="M391.306 28.6663C391.451 28.6637 391.593 28.7108 391.707 28.7998C391.822 28.8888 391.901 29.0142 391.933 29.1549C392.204 30.3377 392.259 31.5772 392.098 32.8732C392.074 33.0686 392.033 33.1834 391.975 33.2177C391.918 33.2492 391.853 33.266 391.788 33.2665C391.723 33.267 391.66 33.2511 391.604 33.2205C391.548 33.1899 391.501 33.1456 391.469 33.0919C391.436 33.0382 391.419 32.977 391.419 32.9143V29.952C391.419 29.8664 391.399 29.7819 391.359 29.7059C391.32 29.6298 391.263 29.5643 391.193 29.5149C390.672 29.1549 390.113 29.1034 389.516 29.3606C389.266 29.4703 389.132 29.6606 389.115 29.9314L388.909 32.9554C388.908 32.9809 388.901 33.0057 388.888 33.028C388.876 33.0502 388.858 33.0694 388.837 33.084C388.495 33.3274 388.313 33.2263 388.292 32.7806C388.234 31.5292 388.225 30.2777 388.267 29.0263C388.273 28.8309 388.375 28.7314 388.57 28.728L391.306 28.6663Z" fill="#A3A3A3"/>
</g>
<g clip-path="url(#clip3_1677_8962)">
<path d="M510.159 0H515.039C521.375 1.272 525.92 4.77943 528.673 10.5223C529.023 11.2526 529.017 11.808 528.369 12.384C525.747 14.7223 522.949 16.7383 519.976 18.432C519.907 18.4718 519.83 18.4954 519.75 18.501C519.67 18.5066 519.59 18.4941 519.516 18.4644C519.442 18.4347 519.375 18.3886 519.321 18.3296C519.267 18.2705 519.228 18.2 519.205 18.1234C518.139 14.5166 516.272 11.4034 513.604 8.784C513.483 8.66594 513.334 8.58045 513.171 8.53549C513.009 8.49052 512.837 8.48755 512.673 8.52686L504.707 10.4091C504.375 10.488 504.321 10.656 504.548 10.9131L505.905 12.4663C505.926 12.4899 505.938 12.5189 505.942 12.5497C505.946 12.5804 505.941 12.6116 505.927 12.6395C505.913 12.6673 505.892 12.6905 505.865 12.7064C505.839 12.7222 505.808 12.7299 505.777 12.7286C504.981 12.6771 504.287 12.9189 503.694 13.4537C503.618 13.5209 503.571 13.6159 503.565 13.7187C503.558 13.8214 503.591 13.9237 503.658 14.004L504.692 15.2486C504.713 15.2756 504.728 15.3074 504.735 15.3413C504.742 15.3753 504.741 15.4104 504.731 15.4436C504.721 15.4769 504.704 15.5074 504.68 15.5325C504.656 15.5576 504.627 15.5767 504.594 15.588L503.241 16.0509C503.06 16.1126 502.989 16.2394 503.031 16.4314L503.216 17.3109C503.26 17.5131 503.185 17.6503 502.989 17.7223C502.612 17.856 502.468 18.1354 502.557 18.5606C502.573 18.6375 502.608 18.7088 502.658 18.7675C502.709 18.8261 502.773 18.87 502.845 18.8949C505.369 19.8137 507.519 21.2726 509.295 23.2714C509.314 23.2946 509.328 23.3221 509.335 23.3517C509.342 23.3812 509.341 23.4118 509.334 23.4408C509.326 23.4697 509.311 23.4962 509.291 23.5178C509.271 23.5393 509.246 23.5554 509.217 23.5646L502.784 25.632C502.685 25.6638 502.579 25.6656 502.48 25.6372C502.381 25.6087 502.293 25.5514 502.228 25.4726L501.416 24.5057C501.387 24.471 501.35 24.4441 501.308 24.4272C501.266 24.4104 501.22 24.4043 501.176 24.4094C501.131 24.4145 501.088 24.4307 501.051 24.4565C501.014 24.4823 500.984 24.5168 500.963 24.5571L499.096 28.1469C498.915 28.5 498.719 28.5086 498.51 28.1726C494.341 21.4663 493.96 15.0686 497.368 8.97943C500.13 4.05257 504.645 0.987429 510.159 0Z" fill="#A3A3A3"/>
<path d="M552.561 21.3069V25.1537C552.561 25.2115 552.539 25.267 552.498 25.3083C552.458 25.3496 552.403 25.3735 552.345 25.3749L549.553 25.4674C549.523 25.4681 549.494 25.4629 549.467 25.4521C549.439 25.4413 549.414 25.4251 549.393 25.4045C549.372 25.3839 549.355 25.3593 549.344 25.3321C549.332 25.3049 549.326 25.2758 549.326 25.2463L549.301 9.73543C549.301 9.67677 549.324 9.62053 549.366 9.57905C549.407 9.53758 549.463 9.51428 549.522 9.51428H552.17C552.228 9.51427 552.284 9.53686 552.325 9.57723C552.366 9.61759 552.39 9.67253 552.392 9.73028L552.536 18.4629C552.537 18.5093 552.552 18.5542 552.58 18.5913C552.608 18.6283 552.647 18.6556 552.692 18.6693C552.736 18.6829 552.784 18.6823 552.828 18.6674C552.872 18.6525 552.91 18.6241 552.937 18.5863L555.344 15.1714C555.363 15.1425 555.389 15.1186 555.419 15.1016C555.45 15.0847 555.484 15.0751 555.518 15.0737L558.779 14.9863C558.821 14.9858 558.862 14.9972 558.898 15.0192C558.934 15.0413 558.962 15.073 558.981 15.1108C558.999 15.1485 559.006 15.1907 559.002 15.2324C558.997 15.2741 558.98 15.3136 558.954 15.3463L555.549 19.548C555.518 19.5873 555.5 19.6363 555.5 19.6869C555.5 19.7374 555.518 19.7864 555.549 19.8257L559.874 25.1177C559.903 25.1506 559.921 25.1911 559.926 25.2341C559.932 25.2772 559.925 25.3209 559.905 25.3598C559.886 25.3988 559.856 25.4312 559.818 25.4531C559.781 25.4749 559.738 25.4853 559.694 25.4829L556.372 25.4006C556.339 25.3996 556.307 25.3912 556.277 25.3761C556.248 25.361 556.222 25.3395 556.202 25.3131L552.957 21.1731C552.929 21.1368 552.89 21.1101 552.846 21.0968C552.802 21.0835 552.755 21.0843 552.712 21.099C552.668 21.1137 552.63 21.1416 552.603 21.1789C552.576 21.2161 552.562 21.2609 552.561 21.3069Z" fill="#A3A3A3"/>
<path d="M508.065 13.2891C507.675 12.7749 506.739 12.2503 506.471 11.3503C506.42 11.1754 506.483 11.0657 506.661 11.0211L512.627 9.504C512.704 9.48387 512.784 9.48421 512.86 9.50499C512.936 9.52577 513.004 9.56625 513.059 9.62228C515.655 12.2211 517.436 15.3034 518.403 18.8691C518.445 19.029 518.43 19.199 518.36 19.3487C518.289 19.4984 518.168 19.6183 518.017 19.6869L513.327 21.8366C513.284 21.8566 513.238 21.8676 513.192 21.8691C513.145 21.8705 513.098 21.8623 513.054 21.845C513.011 21.8277 512.971 21.8016 512.937 21.7683C512.903 21.7351 512.877 21.6953 512.859 21.6514C511.641 18.6754 510.044 15.888 508.065 13.2891ZM513.944 16.8377C513.299 16.7417 512.874 16.98 512.668 17.5526C512.645 17.6166 512.64 17.6858 512.654 17.7525C512.668 17.8191 512.7 17.8805 512.748 17.9297C512.795 17.979 512.855 18.014 512.921 18.031C512.986 18.0479 513.056 18.0461 513.121 18.0257C513.995 17.7549 514.744 17.9229 515.368 18.5297C515.411 18.5731 515.467 18.6006 515.528 18.6076C515.588 18.6146 515.649 18.6008 515.701 18.5684C515.752 18.5361 515.791 18.4871 515.811 18.4295C515.831 18.372 515.831 18.3093 515.811 18.252C515.533 17.388 515.447 16.5 515.553 15.588C515.569 15.4437 515.552 15.2977 515.503 15.1613C515.453 15.0249 515.373 14.9018 515.268 14.8017C515.164 14.7016 515.038 14.6272 514.9 14.5843C514.762 14.5414 514.616 14.5311 514.473 14.5543C513.99 14.6297 513.441 14.7069 512.828 14.7857C512.739 14.796 512.665 14.7857 512.607 14.7549C512.487 14.6931 512.416 14.6057 512.396 14.4926C512.39 14.467 512.391 14.4405 512.397 14.4151C512.403 14.3896 512.414 14.3658 512.431 14.3452C512.447 14.3247 512.467 14.3079 512.49 14.296C512.514 14.2842 512.539 14.2775 512.565 14.2766L513.085 14.2611C513.259 14.2652 513.428 14.1998 513.555 14.0792C513.681 13.9587 513.754 13.7929 513.759 13.6183C513.763 13.4437 513.697 13.2746 513.577 13.1483C513.456 13.0219 513.29 12.9487 513.116 12.9446C512.447 12.8863 511.869 12.6463 511.383 12.2246C511.357 12.2009 511.325 12.1855 511.29 12.1802C511.256 12.1749 511.221 12.1801 511.189 12.195C511.158 12.21 511.131 12.234 511.114 12.264C511.096 12.294 511.087 12.3286 511.089 12.3634L511.192 15.4903C511.195 15.5609 511.216 15.6296 511.253 15.6898C511.29 15.7501 511.342 15.8 511.403 15.8349C512.54 16.5034 512.951 15.7886 513.825 16.056C514.052 16.1246 514.194 16.2703 514.252 16.4931C514.264 16.5375 514.264 16.5839 514.253 16.6284C514.243 16.6729 514.221 16.714 514.19 16.7481C514.16 16.7822 514.121 16.8083 514.078 16.8239C514.035 16.8395 513.989 16.8443 513.944 16.8377Z" fill="#A3A3A3"/>
<path d="M534.88 25.3646C534.726 25.3646 534.678 25.2943 534.736 25.1537L540.43 11.2371C540.479 11.1145 540.564 11.0095 540.673 10.9355C540.783 10.8614 540.912 10.8216 541.044 10.8211C541.177 10.8205 541.307 10.8593 541.418 10.9324C541.529 11.0055 541.617 11.1098 541.669 11.232L547.599 25.1691C547.681 25.3611 547.618 25.4571 547.408 25.4571H544.657C544.557 25.4572 544.46 25.4254 544.379 25.3661C544.299 25.3069 544.239 25.2234 544.21 25.128L543.829 23.8731C543.775 23.6988 543.667 23.5462 543.521 23.438C543.375 23.3297 543.198 23.2713 543.016 23.2714L538.82 23.2766C538.733 23.2766 538.649 23.3061 538.581 23.3602C538.513 23.4142 538.465 23.4898 538.444 23.5749L538.084 25.0354C538.061 25.1251 538.008 25.2045 537.934 25.2612C537.861 25.3179 537.771 25.3488 537.678 25.3491L534.88 25.3646ZM539.684 20.4943C539.67 20.5309 539.665 20.5703 539.669 20.6092C539.674 20.6481 539.687 20.6854 539.709 20.7181C539.73 20.7508 539.759 20.7778 539.793 20.797C539.828 20.8162 539.866 20.827 539.905 20.8286L542.122 20.9057C542.161 20.9069 542.2 20.8985 542.236 20.8812C542.272 20.864 542.303 20.8384 542.327 20.8066C542.35 20.7748 542.366 20.7378 542.372 20.6986C542.379 20.6595 542.376 20.6194 542.363 20.5817L541.36 17.4189C541.346 17.3692 541.316 17.3255 541.275 17.2939C541.234 17.2623 541.184 17.2443 541.132 17.2426C541.08 17.2409 541.029 17.2555 540.986 17.2844C540.943 17.3132 540.91 17.3549 540.892 17.4034L539.684 20.4943Z" fill="#A3A3A3"/>
<path d="M506.61 13.1143C506.625 13.1031 506.641 13.0948 506.659 13.0901C506.676 13.0853 506.695 13.0841 506.713 13.0865C506.731 13.0888 506.749 13.0948 506.765 13.104C506.781 13.1132 506.794 13.1254 506.805 13.14L506.862 13.2171C508.125 14.8278 509.277 16.4191 510.067 17.6423C510.856 18.8656 511.219 19.6211 511.074 19.7434L511.064 19.7486C510.991 19.8075 510.795 19.7082 510.487 19.4565C510.179 19.2048 509.766 18.8056 509.271 18.2817C508.775 17.7578 508.208 17.1194 507.6 16.4031C506.993 15.6867 506.358 14.9065 505.731 14.1069L505.669 14.0297C505.658 14.0152 505.649 13.9987 505.645 13.981C505.64 13.9633 505.639 13.9448 505.641 13.9266C505.643 13.9085 505.649 13.891 505.659 13.8751C505.668 13.8593 505.68 13.8454 505.695 13.8343L506.61 13.1143Z" fill="#A3A3A3"/>
<path d="M598.857 20.9211C598.71 20.9188 598.566 20.9654 598.447 21.0536C598.329 21.1418 598.243 21.2667 598.203 21.4088C598.163 21.5508 598.172 21.7021 598.227 21.839C598.282 21.976 598.381 22.0908 598.508 22.1657C600.75 23.4566 601.604 22.9526 603.769 22.4177C603.944 22.3766 604.074 22.4349 604.16 22.5926L604.813 23.796C604.879 23.9189 604.896 24.0626 604.86 24.1976C604.824 24.3325 604.737 24.4484 604.617 24.5211C603.061 25.464 601.456 25.8189 599.804 25.5857C593 24.624 593.987 14.1223 600.719 14.7446C603.836 15.0377 605.43 17.784 605.183 20.7823C605.177 20.8591 605.141 20.9306 605.084 20.9822C605.026 21.0338 604.952 21.0616 604.875 21.06L598.857 20.9211ZM598.333 18.8743L602.118 18.9771C602.135 18.9772 602.151 18.9709 602.164 18.9594C602.176 18.948 602.184 18.9322 602.185 18.9154V18.8949C602.192 18.6685 602.15 18.4429 602.061 18.231C601.972 18.019 601.838 17.8248 601.667 17.6596C601.496 17.4943 601.291 17.3612 601.064 17.2678C600.837 17.1744 600.592 17.1227 600.344 17.1154H600.21C599.709 17.1017 599.223 17.2694 598.86 17.5818C598.497 17.8941 598.285 18.3257 598.271 18.7817V18.8023C598.27 18.8111 598.271 18.8199 598.274 18.8283C598.277 18.8367 598.281 18.8444 598.287 18.8511C598.293 18.8578 598.3 18.8633 598.308 18.8673C598.315 18.8712 598.324 18.8736 598.333 18.8743Z" fill="#A3A3A3"/>
<path d="M586.788 15.8554C588.449 13.9989 591.493 14.6572 592.589 16.5806C593.643 18.432 593.191 22.716 593.191 25.1229C593.191 25.2669 593.119 25.3423 592.975 25.3492L590.192 25.452C590.147 25.4534 590.103 25.4458 590.061 25.4296C590.019 25.4134 589.981 25.389 589.949 25.3578C589.917 25.3266 589.891 25.2893 589.874 25.2481C589.857 25.2068 589.848 25.1625 589.848 25.1177C589.858 23.1532 589.839 21.2246 589.791 19.332C589.724 16.6783 586.237 16.9612 586.268 19.7949C586.289 21.5812 586.258 23.364 586.176 25.1434C586.165 25.3526 586.056 25.4572 585.847 25.4572H583.229C583.013 25.4572 582.905 25.3509 582.905 25.1383V15.336C582.905 15.1234 583.009 15.0189 583.218 15.0223L585.867 15.0532C585.932 15.0545 585.994 15.0761 586.046 15.1148C586.097 15.1536 586.136 15.2075 586.155 15.2692L586.304 15.7526C586.319 15.8001 586.346 15.8426 586.383 15.8761C586.42 15.9095 586.465 15.9326 586.514 15.943C586.563 15.9534 586.614 15.9508 586.662 15.9354C586.71 15.9201 586.753 15.8925 586.788 15.8554Z" fill="#A3A3A3"/>
<path d="M565.162 16.4417L565.943 15.2074C565.989 15.1331 566.052 15.0712 566.128 15.0272C566.203 14.9833 566.288 14.9586 566.375 14.9554L568.242 14.8989C568.295 14.8968 568.348 14.9065 568.397 14.9273C568.446 14.948 568.489 14.9792 568.525 15.0189C568.561 15.0585 568.588 15.1056 568.604 15.1568C568.62 15.208 568.624 15.2621 568.618 15.3154L568.304 17.8046C568.283 17.9657 568.193 18.0274 568.031 17.9897C563.624 16.9251 564.601 22.14 564.714 25.0303C564.721 25.2223 564.629 25.3234 564.437 25.3337L561.767 25.4623C561.724 25.4644 561.681 25.4577 561.641 25.4426C561.6 25.4275 561.563 25.4043 561.532 25.3745C561.501 25.3447 561.476 25.3088 561.459 25.2691C561.442 25.2294 561.433 25.1866 561.433 25.1434V15.3154C561.433 15.1337 561.524 15.0429 561.706 15.0429H564.365C564.428 15.0426 564.489 15.0663 564.536 15.1092C564.583 15.1521 564.611 15.2111 564.617 15.2743L564.719 16.3389C564.764 16.8051 564.911 16.8394 565.162 16.4417Z" fill="#A3A3A3"/>
<path d="M576.291 24.7834L575.103 25.452C575.065 25.4724 575.025 25.4863 574.984 25.4932C566.118 26.8046 568.623 11.3194 576.08 15.4594C576.227 15.5417 576.378 15.5452 576.532 15.4697C577.53 15 578.591 14.8714 579.716 15.084C579.867 15.1114 579.944 15.2023 579.947 15.3566L579.983 25.2154C579.983 25.2515 579.976 25.2871 579.96 25.3196C579.944 25.352 579.922 25.3805 579.893 25.4029C579.865 25.4252 579.832 25.4407 579.797 25.4484C579.762 25.456 579.725 25.4555 579.69 25.4469C578.718 25.2052 577.278 25.8017 576.728 24.8966C576.618 24.7149 576.472 24.6772 576.291 24.7834ZM574.504 22.8417C574.805 22.8558 575.105 22.8013 575.389 22.6811C575.672 22.561 575.934 22.3776 576.158 22.1415C576.381 21.9054 576.564 21.6211 576.694 21.3049C576.824 20.9887 576.899 20.6468 576.916 20.2987C576.932 19.9506 576.889 19.6031 576.789 19.2761C576.69 18.949 576.535 18.6489 576.334 18.3927C576.134 18.1366 575.891 17.9294 575.62 17.7831C575.349 17.6368 575.055 17.5543 574.755 17.5401C574.454 17.5259 574.154 17.5805 573.87 17.7006C573.587 17.8207 573.325 18.0041 573.101 18.2402C572.878 18.4764 572.695 18.7607 572.565 19.0769C572.435 19.3931 572.36 19.735 572.343 20.0831C572.327 20.4312 572.37 20.7787 572.47 21.1057C572.569 21.4327 572.724 21.7329 572.925 21.989C573.125 22.2452 573.368 22.4523 573.639 22.5986C573.91 22.7449 574.204 22.8275 574.504 22.8417Z" fill="#A3A3A3"/>
<path d="M611.19 17.4548L612.573 15.1817C612.592 15.1508 612.619 15.1252 612.65 15.1073C612.682 15.0893 612.717 15.0795 612.753 15.0788L615.86 14.976C615.9 14.9745 615.939 14.9842 615.974 15.0041C616.009 15.024 616.038 15.0532 616.057 15.0884C616.076 15.1237 616.085 15.1636 616.083 15.2037C616.081 15.2438 616.068 15.2825 616.045 15.3154L612.836 19.9131C612.81 19.9504 612.797 19.9948 612.798 20.04C612.798 20.0852 612.814 20.129 612.841 20.1651L616.384 25.0251C616.408 25.057 616.422 25.0948 616.426 25.1343C616.429 25.1738 616.422 25.2136 616.404 25.2492C616.387 25.2848 616.36 25.3149 616.326 25.3361C616.293 25.3574 616.254 25.369 616.214 25.3697L613.036 25.4057C612.999 25.4065 612.963 25.3979 612.931 25.3808C612.899 25.3637 612.871 25.3386 612.851 25.308L610.969 22.5206C610.948 22.4903 610.921 22.4657 610.888 22.449C610.856 22.4323 610.82 22.424 610.783 22.4251C610.747 22.4261 610.711 22.4363 610.68 22.4548C610.648 22.4733 610.622 22.4995 610.604 22.5309L609.009 25.1743C608.991 25.2044 608.965 25.2296 608.935 25.2475C608.904 25.2654 608.87 25.2756 608.834 25.2771L605.646 25.4366C605.604 25.4399 605.563 25.4312 605.526 25.4115C605.49 25.3918 605.46 25.362 605.44 25.3257C605.419 25.2893 605.41 25.2479 605.413 25.2065C605.416 25.165 605.431 25.1253 605.456 25.092L609.035 20.16C609.062 20.1238 609.077 20.08 609.078 20.0348C609.079 19.9896 609.066 19.9452 609.04 19.908L605.816 15.3463C605.793 15.3137 605.78 15.2755 605.777 15.2359C605.775 15.1962 605.783 15.1567 605.802 15.1216C605.821 15.0866 605.848 15.0573 605.883 15.037C605.917 15.0168 605.956 15.0063 605.996 15.0068L609.102 15.0634C609.136 15.0638 609.17 15.0724 609.2 15.0885C609.231 15.1046 609.257 15.1277 609.277 15.156L610.825 17.4651C610.845 17.4954 610.873 17.52 610.905 17.5367C610.938 17.5534 610.974 17.5617 611.01 17.5606C611.047 17.5596 611.082 17.5494 611.114 17.5309C611.145 17.5124 611.171 17.4862 611.19 17.4548Z" fill="#A3A3A3"/>
<path d="M505.53 15.8709C505.555 15.848 505.588 15.8357 505.621 15.8367C505.655 15.8376 505.687 15.8518 505.71 15.876L505.757 15.9223C507.177 17.3725 508.501 18.7999 509.439 19.8914C510.378 20.9828 510.853 21.6491 510.761 21.744L510.653 21.852C510.61 21.9027 510.428 21.8102 510.118 21.5799C509.807 21.3495 509.373 20.9858 508.842 20.5098C508.31 20.0337 507.691 19.4546 507.021 18.8059C506.35 18.1572 505.641 17.4516 504.934 16.7297L504.888 16.6783C504.864 16.6543 504.851 16.6219 504.851 16.5883C504.851 16.5546 504.864 16.5223 504.888 16.4983L505.53 15.8709Z" fill="#A3A3A3"/>
<path d="M503.334 29.9571L503.653 29.0211C503.722 28.8257 503.857 28.7057 504.06 28.6611C513.57 26.4429 522.078 22.2137 529.584 15.9737C529.741 15.8434 529.832 15.8794 529.856 16.0817C531.209 28.0389 519.102 37.8977 507.788 34.2926C504.726 33.3154 501.97 31.6303 499.518 29.2371C499.484 29.204 499.463 29.1602 499.458 29.1131C499.453 29.066 499.464 29.0186 499.491 28.9787C499.518 28.9388 499.557 28.909 499.604 28.8942C499.65 28.8795 499.7 28.8807 499.745 28.8977L502.913 30.1526C503.118 30.2349 503.259 30.1697 503.334 29.9571Z" fill="#A3A3A3"/>
<path d="M504.172 18.9617C503.651 18.7354 503.464 18.3292 503.612 17.7429C503.622 17.706 503.64 17.672 503.665 17.6432C503.69 17.6145 503.722 17.5918 503.757 17.577C503.792 17.5621 503.83 17.5554 503.868 17.5574C503.906 17.5594 503.943 17.5701 503.977 17.5886C505.513 18.456 506.836 19.5789 507.947 20.9572C508.215 21.2863 508.175 21.3292 507.829 21.0857C506.488 20.1429 505.269 19.4349 504.172 18.9617Z" fill="#A3A3A3"/>
</g>
<g clip-path="url(#clip4_1677_8962)">
<path d="M669.762 22.8372L673.616 24.9566C673.646 24.9729 673.671 24.997 673.689 25.0265C673.707 25.0559 673.717 25.0895 673.717 25.1239V29.7279C673.717 29.761 673.708 29.7935 673.691 29.8221C673.675 29.8508 673.651 29.8747 673.622 29.8915C673.594 29.9084 673.561 29.9175 673.528 29.9182C673.495 29.9188 673.462 29.9109 673.433 29.8952L665.072 25.342C665.041 25.3253 665.015 25.3004 664.997 25.27C664.979 25.2396 664.97 25.2048 664.971 25.1696V9.21803C664.97 9.18277 664.979 9.14805 664.997 9.11765C665.015 9.08725 665.041 9.06234 665.072 9.04564L679.852 0.998878C679.88 0.983789 679.912 0.975891 679.944 0.975891C679.976 0.975891 680.007 0.983789 680.035 0.998878L694.912 8.98479C694.943 9.0015 694.969 9.0264 694.986 9.0568C695.004 9.0872 695.013 9.12192 695.013 9.15719V25.2101C695.013 25.2454 695.004 25.2801 694.986 25.3105C694.969 25.3409 694.943 25.3658 694.912 25.3825L682.312 32.1516C682.281 32.1683 682.255 32.1932 682.237 32.2236C682.219 32.254 682.21 32.2887 682.21 32.3239V35.6806C682.21 35.7317 682.19 35.7807 682.154 35.8168C682.118 35.8529 682.069 35.8732 682.017 35.8732H677.839C677.788 35.8732 677.739 35.8529 677.703 35.8168C677.667 35.7807 677.647 35.7317 677.647 35.6806V17.3966C677.647 17.3709 677.652 17.3454 677.662 17.3217C677.672 17.298 677.687 17.2765 677.705 17.2586C677.723 17.2406 677.745 17.2265 677.769 17.2171C677.793 17.2078 677.819 17.2033 677.845 17.2039L682.023 17.2597C682.072 17.261 682.119 17.2812 682.154 17.3161C682.189 17.351 682.209 17.398 682.21 17.4473V26.8783C682.21 26.9119 682.218 26.945 682.234 26.9743C682.25 27.0037 682.274 27.0283 682.303 27.0457C682.332 27.0631 682.364 27.0728 682.398 27.0736C682.431 27.0745 682.465 27.0666 682.494 27.0507L690.358 22.8321C690.389 22.8154 690.415 22.7905 690.433 22.7601C690.451 22.7297 690.46 22.695 690.46 22.6597L690.277 11.6316C690.277 11.5972 690.267 11.5635 690.249 11.5341C690.231 11.5046 690.206 11.4805 690.176 11.4642L680.04 6.01353C680.012 5.99844 679.981 5.99054 679.949 5.99054C679.917 5.99054 679.886 5.99844 679.857 6.01353L669.762 11.52C669.731 11.5367 669.705 11.5616 669.687 11.592C669.67 11.6224 669.66 11.6571 669.661 11.6924V22.6699C669.661 22.7043 669.671 22.7379 669.689 22.7674C669.707 22.7968 669.732 22.8209 669.762 22.8372Z" fill="#A3A3A3"/>
<path d="M709.464 20.7989V28.3944C709.464 28.5634 709.379 28.6479 709.21 28.6479H705.661C705.492 28.6479 705.407 28.5634 705.407 28.3944V6.60169C705.407 6.53445 705.434 6.46996 705.481 6.42242C705.529 6.37487 705.594 6.34816 705.661 6.34816C709.21 6.30253 715.416 5.80563 718.276 7.25577C723.286 9.80112 722.576 18.1572 717.363 20.0535C715.218 20.8293 712.202 20.5099 709.712 20.5453C709.546 20.5453 709.464 20.6299 709.464 20.7989ZM709.469 9.8569L709.458 17.2192C709.458 17.2514 709.471 17.2824 709.494 17.3052C709.517 17.328 709.548 17.3408 709.58 17.3408L714.068 17.3459C714.964 17.3472 715.825 16.9906 716.46 16.3545C717.096 15.7183 717.453 14.8548 717.455 13.9538V13.1425C717.455 12.6964 717.368 12.2545 717.199 11.8421C717.03 11.4297 716.781 11.0548 716.468 10.7389C716.154 10.4229 715.782 10.1721 715.371 10.0008C714.961 9.82947 714.522 9.74094 714.078 9.74028L709.59 9.73521C709.558 9.73521 709.527 9.74803 709.504 9.77085C709.481 9.79367 709.469 9.82462 709.469 9.8569Z" fill="#A3A3A3"/>
<path d="M809.792 6.71325L809.802 9.49184C809.802 9.53066 809.795 9.56909 809.779 9.60483C809.764 9.64058 809.742 9.6729 809.714 9.69987C809.686 9.72685 809.653 9.74792 809.617 9.76183C809.581 9.77575 809.542 9.78222 809.503 9.78085L803.165 9.60339C803.126 9.60203 803.088 9.6085 803.051 9.62241C803.015 9.63632 802.982 9.65739 802.954 9.68437C802.926 9.71134 802.904 9.74367 802.889 9.77941C802.874 9.81515 802.866 9.85358 802.866 9.8924L802.922 28.3538C802.922 28.4305 802.891 28.504 802.837 28.5582C802.783 28.6124 802.709 28.6428 802.633 28.6428L799.119 28.6479C799.042 28.6479 798.969 28.6174 798.915 28.5632C798.86 28.509 798.83 28.4355 798.83 28.3589V10.0394C798.83 9.96279 798.799 9.88928 798.745 9.83508C798.691 9.78088 798.618 9.75043 798.541 9.75043L792.401 9.71494C792.324 9.71494 792.25 9.68449 792.196 9.63029C792.142 9.57609 792.112 9.50258 792.112 9.42592V6.70311C792.112 6.62646 792.142 6.55294 792.196 6.49874C792.25 6.44454 792.324 6.41409 792.401 6.41409L809.503 6.42423C809.58 6.42423 809.653 6.45468 809.707 6.50888C809.762 6.56309 809.792 6.6366 809.792 6.71325Z" fill="#A3A3A3"/>
<path d="M813.281 15.3482C813.279 15.3756 813.287 15.4028 813.303 15.4245C813.32 15.4463 813.344 15.4611 813.371 15.4662C813.398 15.4712 813.426 15.4661 813.45 15.4518C813.473 15.4375 813.491 15.415 813.499 15.3887C814.371 13.0597 816.081 12.0287 818.63 12.2958C818.728 12.3058 818.818 12.3514 818.884 12.4235C818.949 12.4957 818.985 12.5893 818.985 12.6862V15.9617C818.985 16.1679 818.885 16.2456 818.686 16.1949C811.922 14.4101 813.118 24.7183 813.362 28.3183C813.375 28.538 813.272 28.6479 813.052 28.6479H809.762C809.549 28.6479 809.442 28.5414 809.442 28.3285L809.427 12.8941C809.424 12.6642 809.537 12.5493 809.767 12.5493H812.961C813.174 12.5493 813.281 12.6541 813.281 12.8637V15.3482Z" fill="#A3A3A3"/>
<path d="M855.238 19.0597V21.1741H842.329C842.293 21.1744 842.258 21.1824 842.225 21.1976C842.193 21.2129 842.164 21.235 842.141 21.2625C842.118 21.29 842.101 21.3221 842.091 21.3568C842.082 21.3914 842.08 21.4277 842.086 21.4631C842.948 26.4626 848.992 26.6552 852.262 23.8513C852.321 23.8012 852.397 23.7749 852.474 23.7777C852.551 23.7805 852.624 23.8122 852.678 23.8665L854.564 25.7578C854.723 25.9166 854.718 26.0704 854.549 26.2192C852.179 28.2676 849.588 29.1989 846.776 29.013C841.842 28.6935 837.877 25.342 838.217 20.16C838.871 10.2778 853.514 9.28396 855.238 19.0597ZM842.598 18.5121L851.207 18.502C851.216 18.502 851.224 18.5003 851.232 18.4969C851.24 18.4936 851.246 18.4886 851.252 18.4824C851.258 18.4762 851.262 18.4689 851.265 18.4609C851.268 18.4529 851.269 18.4445 851.268 18.4361V18.4158C851.267 18.0189 851.155 17.6261 850.938 17.2599C850.722 16.8937 850.405 16.5613 850.006 16.2816C849.608 16.0019 849.135 15.7805 848.614 15.6299C848.094 15.4793 847.536 15.4025 846.973 15.404H846.811C845.675 15.4069 844.587 15.7279 843.785 16.2965C842.983 16.8651 842.534 17.6347 842.537 18.4361V18.4564C842.538 18.4716 842.545 18.4858 842.556 18.4961C842.568 18.5065 842.582 18.5122 842.598 18.5121Z" fill="#A3A3A3"/>
<path d="M738.918 26.209C732.413 32.0349 720.492 28.3031 722.911 18.2535C725.04 9.39043 740.155 10.3792 739.694 20.9814C739.687 21.1065 739.621 21.169 739.496 21.169H726.815C726.609 21.169 726.514 21.2721 726.531 21.4783C726.972 26.6248 733.543 26.4372 736.641 23.8766C736.689 23.8371 736.75 23.8169 736.813 23.8197C736.875 23.8225 736.935 23.8482 736.981 23.8918L738.928 25.7273C738.96 25.7589 738.986 25.7967 739.003 25.8385C739.02 25.8803 739.029 25.9252 739.028 25.9704C739.027 26.0156 739.016 26.0601 738.998 26.1011C738.979 26.1422 738.952 26.1789 738.918 26.209ZM726.987 18.5121L735.597 18.502C735.604 18.502 735.612 18.5004 735.619 18.4973C735.626 18.4942 735.633 18.4896 735.638 18.4839C735.643 18.4782 735.647 18.4714 735.65 18.464C735.652 18.4567 735.653 18.4489 735.653 18.4411V18.4259C735.651 18.029 735.539 17.6362 735.323 17.2701C735.107 16.9039 734.791 16.5714 734.392 16.2918C733.994 16.0121 733.521 15.7906 733.002 15.64C732.482 15.4894 731.925 15.4127 731.363 15.4141H731.201C730.066 15.417 728.979 15.738 728.178 16.3066C727.377 16.8753 726.929 17.6449 726.931 18.4462V18.4614C726.933 18.4753 726.939 18.4882 726.949 18.4976C726.96 18.507 726.973 18.5122 726.987 18.5121Z" fill="#A3A3A3"/>
<path d="M746.386 14.8056C747.056 13.9031 747.659 13.1375 748.759 12.7724C759.235 9.25859 757.283 23.0349 757.318 28.3183C757.318 28.538 757.21 28.6479 756.994 28.6479H753.602C753.423 28.6479 753.333 28.5583 753.333 28.3792C753.323 25.8946 754.053 17.5285 752.05 16.1341C750.215 14.8563 747.669 15.8299 746.762 17.7262C745.646 20.0586 746.082 25.6462 746.194 28.2828C746.196 28.33 746.188 28.3772 746.172 28.4214C746.155 28.4656 746.13 28.506 746.097 28.5401C746.064 28.5742 746.025 28.6014 745.981 28.6199C745.938 28.6384 745.891 28.6479 745.844 28.6479H742.558C742.396 28.6479 742.313 28.5668 742.31 28.4045L742.259 12.818C742.256 12.6389 742.345 12.5493 742.528 12.5493L745.879 12.5544C745.919 12.5543 745.959 12.5625 745.996 12.5784C746.032 12.5944 746.065 12.6178 746.093 12.6472C746.12 12.6766 746.142 12.7114 746.156 12.7495C746.169 12.7876 746.176 12.8282 746.173 12.8687L746.067 14.689C746.047 15.0777 746.153 15.1166 746.386 14.8056Z" fill="#A3A3A3"/>
<path d="M765 14.76C766.778 12.4783 769.017 11.7008 771.718 12.4276C775.146 13.3504 775.739 16.413 775.841 19.8203C775.925 22.6462 775.966 25.4772 775.962 28.3132C775.962 28.5363 775.851 28.6479 775.628 28.6479H772.236C772.056 28.6479 771.967 28.5583 771.967 28.3792C771.957 25.9251 772.626 17.8377 770.897 16.3217C769.143 14.7752 766.41 15.7285 765.436 17.6147C764.265 19.8913 764.853 25.6107 764.817 28.3082C764.814 28.5347 764.699 28.6479 764.473 28.6479H761.329C761.065 28.6479 760.934 28.5161 760.934 28.2524L760.923 12.8687C760.92 12.6558 761.027 12.5493 761.243 12.5493H764.422C764.635 12.5493 764.745 12.6575 764.752 12.8738L764.812 14.6992C764.819 14.8918 764.882 14.9121 765 14.76Z" fill="#A3A3A3"/>
<path d="M833.75 23.9172C833.878 23.8192 834 23.8259 834.115 23.9375L835.864 25.6918C835.915 25.7413 835.954 25.8012 835.98 25.8674C836.005 25.9336 836.016 26.0046 836.012 26.0757C836.008 26.1467 835.988 26.2162 835.955 26.2794C835.921 26.3427 835.875 26.3982 835.819 26.4423C830.434 30.6558 821.155 29.7887 819.725 22.1425C817.601 10.7493 836.62 7.77804 836.807 20.951C836.807 21.0963 836.736 21.169 836.594 21.169H823.913C823.855 21.1693 823.798 21.1824 823.746 21.2076C823.693 21.2327 823.647 21.2692 823.611 21.3144C823.575 21.3595 823.549 21.4122 823.535 21.4687C823.522 21.5251 823.521 21.5838 823.533 21.6406C824.572 26.5741 830.409 26.5183 833.75 23.9172ZM824.07 18.5071H832.65C832.666 18.5071 832.681 18.5006 832.693 18.4892C832.704 18.4778 832.711 18.4623 832.711 18.4462V18.431C832.711 17.6336 832.261 16.8688 831.46 16.3049C830.659 15.741 829.573 15.4242 828.441 15.4242H828.279C827.147 15.4242 826.061 15.741 825.26 16.3049C824.459 16.8688 824.01 17.6336 824.01 18.431V18.4462C824.01 18.4623 824.016 18.4778 824.027 18.4892C824.039 18.5006 824.054 18.5071 824.07 18.5071Z" fill="#A3A3A3"/>
<path d="M784.536 36H780.81L783.913 27.9178C783.973 27.7555 783.968 27.5966 783.897 27.4411L777.291 12.8535C777.199 12.6507 777.264 12.5493 777.483 12.5493H781.18C781.467 12.5493 781.663 12.6828 781.768 12.9499L785.758 23.0654C785.897 23.4169 786.032 23.4169 786.164 23.0654L790.073 12.813C790.141 12.6372 790.268 12.5493 790.453 12.5493H794.241C794.471 12.5493 794.54 12.6558 794.449 12.8687L784.536 36Z" fill="#A3A3A3"/>
</g>
<g clip-path="url(#clip5_1677_8962)">
<path d="M916.656 0H918.585C924.667 0.884571 928.709 3.93943 930.712 9.16457C934.306 18.5606 927.374 28.3166 917.433 28.3834C914.957 28.3971 912.708 27.8143 910.685 26.6349C898.26 19.3783 902.488 1.55314 916.656 0ZM913.493 15.7166C915.029 16.1589 916.567 16.1503 918.106 15.6909C918.278 15.6429 918.405 15.696 918.487 15.8503C919.817 18.2983 921.696 19.1537 924.124 18.4166C929.755 16.704 927.142 8.39829 921.629 9.792C919.401 10.3543 918.249 11.9126 918.173 14.4669C918.166 14.652 918.072 14.7669 917.89 14.8114C916.444 15.1714 915.002 15.1663 913.565 14.796C913.494 14.7776 913.429 14.7385 913.38 14.6836C913.331 14.6287 913.298 14.5605 913.288 14.4874C912.809 11.1189 908.422 11.052 907.713 13.9886C906.864 17.4909 911.359 18.7251 913.113 15.8606C913.202 15.7166 913.329 15.6686 913.493 15.7166Z" fill="#A3A3A3"/>
<path d="M941.064 22.6492L951.843 22.6183C951.889 22.6183 951.934 22.6274 951.976 22.6451C952.018 22.6628 952.056 22.6887 952.087 22.7213C952.119 22.7539 952.144 22.7926 952.16 22.835C952.176 22.8773 952.184 22.9226 952.183 22.968C952.157 24.3669 952.538 26.5114 950.65 26.5526C945.987 26.6452 941.325 26.6572 936.662 26.5886C936.48 26.5852 936.389 26.4926 936.389 26.3109C936.413 19.8514 936.422 13.416 936.415 7.00458C936.41 4.28401 938.415 4.39201 940.689 4.53601C940.836 4.54287 940.91 4.62172 940.91 4.77258V22.4949C940.91 22.5358 940.926 22.575 940.955 22.604C940.984 22.6329 941.023 22.6492 941.064 22.6492Z" fill="#A3A3A3"/>
<path d="M913.113 15.8606C911.359 18.7252 906.864 17.4909 907.713 13.9886C908.422 11.052 912.809 11.1189 913.288 14.4874C913.298 14.5605 913.33 14.6287 913.38 14.6836C913.429 14.7385 913.494 14.7776 913.565 14.796C915.002 15.1663 916.444 15.1714 917.89 14.8114C918.072 14.7669 918.166 14.652 918.173 14.4669C918.249 11.9126 919.401 10.3543 921.629 9.79201C927.142 8.3983 929.755 16.704 924.124 18.4166C921.696 19.1537 919.817 18.2983 918.487 15.8503C918.405 15.696 918.278 15.6429 918.106 15.6909C916.567 16.1503 915.029 16.1589 913.493 15.7166C913.329 15.6686 913.202 15.7166 913.113 15.8606Z" fill="black"/>
<path d="M988.348 26.7069C988.687 29.304 988.893 33.4646 986.733 35.2543C986.068 35.8063 985.385 35.8252 984.686 35.3109C984.552 35.2149 984.484 35.0829 984.48 34.9149C984.357 28.5617 984.247 22.2154 984.151 15.876C984.13 14.3503 984.264 13.2994 984.552 12.7234C985.149 11.5406 986.302 11.1017 988.013 11.4069C988.181 11.4343 988.264 11.5337 988.26 11.7052L988.24 13.2583C988.236 13.4914 988.31 13.5189 988.461 13.3406C992.374 8.78402 998.695 11.0006 999.775 16.5909C1000.9 22.4126 998.757 28.3217 991.809 28.152C990.585 28.1246 989.474 27.6223 988.476 26.6452C988.373 26.5423 988.33 26.5629 988.348 26.7069ZM992.76 14.7343C987.53 13.3406 986.548 23.4617 991.315 24.3669C996.561 25.3646 997.111 15.8914 992.76 14.7343Z" fill="#A3A3A3"/>
<path d="M967.858 17.0949C967.862 17.1142 967.872 17.1318 967.886 17.1449C967.901 17.158 967.92 17.1657 967.939 17.1669C967.959 17.1681 967.978 17.1626 967.994 17.1514C968.01 17.1402 968.022 17.1239 968.028 17.1051C969.849 12.0651 974.909 9.31886 979.677 12.2349C986.177 16.2206 983.75 26.7274 976 27.0154C972.173 27.1594 969.175 24.6497 968.095 21.0343C968.03 20.8217 967.965 20.8217 967.9 21.0343C966.988 23.8834 965.308 25.716 962.86 26.532C954.682 29.2629 949.02 19.0954 955.032 13.2069C959.368 8.964 966.336 11.4789 967.858 17.0949ZM962.983 19.2806C965.527 20.2851 968.066 20.2697 970.6 19.2343C970.795 19.1554 970.915 19.2189 970.96 19.4246C971.824 23.3743 975.768 25.1794 978.885 22.5411C981.096 20.6743 980.731 16.5909 978.237 15.0943C975.434 13.4126 972.214 14.7754 971.098 17.8303C971.04 17.988 970.934 18.1029 970.78 18.1749C968.116 19.4297 965.443 19.4451 962.762 18.2211C962.191 17.9589 962.17 17.3623 961.553 17.0537C959.882 16.2154 958.113 17.1 957.994 18.9771C957.825 21.6926 961.882 22.428 962.618 19.4709C962.669 19.2686 962.791 19.2051 962.983 19.2806Z" fill="#A3A3A3"/>
</g>
<g clip-path="url(#clip6_1677_8962)">
<path d="M1057.11 9.78171C1057.11 9.77986 1057.1 9.77635 1057.1 9.77163C1057.1 9.7669 1057.09 9.76116 1057.09 9.75513C1057.09 9.7491 1057.09 9.74304 1057.1 9.73771C1057.1 9.73237 1057.1 9.728 1057.11 9.72514C1061.28 7.28057 1065.47 4.848 1069.67 2.42743C1071.28 1.50857 1072.45 0.968571 1073.19 0.807428C1077.67 -0.164572 1081.03 4.93714 1078.48 8.73257C1078.03 9.39086 1077.21 10.0714 1076.01 10.7743C1073.36 12.3309 1070.77 13.836 1068.22 15.2897C1068.05 15.3844 1067.87 15.4321 1067.68 15.4276C1067.49 15.4231 1067.3 15.3665 1067.14 15.264C1063.93 13.2034 1060.58 11.376 1057.11 9.78171Z" fill="#A3A3A3"/>
<path d="M1113.19 11.9241L1094.84 1.28752C1092.42 -0.11699 1089.31 0.708584 1087.91 3.13149L1087.78 3.36286C1086.37 5.78576 1087.2 8.8885 1089.62 10.293L1107.97 20.9296C1110.39 22.3341 1113.49 21.5086 1114.9 19.0856L1115.03 18.8543C1116.44 16.4314 1115.61 13.3286 1113.19 11.9241Z" fill="#A3A3A3"/>
<path d="M1146.65 18.504L1139.04 18.4371C1138.81 18.4337 1138.7 18.3171 1138.7 18.0874V15.9429C1138.7 15.7714 1138.78 15.6857 1138.95 15.6857H1149.76C1150.01 15.6857 1150.14 15.8091 1150.15 16.056C1150.51 24.2023 1144.86 29.196 1137.16 28.152C1124.62 26.46 1123.44 8.80972 1135.57 5.20972C1138.68 4.28914 1144.95 4.896 1147.21 8.16686C1147.29 8.28686 1147.28 8.39829 1147.17 8.50114L1145.52 10.044C1145.43 10.134 1145.3 10.1848 1145.17 10.1867C1145.03 10.1886 1144.91 10.1414 1144.8 10.0543C1138.28 4.37657 1129.26 9.52972 1130.4 17.9126C1131.67 27.1851 1145.79 28.2703 1146.88 18.7611C1146.89 18.5931 1146.82 18.5074 1146.65 18.504Z" fill="#A3A3A3"/>
<path d="M1153.22 5.17371C1153.22 5.09188 1153.26 5.01339 1153.31 4.95552C1153.37 4.89765 1153.45 4.86514 1153.53 4.86514H1161.13C1163.98 4.86514 1166.72 6.00191 1168.73 8.02538C1170.75 10.0488 1171.88 12.7932 1171.88 15.6549V16.8789C1171.88 19.7405 1170.75 22.4849 1168.73 24.5083C1166.72 26.5318 1163.98 27.6686 1161.13 27.6686H1153.53C1153.45 27.6686 1153.37 27.6361 1153.31 27.5782C1153.26 27.5203 1153.22 27.4418 1153.22 27.36V5.17371ZM1156.46 7.884V24.6394C1156.46 24.7172 1156.49 24.7917 1156.55 24.8467C1156.6 24.9017 1156.68 24.9326 1156.76 24.9326H1160.56C1162.7 24.9326 1164.76 24.0889 1166.28 22.5872C1167.8 21.0856 1168.65 19.0488 1168.65 16.9251V15.5983C1168.65 13.4746 1167.8 11.4379 1166.28 9.93618C1164.76 8.43449 1162.7 7.59086 1160.56 7.59086H1156.76C1156.68 7.59086 1156.6 7.62174 1156.55 7.67672C1156.49 7.73169 1156.46 7.80625 1156.46 7.884Z" fill="#A3A3A3"/>
<path d="M1193.49 18.54L1185.87 18.4577C1185.83 18.457 1185.78 18.4477 1185.74 18.4302C1185.7 18.4127 1185.66 18.3874 1185.63 18.3558C1185.6 18.3242 1185.58 18.287 1185.56 18.2462C1185.55 18.2054 1185.54 18.1619 1185.54 18.1183L1185.59 15.9532C1185.59 15.8818 1185.62 15.8137 1185.67 15.7637C1185.73 15.7137 1185.79 15.6857 1185.87 15.6857H1196.69C1196.78 15.6856 1196.87 15.7209 1196.93 15.7841C1197 15.8474 1197.04 15.9337 1197.04 16.0252C1197.3 22.1657 1194.72 26.0949 1189.31 27.8126C1187.74 28.3114 1184.44 28.3989 1182.78 27.9463C1171.04 24.7217 1170.8 7.85315 1182.92 5.1943C1186.73 4.36115 1190.3 5.09144 1193.63 7.38515C1193.73 7.45432 1193.82 7.54527 1193.88 7.65148C1193.94 7.75768 1193.98 7.87651 1193.99 7.99943C1194 8.12235 1193.99 8.2463 1193.94 8.36239C1193.9 8.47849 1193.83 8.58383 1193.74 8.67087L1192.26 10.1366C1192.12 10.2806 1191.97 10.2857 1191.81 10.152C1185.66 4.86001 1177.01 8.67087 1177.19 16.7143C1177.42 27.072 1192.47 28.7126 1193.7 18.7817C1193.72 18.6206 1193.65 18.54 1193.49 18.54Z" fill="#A3A3A3"/>
<path d="M1213.29 4.88057L1216.66 4.89086C1216.7 4.89066 1216.73 4.9014 1216.76 4.92162C1216.79 4.94185 1216.81 4.9706 1216.83 5.004L1225.15 27.4063C1225.16 27.4328 1225.16 27.4614 1225.16 27.4896C1225.15 27.5177 1225.14 27.5446 1225.13 27.5679C1225.11 27.5911 1225.09 27.6101 1225.06 27.6232C1225.04 27.6363 1225.01 27.643 1224.98 27.6429H1221.83C1221.8 27.6431 1221.76 27.6323 1221.73 27.6121C1221.71 27.5919 1221.68 27.5631 1221.67 27.5297L1219.64 21.888C1219.63 21.8544 1219.61 21.8252 1219.58 21.804C1219.55 21.7829 1219.51 21.7709 1219.48 21.7697L1210.56 21.5794C1210.53 21.5792 1210.49 21.59 1210.46 21.6102C1210.43 21.6304 1210.41 21.6592 1210.4 21.6926L1208.29 27.5297C1208.28 27.5631 1208.25 27.5919 1208.22 27.6121C1208.19 27.6323 1208.16 27.6431 1208.12 27.6429H1204.93C1204.9 27.643 1204.87 27.6363 1204.84 27.6232C1204.82 27.6101 1204.8 27.5911 1204.78 27.5679C1204.76 27.5446 1204.75 27.5177 1204.75 27.4896C1204.75 27.4614 1204.75 27.4328 1204.76 27.4063L1213.12 4.99372C1213.14 4.96031 1213.16 4.93156 1213.19 4.91134C1213.22 4.89111 1213.25 4.88037 1213.29 4.88057ZM1211.44 18.7869C1211.43 18.8131 1211.43 18.8411 1211.43 18.8686C1211.44 18.896 1211.45 18.9222 1211.46 18.9448C1211.48 18.9674 1211.5 18.9858 1211.53 18.9986C1211.55 19.0114 1211.58 19.0181 1211.61 19.0183L1218.33 19.0286C1218.36 19.0284 1218.39 19.0217 1218.41 19.0089C1218.44 18.9961 1218.46 18.9777 1218.47 18.9551C1218.49 18.9324 1218.5 18.9063 1218.5 18.8789C1218.51 18.8514 1218.51 18.8234 1218.5 18.7971L1215.15 9.10286C1215.14 9.06876 1215.12 9.03909 1215.09 9.0179C1215.06 8.99671 1215.02 8.98504 1214.99 8.98448C1214.95 8.98391 1214.92 8.99449 1214.89 9.01476C1214.86 9.03503 1214.83 9.064 1214.82 9.09772L1211.44 18.7869Z" fill="#A3A3A3"/>
<path d="M1228.82 9.25715C1230.05 9.25715 1231.05 8.26245 1231.05 7.03544C1231.05 5.80842 1230.05 4.81372 1228.82 4.81372C1227.6 4.81372 1226.6 5.80842 1226.6 7.03544C1226.6 8.26245 1227.6 9.25715 1228.82 9.25715Z" fill="#A3A3A3"/>
<path d="M1253.07 13.9526C1253.98 12.8383 1255.16 12.1937 1256.6 12.0189C1265.72 10.9132 1263.85 20.7823 1263.77 27.396C1263.77 27.5606 1263.69 27.6429 1263.52 27.6429H1260.74C1260.56 27.6429 1260.47 27.5537 1260.47 27.3754C1260.44 24.2829 1260.43 21.2023 1260.44 18.1337C1260.44 15.1149 1257.36 13.7263 1254.98 15.3514C1252.11 17.3109 1252.72 22.9474 1253.01 27.36C1253.02 27.5486 1252.93 27.6429 1252.74 27.6429H1250.08C1249.88 27.6429 1249.77 27.54 1249.77 27.3343L1249.69 5.25087C1249.69 5.00744 1249.82 4.88573 1250.06 4.88573H1252.63C1252.8 4.88573 1252.89 4.97658 1252.89 5.1583L1252.86 13.8754C1252.85 14.1017 1252.92 14.1274 1253.07 13.9526Z" fill="#A3A3A3"/>
<path d="M1076.84 22.4053L1058.47 11.8007C1056.04 10.4004 1052.94 11.2314 1051.54 13.6568L1051.41 13.8884C1050.01 16.3137 1050.84 19.415 1053.26 20.8153L1071.63 31.4199C1074.06 32.8202 1077.16 31.9892 1078.56 29.5638L1078.69 29.3322C1080.09 26.9069 1079.26 23.8056 1076.84 22.4053Z" fill="#A3A3A3"/>
<path d="M1233.49 14.3177C1236.92 10.7691 1244.48 10.7331 1246.34 15.8194C1247.32 18.4989 1246.77 23.7857 1246.9 27.3034C1246.91 27.5297 1246.8 27.6429 1246.58 27.6429H1244.07C1243.98 27.6429 1243.9 27.6102 1243.84 27.5516C1243.78 27.4931 1243.75 27.4133 1243.74 27.3291L1243.73 26.424C1243.73 26.3854 1243.71 26.3481 1243.69 26.3169C1243.67 26.2857 1243.64 26.262 1243.6 26.2488C1243.56 26.2356 1243.52 26.2335 1243.49 26.2427C1243.45 26.2519 1243.41 26.272 1243.39 26.3006C1240 30.2451 1231.63 27.8743 1233.02 21.816C1234.03 17.4291 1240.21 17.3263 1243.57 18.4886C1243.61 18.4998 1243.64 18.5022 1243.68 18.4955C1243.71 18.4888 1243.75 18.4732 1243.77 18.4503C1243.8 18.4275 1243.82 18.3981 1243.83 18.3651C1243.84 18.3321 1243.85 18.2967 1243.84 18.2623C1243.17 14.2714 1239.1 13.8394 1236.25 16.1897C1236.18 16.242 1236.1 16.2727 1236.02 16.2773C1235.94 16.2819 1235.86 16.2602 1235.79 16.2154L1233.54 14.7651C1233.34 14.6349 1233.32 14.4857 1233.49 14.3177ZM1236.81 21.744C1233.68 24.6857 1241.31 27.8949 1243.71 22.2326C1243.75 22.15 1243.77 22.0611 1243.77 21.9712C1243.77 21.8812 1243.75 21.7919 1243.72 21.7083C1243.68 21.6247 1243.63 21.5485 1243.57 21.4841C1243.51 21.4196 1243.43 21.3681 1243.35 21.3326C1241.49 20.5406 1238.36 20.2783 1236.81 21.744Z" fill="#A3A3A3"/>
<path d="M1227.13 29.376C1227.16 23.8731 1227.17 18.36 1227.15 12.8366C1227.14 12.5931 1227.26 12.4714 1227.51 12.4714H1230.08C1230.28 12.4714 1230.39 12.5743 1230.39 12.78C1230.37 18.516 1230.33 24.2417 1230.26 29.9571C1230.21 33.5194 1228.3 35.1051 1224.5 34.7143C1224.02 34.6663 1223.83 34.404 1223.95 33.9274L1224.42 31.9783C1224.43 31.9466 1224.44 31.9166 1224.46 31.8901C1224.48 31.8636 1224.5 31.8411 1224.53 31.8239C1224.56 31.8067 1224.59 31.7951 1224.62 31.7898C1224.65 31.7846 1224.68 31.7857 1224.71 31.7931C1226.87 32.3074 1227.12 31.1503 1227.13 29.376Z" fill="#A3A3A3"/>
<path d="M1109.21 22.8651C1109.22 22.8715 1109.23 22.8805 1109.24 22.8912C1109.25 22.902 1109.26 22.9142 1109.26 22.9269C1109.27 23.0297 1109.24 23.1069 1109.14 23.1583C1105 25.5754 1100.85 27.9737 1096.68 30.3531C1094.85 31.3954 1093.45 31.9423 1092.49 31.9937C1088.34 32.2046 1085.66 27.6223 1087.88 24.1611C1089.47 21.7029 1095.64 18.936 1098.3 17.4497C1098.47 17.3526 1098.67 17.3055 1098.87 17.3136C1099.06 17.3218 1099.26 17.385 1099.42 17.496C1102.41 19.488 1105.67 21.2777 1109.21 22.8651Z" fill="#A3A3A3"/>
</g>
</g>
<defs>
<clipPath id="clip0_1677_8962">
<rect width="1280" height="36" fill="white"/>
</clipPath>
<clipPath id="clip1_1677_8962">
<rect width="245.829" height="36" fill="white" transform="translate(15.5618)"/>
</clipPath>
<clipPath id="clip2_1677_8962">
<rect width="137.314" height="36" fill="white" transform="translate(309.39)"/>
</clipPath>
<clipPath id="clip3_1677_8962">
<rect width="121.886" height="36" fill="white" transform="translate(494.705)"/>
</clipPath>
<clipPath id="clip4_1677_8962">
<rect width="190.648" height="36" fill="white" transform="translate(664.59)"/>
</clipPath>
<clipPath id="clip5_1677_8962">
<rect width="97.2" height="36" fill="white" transform="translate(903.238)"/>
</clipPath>
<clipPath id="clip6_1677_8962">
<rect width="216" height="36" fill="white" transform="translate(1048.44)"/>
</clipPath>
</defs>
</svg>
