<svg width="82" height="64" viewBox="0 0 82 64" fill="none" xmlns="http://www.w3.org/2000/svg">
<path d="M77.0499 0V13.5182H69.0866C62.9169 13.5182 59.832 16.5457 59.832 22.6007V29.3597H63.2756C68.5844 29.3597 73.0324 30.9791 76.6194 34.2178C80.2065 37.3157 82 41.3289 82 46.2574C82 51.4675 80.2065 55.7624 76.6194 59.1419C73.0324 62.3806 68.5844 64 63.2756 64C57.8233 64 53.3753 62.3102 49.9318 58.9307C46.4882 55.5512 44.7664 51.1155 44.7664 45.6238V22.3894C44.7664 7.46315 52.2992 0 67.3648 0H77.0499ZM32.2835 0V13.5182H24.3202C18.1505 13.5182 15.0656 16.5457 15.0656 22.6007V29.3597H18.5092C23.818 29.3597 28.266 30.9791 31.853 34.2178C35.4401 37.3157 37.2336 41.3289 37.2336 46.2574C37.2336 51.4675 35.4401 55.7624 31.853 59.1419C28.266 62.3806 23.818 64 18.5092 64C13.0569 64 8.60892 62.3102 5.16536 58.9307C1.72179 55.5512 0 51.1155 0 45.6238V22.3894C0 7.46315 7.53281 0 22.5984 0H32.2835Z" fill="#FFCC00"/>
</svg>
