<svg width="20" height="7" viewBox="0 0 20 7" fill="none" xmlns="http://www.w3.org/2000/svg">
<path fill-rule="evenodd" clip-rule="evenodd" d="M0.329603 1.16401C0.418723 0.986581 0.574566 0.851729 0.76296 0.789025C0.951355 0.72632 1.15693 0.74088 1.3346 0.829513L10.0001 5.16001L18.6641 0.828013C18.7522 0.782985 18.8484 0.755849 18.9471 0.748171C19.0458 0.740492 19.145 0.752423 19.2391 0.783276C19.3331 0.814128 19.4201 0.863291 19.4951 0.927931C19.5701 0.992571 19.6315 1.07141 19.6758 1.1599C19.7202 1.24839 19.7466 1.34478 19.7535 1.44352C19.7604 1.54226 19.7477 1.64139 19.7161 1.7352C19.6845 1.82901 19.6347 1.91564 19.5695 1.99009C19.5042 2.06455 19.4249 2.12536 19.3361 2.16901L10.3361 6.66901C10.2318 6.72128 10.1168 6.74849 10.0001 6.74849C9.88345 6.74849 9.7684 6.72128 9.6641 6.66901L0.664103 2.16901C0.486671 2.07989 0.351819 1.92405 0.289114 1.73566C0.22641 1.54726 0.24097 1.34169 0.329603 1.16401Z" fill="white"/>
</svg>
