<svg width="27" height="44" viewBox="0 0 27 44" fill="none" xmlns="http://www.w3.org/2000/svg">
<path d="M23.379 6.46069C21.4905 3.79239 18.6992 2.13194 15.7174 1.61976C12.7273 1.09931 9.53842 1.71889 6.85478 3.60239C6.28327 3.99892 5.76145 4.44501 5.27276 4.93241C4.79236 5.41981 4.34509 5.94851 3.94751 6.51852L2.75478 5.69242C3.19377 5.06459 3.69074 4.4698 4.24569 3.91631C4.79236 3.37108 5.38872 2.86716 6.01822 2.42107C9.02489 0.314521 12.6031 -0.387663 15.9576 0.198867C19.3122 0.777136 22.4514 2.63586 24.5635 5.63459L23.379 6.46895V6.46069Z" fill="#FFCC00"/>
<path d="M8.60301 15.9688C10.3485 15.9688 11.7634 14.5308 11.7634 12.7569C11.7634 10.983 10.3485 9.54497 8.60301 9.54497C6.85756 9.54497 5.44259 10.983 5.44259 12.7569C5.44259 14.5308 6.85756 15.9688 8.60301 15.9688Z" fill="white"/>
<path d="M19.0037 16.5528C20.7491 16.5528 22.1641 15.1148 22.1641 13.3409C22.1641 11.567 20.7491 10.129 19.0037 10.129C17.2582 10.129 15.8433 11.567 15.8433 13.3409C15.8433 15.1148 17.2582 16.5528 19.0037 16.5528Z" fill="white"/>
<path d="M13.6087 18.5383C5.57814 18.5383 0 23.572 0 31.88C0 37.1581 3.12568 44 12.8393 44C23.8995 44 26.4 35.5942 26.4 30.8538C26.4 22.9367 21.1585 18.5383 13.6087 18.5383ZM13.5607 23.3277C17.9366 23.3277 19.7158 26.6509 19.7158 30.7071C19.7158 35.0566 17.7443 39.2107 12.9355 39.2107C8.8 39.2107 6.68415 35.9363 6.68415 32.0267C6.68415 27.4817 8.55956 23.3277 13.5607 23.3277Z" fill="white"/>
</svg>
