<svg width="430" height="302" viewBox="0 0 430 302" fill="none" xmlns="http://www.w3.org/2000/svg">
<path d="M266.13 170.575C260.761 173.882 243.738 176.071 236.504 176.474H269.129C268.269 174.44 267.268 172.467 266.13 170.575Z" fill="#2E2E2E"/>
<path d="M271.476 183.917H164.514L125.184 265.572C127.05 267.221 129.033 268.734 131.117 270.097L125.226 282.499C133.689 284.823 142.605 284.956 151.133 282.884L153.302 277.823C155.465 278.035 157.638 278.127 159.811 278.096L175.215 249.905L170.584 273.305C172.665 274.331 174.806 275.234 176.994 276.005L175.287 282.879C182.998 285.082 191.173 285.082 198.885 282.879L199.609 279.641C201.677 279.628 203.758 279.547 205.853 279.374L222.825 210.717L227.955 211.487L263.651 208.622C270.99 202.622 274.188 195.163 271.476 183.917Z" fill="#2E2E2E"/>
<path d="M135.913 115.816C135.784 117.385 135.201 118.881 134.236 120.124C133.27 121.366 131.963 122.3 130.476 122.812C128.988 123.324 127.383 123.392 125.858 123.006C124.332 122.621 122.951 121.8 121.885 120.643C120.818 119.486 120.112 118.044 119.852 116.492C119.591 114.94 119.789 113.346 120.42 111.905C121.051 110.464 122.088 109.237 123.404 108.376C124.721 107.514 126.26 107.054 127.833 107.053C130.067 107.144 132.172 108.119 133.688 109.762C135.203 111.405 136.003 113.583 135.913 115.816Z" fill="#2E2E2E"/>
<path d="M132.707 103.376C131.412 104.333 129.827 104.816 128.219 104.744C128.376 103.143 129.087 101.647 130.228 100.512C131.524 99.5556 133.108 99.0728 134.717 99.1441C134.559 100.745 133.849 102.242 132.707 103.376Z" fill="#2E2E2E"/>
<path d="M226.712 94.7496C226.64 95.8728 226.413 96.9807 226.037 98.0413L230.141 94.1938C229.025 94.5214 227.873 94.7082 226.712 94.7496Z" fill="#182222"/>
<path d="M243.043 130.993V150.914C244.154 150.743 245.266 150.572 246.377 150.358C245.783 143.825 244.667 137.349 243.043 130.993Z" fill="#182222"/>
<path d="M218.121 160.533L212.905 158.609C212.307 158.096 211.708 157.541 211.152 156.985C212.525 151.043 216.197 153.265 218.121 160.533Z" fill="#182222"/>
<path d="M178.278 87.003V141.039C178.276 143.011 177.492 144.903 176.098 146.297C174.703 147.692 172.812 148.476 170.839 148.477H168.018C169.99 148.476 171.881 147.692 173.276 146.297C174.671 144.903 175.455 143.011 175.456 141.039V87.003C175.455 85.0304 174.671 83.139 173.276 81.7445C171.881 80.3497 169.99 79.5656 168.018 79.5645H170.839C172.812 79.5656 174.703 80.3497 176.098 81.7445C177.492 83.139 178.276 85.0304 178.278 87.003Z" fill="#182222"/>
<path d="M151.302 174.598H145.744C144.853 174.607 143.99 174.283 143.324 173.691C142.658 173.097 142.238 172.278 142.144 171.392L139.802 148.525H136.98L140.101 176.996H153.653C153.659 176.684 153.603 176.373 153.487 176.083C153.372 175.793 153.199 175.527 152.981 175.304C152.762 175.082 152.501 174.904 152.212 174.782C151.924 174.661 151.614 174.598 151.302 174.598Z" fill="#182222"/>
<path d="M246.249 79.3082C246.753 78.7016 247.025 77.9348 247.014 77.1458C247.003 76.3569 246.713 75.5978 246.191 75.0049C245.671 74.4122 244.955 74.0248 244.175 73.9123C243.394 73.8 242.597 73.9701 241.931 74.392C242.294 73.7415 242.424 72.9882 242.305 72.2536C242.188 71.519 241.826 70.8457 241.277 70.3424C240.728 69.8389 240.028 69.5345 239.285 69.478C238.543 69.4215 237.805 69.6166 237.186 70.0315C239.18 66.4427 233.465 63.376 231.336 66.8252C230.02 70.7197 228.375 74.4953 226.42 78.1112C231.892 70.4612 235.568 78.5815 235.226 83.3695C235.269 84.31 235.739 84.5665 237.278 83.455C240.442 81.1465 242.708 86.533 236.808 89.1835C234.99 92.6804 234.459 96.7064 235.312 100.555C235.269 99.9565 234.585 88.0292 248.051 85.5497C248.749 85.4019 249.374 85.0203 249.824 84.4681C250.274 83.9162 250.522 83.2268 250.526 82.5145C250.531 81.9943 250.414 81.4802 250.182 81.014C249.953 80.5475 249.615 80.1421 249.199 79.83C248.783 79.5179 248.299 79.308 247.786 79.2176C247.273 79.1269 246.746 79.1579 246.249 79.3082Z" fill="#182222"/>
<path d="M232.74 114.449C232.74 114.857 232.578 115.248 232.29 115.537C232 115.825 231.608 115.988 231.201 115.988C230.794 115.988 230.402 115.825 230.112 115.537C229.824 115.248 229.662 114.857 229.662 114.449C229.662 114.041 229.824 113.649 230.112 113.36C230.402 113.072 230.794 112.91 231.201 112.91C231.608 112.91 232 113.072 232.29 113.36C232.578 113.649 232.74 114.041 232.74 114.449Z" fill="#182222"/>
<path d="M217.949 128.685C217.949 129.093 217.787 129.484 217.499 129.773C217.209 130.061 216.817 130.223 216.41 130.223C216.003 130.223 215.611 130.061 215.321 129.773C215.033 129.484 214.871 129.093 214.871 128.685C214.871 128.276 215.033 127.885 215.321 127.596C215.611 127.307 216.003 127.146 216.41 127.146C216.817 127.146 217.209 127.307 217.499 127.596C217.787 127.885 217.949 128.276 217.949 128.685Z" fill="#182222"/>
<path d="M229.449 144.801C229.449 145.209 229.287 145.601 228.999 145.889C228.709 146.178 228.317 146.34 227.91 146.34C227.503 146.34 227.111 146.178 226.821 145.889C226.533 145.601 226.371 145.209 226.371 144.801C226.371 144.393 226.533 144.002 226.821 143.713C227.111 143.424 227.503 143.262 227.91 143.262C228.317 143.262 228.709 143.424 228.999 143.713C229.287 144.002 229.449 144.393 229.449 144.801Z" fill="#182222"/>
<path d="M313.999 149.632H298.609C298.064 149.632 297.542 149.848 297.157 150.233C296.773 150.618 296.557 151.139 296.557 151.684V174.427C296.557 174.971 296.773 175.493 297.157 175.878C297.542 176.263 298.064 176.479 298.609 176.479H313.999C314.541 176.472 315.058 176.252 315.441 175.869C315.826 175.487 316.044 174.969 316.051 174.427V151.675C316.048 151.133 315.83 150.612 315.448 150.23C315.063 149.847 314.541 149.632 313.999 149.632Z" fill="#182222"/>
<path d="M311.749 41.4248L290.929 47.1106C290.558 47.2109 290.218 47.4073 289.946 47.68C289.674 47.953 289.478 48.2927 289.377 48.6653C289.278 49.0377 289.278 49.4299 289.377 49.8022C289.478 50.1746 289.674 50.5144 289.946 50.7871L308.671 69.3406C308.943 69.613 309.283 69.809 309.656 69.9089C310.027 70.0088 310.421 70.0088 310.792 69.9091C311.166 69.8097 311.506 69.6137 311.778 69.3415C312.05 69.069 312.246 68.7297 312.347 68.3573L317.905 47.1533L311.749 41.4248Z" fill="#182222"/>
<path d="M326.175 32.7271C325.801 32.3588 325.358 32.0678 324.872 31.8707C324.388 31.6736 323.869 31.5744 323.344 31.5782C322.82 31.5823 322.3 31.6896 321.819 31.8939C321.335 32.0984 320.899 32.3961 320.532 32.7698L311.854 41.5336L317.703 46.9628L326.211 38.3701C326.944 37.6125 327.354 36.5966 327.347 35.5412C327.34 34.4857 326.917 33.475 326.175 32.7271Z" fill="#182222"/>
<path d="M142.581 4.07479C142.58 4.61569 142.418 5.14421 142.117 5.59354C141.815 6.04264 141.387 6.39229 140.887 6.59816C140.386 6.80404 139.836 6.85691 139.306 6.75026C138.775 6.64361 138.289 6.38194 137.907 5.99876C137.525 5.61536 137.265 5.12734 137.161 4.59656C137.056 4.06579 137.112 3.51589 137.319 3.01639C137.528 2.51689 137.879 2.09029 138.329 1.79036C138.78 1.49066 139.309 1.33114 139.85 1.33204C140.21 1.33136 140.566 1.40201 140.899 1.53971C141.231 1.67764 141.533 1.87969 141.787 2.13461C142.041 2.38976 142.242 2.69239 142.378 3.02539C142.514 3.35839 142.583 3.71502 142.581 4.07479Z" fill="#182222"/>
<path d="M198.883 282.884C191.171 285.087 182.997 285.087 175.285 282.884C168.06 284.979 153.867 295.068 153.867 295.068H201.619C201.167 290.916 200.249 286.83 198.883 282.884Z" fill="#182222"/>
<path d="M151.131 282.884C142.603 284.956 133.688 284.823 125.225 282.499C117.477 285.039 110.423 289.341 104.619 295.068H153.824C153.225 290.946 152.325 286.873 151.131 282.884Z" fill="#182222"/>
<path d="M236.417 210.807L227.952 211.491L222.822 210.722L223.891 206.404L236.417 210.807Z" fill="#182222"/>
<path d="M384.46 176.479H52.1216C51.1352 176.479 50.1893 176.871 49.4918 177.568C48.7943 178.266 48.4023 179.213 48.4023 180.198C48.4023 181.184 48.7943 182.131 49.4918 182.829C50.1893 183.526 51.1352 183.918 52.1216 183.918H97.6683L76.7028 299.984C76.6675 300.195 76.6531 300.411 76.6601 300.625H84.1841L105.253 183.918H331.407L352.483 300.668H360.007C359.964 300.454 359.964 300.24 359.922 299.993L338.958 183.927H384.46C385.446 183.927 386.393 183.535 387.09 182.838C387.788 182.14 388.179 181.193 388.179 180.207C388.179 179.222 387.788 178.275 387.09 177.577C386.393 176.88 385.446 176.488 384.46 176.488V176.479Z" fill="#182222"/>
<path d="M142.581 4.07479C142.58 4.61569 142.418 5.14421 142.117 5.59354C141.815 6.04264 141.387 6.39229 140.887 6.59816C140.386 6.80404 139.836 6.85691 139.306 6.75026C138.775 6.64361 138.289 6.38194 137.907 5.99876C137.525 5.61536 137.265 5.12734 137.161 4.59656C137.056 4.06579 137.112 3.51589 137.319 3.01639C137.528 2.51689 137.879 2.09029 138.329 1.79036C138.78 1.49066 139.309 1.33114 139.85 1.33204C140.21 1.33136 140.566 1.40201 140.899 1.53971C141.231 1.67764 141.533 1.87969 141.787 2.13461C142.041 2.38976 142.242 2.69239 142.378 3.02539C142.514 3.35839 142.583 3.71502 142.581 4.07479Z" stroke="#FFCC00" stroke-width="0.9"/>
<path d="M326.175 32.7271C325.801 32.3588 325.358 32.0678 324.872 31.8707C324.388 31.6736 323.869 31.5744 323.344 31.5782C322.82 31.5823 322.3 31.6896 321.819 31.8939C321.335 32.0984 320.899 32.3961 320.532 32.7698L311.854 41.5336L317.703 46.9628L326.211 38.3701C326.944 37.6125 327.354 36.5966 327.347 35.5412C327.34 34.4857 326.917 33.475 326.175 32.7271Z" stroke="#FFCC00" stroke-width="0.9" stroke-linejoin="round"/>
<path d="M384.46 176.479H52.1216C51.1352 176.479 50.1893 176.871 49.4918 177.568C48.7943 178.266 48.4023 179.213 48.4023 180.198C48.4023 181.184 48.7943 182.131 49.4918 182.829C50.1893 183.526 51.1352 183.918 52.1216 183.918H97.6683L76.7028 299.984C76.6675 300.195 76.6531 300.411 76.6601 300.625H84.1841L105.253 183.918H331.407L352.483 300.668H360.007C359.964 300.454 359.964 300.24 359.922 299.993L338.958 183.927H384.46C385.446 183.927 386.393 183.535 387.09 182.838C387.788 182.14 388.179 181.193 388.179 180.207C388.179 179.222 387.788 178.275 387.09 177.577C386.393 176.88 385.446 176.488 384.46 176.488V176.479Z" stroke="#FFCC00" stroke-width="0.9" stroke-linejoin="round"/>
<path d="M208.417 170.665C206.643 173.068 204.203 174.9 201.4 175.932C198.597 176.965 195.553 177.156 192.643 176.479" stroke="#FFCC00" stroke-width="0.9" stroke-linecap="round" stroke-linejoin="round"/>
<path d="M111.724 163.483C111.724 163.483 90.9365 161.561 88.0723 176.479" stroke="#FFCC00" stroke-width="0.9" stroke-linecap="round" stroke-linejoin="round"/>
<path d="M119.112 166.817C118.471 166.475 117.953 166.142 117.445 165.834C115.028 164.374 114.153 163.397 112.015 161.987C109.96 160.623 108.054 159.048 106.33 157.284C101.582 152.413 103.166 151.556 108.51 154.762C108.542 154.766 108.572 154.782 108.595 154.805C112.144 156.953 115.844 158.841 119.668 160.45" stroke="#FFCC00" stroke-width="0.9" stroke-linecap="round" stroke-linejoin="round"/>
<path d="M117.445 165.834C112.774 163.769 107.962 162.038 103.045 160.659C98.9007 159.494 99.6252 158.56 100.309 158.436C102.835 158.245 105.374 158.344 107.876 158.735" stroke="#FFCC00" stroke-width="0.9" stroke-linecap="round" stroke-linejoin="round"/>
<path d="M118.342 174.598C117.402 174.47 116.504 174.411 115.734 174.384C108.343 174.114 110.949 172.469 113.511 171.734C114.839 171.353 117.017 170.921 118.77 170.323" stroke="#FFCC00" stroke-width="0.9" stroke-linecap="round" stroke-linejoin="round"/>
<path d="M278.227 215.167L290.41 300.667" stroke="#FFCC00" stroke-width="0.9" stroke-linecap="round" stroke-linejoin="round"/>
<path d="M291.437 153.095L271.43 151.641" stroke="#FFCC00" stroke-width="0.9" stroke-linecap="round" stroke-linejoin="round"/>
<path d="M199.607 279.646L198.883 282.884" stroke="#FFCC00" stroke-width="0.9" stroke-linecap="round" stroke-linejoin="round"/>
<path d="M175.242 282.884L176.993 276.01" stroke="#FFCC00" stroke-width="0.9" stroke-linecap="round" stroke-linejoin="round"/>
<path d="M153.311 277.796L151.131 282.884" stroke="#FFCC00" stroke-width="0.9" stroke-linecap="round" stroke-linejoin="round"/>
<path d="M125.182 282.541L131.115 270.097" stroke="#FFCC00" stroke-width="0.9" stroke-linecap="round" stroke-linejoin="round"/>
<path d="M175.242 249.795L159.809 278.096C147.085 278.532 134.682 274.048 125.182 265.572L164.512 183.917" stroke="#FFCC00" stroke-width="0.9" stroke-linecap="round" stroke-linejoin="round"/>
<path d="M193.582 279.475L209.357 204.694C209.586 203.6 210.03 202.565 210.663 201.645C211.296 200.727 212.105 199.942 213.044 199.336C213.982 198.731 215.031 198.319 216.129 198.124C217.23 197.928 218.357 197.953 219.446 198.196C232.719 201.163 257.671 203.89 260.182 184.016" stroke="#FFCC00" stroke-width="0.9" stroke-linecap="round" stroke-linejoin="round"/>
<path d="M137.986 157.426L186.442 149.551C194.437 137.401 203.932 109.258 217.693 105.347C219.949 104.772 222.004 103.589 223.635 101.927" stroke="#FFCC00" stroke-width="0.9" stroke-linecap="round" stroke-linejoin="round"/>
<path d="M226.713 94.7499C227.847 94.7094 228.972 94.5433 230.068 94.2549L226.018 98.0416" stroke="#FFCC00" stroke-width="0.9" stroke-linecap="round" stroke-linejoin="round"/>
<path d="M235.99 102.265C236.652 103.481 237.752 104.398 239.068 104.83C245.906 107.382 252.244 111.113 257.793 115.855C264.124 121.664 269.718 142.951 272.157 156.98C272.746 160.279 272.069 163.676 270.262 166.498C268.455 169.319 265.652 171.355 262.41 172.199C253.952 174.548 245.267 175.981 236.503 176.474" stroke="#FFCC00" stroke-width="0.9" stroke-linecap="round" stroke-linejoin="round"/>
<path d="M251.253 149.375C238.844 151.769 226.264 153.169 213.633 153.565" stroke="#FFCC00" stroke-width="0.9" stroke-linecap="round" stroke-linejoin="round"/>
<path d="M246.336 150.325C245.781 143.786 244.665 137.307 243.002 130.959V150.923" stroke="#FFCC00" stroke-width="0.9" stroke-linecap="round" stroke-linejoin="round"/>
<path d="M145.359 156.215C149.254 162.187 150.637 169.452 149.207 176.436" stroke="#FFCC00" stroke-width="0.9" stroke-linecap="round" stroke-linejoin="round"/>
<path d="M198.199 159.379C194.907 160.832 186.485 163.229 181.954 164.68C179.816 165.355 183.621 167.801 196.532 164.081" stroke="#FFCC00" stroke-width="0.9" stroke-linecap="round" stroke-linejoin="round"/>
<path d="M198.841 162.713C195.72 164.68 191.191 166.943 187.085 169.126C185.161 170.15 186.914 172.375 198.285 167.672" stroke="#FFCC00" stroke-width="0.9" stroke-linecap="round" stroke-linejoin="round"/>
<path d="M199.737 165.834C197.937 168.057 196.378 170.212 193.368 173.443C191.966 174.949 194.54 175.862 204.055 169.168C205.81 167.933 206.755 169.288 209.057 171.22C212.101 173.774 214.144 176.735 216.367 176.436" stroke="#FFCC00" stroke-width="0.9" stroke-linecap="round" stroke-linejoin="round"/>
<path d="M205.295 155.873C201.875 147.998 204.098 147.548 205.295 149.546C207.324 152.822 209.781 155.81 212.601 158.436" stroke="#FFCC00" stroke-width="0.9" stroke-linecap="round" stroke-linejoin="round"/>
<path d="M211.152 156.985C212.219 152.35 214.692 152.683 216.64 156.504C218.89 160.923 220.942 176.479 216.24 176.479" stroke="#FFCC00" stroke-width="0.9" stroke-linecap="round" stroke-linejoin="round"/>
<path d="M217.964 160.474C212.935 158.598 204.866 155.317 202.688 155.317C201.876 155.317 192.599 158.017 188.111 159.25C185.161 160.065 183.752 161.426 188.538 161.26C190.547 161.19 192.77 160.918 194.78 160.661" stroke="#FFCC00" stroke-width="0.9" stroke-linecap="round" stroke-linejoin="round"/>
<path d="M208.588 127.15C206.734 136.203 206.851 145.549 208.93 154.553" stroke="#FFCC00" stroke-width="0.9" stroke-linecap="round" stroke-linejoin="round"/>
<path d="M140.102 176.436H118.129L120.865 148.521H137.024L140.102 176.436Z" stroke="#FFCC00" stroke-width="0.9" stroke-linecap="round" stroke-linejoin="round"/>
<path d="M135.913 115.816C135.784 117.385 135.201 118.881 134.236 120.124C133.27 121.366 131.963 122.3 130.476 122.812C128.988 123.324 127.383 123.392 125.858 123.006C124.332 122.621 122.951 121.8 121.885 120.643C120.818 119.486 120.112 118.044 119.852 116.492C119.591 114.94 119.789 113.346 120.42 111.905C121.051 110.464 122.088 109.237 123.404 108.376C124.721 107.514 126.26 107.054 127.833 107.053C130.067 107.144 132.172 108.119 133.688 109.762C135.203 111.405 136.003 113.583 135.913 115.816Z" stroke="#FFCC00" stroke-width="0.9" stroke-linecap="round" stroke-linejoin="round"/>
<path d="M132.706 103.376C131.41 104.333 129.826 104.816 128.217 104.744C128.374 103.143 129.085 101.647 130.226 100.512C131.522 99.5556 133.106 99.0728 134.715 99.1441C134.557 100.745 133.847 102.242 132.706 103.376Z" stroke="#FFCC00" stroke-width="0.9" stroke-linecap="round" stroke-linejoin="round"/>
<path d="M226.414 78.1536C228.365 74.5358 230.01 70.7605 231.33 66.8676C231.738 66.2695 232.325 65.8171 233.007 65.5761C233.688 65.3351 234.429 65.3185 235.122 65.5286C235.815 65.7385 236.42 66.1642 236.854 66.7436C237.286 67.3228 237.522 68.0254 237.529 68.7486C237.525 69.2116 237.408 69.6664 237.187 70.0738C237.806 69.6589 238.544 69.4641 239.286 69.5203C240.029 69.5768 240.729 69.8812 241.278 70.3848C241.824 70.8883 242.189 71.5615 242.306 72.2962C242.425 73.0306 242.295 73.7839 241.932 74.4343C242.598 74.0125 243.395 73.8424 244.176 73.9546C244.956 74.0671 245.672 74.4546 246.192 75.0475C246.714 75.6401 247.004 76.3995 247.015 77.1883C247.026 77.9772 246.754 78.744 246.25 79.3506C246.662 79.2183 247.094 79.1697 247.526 79.2077C247.956 79.246 248.374 79.3699 248.754 79.5727C249.137 79.7752 249.472 80.0524 249.744 80.3874C250.017 80.7224 250.219 81.109 250.341 81.5236C250.46 81.9383 250.496 82.373 250.446 82.8019C250.395 83.2307 250.26 83.6452 250.046 84.0205C249.832 84.3958 249.546 84.7245 249.202 84.9873C248.86 85.2499 248.469 85.4409 248.05 85.5493C244.41 85.9422 241.057 87.7177 238.686 90.5099C236.316 93.3019 235.108 96.8974 235.311 100.555" stroke="#182222" stroke-width="0.9" stroke-linecap="round" stroke-linejoin="round"/>
<path d="M235.991 102.265L235.179 108.677L228.638 103.505L221.242 107.224L223.636 101.923" stroke="#FFCC00" stroke-width="0.9" stroke-linecap="round" stroke-linejoin="round"/>
<path d="M228.638 103.504C223.251 117.099 221.328 134.156 221.242 153.137" stroke="#FFCC00" stroke-width="0.9" stroke-linecap="round" stroke-linejoin="round"/>
<path d="M316.061 156.942C317.683 156.942 319.238 157.585 320.383 158.733C321.53 159.878 322.174 161.433 322.174 163.055C322.174 164.677 321.53 166.232 320.383 167.377C319.238 168.525 317.683 169.168 316.061 169.168" stroke="#FFCC00" stroke-width="0.9" stroke-linecap="round" stroke-linejoin="round"/>
<path d="M372.106 100.213C372.106 100.957 371.885 101.684 371.471 102.303C371.059 102.922 370.47 103.404 369.784 103.688C369.095 103.973 368.339 104.048 367.61 103.903C366.879 103.757 366.211 103.399 365.684 102.873C365.158 102.347 364.8 101.676 364.654 100.947C364.51 100.217 364.584 99.4606 364.867 98.7732C365.153 98.0858 365.635 97.4981 366.253 97.0848C366.872 96.6715 367.599 96.4507 368.344 96.4507C368.839 96.4478 369.329 96.543 369.786 96.7311C370.245 96.919 370.661 97.1962 371.01 97.5461C371.361 97.8959 371.638 98.3117 371.824 98.7696C372.013 99.2275 372.108 99.718 372.106 100.213Z" stroke="#FFCC00" stroke-width="0.9" stroke-linecap="round" stroke-linejoin="round"/>
<path d="M341.883 165.62L368.345 103.975" stroke="#FFCC00" stroke-width="0.9" stroke-linecap="round" stroke-linejoin="round"/>
<path d="M368.344 96.451L329.783 53.188" stroke="#FFCC00" stroke-width="0.9" stroke-linecap="round" stroke-linejoin="round"/>
<path d="M325.168 50.2378L318.627 46.0483" stroke="#FFCC00" stroke-width="0.9" stroke-linecap="round" stroke-linejoin="round"/>
<path d="M303.235 63.9606C302.542 64.5017 301.721 64.857 300.85 64.9929C299.982 65.1288 299.093 65.0406 298.267 64.7366C297.439 64.4329 296.706 63.9235 296.132 63.2566C295.556 62.5897 295.162 61.7873 294.985 60.9253C294.834 60.1975 294.845 59.4457 295.014 58.7221C295.185 57.9985 295.509 57.3208 295.968 56.7358" stroke="#FFCC00" stroke-width="0.9" stroke-linecap="round" stroke-linejoin="round"/>
<path d="M330.424 51.435C330.424 51.9847 330.262 52.5218 329.956 52.9787C329.65 53.4357 329.216 53.7919 328.71 54.0022C328.201 54.2126 327.643 54.2675 327.103 54.1604C326.566 54.0531 326.068 53.7885 325.681 53.3999C325.292 53.0113 325.027 52.5161 324.921 51.977C324.813 51.4381 324.869 50.8795 325.078 50.3717C325.29 49.8638 325.645 49.4298 326.102 49.1245C326.559 48.8191 327.097 48.6562 327.646 48.6562C328.379 48.6657 329.081 48.9613 329.601 49.4804C330.118 49.9995 330.415 50.7011 330.424 51.435Z" stroke="#FFCC00" stroke-width="0.9" stroke-linecap="round" stroke-linejoin="round"/>
<path d="M344.618 168.399C344.618 168.948 344.456 169.486 344.15 169.942C343.844 170.399 343.409 170.757 342.903 170.966C342.395 171.175 341.837 171.232 341.297 171.124C340.759 171.018 340.262 170.752 339.875 170.363C339.485 169.976 339.22 169.479 339.114 168.941C339.006 168.401 339.062 167.843 339.272 167.335C339.481 166.828 339.839 166.394 340.295 166.088C340.752 165.782 341.29 165.62 341.839 165.62C342.203 165.62 342.566 165.69 342.903 165.829C343.241 165.969 343.547 166.174 343.805 166.432C344.064 166.691 344.269 166.997 344.408 167.335C344.548 167.672 344.618 168.034 344.618 168.399Z" stroke="#FFCC00" stroke-width="0.9" stroke-linecap="round" stroke-linejoin="round"/>
<path d="M227.954 221.024L222.824 300.668" stroke="#FFCC00" stroke-width="0.9" stroke-linecap="round" stroke-linejoin="round"/>
<path d="M144.206 41.8589H118.727V16.3799H144.206V41.8589Z" stroke="#FFCC00" stroke-width="0.9" stroke-linecap="round" stroke-linejoin="round"/>
<path d="M131.467 22.1941L138.905 6.50488" stroke="#FFCC00" stroke-width="0.9" stroke-linecap="round" stroke-linejoin="round"/>
<path d="M58.1505 225.448H38.6992" stroke="#FFCC00" stroke-width="0.9" stroke-linecap="round" stroke-linejoin="round"/>
<path d="M48.4023 235.174V215.723" stroke="#FFCC00" stroke-width="0.9" stroke-linecap="round" stroke-linejoin="round"/>
<path d="M372.875 213.116C372.976 214.232 372.744 215.352 372.209 216.336C371.673 217.321 370.857 218.124 369.864 218.644C368.872 219.166 367.749 219.38 366.636 219.263C365.52 219.144 364.467 218.698 363.605 217.98C362.745 217.263 362.115 216.306 361.798 215.233C361.481 214.158 361.49 213.012 361.823 211.944C362.156 210.873 362.799 209.925 363.67 209.221C364.543 208.517 365.603 208.087 366.719 207.986C367.461 207.909 368.211 207.984 368.926 208.202C369.639 208.42 370.301 208.778 370.875 209.257C371.448 209.734 371.921 210.321 372.265 210.985C372.607 211.647 372.814 212.371 372.875 213.116Z" stroke="#FFCC00" stroke-width="0.9" stroke-linecap="round" stroke-linejoin="round"/>
<path d="M1.25 300.667H428.75" stroke="#FFCC00" stroke-width="0.9" stroke-linecap="round" stroke-linejoin="round"/>
<path d="M153.867 295.067H201.619" stroke="#FFCC00" stroke-width="0.9" stroke-linecap="round" stroke-linejoin="round"/>
<path d="M104.576 295.067H153.781" stroke="#FFCC00" stroke-width="0.9" stroke-linecap="round" stroke-linejoin="round"/>
<path d="M153.866 295C153.413 290.871 152.496 286.805 151.132 282.881C142.604 284.954 133.689 284.821 125.226 282.497C115.083 285.941 106.148 292.235 99.4902 300.625C119.241 300.625 132.365 300.668 147.242 300.625" stroke="#FFCC00" stroke-width="0.9" stroke-linecap="round" stroke-linejoin="round"/>
<path d="M198.884 282.884C191.172 285.087 182.998 285.087 175.286 282.884C164.639 285.971 151.015 296.852 147.242 300.625C169.814 300.625 184.007 300.411 201.748 300.411C201.905 294.44 200.933 288.493 198.884 282.884Z" stroke="#FFCC00" stroke-width="0.9" stroke-linecap="round" stroke-linejoin="round"/>
<path d="M222.824 210.722L223.893 206.404L236.419 210.807" stroke="#FFCC00" stroke-width="0.9" stroke-linecap="round" stroke-linejoin="round"/>
<path d="M222.824 210.722L227.954 211.491L274.117 207.72" stroke="#FFCC00" stroke-width="0.9" stroke-linecap="round" stroke-linejoin="round"/>
<path d="M280.066 208.157L265.531 207.088" stroke="#FFCC00" stroke-width="0.9" stroke-linecap="round" stroke-linejoin="round"/>
<path d="M145.787 276.514L181.954 215.852" stroke="#FFCC00" stroke-width="0.9" stroke-linecap="round" stroke-linejoin="round"/>
<path d="M224.705 152.881C228.553 158.567 229.536 166.433 227.569 176.479" stroke="#FFCC00" stroke-width="0.9" stroke-linecap="round" stroke-linejoin="round"/>
<path d="M220.473 220.169L227.954 221.024L274.754 217.134C275.737 217.057 276.671 216.673 277.422 216.036C278.174 215.399 278.707 214.542 278.943 213.586L299.164 115.56C299.385 114.508 299.373 113.42 299.13 112.373C298.89 111.325 298.424 110.343 297.765 109.493C297.105 108.644 296.271 107.947 295.317 107.452C294.363 106.957 293.312 106.675 292.239 106.625L237.444 103.975" stroke="#FFCC00" stroke-width="0.9" stroke-linecap="round" stroke-linejoin="round"/>
<path d="M202.731 182.635C198.353 183.479 194.326 185.609 191.166 188.755C188.005 191.9 185.855 195.917 184.99 200.291L170.59 273.308C181.574 278.505 193.769 280.607 205.859 279.383C205.859 279.171 218.951 226.37 222.83 210.726" stroke="#FFCC00" stroke-width="0.9" stroke-linecap="round" stroke-linejoin="round"/>
<path d="M168.018 79.5645C169.991 79.5656 171.882 80.3497 173.277 81.7445C174.671 83.1393 175.455 85.0306 175.457 87.003V141.082C175.457 143.055 174.673 144.947 173.278 146.343C171.883 147.739 169.991 148.524 168.018 148.525H94.1033C92.1289 148.524 90.2351 147.741 88.8369 146.347C87.439 144.952 86.6506 143.061 86.6445 141.086V87.003C86.6427 86.0267 86.8335 85.0598 87.2059 84.1574C87.5783 83.2549 88.1248 82.4348 88.8144 81.744C89.5041 81.0531 90.3233 80.505 91.2251 80.131C92.1267 79.7571 93.0933 79.5645 94.0695 79.5645H168.018Z" stroke="#FFCC00" stroke-width="0.9" stroke-linecap="round" stroke-linejoin="round"/>
<path d="M178.278 87.003V141.039C178.276 143.011 177.492 144.903 176.098 146.297C174.703 147.692 172.812 148.476 170.839 148.477H168.018C169.99 148.476 171.881 147.692 173.276 146.297C174.671 144.903 175.455 143.011 175.456 141.039V87.003C175.455 85.0306 174.671 83.1393 173.276 81.7445C171.881 80.3497 169.99 79.5656 168.018 79.5645H170.839C172.812 79.5656 174.703 80.3497 176.098 81.7445C177.492 83.1393 178.276 85.0306 178.278 87.003Z" stroke="#FFCC00" stroke-width="0.9" stroke-linecap="round" stroke-linejoin="round"/>
<path d="M237.276 83.4997C240.426 81.1777 242.676 86.5439 236.806 89.2282C235.989 89.6017 233.471 97.821 235.993 102.278C231.966 103.603 227.101 104.393 223.639 101.936C225.468 99.9711 226.555 97.4299 226.714 94.7497C215.599 94.9207 226.201 78.12 226.415 78.12C231.849 70.5217 235.512 78.516 235.228 83.277C235.145 84.6832 236.131 84.339 237.276 83.4997Z" stroke="#FFCC00" stroke-width="0.9" stroke-linecap="round" stroke-linejoin="round"/>
<path d="M263.879 208.487C266.718 206.359 268.986 203.56 270.478 200.34C271.972 197.12 272.64 193.579 272.429 190.037C272.274 188.008 271.977 185.996 271.545 184.021" stroke="#FFCC00" stroke-width="0.9" stroke-linecap="round" stroke-linejoin="round"/>
<path d="M266.129 170.575C267.29 172.467 268.3 174.44 269.155 176.476" stroke="#FFCC00" stroke-width="0.9" stroke-linecap="round" stroke-linejoin="round"/>
<path d="M316.06 174.427C316.06 174.972 315.844 175.494 315.46 175.878C315.075 176.263 314.553 176.479 314.008 176.479H298.618C298.074 176.479 297.552 176.263 297.167 175.878C296.782 175.494 296.566 174.972 296.566 174.427V151.675C296.566 151.131 296.782 150.609 297.167 150.224C297.552 149.839 298.074 149.623 298.618 149.623H313.999C314.269 149.623 314.535 149.676 314.785 149.779C315.034 149.882 315.259 150.033 315.451 150.224C315.642 150.415 315.793 150.641 315.896 150.89C315.997 151.14 316.051 151.405 316.051 151.675L316.06 174.427Z" stroke="#FFCC00" stroke-width="0.9" stroke-linecap="round" stroke-linejoin="round"/>
<path d="M361.205 171.135C361.374 171.14 361.533 171.203 361.655 171.311C361.774 171.419 361.842 171.565 361.846 171.72V175.89C361.842 176.045 361.774 176.191 361.655 176.299C361.533 176.407 361.374 176.47 361.205 176.475H322.516C322.348 176.47 322.188 176.407 322.066 176.299C321.947 176.191 321.88 176.045 321.875 175.89V171.72C321.88 171.565 321.947 171.419 322.066 171.311C322.188 171.203 322.348 171.14 322.516 171.135H361.205Z" stroke="#FFCC00" stroke-width="0.9" stroke-linecap="round" stroke-linejoin="round"/>
<path d="M227.953 221.024V211.491" stroke="#FFCC00" stroke-width="0.9" stroke-linecap="round" stroke-linejoin="round"/>
<path d="M311.751 41.4248L290.931 47.1106C290.56 47.2109 290.22 47.4073 289.948 47.68C289.676 47.953 289.48 48.2927 289.379 48.6653C289.28 49.0377 289.28 49.4299 289.379 49.8022C289.48 50.1746 289.676 50.5144 289.948 50.7871L308.673 69.3406C308.945 69.613 309.285 69.809 309.658 69.9089C310.029 70.0088 310.423 70.0088 310.794 69.9091C311.168 69.8097 311.508 69.6137 311.78 69.3415C312.052 69.069 312.248 68.7297 312.349 68.3573L317.907 47.1533L311.751 41.4248Z" stroke="#FFCC00" stroke-width="0.9" stroke-linejoin="round"/>
</svg>
