<svg width="430" height="422" viewBox="0 0 430 422" fill="none" xmlns="http://www.w3.org/2000/svg">
<path d="M175.534 113.598C174.981 111.123 174.297 108.178 173.401 104.719C172.121 105.58 170.766 106.323 169.351 106.938C170.463 112.403 168.597 112.905 167.304 111.08C164.896 107.687 161.114 111.037 165.639 116.158C163.803 118.507 158.551 124.954 158.166 125.424C157.691 125.668 157.163 125.79 156.628 125.78C156.094 125.769 155.571 125.626 155.105 125.364C154.64 125.101 154.247 124.728 153.962 124.276C153.676 123.824 153.508 123.309 153.471 122.776C153.046 123.368 152.432 123.797 151.73 123.991C151.028 124.186 150.281 124.134 149.613 123.845C148.944 123.555 148.395 123.046 148.056 122.401C147.718 121.757 147.61 121.015 147.751 120.301C147.14 120.643 146.433 120.774 145.74 120.674C145.047 120.575 144.406 120.25 143.915 119.75C143.425 119.25 143.113 118.603 143.027 117.908C142.941 117.213 143.086 116.508 143.44 115.904C142.739 116.018 142.019 115.894 141.397 115.552C140.774 115.21 140.284 114.669 140.004 114.016C139.724 113.363 139.67 112.635 139.852 111.948C140.033 111.261 140.439 110.655 141.006 110.225C140.259 110.122 139.573 109.758 139.07 109.196C138.567 108.635 138.28 107.913 138.259 107.16C138.239 106.407 138.486 105.67 138.958 105.082C139.429 104.495 140.095 104.093 140.835 103.95C140.138 103.659 139.567 103.132 139.222 102.461C138.877 101.79 138.781 101.018 138.949 100.283C139.118 99.5475 139.541 98.8953 140.143 98.4414C140.746 97.9878 141.49 97.7615 142.243 97.8029C141.776 97.2705 141.499 96.5973 141.458 95.8902C141.416 95.1828 141.612 94.4819 142.014 93.8987C142.416 93.3153 143.001 92.8828 143.677 92.6697C144.353 92.4567 145.08 92.4751 145.744 92.7224C145.525 92.0589 145.529 91.342 145.755 90.6807C145.981 90.0197 146.417 89.4504 146.996 89.0601C147.576 88.6697 148.267 88.4796 148.964 88.5183C149.662 88.5572 150.328 88.8231 150.861 89.2754C150.86 88.5453 151.11 87.8367 151.568 87.2682C152.026 86.6998 152.665 86.3052 153.379 86.1506C154.092 85.996 154.837 86.0903 155.49 86.4181C156.142 86.7459 156.663 87.2875 156.965 87.9524C157.183 87.2112 157.653 86.5695 158.294 86.1378C158.934 85.706 159.706 85.5114 160.475 85.5874C161.244 85.6635 161.962 86.0052 162.506 86.554C163.049 87.1028 163.385 87.8241 163.454 88.5936C163.882 88.0014 164.501 87.5742 165.207 87.3827C165.912 87.1914 166.662 87.2477 167.331 87.5422C168 87.8365 168.548 88.3513 168.884 89.0009C169.22 89.6505 169.322 90.3952 169.176 91.1114C169.79 90.7721 170.5 90.645 171.194 90.7498C171.888 90.8547 172.529 91.1856 173.016 91.6914C173.503 92.1972 173.809 92.8495 173.888 93.5472C173.966 94.245 173.813 94.9492 173.451 95.5506C174.158 95.4363 174.883 95.5635 175.509 95.9115C176.135 96.2596 176.625 96.8084 176.901 97.4694C177.177 98.1303 177.223 98.8649 177.03 99.555C176.838 100.245 176.418 100.85 175.84 101.272C176.588 101.378 177.273 101.746 177.774 102.311C178.275 102.876 178.559 103.601 178.574 104.355C178.59 105.11 178.336 105.846 177.858 106.431C177.381 107.016 176.711 107.412 175.968 107.548C176.581 107.811 177.096 108.259 177.443 108.829C177.79 109.398 177.95 110.062 177.903 110.727C177.855 111.392 177.601 112.026 177.177 112.541C176.752 113.055 176.178 113.425 175.534 113.598Z" stroke="#FFCC00" stroke-width="0.9" stroke-linecap="round" stroke-linejoin="round"/>
<path d="M176.047 96.0949L187.488 95.1566C188.854 95.0374 190.23 95.1892 191.537 95.6039C192.844 96.0184 194.056 96.6873 195.103 97.572C196.151 98.4569 197.013 99.5401 197.64 100.759C198.268 101.978 198.647 103.31 198.758 104.676L201.875 142.114" stroke="#FFCC00" stroke-width="0.9" stroke-linecap="round" stroke-linejoin="round"/>
<path d="M193.252 185.06L195.002 184.932C196.531 184.915 198.024 184.471 199.313 183.651" stroke="#FFCC00" stroke-width="0.9" stroke-linecap="round" stroke-linejoin="round"/>
<path d="M114.019 191.711L91.0531 193.675C88.2971 193.906 85.5625 193.033 83.4495 191.248C81.3367 189.463 80.0189 186.913 79.7851 184.158L73.9351 115.17C73.7034 112.413 74.5762 109.677 76.3613 107.564C78.1465 105.45 80.6982 104.132 83.4549 103.9L139.609 99.1689" stroke="#FFCC00" stroke-width="0.9" stroke-linecap="round" stroke-linejoin="round"/>
<path d="M187.959 325.381L324.734 313.854C328.469 313.535 331.925 311.746 334.342 308.88C336.761 306.013 337.942 302.305 337.627 298.57L329.687 205.294C329.367 201.559 327.578 198.104 324.712 195.687C321.848 193.27 318.14 192.088 314.405 192.402L241.325 198.551" stroke="#FFCC00" stroke-width="0.9" stroke-linecap="round" stroke-linejoin="round"/>
<path d="M192.014 202.734L214.725 200.812" stroke="#FFCC00" stroke-width="0.9" stroke-linecap="round" stroke-linejoin="round"/>
<path d="M265.697 49L223.518 52.6293C219.655 53.0604 216.12 55.005 213.687 58.0371C211.255 61.0694 210.123 64.9419 210.54 68.8068L218.993 166.097" stroke="#FFCC00" stroke-width="0.9" stroke-linecap="round" stroke-linejoin="round"/>
<path d="M249.475 180.364L377.414 169.307C380.254 169.051 382.951 167.944 385.152 166.131C387.352 164.319 388.954 161.885 389.751 159.146" stroke="#FFCC00" stroke-width="0.9" stroke-linecap="round" stroke-linejoin="round"/>
<path d="M385.653 98.1874L381.852 54.0041C381.598 50.1224 379.816 46.4999 376.896 43.9309C373.973 41.3618 370.152 40.0557 366.271 40.2994L314.746 44.7409" stroke="#FFCC00" stroke-width="0.9" stroke-linecap="round" stroke-linejoin="round"/>
<path d="M338.821 111.037C334.424 117.951 325.161 138.145 319.781 151.249C330.109 155.286 338.812 162.626 344.531 172.125" stroke="#FFCC00" stroke-width="0.9" stroke-linecap="round" stroke-linejoin="round"/>
<path d="M270.051 133.15C271.612 141.19 273.651 149.13 276.155 156.928C273.806 165.764 272.868 173.619 271.759 178.443" stroke="#FFCC00" stroke-width="0.9" stroke-linecap="round" stroke-linejoin="round"/>
<path d="M274.147 100.28C270.922 105.25 269.041 110.971 268.684 116.885" stroke="#FFCC00" stroke-width="0.9" stroke-linecap="round" stroke-linejoin="round"/>
<path d="M319.739 151.292C307.702 159.959 284.947 164.567 276.154 156.928" stroke="#FFCC00" stroke-width="0.9" stroke-linecap="round" stroke-linejoin="round"/>
<path d="M314.275 154.579C320.697 159.601 325.843 166.065 329.299 173.448" stroke="#FFCC00" stroke-width="0.9" stroke-linecap="round" stroke-linejoin="round"/>
<path d="M283.74 69.4504C285 66.7727 285.745 63.8824 285.936 60.9297C284.613 62.3809 283.371 63.6094 282.217 64.6759" stroke="#FFCC00" stroke-width="0.9" stroke-linecap="round" stroke-linejoin="round"/>
<path d="M332.718 122.478L348.002 148.304C359.826 169.735 384.452 176.476 399.912 144.463C407.209 129.35 410.669 119.191 417.073 108.688C406.601 105.703 397.066 100.09 389.375 92.3823C382.268 103.08 375.947 114.279 370.462 125.892C339.513 60.1083 335.713 71.7071 315.094 70.5663C308.803 70.3928 302.744 68.1579 297.848 64.2056" stroke="#FFCC00" stroke-width="0.9" stroke-linecap="round" stroke-linejoin="round"/>
<path d="M252.762 122.989C258.866 102.242 272.541 92.6525 278.544 86.1072C281.368 83.3982 283.251 79.8543 283.911 75.9966C284.572 72.1388 283.978 68.1709 282.216 64.676C271.459 74.153 265.526 66.5975 265.526 41.501" stroke="#FFCC00" stroke-width="0.9" stroke-linecap="round" stroke-linejoin="round"/>
<path d="M317.692 70.6519C309.135 77.5283 301.413 85.3817 294.681 94.0519C293.626 95.3652 292.249 96.3826 290.683 97.0043C289.117 97.626 287.416 97.831 285.747 97.599C284.079 97.367 282.498 96.7062 281.161 95.6811C279.825 94.656 278.776 93.3015 278.119 91.7501C277.57 90.4676 277.093 89.2751 276.668 88.1209" stroke="#FFCC00" stroke-width="0.9" stroke-linecap="round" stroke-linejoin="round"/>
<path d="M370.455 125.892L365.377 137.333" stroke="#FFCC00" stroke-width="0.9" stroke-linecap="round" stroke-linejoin="round"/>
<path d="M158.161 125.424C152.194 133.074 147.97 132.572 136.732 137.59C113.849 147.793 121.704 188.689 121.704 188.689" stroke="#FFCC00" stroke-width="0.9" stroke-linecap="round" stroke-linejoin="round"/>
<path d="M175.535 113.598C177.4 122.244 177.232 125.554 176.005 127.343C175.105 128.668 171.481 129.093 168.193 129.093" stroke="#FFCC00" stroke-width="0.9" stroke-linecap="round" stroke-linejoin="round"/>
<path d="M176.396 126.625C175.201 129.1 170.67 126.625 166.143 123.338C166.998 127.266 167.594 131.973 170.796 132.174C199.177 133.953 202.174 137.169 226.805 179.424" stroke="#FFCC00" stroke-width="0.9" stroke-linecap="round" stroke-linejoin="round"/>
<path d="M223.774 174.174C224.841 171.186 231.458 157.567 235.301 145.273C243.716 144.367 252.174 146.569 259.079 151.463C256.431 164.013 248.749 183.055 242.13 197.05C241.005 199.416 239.333 201.479 237.252 203.071C235.171 204.662 232.743 205.736 230.164 206.203C227.588 206.67 224.935 206.517 222.429 205.757C219.922 204.997 217.632 203.651 215.749 201.831C204.696 190.964 194.876 178.912 186.465 165.892" stroke="#FFCC00" stroke-width="0.9" stroke-linecap="round" stroke-linejoin="round"/>
<path d="M186.508 165.892L192.826 185.658" stroke="#FFCC00" stroke-width="0.9" stroke-linecap="round" stroke-linejoin="round"/>
<path d="M139.85 201.795C152.528 205.845 174.214 204.313 191.163 199.703C193.724 194.665 192.657 174.773 192.657 174.773" stroke="#FFCC00" stroke-width="0.9" stroke-linecap="round" stroke-linejoin="round"/>
<path d="M139.718 200.812C134.255 208.667 123.518 208.957 118.586 200.769C112.372 190.419 109.708 175.668 108.385 159.275C108.385 159.275 118.06 156.179 122.11 157.392" stroke="#FFCC00" stroke-width="0.9" stroke-linecap="round" stroke-linejoin="round"/>
<path d="M153.8 256.9L108.721 296.815C105.739 299.439 101.908 300.892 97.9368 300.908C93.9655 300.922 90.1232 299.497 87.1212 296.899L42.7715 258.529" stroke="#FFCC00" stroke-width="0.9" stroke-linecap="round" stroke-linejoin="round"/>
<path d="M102.367 264.633L68.8125 233" stroke="#FFCC00" stroke-width="0.9" stroke-linecap="round" stroke-linejoin="round"/>
<path d="M132.844 158.978C132.844 158.978 140.269 188.903 139.804 202.563C130.771 207.697 123.792 215.797 120.049 225.488C114.597 240.219 95.7148 258.145 95.7148 258.145" stroke="#FFCC00" stroke-width="0.9" stroke-linecap="round" stroke-linejoin="round"/>
<path d="M191.16 199.703C199.526 228.177 200.359 247.178 200.935 274.75C201.394 282.566 200.325 290.396 197.784 297.803L178.234 352.786C166.277 351.531 154.783 347.481 144.68 340.963L164.232 284.953C164.609 275.386 161.4 266.024 155.232 258.7C149.127 251.264 145.303 242.219 144.219 232.659" stroke="#FFCC00" stroke-width="0.9" stroke-linecap="round" stroke-linejoin="round"/>
<path d="M148.344 133.022C148.344 133.022 155.173 140.534 171.395 132.209" stroke="#FFCC00" stroke-width="0.9" stroke-linecap="round" stroke-linejoin="round"/>
<path d="M111.759 158.294C111.626 151.781 110.897 145.293 109.581 138.913C108.322 134.002 106.518 129.247 104.201 124.738C100.804 118.114 101.906 116.32 107.363 122.348C112.751 129.112 117.188 136.58 120.552 144.547" stroke="#FFCC00" stroke-width="0.9" stroke-linecap="round" stroke-linejoin="round"/>
<path d="M118.656 140.328C121.368 143.401 122.99 134.028 124.009 131.953C125.418 129.093 127.159 125.979 127.04 134.772C127.006 137.205 127.296 141.09 127.681 144.931" stroke="#FFCC00" stroke-width="0.9" stroke-linecap="round" stroke-linejoin="round"/>
<path d="M107.019 131.015C105.781 129.649 102.969 126.92 102.152 126.148C98.4217 122.579 97.6792 123.837 98.1022 124.573C99.7222 127.412 102.76 131.786 104.177 134.473C106.445 138.824 111.049 147.109 111.305 151.377" stroke="#FFCC00" stroke-width="0.9" stroke-linecap="round" stroke-linejoin="round"/>
<path d="M104.033 134.217C103.306 133.706 102.705 133.285 102.368 133.065C98.0432 130.246 97.5864 131.528 98.0927 132.165C100.142 134.725 103.864 138.519 105.693 140.958C107.841 143.963 109.699 147.164 111.242 150.52" stroke="#FFCC00" stroke-width="0.9" stroke-linecap="round" stroke-linejoin="round"/>
<path d="M257.074 150.054C259.364 143.226 262.249 136.613 265.698 130.29C268.616 125.518 272.068 121.093 275.985 117.098C281.736 111.248 281.16 108.944 273.425 113.512C265.534 118.901 258.41 125.334 252.25 132.637" stroke="#FFCC00" stroke-width="0.9" stroke-linecap="round" stroke-linejoin="round"/>
<path d="M255.839 128.587C251.532 131.798 253.121 120.832 252.718 118.251C252.176 114.79 251.395 110.909 248.619 120.258C247.851 122.816 244.733 130.745 238.854 145.057" stroke="#FFCC00" stroke-width="0.9" stroke-linecap="round" stroke-linejoin="round"/>
<path d="M270.947 122.776C272.697 121.709 276.54 119.788 277.649 119.234C282.773 116.671 283.108 118.289 282.473 118.892C279.848 121.387 275.219 125.001 272.868 127.386C269.075 131.236 261.512 138.485 259.805 142.927" stroke="#FFCC00" stroke-width="0.9" stroke-linecap="round" stroke-linejoin="round"/>
<path d="M273.082 127.174C274.02 126.875 274.789 126.621 275.217 126.499C280.689 124.823 280.763 126.452 279.998 126.97C276.997 128.995 271.849 131.8 269.11 133.798C265.87 136.274 262.871 139.047 260.146 142.081" stroke="#FFCC00" stroke-width="0.9" stroke-linecap="round" stroke-linejoin="round"/>
<path d="M53.1457 218.315C45.5475 207.4 -1.02986 245.054 1.33714 257.519C1.70389 259.45 3.37339 261.178 7.26814 260.649C22.2375 258.622 58.7595 226.393 53.1457 218.315Z" stroke="#FFCC00" stroke-width="0.9" stroke-linecap="round" stroke-linejoin="round"/>
<path d="M53.1465 218.315C55.4932 221.303 63.5617 230.951 69.3262 238.115" stroke="#FFCC00" stroke-width="0.9" stroke-linecap="round" stroke-linejoin="round"/>
<path d="M173.531 352.19C171.731 358.976 161.628 373.871 169.388 392.958C173.364 402.732 175.664 416.985 170.288 420.572" stroke="#FFCC00" stroke-width="0.9" stroke-linecap="round" stroke-linejoin="round"/>
<path d="M138.182 366.534C139.46 363.654 144.106 353.146 148.257 343.359" stroke="#FFCC00" stroke-width="0.9" stroke-linecap="round" stroke-linejoin="round"/>
<path d="M139.547 365.251C130.003 369.789 155.482 416.45 167.168 420.707C170.397 421.883 171.941 419.582 171.812 416.155C171.281 401.899 146.925 361.75 139.547 365.251Z" stroke="#FFCC00" stroke-width="0.9" stroke-linecap="round" stroke-linejoin="round"/>
<path d="M64.544 232.231C65.1292 231.966 65.7734 231.856 66.4139 231.912C67.0545 231.968 67.6692 232.191 68.1982 232.558C68.7272 232.922 69.1522 233.419 69.4316 233.998C69.7113 234.578 69.8357 235.219 69.7932 235.861C69.0867 244.861 52.367 260.278 44.8497 259.369C42.5997 259.094 41.1732 257.503 41.9247 254.475" stroke="#FFCC00" stroke-width="0.9" stroke-linecap="round" stroke-linejoin="round"/>
<path d="M175.572 336.892L188.674 295.454C190.948 288.978 191.905 282.114 191.491 275.262C189.675 245.596 187.479 222.669 182.142 201.795" stroke="#FFCC00" stroke-width="0.9" stroke-linecap="round" stroke-linejoin="round"/>
<path d="M150.006 325.678C159.697 333.051 171.434 337.243 183.603 337.675" stroke="#FFCC00" stroke-width="0.9" stroke-linecap="round" stroke-linejoin="round"/>
<path d="M55.4062 269.457C68.3415 265.315 75.6 255.957 79.9537 243.758" stroke="#FFCC00" stroke-width="0.9" stroke-linecap="round" stroke-linejoin="round"/>
<path d="M147.232 245.081L110.904 277.27C107.916 279.931 104.058 281.41 100.056 281.425C96.054 281.441 92.1843 279.994 89.1756 277.355L70.0078 260.534" stroke="#FFCC00" stroke-width="0.9" stroke-linecap="round" stroke-linejoin="round"/>
<path d="M153.379 213.149C152.825 213.234 152.013 223.994 153.464 228.348C156.24 232.184 159.789 235.399 163.882 237.782C166.223 233.883 169.033 230.283 172.249 227.067C171.822 221.645 171.309 218.785 170.713 213.063C164.966 213.885 159.133 213.914 153.379 213.149Z" stroke="#FFCC00" stroke-width="0.9" stroke-linecap="round" stroke-linejoin="round"/>
<path d="M129.176 210.973C131.367 211.005 133.519 211.56 135.451 212.595C131.522 214.515 127.553 224.295 127.553 224.295L118.801 228.48" stroke="#FFCC00" stroke-width="0.9" stroke-linecap="round" stroke-linejoin="round"/>
<path d="M406.91 71.5C413.66 73.633 417.413 77.0912 421.76 82.642" stroke="#FFCC00" stroke-width="0.9" stroke-linecap="round" stroke-linejoin="round"/>
<path d="M405.248 74.666C407.604 77.0569 409.435 79.9123 410.626 83.0502C411.816 86.188 412.338 89.5394 412.162 92.891" stroke="#FFCC00" stroke-width="0.9" stroke-linecap="round" stroke-linejoin="round"/>
<path d="M418.224 78.4211C420.843 74.9705 423.034 71.2148 424.749 67.2364C427.899 59.8519 429.829 61.9016 428.079 68.9014C427.609 70.7801 427.141 72.4024 426.713 73.7681C425.48 77.6966 424.265 81.6634 423.127 85.6369C421.918 89.8579 413.902 107.707 413.902 107.707C406.389 105.7 398.577 100.237 392.473 95.1994C392.601 94.9429 395.848 88.9691 395.971 88.7531C396.633 87.5591 396.914 86.1917 396.777 84.8339C396.64 83.4762 396.091 82.1926 395.204 81.1549C392.117 77.4514 387.984 71.9299 389.354 70.4381C391.48 68.1274 398.19 75.9416 401.776 76.4164C403.057 76.5851 404.083 72.7016 404.294 71.2931C404.681 68.7326 406.029 60.0206 406.13 59.1701C407.059 51.2546 409.888 52.5956 409.845 59.5954C409.802 66.2554 409.802 70.5664 409.802 70.5664" stroke="#FFCC00" stroke-width="0.9" stroke-linecap="round" stroke-linejoin="round"/>
<path d="M409.26 72.2741C409.26 72.2741 413.915 57.6761 414.21 56.6929C416.525 49.0541 418.953 50.8024 417.796 57.6739C416.689 64.2506 415.49 72.2741 415.49 72.2741" stroke="#FFCC00" stroke-width="0.9" stroke-linecap="round" stroke-linejoin="round"/>
<path d="M414.35 74.6233C416.577 70.1587 418.544 65.5684 420.24 60.8758C423.008 53.3608 425.042 55.2801 423.741 62.1156C423.028 66.3651 422.015 70.5592 420.71 74.6661" stroke="#FFCC00" stroke-width="0.9" stroke-linecap="round" stroke-linejoin="round"/>
<path d="M367.851 205.679C367.968 206.698 367.88 207.73 367.595 208.716C367.309 209.701 366.832 210.621 366.191 211.421C365.547 212.222 364.753 212.885 363.853 213.376C362.953 213.869 361.963 214.177 360.944 214.283C359.922 214.391 358.892 214.294 357.908 214.001C356.925 213.707 356.009 213.223 355.215 212.573C354.421 211.922 353.764 211.124 353.28 210.219C352.796 209.314 352.497 208.322 352.398 207.301L351.161 195.601C350.965 193.562 351.581 191.527 352.877 189.94C354.176 188.354 356.045 187.344 358.084 187.13C360.12 186.916 362.161 187.516 363.758 188.798C365.356 190.081 366.382 191.943 366.614 193.979L367.851 205.679Z" stroke="#FFCC00" stroke-width="0.9" stroke-linecap="round" stroke-linejoin="round"/>
<path d="M346.08 202.606L346.676 208.368C346.861 210.139 347.394 211.858 348.242 213.424C349.091 214.99 350.24 216.373 351.624 217.494C353.006 218.617 354.599 219.454 356.304 219.962C358.012 220.468 359.803 220.635 361.574 220.45C363.347 220.264 365.063 219.733 366.629 218.884C368.195 218.034 369.579 216.886 370.702 215.503C371.822 214.119 372.662 212.528 373.168 210.82C373.674 209.113 373.841 207.322 373.656 205.551L373.06 199.789" stroke="#FFCC00" stroke-width="0.9" stroke-linecap="round" stroke-linejoin="round"/>
<path d="M361.576 220.45L362.728 231.207" stroke="#FFCC00" stroke-width="0.9" stroke-linecap="round" stroke-linejoin="round"/>
<path d="M356.965 231.806L368.449 230.609" stroke="#FFCC00" stroke-width="0.9" stroke-linecap="round" stroke-linejoin="round"/>
<path d="M267.617 264.676L281.407 271.122L278.93 241.836L266.422 250.544" stroke="#FFCC00" stroke-width="0.9" stroke-linecap="round" stroke-linejoin="round"/>
<path d="M254.554 241.283C257.337 241.04 260.107 241.859 262.31 243.578C264.512 245.297 265.982 247.786 266.42 250.544L267.572 263.819C267.701 265.268 267.541 266.728 267.104 268.117C266.668 269.505 265.961 270.794 265.025 271.908C264.089 273.022 262.944 273.942 261.653 274.612C260.361 275.283 258.948 275.692 257.499 275.816L230.861 278.035C229.41 278.167 227.948 278.012 226.557 277.578C225.169 277.141 223.877 276.435 222.764 275.499C221.648 274.563 220.727 273.413 220.059 272.119C219.391 270.826 218.984 269.413 218.864 267.961L217.798 255.586C217.665 254.135 217.82 252.673 218.255 251.284C218.691 249.894 219.395 248.602 220.334 247.489C221.27 246.373 222.417 245.452 223.711 244.784C225.007 244.116 226.42 243.709 227.871 243.589L254.554 241.283Z" stroke="#FFCC00" stroke-width="0.9" stroke-linecap="round" stroke-linejoin="round"/>
<path d="M328.149 20.1506C327.884 16.8489 326.453 13.7496 324.11 11.4071C321.768 9.06439 318.67 7.63152 315.367 7.36469C312.066 7.09787 308.777 8.01451 306.09 9.95066C303.401 11.8868 301.491 14.7159 300.699 17.9321C304.205 19.5492 307.283 21.9616 309.692 24.978C312.102 27.9941 313.774 31.5309 314.575 35.3066C316.481 35.2625 318.357 34.828 320.09 34.0299C321.822 33.2321 323.37 32.0875 324.644 30.6673C325.915 29.2471 326.882 27.581 327.485 25.7722C328.088 23.9634 328.313 22.05 328.149 20.1506Z" stroke="#FFCC00" stroke-width="0.9" stroke-linecap="round" stroke-linejoin="round"/>
<path d="M314.959 38.3804C314.422 31.9132 311.371 25.9147 306.459 21.6725C301.549 17.4304 295.171 15.2827 288.693 15.6907C282.217 16.0986 276.158 19.0294 271.818 23.8543C267.48 28.6792 265.203 35.0132 265.482 41.4966C270.623 40.103 275.908 39.3004 281.232 39.1048C281.52 40.8535 281.918 42.582 282.427 44.2799C282.897 45.3464 283.621 45.4319 284.902 43.4676C287.764 39.3276 293.569 45.7311 286.78 50.6833C289.71 55.7539 293.431 60.323 297.805 64.2171C303.167 62.488 307.784 58.991 310.9 54.2978C314.014 49.6045 315.448 43.9928 314.959 38.3804Z" stroke="#FFCC00" stroke-width="0.9" stroke-linecap="round" stroke-linejoin="round"/>
<path d="M29.1113 182.457L38.0326 181.559" stroke="#FFCC00" stroke-width="0.9" stroke-linecap="round" stroke-linejoin="round"/>
<path d="M53.8281 179.937L62.7516 179.041" stroke="#FFCC00" stroke-width="0.9" stroke-linecap="round" stroke-linejoin="round"/>
<path d="M44.2227 163.928L45.1204 172.851" stroke="#FFCC00" stroke-width="0.9" stroke-linecap="round" stroke-linejoin="round"/>
<path d="M46.7422 188.646L47.6377 197.568" stroke="#FFCC00" stroke-width="0.9" stroke-linecap="round" stroke-linejoin="round"/>
<path d="M32.8262 170.077L39.7832 175.711" stroke="#FFCC00" stroke-width="0.9" stroke-linecap="round" stroke-linejoin="round"/>
<path d="M52.0762 185.744L59.0354 191.421" stroke="#FFCC00" stroke-width="0.9" stroke-linecap="round" stroke-linejoin="round"/>
<path d="M56.603 167.643L50.9668 174.602" stroke="#FFCC00" stroke-width="0.9" stroke-linecap="round" stroke-linejoin="round"/>
<path d="M40.9346 186.896L35.2578 193.855" stroke="#FFCC00" stroke-width="0.9" stroke-linecap="round" stroke-linejoin="round"/>
<path d="M235.814 80.2571L230.639 67.6211C233.802 62.9179 235.332 57.3046 234.992 51.6461C234.054 36.7961 220.264 25.2648 203.83 25.7351C187.052 26.2031 173.819 39.0101 174.287 54.3371C174.753 70.5168 189.889 82.0998 206.424 81.1256C212.347 80.7521 218.059 78.782 222.953 75.4241L235.814 80.2571Z" stroke="#FFCC00" stroke-width="0.9" stroke-linecap="round" stroke-linejoin="round"/>
<path d="M137.458 73.8108C136.669 74.5668 135.673 75.0719 134.597 75.2621C133.521 75.4522 132.412 75.319 131.411 74.8791C130.411 74.4392 129.563 73.7125 128.976 72.7907C128.388 71.8691 128.087 70.7938 128.111 69.701C128.134 68.6084 128.481 67.547 129.108 66.6518C129.735 65.7563 130.613 65.0666 131.632 64.6704C132.65 64.2742 133.764 64.1889 134.831 64.4252C135.898 64.6616 136.871 65.2093 137.627 65.9988C138.637 67.0588 139.186 68.4758 139.155 69.9397C139.123 71.4035 138.513 72.7954 137.458 73.8108Z" stroke="#FFCC00" stroke-width="0.9" stroke-linecap="round" stroke-linejoin="round"/>
<path d="M365.758 0.98291L367.679 24.2929" stroke="#FFCC00" stroke-width="0.9" stroke-linecap="round" stroke-linejoin="round"/>
<path d="M378.394 11.6548L355.086 13.619" stroke="#FFCC00" stroke-width="0.9" stroke-linecap="round" stroke-linejoin="round"/>
<path d="M48.0233 258.997C46.3986 257.006 44.3018 255.451 41.9236 254.474C37.7836 252.978 33.7223 254.301 28.8983 255.669C19.1783 258.369 8.75852 264.233 3.29102 260.185" stroke="#FFCC00" stroke-width="0.9" stroke-linecap="round" stroke-linejoin="round"/>
<path d="M147.703 262.413L147.232 245.081" stroke="#FFCC00" stroke-width="0.9" stroke-linecap="round" stroke-linejoin="round"/>
</svg>
