<svg width="450" height="450" viewBox="0 0 450 450" fill="none" xmlns="http://www.w3.org/2000/svg">
<path d="M186.91 168.313C180.369 173.785 160.106 177.633 141.082 225.641L113.081 200.461C100.156 207.02 90.1415 218.163 84.9941 231.712L127.103 269.55C131.981 273.917 138.392 276.172 144.929 275.818C151.467 275.467 157.598 272.536 161.978 267.669L179.427 248.245L172.494 294.217L144.108 325.852C151.231 338.357 162.209 348.223 175.401 353.977L205.455 320.546C209.904 315.598 213.048 309.618 214.603 303.147C221.144 275.697 218.921 227.266 223.153 185.542C206.19 182.378 199.906 178.531 186.91 168.313Z" fill="#2E2E2E"/>
<path d="M418.581 170.238L369.846 221.666L389.169 136.593L437.904 85.165L418.581 170.238Z" fill="#182222"/>
<path d="M264.073 151.385C263.432 150.957 262.321 151.342 260.867 152.368L264.242 155.147C264.8 153.18 264.8 151.812 264.073 151.385Z" fill="#182222"/>
<path d="M233.893 177.676C232.993 179.985 233.112 181.924 233.807 182.379C234.503 182.833 236.507 182.379 237.857 180.626L233.893 177.676Z" fill="#182222"/>
<path d="M253.351 153.266C252.71 152.838 251.598 153.223 250.145 154.249L253.52 157.028C254.071 155.104 254.026 153.736 253.351 153.266Z" fill="#182222"/>
<path d="M153.352 315.331L143.902 325.848C151.025 338.353 162.002 348.219 175.195 353.973L185.071 342.986C172.085 336.967 161.083 327.375 153.352 315.331Z" fill="#182222"/>
<path d="M207.73 160.277L223.548 184.858L227.737 177.249L207.73 160.277Z" fill="#182222"/>
<path d="M223.932 98.2896L226.112 102.992L227.309 99.7858L223.932 98.2896Z" fill="#182222"/>
<path d="M212.604 211.32L179.387 248.256L176.01 270.914L212.604 211.32Z" fill="#182222"/>
<path d="M131.891 353.379C129.112 356.371 126.248 359.364 123.298 362.442C120.947 376.336 122.059 408.227 126.547 423.061C138.472 403.225 142.792 390.661 148.822 370.222C142.326 365.536 136.612 359.85 131.891 353.379Z" fill="#182222"/>
<path d="M84.8256 189.432C82.7736 187.38 80.4224 184.858 77.3016 181.481C53.1006 184.901 26.4696 192.981 15.1836 198.324C32.3975 204.834 50.8367 207.461 69.1836 206.019L70.1241 206.874C74.1593 200.383 79.1109 194.508 84.8256 189.432Z" fill="#182222"/>
<path d="M122.316 208.542L113.091 200.217C100.175 206.788 90.1647 217.927 85.0039 231.467L94.3662 239.889C100.843 227.217 110.467 216.424 122.316 208.542Z" fill="#182222"/>
<path d="M242.743 70.4591C242.925 69.4235 242.731 68.3567 242.198 67.45C241.667 66.5432 240.828 65.8554 239.836 65.5091C240.475 64.9185 240.927 64.154 241.138 63.3093C241.35 62.4649 241.309 61.5773 241.021 60.7553C240.736 59.9336 240.214 59.2134 239.525 58.6833C238.834 58.1532 238.004 57.8362 237.136 57.7714C237.489 57.0179 237.628 56.1809 237.534 55.3535C237.442 54.5262 237.12 53.741 236.607 53.0853C236.094 52.4297 235.41 51.9291 234.629 51.6395C233.848 51.3497 233.002 51.2822 232.186 51.4444C232.291 50.6148 232.161 49.7722 231.81 49.0128C231.459 48.2535 230.903 47.6077 230.203 47.1489C229.504 46.6902 228.689 46.437 227.854 46.4179C227.017 46.3988 226.194 46.6148 225.474 47.0411C225.321 46.1891 224.927 45.3989 224.337 44.7655C223.746 44.1321 222.986 43.6826 222.147 43.4704C221.307 43.2582 220.425 43.2929 219.604 43.5699C218.784 43.8468 218.061 44.3544 217.522 45.0319C217.115 44.2158 216.478 43.5361 215.69 43.0757C214.903 42.6154 213.998 42.3945 213.087 42.4397C212.175 42.4851 211.297 42.7947 210.559 43.3311C209.821 43.8673 209.255 44.6069 208.93 45.4594C208.413 44.9149 207.768 44.509 207.053 44.2793C206.339 44.0498 205.578 44.0034 204.84 44.1452C204.103 44.2869 203.414 44.6116 202.835 45.09C202.256 45.5681 201.808 46.1841 201.529 46.8814C201.603 45.8124 201.369 44.7448 200.857 43.8041C200.344 42.8631 199.573 42.0885 198.635 41.5707C197.697 41.0532 196.631 40.8143 195.561 40.882C194.492 40.9499 193.464 41.3219 192.599 41.9539C192.126 40.8606 191.329 39.9379 190.317 39.3092C189.305 38.6808 188.125 38.3764 186.935 38.4367C185.744 38.4972 184.601 38.9195 183.658 39.6474C182.714 40.3753 182.016 41.3738 181.655 42.5096C180.677 41.9179 179.54 41.64 178.399 41.7136C177.258 41.7872 176.167 42.2086 175.272 42.9209C174.378 43.6335 173.723 44.603 173.397 45.699C173.07 46.7948 173.087 47.9645 173.445 49.0504C172.3 49.18 171.224 49.6593 170.361 50.4231C169.498 51.1868 168.893 52.1977 168.625 53.3184C168.358 54.4389 168.443 55.6145 168.868 56.6853C169.294 57.7559 170.038 58.6694 171.001 59.3014C170.1 60.0318 169.447 61.0238 169.133 62.1409C168.819 63.258 168.859 64.4451 169.249 65.5382C169.638 66.6314 170.357 67.5767 171.307 68.2438C172.256 68.9109 173.389 69.2667 174.55 69.2622C174.317 70.3768 174.43 71.536 174.874 72.5845C175.317 73.6332 176.071 74.5213 177.033 75.1301C177.995 75.7392 179.12 76.0398 180.258 75.9919C181.395 75.944 182.491 75.55 183.399 74.8624C183.759 75.7847 184.363 76.5908 185.147 77.1945C185.932 77.798 186.866 78.1757 187.849 78.2869C187.669 78.9252 187.632 79.596 187.743 80.25C187.853 80.9043 188.108 81.5258 188.488 82.0694C188.868 82.6132 189.364 83.0657 189.94 83.3942C190.517 83.7225 191.159 83.9187 191.821 83.9682C191.463 84.7242 191.325 85.565 191.421 86.3957C191.518 87.2262 191.845 88.0132 192.365 88.6673C192.886 89.3216 193.58 89.8168 194.367 90.0969C195.155 90.3771 196.006 90.431 196.822 90.2524C196.724 91.0835 196.861 91.9257 197.218 92.6828C197.574 93.4402 198.136 94.0823 198.838 94.5364C199.541 94.9907 200.358 95.2384 201.194 95.2521C202.031 95.2656 202.855 95.0442 203.572 94.6129C203.725 95.4659 204.121 96.2563 204.714 96.8888C205.306 97.5213 206.069 97.9686 206.91 98.1765C207.751 98.3846 208.635 98.3443 209.454 98.061C210.272 97.7775 210.991 97.263 211.524 96.5794C212.063 97.3525 212.762 98.0005 213.573 98.48C214.385 98.9592 215.289 99.2589 216.226 99.3582C217.659 96.7711 218.628 93.9539 219.091 91.0331C219.566 88.0593 219.011 85.0121 217.516 82.3976C211.146 80.3029 214.01 72.8217 218.328 75.7287C220.38 77.1394 221.158 77.0494 221.32 75.6859C221.332 75.2919 221.451 74.9088 221.663 74.5767C221.876 74.2446 222.174 73.9763 222.526 73.8004C222.907 74.6023 223.515 75.2737 224.276 75.7304C225.035 76.1874 225.915 76.409 226.801 76.3681C227.688 76.3269 228.543 76.0247 229.256 75.4994C229.972 74.9742 230.516 74.2493 230.82 73.4157C231.234 73.8531 231.731 74.2029 232.282 74.4446C232.834 74.6865 233.428 74.8149 234.028 74.823C234.631 74.8309 235.228 74.7182 235.786 74.4909C236.344 74.2639 236.85 73.9275 237.275 73.5011C238.333 75.9928 239.136 78.5855 239.669 81.2389C240.31 80.8773 240.855 80.3637 241.251 79.7429C241.649 79.1221 241.888 78.4133 241.946 77.679C242.005 76.9443 241.883 76.2066 241.591 75.5304C241.298 74.8541 240.844 74.2601 240.268 73.8004C240.911 73.4739 241.469 73.0021 241.899 72.4221C242.329 71.8422 242.619 71.1702 242.743 70.4591Z" fill="#182222"/>
<path d="M336.108 58.2329C335.82 56.4997 335.026 54.8907 333.824 53.6094C332.62 52.328 331.066 51.4318 329.356 51.0342C327.643 50.6367 325.852 50.7552 324.21 51.3753C322.565 51.9954 321.143 53.0889 320.119 54.5179C319.098 55.9467 318.522 57.6465 318.465 59.4024C318.409 61.1583 318.875 62.8915 319.804 64.3828C320.733 65.8741 322.083 67.0565 323.683 67.7803C325.285 68.5044 327.065 68.7375 328.798 68.4501C331.12 68.0618 333.194 66.7683 334.564 64.8528C335.935 62.9374 336.49 60.5567 336.108 58.2329Z" fill="#182222"/>
<path d="M70.7158 257.535L50.666 263.988L58.9505 312.896L70.7158 257.535Z" fill="#182222"/>
<path d="M349.147 172.974L337.647 183.533C341.681 184.387 345.601 185.721 349.318 187.509C350.893 188.179 352.339 189.12 353.593 190.287C355.345 192.297 345.943 189.432 341.323 188.919H341.281C342.214 189.411 343.065 190.046 343.803 190.8C345.319 192.535 333.721 188.609 332.688 189.347C337.134 191.356 344.017 195.161 345.684 198.122C347.65 201.67 337.561 194.614 331.021 194.4C335.167 196.324 339.699 199.02 341.323 202.012C343.546 206.062 335.509 198.637 325.933 198.336H325.891C335.039 203.893 339.314 208.461 326.318 202.824C323.935 201.759 321.393 201.094 318.794 200.858L292.674 224.744L369.795 221.751L381.124 171.819L349.147 172.974Z" fill="#182222"/>
<path d="M418.581 170.238L369.846 221.666L389.169 136.593L437.904 85.165L418.581 170.238Z" stroke="#FFCC00" stroke-width="0.9" stroke-linejoin="round"/>
<path d="M349.147 172.974L337.647 183.533C341.681 184.387 345.601 185.721 349.318 187.509C350.893 188.179 352.339 189.12 353.593 190.287C355.345 192.297 345.943 189.432 341.323 188.919H341.281C342.214 189.411 343.065 190.046 343.803 190.8C345.319 192.535 333.721 188.609 332.688 189.347C337.134 191.356 344.017 195.161 345.684 198.122C347.65 201.67 337.561 194.614 331.021 194.4C335.167 196.324 339.699 199.02 341.323 202.012C343.546 206.062 335.509 198.637 325.933 198.336H325.891C335.039 203.893 339.314 208.461 326.318 202.824C323.935 201.759 321.393 201.094 318.794 200.858L292.674 224.744L369.795 221.751L381.124 171.819L349.147 172.974Z" stroke="#FFCC00" stroke-width="0.9" stroke-linejoin="round"/>
<path d="M242.741 70.4592C242.923 69.4235 242.73 68.3567 242.196 67.45C241.665 66.5432 240.826 65.8554 239.834 65.5091C240.473 64.9185 240.925 64.154 241.137 63.3093C241.348 62.4649 241.308 61.5773 241.02 60.7553C240.734 59.9336 240.212 59.2134 239.523 58.6833C238.833 58.1532 238.002 57.8362 237.134 57.7714C237.487 57.0179 237.627 56.1809 237.532 55.3536C237.44 54.5262 237.118 53.741 236.605 53.0853C236.092 52.4297 235.408 51.9291 234.627 51.6395C233.847 51.3497 233.001 51.2822 232.184 51.4444C232.29 50.6148 232.159 49.7722 231.808 49.0128C231.457 48.2535 230.901 47.6077 230.202 47.1489C229.502 46.6902 228.687 46.437 227.853 46.4179C227.016 46.3988 226.192 46.6148 225.472 47.0411C225.319 46.1891 224.925 45.3989 224.335 44.7655C223.744 44.1321 222.984 43.6826 222.145 43.4704C221.305 43.2582 220.423 43.2929 219.602 43.5699C218.782 43.8468 218.059 44.3544 217.521 45.0319C217.113 44.2158 216.476 43.5361 215.688 43.0757C214.901 42.6154 213.996 42.3945 213.085 42.4397C212.173 42.4851 211.295 42.7947 210.557 43.3311C209.819 43.8673 209.253 44.6069 208.928 45.4594C208.411 44.9149 207.766 44.509 207.051 44.2793C206.337 44.0498 205.576 44.0034 204.838 44.1452C204.101 44.2869 203.412 44.6116 202.833 45.09C202.255 45.5681 201.806 46.1841 201.528 46.8814C201.601 45.8124 201.368 44.7448 200.855 43.8041C200.342 42.8631 199.571 42.0885 198.633 41.5707C197.695 41.0532 196.629 40.8143 195.559 40.882C194.49 40.9499 193.462 41.3219 192.597 41.9539C192.124 40.8606 191.327 39.9379 190.315 39.3092C189.303 38.6808 188.123 38.3764 186.933 38.4367C185.742 38.4972 184.599 38.9195 183.656 39.6474C182.712 40.3753 182.014 41.3738 181.653 42.5096C180.675 41.9179 179.539 41.64 178.397 41.7136C177.256 41.7872 176.165 42.2086 175.27 42.9209C174.376 43.6335 173.721 44.603 173.395 45.699C173.068 46.7948 173.085 47.9645 173.443 49.0504C172.298 49.18 171.222 49.6593 170.359 50.4231C169.497 51.1868 168.891 52.1977 168.624 53.3184C168.356 54.4389 168.441 55.6145 168.866 56.6853C169.292 57.7559 170.037 58.6694 171 59.3014C170.098 60.0318 169.445 61.0238 169.131 62.1409C168.817 63.258 168.857 64.4451 169.247 65.5382C169.636 66.6314 170.355 67.5767 171.305 68.2438C172.254 68.9109 173.387 69.2667 174.548 69.2622C174.315 70.3768 174.428 71.536 174.872 72.5845C175.315 73.6332 176.069 74.5213 177.031 75.1301C177.993 75.7392 179.118 76.0398 180.256 75.9919C181.393 75.944 182.489 75.55 183.397 74.8624C183.757 75.7847 184.361 76.5908 185.146 77.1945C185.93 77.798 186.864 78.1757 187.848 78.2869C187.667 78.9252 187.63 79.596 187.741 80.25C187.851 80.9043 188.106 81.5258 188.486 82.0694C188.866 82.6132 189.362 83.0657 189.938 83.3942C190.515 83.7225 191.157 83.9187 191.819 83.9682C191.461 84.7242 191.323 85.565 191.419 86.3957C191.516 87.2262 191.843 88.0132 192.364 88.6673C192.884 89.3216 193.578 89.8168 194.365 90.0969C195.153 90.3771 196.004 90.431 196.821 90.2524C196.722 91.0835 196.859 91.9257 197.216 92.6829C197.572 93.4402 198.134 94.0823 198.837 94.5364C199.539 94.9907 200.356 95.2384 201.192 95.2521C202.029 95.2656 202.853 95.0442 203.571 94.6129C203.723 95.4659 204.12 96.2563 204.712 96.8888C205.304 97.5213 206.067 97.9686 206.908 98.1765C207.749 98.3846 208.633 98.3443 209.452 98.061C210.27 97.7775 210.989 97.263 211.522 96.5794C212.061 97.3525 212.76 98.0005 213.571 98.48C214.383 98.9592 215.287 99.2589 216.225 99.3582C217.657 96.7711 218.626 93.9539 219.089 91.0332C219.564 88.0593 219.009 85.0121 217.514 82.3976C211.144 80.3029 214.008 72.8217 218.326 75.7287C220.378 77.1394 221.157 77.0494 221.319 75.6859C221.33 75.2919 221.449 74.9088 221.661 74.5767C221.874 74.2446 222.172 73.9763 222.525 73.8004C222.905 74.6023 223.513 75.2737 224.274 75.7304C225.033 76.1874 225.913 76.4091 226.8 76.3681C227.686 76.3269 228.541 76.0247 229.254 75.4994C229.97 74.9742 230.514 74.2493 230.818 73.4157C231.232 73.8531 231.729 74.2029 232.281 74.4446C232.832 74.6865 233.426 74.8149 234.027 74.823C234.63 74.8309 235.226 74.7182 235.784 74.4909C236.342 74.2639 236.848 73.9275 237.273 73.5011C238.331 75.9928 239.134 78.5855 239.667 81.2389C240.309 80.8773 240.853 80.3637 241.249 79.7429C241.647 79.1221 241.886 78.4134 241.944 77.679C242.003 76.9443 241.881 76.2066 241.589 75.5304C241.296 74.8541 240.842 74.2601 240.266 73.8004C240.909 73.4739 241.467 73.0021 241.897 72.4221C242.327 71.8422 242.617 71.1702 242.741 70.4592Z" stroke="#FFCC00" stroke-width="0.9" stroke-linejoin="round"/>
<path d="M238.852 96.9214L366.46 75.4609" stroke="#FFCC00" stroke-width="0.9" stroke-linecap="round" stroke-linejoin="round"/>
<path d="M29.4609 132.062L215.423 100.854" stroke="#FFCC00" stroke-width="0.9" stroke-linecap="round" stroke-linejoin="round"/>
<path d="M225.855 117.014L264.117 151.385" stroke="#FFCC00" stroke-width="0.9" stroke-linecap="round" stroke-linejoin="round"/>
<path d="M264.288 155.147C264.801 153.223 264.803 151.85 264.117 151.385C263.478 150.953 262.317 151.335 260.868 152.368C258.696 154.082 256.732 156.046 255.018 158.218" stroke="#FFCC00" stroke-width="0.9" stroke-linecap="round" stroke-linejoin="round"/>
<path d="M104.401 205.805C89.9511 194.306 88.7541 193.964 77.2971 181.438C53.1006 184.858 26.4696 192.938 15.1836 198.281C32.4103 204.791 50.8607 207.418 69.2196 205.976L88.8419 223.632" stroke="#FFCC00" stroke-width="0.9" stroke-linecap="round" stroke-linejoin="round"/>
<path d="M213.072 117.099L253.386 153.266" stroke="#FFCC00" stroke-width="0.9" stroke-linecap="round" stroke-linejoin="round"/>
<path d="M233.806 182.379L207.729 160.277L223.521 184.851" stroke="#FFCC00" stroke-width="0.9" stroke-linecap="round" stroke-linejoin="round"/>
<path d="M326.873 187.2C328.448 187.542 342.871 192.582 345.897 197.973C347.922 201.562 337.689 194.425 331.063 194.211" stroke="#FFCC00" stroke-width="0.9" stroke-linecap="round" stroke-linejoin="round"/>
<path d="M325.463 191.912C329.481 193.365 339.006 197.388 341.494 201.915C343.744 206.024 335.644 198.495 325.933 198.196" stroke="#FFCC00" stroke-width="0.9" stroke-linecap="round" stroke-linejoin="round"/>
<path d="M324.352 197.298C334.526 203.241 340.133 208.742 326.318 202.77C319.181 199.686 267.143 198.111 267.143 198.111C262.576 197.638 258.215 195.97 254.498 193.275L233.893 177.629" stroke="#FFCC00" stroke-width="0.9" stroke-linecap="round" stroke-linejoin="round"/>
<path d="M250.137 154.249L271.084 172.845C271.084 172.845 323.581 182.678 327.6 183.825C331.618 184.973 341.241 187.412 344.058 190.623C345.557 192.33 337.308 189.383 332.302 189.126" stroke="#FFCC00" stroke-width="0.9" stroke-linecap="round" stroke-linejoin="round"/>
<path d="M253.557 157.028C254.07 155.104 254.072 153.731 253.386 153.265C252.747 152.833 251.586 153.218 250.137 154.249C244.222 158.459 235.431 171.508 233.593 178.659C233.143 180.414 233.224 181.996 233.807 182.378C234.482 182.828 236.414 182.293 237.857 180.668" stroke="#FFCC00" stroke-width="0.9" stroke-linecap="round" stroke-linejoin="round"/>
<path d="M168.484 196.315C178.806 196.75 188.958 193.592 197.212 187.38" stroke="#FFCC00" stroke-width="0.9" stroke-linecap="round" stroke-linejoin="round"/>
<path d="M223.162 185.499L227.736 177.249" stroke="#FFCC00" stroke-width="0.9" stroke-linecap="round" stroke-linejoin="round"/>
<path d="M225.171 112.95C222.349 117.054 217.176 115.259 210.037 108.376" stroke="#FFCC00" stroke-width="0.9" stroke-linecap="round" stroke-linejoin="round"/>
<path d="M179.378 248.304L212.602 211.32L176.008 270.914" stroke="#FFCC00" stroke-width="0.9" stroke-linecap="round" stroke-linejoin="round"/>
<path d="M127.103 269.503C129.516 271.67 132.332 273.341 135.391 274.419C138.45 275.497 141.691 275.963 144.93 275.787C148.169 275.614 151.341 274.802 154.266 273.402C157.192 272 159.812 270.036 161.978 267.622L179.37 248.303L172.494 294.203L144.108 325.838C151.231 338.344 162.209 348.21 175.401 353.963L205.455 320.49C209.904 315.542 213.048 309.562 214.603 303.091C221.146 275.641 218.921 227.167 223.153 185.486C206.139 182.322 199.854 178.475 186.901 168.257C178.531 174.375 159.849 178.916 141.075 225.599L113.081 200.419C100.166 206.99 90.155 218.128 84.9941 231.669L127.103 269.503Z" stroke="#FFCC00" stroke-width="0.9" stroke-linecap="round" stroke-linejoin="round"/>
<path d="M227.251 99.7181C226.119 99.296 225.014 98.8046 223.943 98.2466L226.115 102.972" stroke="#FFCC00" stroke-width="0.9" stroke-linecap="round" stroke-linejoin="round"/>
<path d="M229.018 131.42C225.868 122.33 223.254 108.432 227.239 99.7178C243.425 105.656 242.055 84.6698 237.312 73.5796M186.898 168.228C188.718 162.512 189.949 156.624 190.575 150.658C191.664 141.478 194.328 132.555 198.45 124.281C202.477 115.819 211.725 108.016 216.45 99.0158C217.866 96.5433 218.765 93.8091 219.094 90.9788C219.57 88.005 219.014 84.9576 217.519 82.3433C211.149 80.2486 214.027 72.7493 218.331 75.6743C220.39 77.0761 221.195 76.9996 221.323 75.6316C221.439 74.9123 221.584 74.2278 221.754 73.5796" stroke="#FFCC00" stroke-width="0.9" stroke-linecap="round" stroke-linejoin="round"/>
<path d="M153.564 315.331C161.297 327.378 172.301 336.972 185.289 342.99" stroke="#FFCC00" stroke-width="0.9" stroke-linecap="round" stroke-linejoin="round"/>
<path d="M94.3125 239.92C101.494 226.87 110.472 216.151 122.271 208.712" stroke="#FFCC00" stroke-width="0.9" stroke-linecap="round" stroke-linejoin="round"/>
<path d="M149.205 333.585C140.173 344.61 132.094 353.263 123.298 362.441C120.947 376.335 122.059 408.226 126.547 423.061C138.472 403.225 142.792 390.613 148.822 370.186L167.119 349.837" stroke="#FFCC00" stroke-width="0.9" stroke-linecap="round" stroke-linejoin="round"/>
<path d="M70.1602 206.831C74.1958 200.352 79.1491 194.491 84.8662 189.432" stroke="#FFCC00" stroke-width="0.9" stroke-linecap="round" stroke-linejoin="round"/>
<path d="M341.493 188.748C346.153 189.218 355.634 192.123 353.89 190.116C352.624 188.936 351.163 187.981 349.573 187.295C343.543 184.347 337.774 183.404 331.361 181.652L281.636 169.596L260.887 152.348" stroke="#FFCC00" stroke-width="0.9" stroke-linecap="round" stroke-linejoin="round"/>
<path d="M182.464 194.647L144.117 250.992L107.053 221.623" stroke="#FFCC00" stroke-width="0.9" stroke-linecap="round" stroke-linejoin="round"/>
<path d="M287.287 66.3551C287.575 68.0883 287.341 69.8678 286.616 71.4687C285.894 73.0694 284.71 74.4196 283.219 75.3484C281.729 76.2772 279.994 76.7429 278.239 76.6867C276.482 76.6304 274.783 76.0549 273.355 75.0325C271.926 74.0103 270.832 72.5872 270.211 70.9433C269.593 69.2997 269.473 67.5089 269.872 65.7976C270.268 64.0864 271.165 62.5315 272.446 61.3295C273.728 60.1276 275.337 59.3324 277.069 59.0449C279.394 58.6606 281.776 59.2148 283.691 60.5855C285.606 61.9562 286.9 64.0313 287.287 66.3551Z" stroke="#FFCC00" stroke-width="0.9" stroke-linecap="round" stroke-linejoin="round"/>
<path d="M311.484 62.3366C311.772 64.0698 311.538 65.8493 310.813 67.4502C310.091 69.0508 308.908 70.401 307.416 71.3298C305.926 72.2586 304.192 72.7244 302.437 72.6681C300.679 72.6119 298.981 72.0361 297.552 71.0139C296.123 69.9918 295.03 68.5686 294.409 66.9248C293.79 65.2812 293.671 63.4904 294.069 61.779C294.465 60.0679 295.363 58.5129 296.643 57.311C297.925 56.109 299.534 55.3139 301.267 55.0263C303.591 54.642 305.971 55.196 307.888 56.5669C309.803 57.9376 311.097 60.0128 311.484 62.3366Z" stroke="#FFCC00" stroke-width="0.9" stroke-linecap="round" stroke-linejoin="round"/>
<path d="M336.107 58.2324C336.395 59.9656 336.161 61.7451 335.436 63.346C334.714 64.9467 333.531 66.2969 332.039 67.2257C330.549 68.1545 328.815 68.62 327.06 68.564C325.302 68.5077 323.604 67.932 322.175 66.9098C320.746 65.8874 319.653 64.4645 319.032 62.8206C318.413 61.177 318.294 59.3862 318.692 57.6749C319.088 55.9635 319.986 54.4088 321.266 53.2068C322.548 52.0049 324.157 51.2097 325.89 50.9222C328.214 50.5372 330.597 51.0912 332.511 52.4619C334.428 53.8328 335.722 55.9084 336.107 58.2324Z" stroke="#FFCC00" stroke-width="0.9" stroke-linecap="round" stroke-linejoin="round"/>
<path d="M81.6586 26.9395L65.3281 49.939" stroke="#FFCC00" stroke-width="0.9" stroke-linecap="round" stroke-linejoin="round"/>
<path d="M84.9939 46.6044L62.0371 30.2739" stroke="#FFCC00" stroke-width="0.9" stroke-linecap="round" stroke-linejoin="round"/>
<path d="M16.8075 274.847L16.2945 275.018L32.0693 288.997L11.25 311.868L22.4077 321.829L43.227 298.915L58.9567 312.896L70.7153 257.535L16.8075 274.847Z" stroke="#FFCC00" stroke-width="0.9" stroke-linecap="round" stroke-linejoin="round"/>
<path d="M292.118 306.396L259.029 296.136L286.86 276.813" stroke="#FFCC00" stroke-width="0.9" stroke-linecap="round" stroke-linejoin="round"/>
<path d="M319.307 302.036L346.924 281.601L314.049 272.41" stroke="#FFCC00" stroke-width="0.9" stroke-linecap="round" stroke-linejoin="round"/>
<path d="M308.962 260.226L296.863 319.136" stroke="#FFCC00" stroke-width="0.9" stroke-linecap="round" stroke-linejoin="round"/>
<path d="M41.3125 205.014L63.4896 341.75C64.2821 346.414 65.9858 350.876 68.5033 354.879C71.0211 358.884 74.3031 362.353 78.1621 365.089C82.0211 367.823 86.3814 369.772 90.9936 370.822C95.6061 371.871 100.38 372.001 105.043 371.205L122.823 368.215" stroke="#FFCC00" stroke-width="0.9" stroke-linecap="round" stroke-linejoin="round"/>
<path d="M387.196 203.523L400.404 284.936C401.2 289.598 401.07 294.372 400.021 298.985C398.971 303.597 397.022 307.958 394.288 311.817C391.552 315.675 388.083 318.958 384.078 321.476C380.073 323.994 375.613 325.697 370.949 326.489L155.648 362.696" stroke="#FFCC00" stroke-width="0.9" stroke-linecap="round" stroke-linejoin="round"/>
<path d="M169.301 61.8228L57.334 80.6337C52.6706 81.4263 48.2091 83.13 44.2046 85.6476C40.2 88.1651 36.731 91.4472 33.9954 95.3064C31.2601 99.1653 29.3118 103.526 28.2624 108.138C27.213 112.75 27.0827 117.524 27.8792 122.187L38.8466 189.808" stroke="#FFCC00" stroke-width="0.9" stroke-linecap="round" stroke-linejoin="round"/>
<path d="M232.225 51.251L323.239 35.9598C327.901 35.1633 332.676 35.2936 337.288 36.343C341.901 37.3924 346.261 39.3407 350.12 42.076C353.979 44.8115 357.262 48.2806 359.779 52.2851C362.297 56.2897 364 60.7512 364.792 65.4146L381.67 169.46" stroke="#FFCC00" stroke-width="0.9" stroke-linecap="round" stroke-linejoin="round"/>
<path d="M131.891 353.378C136.599 359.847 142.315 365.519 148.82 370.179" stroke="#FFCC00" stroke-width="0.9" stroke-linecap="round" stroke-linejoin="round"/>
</svg>
