<svg width="450" height="450" viewBox="0 0 450 450" fill="none" xmlns="http://www.w3.org/2000/svg">
<path d="M305.623 127.903C304.423 120.105 297.824 112.05 291.655 108.151C291.011 107.723 290.37 107.336 289.726 106.951C275.758 116.626 250.219 132.275 220.224 137.032C217.911 137.416 215.083 136.858 213.325 138.445C207.799 143.372 206.686 160.598 193.017 160.983C191.129 165.784 189.417 170.41 187.574 174.352C189.808 171.223 206.137 174.19 210.283 175.124C214.351 176.024 231.899 180.805 231.152 184.552C234.237 177.907 233.038 171.182 231.024 164.153C255.49 159.442 289.384 142.13 305.623 127.903Z" fill="#2E2E2E"/>
<path d="M91.636 200.191C87.2843 204.374 81.7898 207.173 75.8473 208.233C69.9051 209.293 63.7817 208.568 58.2519 206.148C52.722 203.728 48.0339 199.723 44.7804 194.638C41.5269 189.554 39.8543 183.619 39.9738 177.584C40.0935 171.549 41.9999 165.685 45.4523 160.734C48.9045 155.782 53.7476 151.966 59.369 149.767C64.9904 147.568 71.1376 147.085 77.0333 148.38C82.929 149.675 88.3082 152.689 92.491 157.041C95.2706 159.929 97.4538 163.337 98.9154 167.069C100.377 170.802 101.088 174.786 101.009 178.794C100.93 182.801 100.061 186.754 98.4526 190.426C96.8443 194.097 94.5279 197.416 91.636 200.191Z" fill="#2E2E2E"/>
<path d="M419.601 320.125C422.685 309.456 432.97 312.712 438.627 306.283C439.655 316.098 434.255 325.953 424.485 326.423L419.601 320.125Z" fill="#2E2E2E"/>
<path d="M187.058 341.249C183.159 343.521 175.876 338.807 167.906 329.807C168.046 332.912 168.926 335.941 170.476 338.636C175.876 348.748 175.619 373.687 181.618 371.936C183.29 371.421 185.261 362.936 187.018 353.212C187.927 348.514 189.13 343.877 190.618 339.327C189.873 339.707 187.805 340.751 187.058 341.249Z" fill="#182222"/>
<path d="M211.997 126.362C212.784 128.65 213.942 130.792 215.426 132.703C219.195 132.147 223.384 131.004 224.165 129.276C224.302 128.985 224.417 128.684 224.509 128.376C223.524 131.504 217.825 129.404 211.997 126.362Z" fill="#182222"/>
<path d="M217.053 103.352C209.468 95.382 184.745 101.637 167.992 113.765C151.153 125.933 155.995 137.331 177.804 132.104C176.519 132.489 162.549 136.688 153.423 147.179C140.011 162.605 151.666 168.518 166.698 165.434C184.651 161.748 200.077 147.008 205.304 136.809C207.704 130.8 209.333 124.51 210.15 118.091C203.895 112.993 207.709 108.365 211.136 111.879C212.978 113.765 215.035 112.865 212.765 106.704C215.053 105.284 217.8 104.83 217.053 103.352Z" fill="#182222"/>
<path d="M274.257 352.476C273.465 342.302 273.58 332.078 274.599 321.923C266.47 324.218 257.846 324.086 249.791 321.539C249.962 328.653 247.734 332.251 249.577 336.665C250.684 339.14 252.255 341.379 254.203 343.262C262.26 351.405 269.159 375.399 274.428 371.972C275.886 371.025 275.328 362.331 274.257 352.476Z" fill="#182222"/>
<path d="M193.657 172.982C193.272 174.971 192.668 176.911 191.857 178.767C184.873 175.295 186.502 173.025 193.657 172.982Z" fill="#182222"/>
<path d="M231.195 184.5C231.021 185.315 229.865 185.83 227.937 186.075C228.666 184.748 229.309 183.546 229.865 182.347C230.85 183.179 231.321 183.908 231.195 184.5Z" fill="#182222"/>
<path d="M250.389 250.238L245.889 263.135C245.718 258.122 245.547 253.195 245.459 248.353L250.389 250.238Z" fill="#182222"/>
<path d="M96.5049 341.291C84.9984 321.595 69.7299 304.819 62.5164 307.598C52.7537 311.36 65.9994 341.528 73.5954 354.704C86.3642 376.814 101.79 391.811 108.225 388.35C117.578 383.139 102.299 351.207 96.5049 341.291Z" fill="#182222"/>
<path d="M175.619 294.887C162.936 272.948 147.553 258.122 141.21 261.812C134.827 265.496 139.968 286.236 152.608 308.174C165.249 330.111 180.675 344.896 187.015 341.249C193.401 337.565 188.26 316.825 175.619 294.887Z" fill="#182222"/>
<path d="M190.616 339.32C189.132 343.87 187.93 348.507 187.016 353.205C185.279 362.934 183.292 371.43 181.616 371.93C175.629 373.73 175.854 348.755 170.474 338.63C168.921 335.936 168.04 332.908 167.904 329.801" stroke="#FFCC00" stroke-width="0.9" stroke-linecap="round" stroke-linejoin="round"/>
<path d="M338.916 178.081C338.061 176.697 336.913 175.518 335.552 174.628C334.191 173.737 332.652 173.157 331.041 172.928C329.43 172.699 327.789 172.827 326.235 173.302C324.68 173.778 323.247 174.589 322.041 175.68C321.564 174.052 320.715 172.557 319.568 171.309C318.418 170.061 316.996 169.095 315.412 168.486C313.83 167.877 312.127 167.64 310.437 167.795C308.748 167.95 307.119 168.493 305.672 169.38C304.421 170.15 303.334 171.16 302.475 172.351C301.613 173.542 300.996 174.891 300.659 176.321C298.879 174.98 296.737 174.207 294.512 174.104C292.287 174.002 290.082 174.574 288.187 175.746C286.293 176.918 284.796 178.635 283.894 180.672C282.992 182.709 282.729 184.971 283.134 187.162C281.687 186.783 280.179 186.698 278.701 186.911C277.221 187.125 275.801 187.633 274.521 188.406C273.076 189.293 271.857 190.499 270.952 191.932C270.048 193.366 269.485 194.987 269.307 196.672C269.13 198.357 269.341 200.061 269.926 201.651C270.509 203.242 271.452 204.677 272.678 205.846C271.175 206.438 269.82 207.351 268.709 208.522C267.597 209.693 266.754 211.093 266.241 212.623C265.725 214.154 265.552 215.778 265.732 217.383C265.91 218.988 266.439 220.534 267.278 221.913C268.45 223.851 270.203 225.374 272.284 226.265C274.368 227.156 276.678 227.372 278.89 226.883L338.706 190.208C340.212 189.302 342.041 183.128 338.916 178.081Z" stroke="#FFCC00" stroke-width="0.9" stroke-linecap="round" stroke-linejoin="round"/>
<path d="M293.54 195.091C294.953 196.423 295.864 198.2 296.12 200.126C296.377 202.051 295.963 204.005 294.946 205.66C293.929 207.315 292.374 208.57 290.543 209.213C288.709 209.855 286.711 209.847 284.884 209.189" stroke="#FFCC00" stroke-width="0.9" stroke-linecap="round" stroke-linejoin="round"/>
<path d="M320.191 187.551C319.953 189.284 319.188 190.902 317.995 192.183C316.803 193.463 315.243 194.344 313.533 194.705C311.821 195.066 310.039 194.89 308.43 194.2C306.824 193.509 305.469 192.339 304.551 190.85C304.162 190.206 303.861 189.515 303.651 188.793" stroke="#FFCC00" stroke-width="0.9" stroke-linecap="round" stroke-linejoin="round"/>
<path d="M322.033 175.68C320.881 176.767 319.925 178.043 319.205 179.453" stroke="#FFCC00" stroke-width="0.9" stroke-linecap="round" stroke-linejoin="round"/>
<path d="M276.579 205.124C275.249 205.19 273.935 205.434 272.671 205.848" stroke="#FFCC00" stroke-width="0.9" stroke-linecap="round" stroke-linejoin="round"/>
<path d="M300.652 176.323C300.371 177.72 300.326 179.153 300.515 180.565" stroke="#FFCC00" stroke-width="0.9" stroke-linecap="round" stroke-linejoin="round"/>
<path d="M287.373 189.151C286.088 188.241 284.65 187.568 283.127 187.164" stroke="#FFCC00" stroke-width="0.9" stroke-linecap="round" stroke-linejoin="round"/>
<path d="M354.17 202.847C350.991 197.611 344.43 196.677 343.287 197.534L283.426 234.257C281.714 235.285 279.362 241.506 282.614 246.767C283.46 248.141 284.596 249.316 285.941 250.205C287.289 251.096 288.815 251.678 290.412 251.915C292.01 252.149 293.639 252.032 295.187 251.57C296.732 251.109 298.161 250.315 299.367 249.242C300.053 251.602 301.511 253.665 303.505 255.103C305.498 256.541 307.915 257.27 310.372 257.177C312.829 257.083 315.185 256.172 317.063 254.585C318.942 253.001 320.236 250.832 320.742 248.427C322.511 249.782 324.648 250.571 326.873 250.691C329.099 250.812 331.308 250.256 333.214 249.098C335.117 247.939 336.627 246.233 337.545 244.202C338.461 242.17 338.742 239.909 338.353 237.715C340.727 238.316 343.233 238.111 345.479 237.134C347.724 236.156 349.583 234.459 350.759 232.313C351.936 230.164 352.366 227.687 351.981 225.266C351.596 222.847 350.42 220.625 348.635 218.948C350.154 218.371 351.529 217.468 352.661 216.301C353.79 215.134 354.652 213.732 355.181 212.195C355.707 210.658 355.892 209.024 355.716 207.408C355.543 205.793 355.014 204.235 354.17 202.847Z" stroke="#FFCC00" stroke-width="0.9" stroke-linecap="round" stroke-linejoin="round"/>
<path d="M318.39 235.627C317.949 234.135 317.108 232.794 315.956 231.75C314.804 230.706 313.389 229.999 311.861 229.707C310.333 229.414 308.756 229.549 307.3 230.094C305.844 230.641 304.566 231.574 303.608 232.798C302.67 234.007 302.064 235.44 301.851 236.954" stroke="#FFCC00" stroke-width="0.9" stroke-linecap="round" stroke-linejoin="round"/>
<path d="M337.203 215.325C335.554 214.755 333.767 214.708 332.089 215.19C330.413 215.673 328.923 216.66 327.827 218.018C326.732 219.377 326.079 221.04 325.964 222.782C325.847 224.524 326.27 226.26 327.175 227.752C327.562 228.4 328.039 228.991 328.59 229.509" stroke="#FFCC00" stroke-width="0.9" stroke-linecap="round" stroke-linejoin="round"/>
<path d="M348.641 218.959C347.132 219.517 345.536 219.807 343.928 219.816" stroke="#FFCC00" stroke-width="0.9" stroke-linecap="round" stroke-linejoin="round"/>
<path d="M301.739 246.15C301.097 247.293 300.299 248.339 299.367 249.262" stroke="#FFCC00" stroke-width="0.9" stroke-linecap="round" stroke-linejoin="round"/>
<path d="M338.359 237.726C336.98 237.33 335.675 236.711 334.496 235.895" stroke="#FFCC00" stroke-width="0.9" stroke-linecap="round" stroke-linejoin="round"/>
<path d="M320.871 243.848C321.075 245.376 321.033 246.924 320.749 248.438" stroke="#FFCC00" stroke-width="0.9" stroke-linecap="round" stroke-linejoin="round"/>
<path d="M283.426 234.256L277.043 238.111" stroke="#FFCC00" stroke-width="0.9" stroke-linecap="round" stroke-linejoin="round"/>
<path d="M278.885 226.885L272.585 230.699" stroke="#FFCC00" stroke-width="0.9" stroke-linecap="round" stroke-linejoin="round"/>
<path d="M245.677 257.18L177.633 298.485" stroke="#FFCC00" stroke-width="0.9" stroke-linecap="round" stroke-linejoin="round"/>
<path d="M244.305 247.88L173.304 291.031" stroke="#FFCC00" stroke-width="0.9" stroke-linecap="round" stroke-linejoin="round"/>
<path d="M304.722 128.675C319.961 127.266 335.284 130.289 348.844 137.381C362.405 144.474 373.63 155.333 381.166 168.653C403.927 207.769 392.004 258.289 354.555 281.475C331.13 295.978 324.63 288.31 279.142 301.275" stroke="#FFCC00" stroke-width="0.9" stroke-linecap="round" stroke-linejoin="round"/>
<path d="M187.506 340.916C208.314 330.064 226.91 320.578 246.062 312.755" stroke="#FFCC00" stroke-width="0.9" stroke-linecap="round" stroke-linejoin="round"/>
<path d="M189.886 225.299C175.448 236.869 159.635 248.139 141.167 261.765" stroke="#FFCC00" stroke-width="0.9" stroke-linecap="round" stroke-linejoin="round"/>
<path d="M251.933 158.026C242.953 171.528 232.877 184.268 221.81 196.119" stroke="#FFCC00" stroke-width="0.9" stroke-linecap="round" stroke-linejoin="round"/>
<path d="M289.683 106.994C296.923 111.064 304.294 119.421 305.622 127.903C289.381 142.13 255.49 159.442 231.023 164.153C233.037 171.182 234.236 177.91 231.151 184.552C231.898 180.81 214.607 176.089 210.282 175.124C206.061 174.181 189.789 171.252 187.573 174.352C189.416 170.41 191.131 165.782 193.016 160.983C206.685 160.598 207.776 143.347 213.324 138.445C215.073 136.901 217.824 137.419 220.223 137.032C250.2 132.156 275.757 116.635 289.725 106.951L289.683 106.994Z" stroke="#FFCC00" stroke-width="0.9" stroke-linecap="round" stroke-linejoin="round"/>
<path d="M190.026 181.98C202.294 181.785 214.375 184.994 224.928 191.25" stroke="#FFCC00" stroke-width="0.9" stroke-linecap="round" stroke-linejoin="round"/>
<path d="M224.311 128.833C222.914 131.276 217.514 129.242 211.997 126.358C212.783 128.646 213.942 130.788 215.426 132.698" stroke="#FFCC00" stroke-width="0.9" stroke-linecap="round" stroke-linejoin="round"/>
<path d="M218.634 137.191C215.649 136.458 216.447 135.005 215.426 132.703C223.481 131.513 224.876 130.03 224.545 125.993C224.061 120.13 220.619 107.354 217.053 103.352" stroke="#FFCC00" stroke-width="0.9" stroke-linecap="round" stroke-linejoin="round"/>
<path d="M231.024 164.153C228.537 164.626 226.139 164.968 223.909 165.184" stroke="#FFCC00" stroke-width="0.9" stroke-linecap="round" stroke-linejoin="round"/>
<path d="M212.769 106.695C215.039 112.864 212.994 113.764 211.14 111.87C207.711 108.358 203.899 112.995 210.154 118.082C209.339 124.504 207.712 130.795 205.312 136.807C200.085 147.006 184.659 161.746 166.707 165.431C151.665 168.516 140.01 162.603 153.432 147.177C162.558 136.678 176.528 132.48 177.813 132.102C156.003 137.329 151.166 125.937 168 113.762C184.758 101.641 209.477 95.3797 217.062 103.349C217.786 104.816 214.971 105.334 212.769 106.695Z" stroke="#FFCC00" stroke-width="0.9" stroke-linecap="round" stroke-linejoin="round"/>
<path d="M193.017 160.983C195.28 154.86 198.196 148.999 201.715 143.501C203.106 141.419 204.297 139.21 205.27 136.904" stroke="#FFCC00" stroke-width="0.9" stroke-linecap="round" stroke-linejoin="round"/>
<path d="M221.875 196.051C224.847 191.676 227.522 187.107 229.887 182.376" stroke="#FFCC00" stroke-width="0.9" stroke-linecap="round" stroke-linejoin="round"/>
<path d="M314.964 104.895C321.433 103.351 326.758 106.267 326.317 108.751C326.218 109.249 326.014 109.721 325.719 110.134C325.422 110.547 325.044 110.894 324.605 111.15" stroke="#FFCC00" stroke-width="0.9" stroke-linecap="round" stroke-linejoin="round"/>
<path d="M314.363 100.953C321.176 99.324 327.947 102.753 325.033 106.353" stroke="#FFCC00" stroke-width="0.9" stroke-linecap="round" stroke-linejoin="round"/>
<path d="M304.893 124.819C308.925 120.217 314.097 116.759 319.891 114.793" stroke="#FFCC00" stroke-width="0.9" stroke-linecap="round" stroke-linejoin="round"/>
<path d="M314.705 109.521C321.005 108.236 325.154 110.72 324.905 113.164C324.596 116.163 318.605 120.706 313.549 117.792" stroke="#FFCC00" stroke-width="0.9" stroke-linecap="round" stroke-linejoin="round"/>
<path d="M309.393 98.6805C309.478 98.595 312.093 94.9545 310.936 93.7958C309.951 92.8103 295.724 104.508 291.739 108.236" stroke="#FFCC00" stroke-width="0.9" stroke-linecap="round" stroke-linejoin="round"/>
<path d="M317.576 100.523C328.889 95.0828 331.926 88.5195 329.789 89.7233C322.656 93.294 315.33 96.4697 307.849 99.2363C302.058 101.44 296.617 104.471 291.696 108.236" stroke="#FFCC00" stroke-width="0.9" stroke-linecap="round" stroke-linejoin="round"/>
<path d="M274.599 321.923C273.589 332.077 273.474 342.301 274.257 352.476C275.348 362.329 275.884 371.027 274.428 371.972C269.154 375.394 262.244 351.421 254.203 343.262C252.25 341.381 250.679 339.14 249.577 336.665C247.73 332.244 249.968 328.639 249.788 321.502" stroke="#FFCC00" stroke-width="0.9" stroke-linecap="round" stroke-linejoin="round"/>
<path d="M175.619 294.887C188.275 316.816 193.405 337.572 187.015 341.237C180.679 344.887 165.249 330.097 152.608 308.162C139.968 286.227 134.831 265.5 141.21 261.808C147.589 258.115 162.952 272.938 175.619 294.887Z" stroke="#FFCC00" stroke-width="0.9" stroke-linecap="round" stroke-linejoin="round"/>
<path d="M110.583 376.272C107.379 356.33 88.1192 323.152 72.4817 311.17C64.4042 304.913 58.6195 306.02 59.281 316.514C60.5365 336.427 82.7102 374.843 99.2612 386.116C108.45 392.371 112.401 387.592 110.583 376.272Z" stroke="#FFCC00" stroke-width="0.9" stroke-linecap="round" stroke-linejoin="round"/>
<path d="M108.65 388.125L121.372 380.765C122.597 379.805 123.43 378.43 123.715 376.9C123.999 375.37 123.714 373.788 122.915 372.451C127.978 380.077 137.911 372.204 133.927 365.596C137.623 371.896 149.247 367.828 144.468 358.27C145.551 359.674 147.095 360.648 148.827 361.024C150.559 361.402 152.368 361.154 153.936 360.326C159.111 357.023 157.192 350.6 153.981 340.144C147.975 322.187 138.448 305.606 125.957 291.375C122.955 287.8 119.518 284.612 115.726 281.889C109.73 278.17 102.985 280.958 105.304 291.076C103.396 287.897 101.158 285.818 97.3755 286.832C96.4206 287.098 95.5401 287.582 94.8033 288.243C94.0662 288.907 93.4926 289.73 93.1277 290.653C92.7625 291.573 92.6158 292.568 92.6991 293.555C92.7821 294.543 93.0928 295.497 93.6067 296.345C93.6067 296.345 89.1675 290.734 84.1365 294.718C82.887 295.693 82.0453 297.097 81.7758 298.656C81.5062 300.217 81.828 301.822 82.6785 303.158C82.2735 302.443 81.7308 301.817 81.0819 301.313C80.433 300.809 79.6909 300.44 78.898 300.224C78.1053 300.008 77.278 299.954 76.4635 300.06C75.649 300.166 74.864 300.434 74.1532 300.845L62.1787 307.735" stroke="#FFCC00" stroke-width="0.9" stroke-linecap="round" stroke-linejoin="round"/>
<path d="M419.601 320.125C414.315 323.044 409.248 326.338 404.433 329.98C390.29 340.904 376.495 354.618 378.333 357.019C380.172 359.419 396.891 349.569 411.069 338.636C415.821 334.901 420.289 330.82 424.438 326.423" stroke="#FFCC00" stroke-width="0.9" stroke-linecap="round" stroke-linejoin="round"/>
<path d="M419.601 320.126C422.685 309.456 432.97 312.712 438.627 306.284C439.655 316.098 434.255 325.953 424.485 326.423L419.601 320.126Z" stroke="#FFCC00" stroke-width="0.9" stroke-linecap="round" stroke-linejoin="round"/>
<path d="M406.211 328.637L412.83 337.221" stroke="#FFCC00" stroke-width="0.9" stroke-linecap="round" stroke-linejoin="round"/>
<path d="M429.671 114.878L424.058 127.453H434.34L428.684 140.031" stroke="#FFCC00" stroke-width="0.9" stroke-linecap="round" stroke-linejoin="round"/>
<path d="M229.864 425.491L207.069 426.175" stroke="#FFCC00" stroke-width="0.9" stroke-linecap="round" stroke-linejoin="round"/>
<path d="M218.81 437.231L218.124 414.434" stroke="#FFCC00" stroke-width="0.9" stroke-linecap="round" stroke-linejoin="round"/>
<path d="M193.657 172.982C193.272 174.971 192.668 176.911 191.857 178.767C184.873 175.295 186.502 173.025 193.657 172.982Z" stroke="#FFCC00" stroke-width="0.9" stroke-linecap="round" stroke-linejoin="round"/>
<path d="M231.151 184.552C230.944 185.328 229.844 185.834 227.983 186.086" stroke="#FFCC00" stroke-width="0.9" stroke-linecap="round" stroke-linejoin="round"/>
<path d="M193.658 172.982C192.956 177.85 190.484 182.289 186.716 185.449C169.877 198.819 169.616 217.543 181.917 231.556" stroke="#FFCC00" stroke-width="0.9" stroke-linecap="round" stroke-linejoin="round"/>
<path d="M61.4298 308.203L42.4443 318.967" stroke="#FFCC00" stroke-width="0.9" stroke-linecap="round" stroke-linejoin="round"/>
<path d="M107.779 388.595L90.7354 398.538" stroke="#FFCC00" stroke-width="0.9" stroke-linecap="round" stroke-linejoin="round"/>
<path d="M82.5077 403.722L69.8672 411.093" stroke="#FFCC00" stroke-width="0.9" stroke-linecap="round" stroke-linejoin="round"/>
<path d="M33.6168 324.495L20.7197 331.823" stroke="#FFCC00" stroke-width="0.9" stroke-linecap="round" stroke-linejoin="round"/>
<path d="M73.6377 354.703L32.1162 379.255" stroke="#FFCC00" stroke-width="0.9" stroke-linecap="round" stroke-linejoin="round"/>
<path d="M23.8478 384.442L11.25 391.768" stroke="#FFCC00" stroke-width="0.9" stroke-linecap="round" stroke-linejoin="round"/>
<path d="M91.636 200.192C87.2843 204.374 81.7898 207.173 75.8473 208.233C69.9051 209.293 63.7817 208.568 58.2519 206.148C52.722 203.728 48.0339 199.723 44.7804 194.638C41.5269 189.554 39.8543 183.619 39.9738 177.584C40.0935 171.549 41.9999 165.685 45.4523 160.734C48.9045 155.782 53.7476 151.966 59.369 149.767C64.9904 147.568 71.1376 147.085 77.0333 148.38C82.929 149.675 88.3082 152.689 92.491 157.041C95.2706 159.929 97.4538 163.337 98.9154 167.069C100.377 170.802 101.088 174.786 101.009 178.794C100.93 182.801 100.061 186.754 98.4526 190.426C96.8443 194.097 94.5279 197.416 91.636 200.192Z" stroke="#FFCC00" stroke-width="0.9" stroke-linecap="round" stroke-linejoin="round"/>
<path d="M100.976 180C110.446 184.5 116.051 188.775 115.245 191.475C113.803 196.351 92.4912 194.474 67.5972 187.274C42.7032 180.074 23.6704 170.28 25.0902 165.397C25.9002 162.61 33.1024 162.011 43.7652 163.341" stroke="#FFCC00" stroke-width="0.9" stroke-linecap="round" stroke-linejoin="round"/>
<path d="M183.6 211.844C184.842 219.643 189.225 226.793 195.126 228.643C213.556 234.407 245.472 248.396 245.472 248.396C245.871 270.464 247.869 294.746 245.731 320.126C255.951 324.428 267.421 324.686 277.825 320.852C279.625 296.901 280.779 273.933 280.352 252.722C280.255 247.444 279.033 242.249 276.765 237.481C274.495 232.715 271.235 228.488 267.198 225.086C250.546 211.319 231.979 200.046 212.082 191.621" stroke="#FFCC00" stroke-width="0.9" stroke-linecap="round" stroke-linejoin="round"/>
<path d="M245.462 248.396L250.389 250.238L245.892 263.135" stroke="#FFCC00" stroke-width="0.9" stroke-linecap="round" stroke-linejoin="round"/>
<path d="M246.62 303.199C257.038 306.774 268.254 307.323 278.971 304.785" stroke="#FFCC00" stroke-width="0.9" stroke-linecap="round" stroke-linejoin="round"/>
<path d="M237.192 12.7687V19.926" stroke="#FFCC00" stroke-width="0.9" stroke-linecap="round" stroke-linejoin="round"/>
<path d="M251.118 26.694H243.961" stroke="#FFCC00" stroke-width="0.9" stroke-linecap="round" stroke-linejoin="round"/>
<path d="M237.192 40.6215V33.4642" stroke="#FFCC00" stroke-width="0.9" stroke-linecap="round" stroke-linejoin="round"/>
<path d="M223.268 26.694H230.427" stroke="#FFCC00" stroke-width="0.9" stroke-linecap="round" stroke-linejoin="round"/>
<path d="M243.961 26.694C243.072 26.6962 242.19 26.523 241.369 26.1837C240.545 25.8444 239.798 25.3458 239.17 24.7169C238.54 24.088 238.043 23.341 237.703 22.5187C237.364 21.6966 237.19 20.8154 237.192 19.926C237.195 20.8152 237.022 21.6962 236.682 22.5182C236.344 23.3404 235.845 24.0871 235.217 24.7162C234.587 25.3451 233.84 25.8435 233.019 26.183C232.198 26.5223 231.316 26.696 230.427 26.694C231.316 26.692 232.198 26.8657 233.019 27.2052C233.842 27.5447 234.589 28.0433 235.217 28.6726C235.845 29.3017 236.344 30.049 236.684 30.8713C237.022 31.6935 237.195 32.5748 237.192 33.4642C237.19 32.5746 237.364 31.6933 237.703 30.8707C238.041 30.0483 238.54 29.3008 239.168 28.6717C239.798 28.0426 240.545 27.544 241.366 27.2045C242.19 26.865 243.072 26.6915 243.961 26.694Z" stroke="#FFCC00" stroke-width="0.9" stroke-linecap="round" stroke-linejoin="round"/>
</svg>
