<svg width="37" height="57" viewBox="0 0 37 57" fill="none" xmlns="http://www.w3.org/2000/svg">
<path d="M27.7028 23.3409L27.7028 23.3409L27.7034 23.3458C27.8413 24.5477 27.7379 25.7652 27.4008 26.9279C27.0635 28.091 26.5006 29.1758 25.744 30.1198C24.9849 31.0645 24.0481 31.8474 22.9866 32.4259L22.9856 32.4264C21.9243 33.0075 20.7568 33.371 19.5549 33.4957L19.5538 33.4958C18.3492 33.6232 17.1336 33.5092 15.9731 33.164C14.8123 32.8159 13.7324 32.2451 12.7963 31.4788C11.859 30.7114 11.0839 29.769 10.5132 28.7011L10.5131 28.701C9.9425 27.6338 9.58938 26.464 9.47257 25.2587L9.47205 25.2538L7.92293 10.6075C7.92285 10.6066 7.92276 10.6057 7.92268 10.6048C7.69252 8.19959 8.4199 5.80055 9.94813 3.92942C11.48 2.05752 13.6859 0.865836 16.0906 0.613687L16.0907 0.613673C18.4929 0.361249 20.9005 1.06866 22.7851 2.58192C24.6691 4.09473 25.8794 6.2904 26.1533 8.69139C26.1534 8.69212 26.1535 8.69285 26.1536 8.69358L27.7028 23.3409Z" stroke="#FFCC00" stroke-width="1.12706"/>
<path d="M1 19.4327L1.74667 26.6487C1.97772 28.867 2.6455 31.0188 3.70774 32.9799C4.76999 34.941 6.20982 36.6738 7.94267 38.077C9.6727 39.483 11.6676 40.5312 13.8034 41.1679C15.9419 41.8019 18.1848 42.0104 20.4022 41.7794C22.6225 41.5455 24.7724 40.8805 26.7335 39.8183C28.6946 38.7532 30.4274 37.3162 31.8334 35.5834C33.2366 33.8505 34.2876 31.8585 34.9215 29.7199C35.5555 27.5818 35.764 25.3393 35.533 23.121L34.7863 15.905" stroke="#FFCC00" stroke-width="1.12706" stroke-linecap="round" stroke-linejoin="round"/>
<path d="M20.4053 41.7794L21.8479 55.2505" stroke="#FFCC00" stroke-width="1.12706" stroke-linecap="round" stroke-linejoin="round"/>
<path d="M14.6309 56L29.0121 54.501" stroke="#FFCC00" stroke-width="1.12706" stroke-linecap="round" stroke-linejoin="round"/>
</svg>
