<svg width="39" height="38" viewBox="0 0 39 38" fill="none" xmlns="http://www.w3.org/2000/svg">
<path d="M19.1667 0.666626C15.95 0.666626 13.3333 3.28329 13.3333 6.49996C13.3333 8.58478 14.4412 10.4064 16.0905 11.4381C14.4417 12.3226 13.3333 13.8803 13.3333 15.6666C13.3333 16.5866 14.0783 17.3333 15 17.3333H23.3333C24.255 17.3333 25 16.5866 25 15.6666C25 13.8803 23.8916 12.3226 22.2428 11.4381C23.8922 10.4064 25 8.58478 25 6.49996C25 3.28329 22.3833 0.666626 19.1667 0.666626ZM5 7.33329C4.07833 7.33329 3.33333 8.07996 3.33333 8.99996V15.6666C3.33333 16.5866 4.07833 17.3333 5 17.3333C5.92167 17.3333 6.66667 16.5866 6.66667 15.6666V10.6666H10C10.9217 10.6666 11.6667 9.91996 11.6667 8.99996C11.6667 8.07996 10.9217 7.33329 10 7.33329H5ZM28.3333 7.33329C27.4117 7.33329 26.6667 8.07996 26.6667 8.99996C26.6667 9.91996 27.4117 10.6666 28.3333 10.6666H31.6667V15.6666C31.6667 16.5866 32.4117 17.3333 33.3333 17.3333C34.255 17.3333 35 16.5866 35 15.6666V8.99996C35 8.07996 34.255 7.33329 33.3333 7.33329H28.3333ZM5.83333 20.6666C2.61667 20.6666 0 23.2833 0 26.5C0 28.5848 1.10784 30.4064 2.75716 31.4381C1.10839 32.3226 0 33.8803 0 35.6666C0 36.5883 0.745 37.3333 1.66667 37.3333H10C10.9217 37.3333 11.6667 36.5883 11.6667 35.6666C11.6667 33.8803 10.5583 32.3226 8.9095 31.4381C10.5588 30.4064 11.6667 28.5848 11.6667 26.5C11.6667 23.2833 9.05 20.6666 5.83333 20.6666ZM19.1667 20.6666C15.95 20.6666 13.3333 23.2833 13.3333 26.5C13.3333 28.5848 14.4412 30.4064 16.0905 31.4381C14.4417 32.3226 13.3333 33.8803 13.3333 35.6666C13.3333 36.5883 14.0783 37.3333 15 37.3333H23.3333C24.255 37.3333 25 36.5883 25 35.6666C25 33.8803 23.8916 32.3226 22.2428 31.4381C23.8922 30.4064 25 28.5848 25 26.5C25 23.2833 22.3833 20.6666 19.1667 20.6666ZM32.5 20.6666C29.2833 20.6666 26.6667 23.2833 26.6667 26.5C26.6667 28.5848 27.7745 30.4064 29.4238 31.4381C27.7751 32.3226 26.6667 33.8803 26.6667 35.6666C26.6667 36.5883 27.4117 37.3333 28.3333 37.3333H36.6667C37.5883 37.3333 38.3333 36.5883 38.3333 35.6666C38.3333 33.8803 37.2249 32.3226 35.5762 31.4381C37.2255 30.4064 38.3333 28.5848 38.3333 26.5C38.3333 23.2833 35.7167 20.6666 32.5 20.6666Z" fill="#D8B00F"/>
</svg>
