<svg width="30" height="32" viewBox="0 0 30 32" fill="none" xmlns="http://www.w3.org/2000/svg">
<path d="M5 0.333374C4.11594 0.333374 3.2681 0.684563 2.64298 1.30968C2.01786 1.93481 1.66667 2.78265 1.66667 3.66671C1.66667 4.55076 2.01786 5.39861 2.64298 6.02373C3.2681 6.64885 4.11594 7.00004 5 7.00004C5.88405 7.00004 6.7319 6.64885 7.35702 6.02373C7.98214 5.39861 8.33333 4.55076 8.33333 3.66671C8.33333 2.78265 7.98214 1.93481 7.35702 1.30968C6.7319 0.684563 5.88405 0.333374 5 0.333374ZM13.3333 2.00004C12.4133 2.00004 11.6667 2.74671 11.6667 3.66671C11.6667 4.58671 12.4133 5.33337 13.3333 5.33337H26.6667V18.6667H15C14.08 18.6667 13.3333 19.4134 13.3333 20.3334C13.3333 21.2534 14.08 22 15 22H27.5C28.88 22 30 20.88 30 19.5V4.50004C30 3.12004 28.88 2.00004 27.5 2.00004H13.3333ZM3.33333 8.66671C1.49167 8.66671 0 10.1584 0 12V20.3334C0 21.2534 0.746667 22 1.66667 22H8.33333C9.25333 22 10 21.2534 10 20.3334V12H18.3333C19.2533 12 20 11.2534 20 10.3334C20 9.41337 19.2533 8.66671 18.3333 8.66671H10H8.33333H3.33333ZM5 25.3334C4.11594 25.3334 3.2681 25.6846 2.64298 26.3097C2.01786 26.9348 1.66667 27.7827 1.66667 28.6667C1.66667 29.5508 2.01786 30.3986 2.64298 31.0237C3.2681 31.6488 4.11594 32 5 32C5.88405 32 6.7319 31.6488 7.35702 31.0237C7.98214 30.3986 8.33333 29.5508 8.33333 28.6667C8.33333 27.7827 7.98214 26.9348 7.35702 26.3097C6.7319 25.6846 5.88405 25.3334 5 25.3334ZM15 25.3334C14.1159 25.3334 13.2681 25.6846 12.643 26.3097C12.0179 26.9348 11.6667 27.7827 11.6667 28.6667C11.6667 29.5508 12.0179 30.3986 12.643 31.0237C13.2681 31.6488 14.1159 32 15 32C15.8841 32 16.7319 31.6488 17.357 31.0237C17.9821 30.3986 18.3333 29.5508 18.3333 28.6667C18.3333 27.7827 17.9821 26.9348 17.357 26.3097C16.7319 25.6846 15.8841 25.3334 15 25.3334ZM25 25.3334C24.1159 25.3334 23.2681 25.6846 22.643 26.3097C22.0179 26.9348 21.6667 27.7827 21.6667 28.6667C21.6667 29.5508 22.0179 30.3986 22.643 31.0237C23.2681 31.6488 24.1159 32 25 32C25.8841 32 26.7319 31.6488 27.357 31.0237C27.9821 30.3986 28.3333 29.5508 28.3333 28.6667C28.3333 27.7827 27.9821 26.9348 27.357 26.3097C26.7319 25.6846 25.8841 25.3334 25 25.3334Z" fill="#D8B00F"/>
</svg>
