<svg xmlns="http://www.w3.org/2000/svg" width="24" height="24" viewBox="0 0 24 24" fill="none">
  <path d="M10.5416 11.1826C10.9733 11.471 11.4808 11.625 11.9999 11.625C12.6958 11.624 13.363 11.3472 13.8551 10.8551C14.3472 10.3629 14.6241 9.6956 14.625 8.99956L10.5416 11.1826ZM10.5416 11.1826C10.1099 10.8942 9.7735 10.4842 9.57482 10.0045M10.5416 11.1826L9.57482 10.0045M9.57482 10.0045C9.37614 9.52489 9.32415 8.99709 9.42544 8.48789M9.57482 10.0045L9.42544 8.48789M9.42544 8.48789C9.52672 7.97869 9.77673 7.51096 10.1438 7.14385M9.42544 8.48789L10.1438 7.14385M10.1438 7.14385C10.511 6.77673 10.9787 6.52673 11.4879 6.42544M10.1438 7.14385L11.4879 6.42544M11.4879 6.42544C11.9971 6.32415 12.5249 6.37614 13.0045 6.57482M11.4879 6.42544L13.0045 6.57482M13.0045 6.57482C13.4842 6.7735 13.8942 7.10995 14.1826 7.54163M13.0045 6.57482L14.1826 7.54163M14.1826 7.54163C14.471 7.97318 14.6249 8.48052 14.625 8.99953L14.1826 7.54163ZM18.9354 9.62502L19.2472 9.83336L18.9354 9.62502C18.8118 9.81002 18.6361 9.95422 18.4305 10.0394C18.225 10.1245 17.9988 10.1468 17.7805 10.1034C17.5623 10.06 17.3618 9.95283 17.2045 9.7955C17.0472 9.63816 16.94 9.43771 16.8966 9.21948C16.8532 9.00125 16.8755 8.77505 16.9606 8.56948C17.0458 8.36392 17.19 8.18822 17.375 8.0646C17.56 7.94098 17.7775 7.875 18 7.875C18.2984 7.875 18.5845 7.99353 18.7955 8.20451C19.0065 8.41549 19.125 8.70163 19.125 9C19.125 9.22251 19.059 9.44001 18.9354 9.62502ZM12.0004 7.125H12C11.6292 7.125 11.2666 7.23497 10.9583 7.441C10.65 7.64702 10.4096 7.93986 10.2677 8.28247C10.1258 8.62508 10.0887 9.00208 10.161 9.3658C10.2334 9.72951 10.412 10.0636 10.6742 10.3258C10.9364 10.5881 11.2705 10.7666 11.6342 10.839C11.9979 10.9113 12.3749 10.8742 12.7175 10.7323C13.0601 10.5904 13.353 10.35 13.559 10.0417C13.765 9.73335 13.875 9.37084 13.875 9V8.99963C13.8745 8.5026 13.6768 8.02607 13.3254 7.67462L13.0688 7.93123L13.3254 7.67461C12.9739 7.32316 12.4974 7.1255 12.0004 7.125ZM22.125 16.875V17.625H1.875V16.875H22.125ZM22.125 19.875V20.625H1.875V19.875H22.125ZM5.37498 8.0646C5.55999 7.94098 5.7775 7.875 6 7.875C6.29837 7.875 6.58452 7.99353 6.79549 8.20451C7.00647 8.41549 7.125 8.70163 7.125 9C7.125 9.22251 7.05902 9.44001 6.9354 9.62502C6.81179 9.81002 6.63609 9.95422 6.43052 10.0394C6.22495 10.1245 5.99875 10.1468 5.78052 10.1034C5.56229 10.06 5.36184 9.95283 5.2045 9.7955C5.04717 9.63816 4.94002 9.43771 4.89662 9.21948C4.85321 9.00125 4.87549 8.77505 4.96064 8.56948C5.04578 8.36392 5.18998 8.18822 5.37498 8.0646Z" stroke="#FFCC00" stroke-width="0.75"/>
  <path d="M21.375 4.5V4.125H21H3H2.625V4.5V13.5V13.875H3H21H21.375V13.5V4.5ZM2.2056 14.2944L1.94469 14.5553L2.2056 14.2944C1.99471 14.0835 1.87586 13.7977 1.875 13.4995V4.5005C1.87586 4.20227 1.99471 3.91649 2.2056 3.7056C2.41649 3.49471 2.70227 3.37586 3.0005 3.375H20.9995C21.2977 3.37586 21.5835 3.49471 21.7944 3.7056C22.0052 3.91643 22.1241 4.20211 22.125 4.50025C22.125 4.50048 22.125 4.50071 22.125 4.50093L22.125 13.4994C22.1246 13.7978 22.0058 14.0839 21.7948 14.2948C21.5839 14.5058 21.2978 14.6246 20.9994 14.625L3.00093 14.625C3.00081 14.625 3.00069 14.625 3.00057 14.625C2.70232 14.6242 2.41651 14.5053 2.2056 14.2944Z" fill="#FCFCFC" stroke="#FFCC00" stroke-width="0.75"/>
</svg>