<svg width="334" height="276" viewBox="0 0 334 276" fill="none" xmlns="http://www.w3.org/2000/svg">
<path d="M163.74 173.415C158.55 169.421 151.932 172.731 146.746 175.726C136.316 181.745 128.242 186.989 128.242 186.989C127.324 178.731 118.348 178.64 110.015 180.468C98.249 183.048 94.2079 184.879 82.4441 187.461C80.2775 182.984 77.1323 179.052 73.2412 175.955L71.396 171.521C69.6255 171.373 67.8724 171.062 66.1592 170.591C56.3069 167.41 45.1139 165.808 35.0661 168.054C32.8142 168.559 29.2532 169.587 24.1943 170.961L33.2454 210.833C39.8439 209.806 50.9792 215.789 70.9055 217.086C103.442 219.199 141.755 201.923 160.096 189.836C168.414 184.352 168.125 176.79 163.74 173.415Z" fill="#0E1416"/>
<path d="M71.3921 171.522C69.6217 171.373 67.8687 171.061 66.1553 170.591C46.5624 164.265 37.246 167.418 24.1904 170.961" stroke="#FFCC00" stroke-linecap="round" stroke-linejoin="round"/>
<path d="M75.4824 129.126L156.513 95.4072" stroke="#FFCC00" stroke-linecap="round" stroke-linejoin="round"/>
<path d="M81.2256 142.923L125.884 124.341" stroke="#FFCC00" stroke-linecap="round" stroke-linejoin="round"/>
<path d="M86.7578 156.221L131.507 137.603" stroke="#FFCC00" stroke-linecap="round" stroke-linejoin="round"/>
<path d="M92.0957 169.044L173.07 135.348" stroke="#FFCC00" stroke-linecap="round" stroke-linejoin="round"/>
<path d="M33.2366 210.833L24.1856 170.961C18.4948 172.506 10.9188 174.485 1.16602 176.643C3.04955 186.699 6.88468 203.578 9.35998 214.989C18.7584 213.128 22.2252 212.543 33.2366 210.833Z" stroke="#FFCC00" stroke-linecap="round" stroke-linejoin="round"/>
<path d="M22.8098 206.064C23.3398 206.08 23.8676 205.989 24.3619 205.797C24.8563 205.605 25.307 205.316 25.6875 204.946C26.068 204.577 26.3704 204.135 26.577 203.647C26.7836 203.158 26.89 202.633 26.89 202.103C26.89 201.573 26.7836 201.048 26.577 200.56C26.3704 200.071 26.068 199.629 25.6875 199.26C25.307 198.891 24.8563 198.601 24.3619 198.409C23.8676 198.217 23.3398 198.127 22.8098 198.142C21.7797 198.173 20.802 198.604 20.0842 199.343C19.3663 200.083 18.9648 201.073 18.9648 202.103C18.9648 203.134 19.3663 204.124 20.0842 204.863C20.802 205.603 21.7797 206.033 22.8098 206.064Z" stroke="#FFCC00" stroke-linecap="round" stroke-linejoin="round"/>
<path d="M163.74 173.416C158.55 169.422 151.933 172.731 146.746 175.727C136.316 181.746 128.243 186.99 128.243 186.99C127.324 178.731 118.348 178.639 110.015 180.468C98.2511 183.048 94.2082 184.879 82.4445 187.461C72.8243 167.718 48.5881 165.028 35.0612 168.055C32.8111 168.559 29.2483 169.588 24.1895 170.961L33.2405 210.833C39.8407 209.807 50.9743 215.789 70.9006 217.086C103.437 219.2 141.75 201.924 160.092 189.837C168.415 184.35 168.125 176.79 163.74 173.416Z" stroke="#FFCC00" stroke-linecap="round" stroke-linejoin="round"/>
<path d="M128.247 186.989C128.879 192.654 123.822 196.011 118.463 197.955C116.15 198.793 116.314 198.683 87.7939 206.804" stroke="#FFCC00" stroke-linecap="round" stroke-linejoin="round"/>
<path d="M164.731 174.323L185.716 165.595L173.546 136.338C173.001 135.025 172.179 133.846 171.134 132.881C170.09 131.916 168.85 131.189 167.498 130.75C166.146 130.31 164.714 130.169 163.303 130.335C161.891 130.502 160.532 130.972 159.319 131.714C149.858 137.562 151.453 138.119 147.173 139.899C144.156 141.156 140.818 141.418 137.642 140.649C134.466 139.88 131.617 138.12 129.509 135.623C128.11 133.966 127.077 132.033 126.477 129.949C125.511 126.74 125.635 123.301 126.831 120.171C128.028 117.04 130.228 114.394 133.088 112.647C138.286 109.44 139.431 111.275 149.683 108.782C151.072 108.45 152.372 107.821 153.494 106.938C154.616 106.055 155.533 104.94 156.182 103.668C156.831 102.397 157.197 100.999 157.254 99.5728C157.311 98.1463 157.058 96.7244 156.512 95.4051L144.293 66.0332L44.7363 107.46L73.2371 175.955" stroke="#FFCC00" stroke-linecap="round" stroke-linejoin="round"/>
<path d="M268.882 158.267C270.226 162.036 271.619 165.788 273.061 169.521C281.48 191.46 273.532 213.54 273.166 215.431" stroke="#FFCC00" stroke-linecap="round" stroke-linejoin="round"/>
<path d="M304.421 158.267H332.835V50.4375H225.004V82.2498C225 83.6774 224.688 85.0873 224.087 86.3825C223.486 87.6777 222.612 88.8274 221.525 89.7525C220.437 90.6772 219.162 91.355 217.787 91.7389C216.411 92.1229 214.969 92.2039 213.56 91.9764C210.546 91.5719 207.575 90.8924 204.685 89.9462C202.376 89.081 199.892 88.7834 197.444 89.0787C194.996 89.3739 192.654 90.2533 190.617 91.6427C188.579 93.0321 186.906 94.8909 185.737 97.0624C184.568 99.2339 183.938 101.654 183.9 104.12C183.863 106.586 184.418 109.025 185.52 111.231C186.622 113.437 188.238 115.346 190.232 116.797C192.226 118.249 194.539 119.199 196.977 119.569C199.416 119.939 201.907 119.718 204.242 118.924C207.317 117.996 210.458 117.304 213.638 116.853C215.044 116.632 216.481 116.719 217.85 117.107C219.218 117.495 220.487 118.176 221.567 119.101C222.648 120.027 223.514 121.176 224.108 122.47C224.701 123.763 225.007 125.169 225.004 126.592V158.273H285.858" stroke="#FFCC00" stroke-linecap="round" stroke-linejoin="round"/>
<path d="M224.833 82.2498H312.428" stroke="#FFCC00" stroke-linecap="round" stroke-linejoin="round"/>
<path d="M185.717 97.1963H312.428" stroke="#FFCC00" stroke-linecap="round" stroke-linejoin="round"/>
<path d="M185.707 111.599H312.429" stroke="#FFCC00" stroke-linecap="round" stroke-linejoin="round"/>
<path d="M224.833 125.487H312.428" stroke="#FFCC00" stroke-linecap="round" stroke-linejoin="round"/>
<path d="M313.659 243.954L273.438 251.301C275.193 259.009 276.759 266.757 278.136 274.541C288.261 273.089 305.291 269.973 316.796 267.986C315.339 258.518 314.901 255.028 313.659 243.954ZM304.495 257.961C303.711 257.962 302.945 257.73 302.294 257.294C301.642 256.859 301.135 256.24 300.836 255.515C300.536 254.792 300.458 253.995 300.611 253.227C300.763 252.459 301.14 251.753 301.693 251.198C302.248 250.646 302.954 250.27 303.722 250.118C304.49 249.966 305.285 250.044 306.009 250.344C306.732 250.644 307.35 251.151 307.786 251.802C308.221 252.452 308.454 253.217 308.456 254C308.456 255.051 308.039 256.058 307.295 256.8C306.927 257.168 306.491 257.46 306.011 257.66C305.53 257.859 305.015 257.961 304.495 257.961Z" fill="#1F2C2C"/>
<path d="M313.659 243.954L273.438 251.301C275.193 259.009 276.759 266.757 278.136 274.541C288.261 273.087 305.291 269.974 316.796 267.986C315.339 258.518 314.901 255.028 313.659 243.954Z" stroke="#FFCC00" stroke-linecap="round" stroke-linejoin="round"/>
<path d="M304.494 257.961C305.024 257.976 305.552 257.885 306.047 257.693C306.541 257.502 306.992 257.212 307.372 256.843C307.753 256.474 308.055 256.032 308.262 255.543C308.468 255.055 308.575 254.53 308.575 254C308.575 253.469 308.468 252.945 308.262 252.456C308.055 251.968 307.753 251.526 307.372 251.156C306.992 250.787 306.541 250.498 306.047 250.306C305.552 250.114 305.024 250.023 304.494 250.039C303.464 250.069 302.487 250.5 301.769 251.24C301.051 251.979 300.649 252.969 300.649 254C300.649 255.03 301.051 256.02 301.769 256.76C302.487 257.499 303.464 257.93 304.494 257.961Z" stroke="#FFCC00" stroke-linecap="round" stroke-linejoin="round"/>
<path d="M310.575 158.265H304.42C301.115 147.779 294.564 146.466 290.247 149.201C281.137 154.976 288.365 170.751 292.403 193.8C272.269 202.572 268.549 226.672 270.998 240.316C271.407 242.585 272.283 246.187 273.442 251.301L313.663 243.954C312.918 237.321 319.019 226.405 321.518 206.598C322.829 196.108 317.454 174.944 310.575 158.265Z" stroke="#FFCC00" stroke-linecap="round" stroke-linejoin="round"/>
<path d="M304.42 158.265C305.16 160.613 305.054 160.431 311.956 189.284" stroke="#FFCC00" stroke-linecap="round" stroke-linejoin="round"/>
<path d="M247.758 46.557C242.859 30.9442 232.255 17.7523 218.059 9.61355C203.864 1.47475 187.121 -1.01253 171.173 2.648C155.224 6.30853 141.243 15.8477 132.017 29.3622C122.791 42.8766 119.001 59.3726 121.401 75.5588" stroke="#FFCC00" stroke-linecap="round" stroke-linejoin="round"/>
<path d="M248.889 46.3945C248.358 46.3943 247.833 46.4986 247.342 46.7016C246.851 46.9046 246.406 47.2022 246.03 47.5774C245.655 47.9527 245.357 48.3982 245.153 48.8886C244.95 49.3791 244.845 49.9047 244.845 50.4357C244.844 50.9666 244.949 51.4923 245.152 51.9829C245.355 52.4735 245.652 52.9193 246.028 53.2949C246.403 53.6705 246.848 53.9685 247.339 54.1719C247.829 54.3752 248.355 54.48 248.886 54.4803C249.958 54.4807 250.987 54.0552 251.745 53.2974C252.504 52.5395 252.93 51.5114 252.93 50.4391C252.931 49.3669 252.505 48.3384 251.748 47.5799C250.99 46.8214 249.962 46.395 248.889 46.3945Z" fill="#1F2C2C"/>
<path d="M248.889 46.3945C248.358 46.3943 247.833 46.4986 247.342 46.7016C246.851 46.9046 246.406 47.2022 246.03 47.5774C245.655 47.9527 245.357 48.3982 245.153 48.8886C244.95 49.3791 244.845 49.9047 244.845 50.4357C244.844 50.9666 244.949 51.4923 245.152 51.9829C245.355 52.4735 245.652 52.9193 246.028 53.2949C246.403 53.6705 246.848 53.9685 247.339 54.1719C247.829 54.3752 248.355 54.48 248.886 54.4803C249.958 54.4807 250.987 54.0552 251.745 53.2974C252.504 52.5395 252.93 51.5114 252.93 50.4391C252.931 49.3669 252.505 48.3384 251.748 47.5799C250.99 46.8214 249.962 46.395 248.889 46.3945Z" stroke="#FFCC00" stroke-linecap="round" stroke-linejoin="round"/>
<path d="M306.958 35.1948L311.985 43.4883L317.9 31.0996" stroke="#FFCC00" stroke-linecap="round" stroke-linejoin="round"/>
<path d="M229.845 189.805L241.343 201.303" stroke="#FFCC00" stroke-linecap="round" stroke-linejoin="round"/>
<path d="M229.845 201.303L241.343 189.805" stroke="#FFCC00" stroke-linecap="round" stroke-linejoin="round"/>
<path d="M63.5938 235.233L69.4591 241.099" stroke="#FFCC00" stroke-linecap="round" stroke-linejoin="round"/>
<path d="M63.5938 241.099L69.4591 235.233" stroke="#FFCC00" stroke-linecap="round" stroke-linejoin="round"/>
<path d="M50.2637 73.6074H66.5259" stroke="#FFCC00" stroke-linecap="round" stroke-linejoin="round"/>
<path d="M58.3945 81.7388V65.4766" stroke="#FFCC00" stroke-linecap="round" stroke-linejoin="round"/>
<path d="M91.041 31.0996H99.9105" stroke="#FFCC00" stroke-linecap="round" stroke-linejoin="round"/>
<path d="M95.4766 35.5338V26.666" stroke="#FFCC00" stroke-linecap="round" stroke-linejoin="round"/>
<path d="M175.442 235.443C176.189 234.697 176.608 233.685 176.609 232.629C176.609 231.574 176.19 230.561 175.444 229.815C174.697 229.068 173.685 228.648 172.63 228.648C171.574 228.648 170.562 229.067 169.815 229.813C169.068 230.56 168.649 231.572 168.649 232.627C168.648 233.683 169.067 234.695 169.814 235.442C170.56 236.188 171.572 236.608 172.628 236.608C173.683 236.609 174.696 236.189 175.442 235.443Z" stroke="#FFCC00" stroke-linecap="round" stroke-linejoin="round"/>
</svg>
