<svg width="333" height="240" viewBox="0 0 333 240" fill="none" xmlns="http://www.w3.org/2000/svg">
<path d="M204.959 49.6122L166.272 3.66211L112.046 68.0687" stroke="#FFCC00" stroke-linecap="round" stroke-linejoin="round"/>
<path d="M270.222 127.13L229.063 78.2441" stroke="#FFCC00" stroke-linecap="round" stroke-linejoin="round"/>
<path d="M247.379 200.262H331.792L289.532 150.066" stroke="#FFCC00" stroke-linecap="round" stroke-linejoin="round"/>
<path d="M110.639 69.741L0.75 200.261H214.781" stroke="#FFCC00" stroke-linecap="round" stroke-linejoin="round"/>
<path d="M255.414 232.097L245.207 209.108C242.507 210.995 239.458 212.324 236.238 213.019L246.471 236.061C246.864 236.945 247.51 237.693 248.328 238.21C249.146 238.727 250.098 238.991 251.066 238.967C251.87 238.947 252.657 238.728 253.356 238.331C254.056 237.933 254.647 237.37 255.077 236.69C255.507 236.01 255.762 235.234 255.821 234.432C255.88 233.63 255.74 232.825 255.414 232.09V232.097Z" fill="#1F2C2C"/>
<path d="M255.414 232.097L245.207 209.108C242.507 210.995 239.458 212.324 236.238 213.019L246.471 236.061C246.864 236.945 247.51 237.693 248.328 238.21C249.146 238.727 250.098 238.991 251.066 238.967C251.87 238.947 252.657 238.728 253.356 238.331C254.056 237.933 254.647 237.37 255.077 236.69C255.507 236.01 255.762 235.234 255.821 234.432C255.88 233.63 255.74 232.825 255.414 232.09V232.097Z" stroke="#FFCC00" stroke-linecap="round" stroke-linejoin="round"/>
<path d="M221.1 166.478C218.147 167.79 215.482 169.67 213.256 172.011C211.03 174.352 209.287 177.109 208.126 180.125C206.966 183.14 206.411 186.354 206.492 189.583C206.574 192.813 207.291 195.995 208.602 198.948C209.914 201.9 211.794 204.566 214.135 206.792C216.477 209.018 219.233 210.761 222.249 211.921C225.264 213.082 228.478 213.637 231.707 213.555C234.937 213.474 238.119 212.757 241.072 211.445C247.035 208.797 251.701 203.888 254.045 197.799C256.389 191.71 256.218 184.939 253.569 178.976C250.921 173.013 246.012 168.346 239.923 166.002C233.834 163.659 227.063 163.83 221.1 166.478ZM239.127 207.085C234.629 209.077 229.551 209.326 224.879 207.783C220.207 206.241 216.276 203.016 213.849 198.737C211.421 194.458 210.671 189.429 211.744 184.628C212.817 179.827 215.637 175.596 219.655 172.757C222.859 170.497 226.662 169.239 230.582 169.139C234.503 169.04 238.364 170.105 241.679 172.2C244.157 173.768 246.257 175.865 247.827 178.341C249.398 180.818 250.399 183.611 250.76 186.521C251.121 189.431 250.832 192.385 249.914 195.17C248.996 197.955 247.472 200.501 245.451 202.627C243.657 204.514 241.508 206.029 239.127 207.085Z" fill="#0E1416"/>
<path d="M253.569 178.978C251.594 174.532 248.345 170.771 244.233 168.171C241.158 166.229 237.691 164.993 234.082 164.551C230.472 164.11 226.809 164.474 223.356 165.617C219.904 166.76 216.748 168.654 214.115 171.163C211.483 173.672 209.439 176.733 208.13 180.127C206.382 184.667 206.019 189.624 207.089 194.37C208.158 199.117 210.611 203.439 214.137 206.791C218.262 210.711 223.619 213.079 229.294 213.493C234.969 213.907 240.612 212.34 245.262 209.06C249.912 205.78 253.282 200.99 254.796 195.505C256.311 190.02 255.877 184.179 253.569 178.978Z" stroke="#FFCC00" stroke-linecap="round" stroke-linejoin="round"/>
<path d="M239.127 207.085C234.628 209.077 229.55 209.326 224.879 207.783C220.207 206.24 216.276 203.016 213.848 198.737C211.421 194.458 210.671 189.429 211.744 184.628C212.817 179.827 215.636 175.596 219.654 172.757C222.859 170.497 226.662 169.238 230.582 169.139C234.502 169.04 238.364 170.105 241.679 172.2C244.157 173.767 246.257 175.865 247.827 178.341C249.397 180.817 250.399 183.611 250.76 186.521C251.121 189.431 250.832 192.385 249.914 195.17C248.996 197.955 247.472 200.501 245.451 202.626C243.657 204.514 241.507 206.029 239.127 207.085Z" stroke="#FFCC00" stroke-linecap="round" stroke-linejoin="round"/>
<path d="M91.9678 209.709L104.095 221.834" stroke="#FFCC00" stroke-linecap="round" stroke-linejoin="round"/>
<path d="M91.9678 221.834L104.095 209.709" stroke="#FFCC00" stroke-linecap="round" stroke-linejoin="round"/>
<path d="M104.24 14.2549H121.389" stroke="#FFCC00" stroke-linecap="round" stroke-linejoin="round"/>
<path d="M112.814 22.827V5.67969" stroke="#FFCC00" stroke-linecap="round" stroke-linejoin="round"/>
<path d="M82.2188 5.67969H91.5736" stroke="#FFCC00" stroke-linecap="round" stroke-linejoin="round"/>
<path d="M86.8955 10.3565V1" stroke="#FFCC00" stroke-linecap="round" stroke-linejoin="round"/>
<path d="M238.672 32.291L203.498 36.0965L207.722 75.1706L242.897 71.3668L238.672 32.291Z" fill="#0E1416"/>
<path d="M232.779 27.5496L208.242 30.2012C206.832 30.3537 205.539 31.0602 204.65 32.1653C203.76 33.2705 203.345 34.6838 203.498 36.0944L207.72 75.1685C207.796 75.8671 208.008 76.5439 208.345 77.1605C208.682 77.777 209.137 78.3211 209.684 78.7617C210.231 79.2024 210.86 79.5308 211.534 79.7284C212.208 79.9259 212.915 79.9887 213.614 79.9131L238.15 77.2615C239.561 77.1091 240.853 76.4026 241.743 75.2974C242.633 74.1922 243.047 72.7789 242.895 71.3683L238.674 32.2942C238.598 31.5956 238.386 30.9187 238.049 30.3021C237.712 29.6856 237.256 29.1415 236.709 28.7009C236.162 28.2603 235.533 27.9318 234.858 27.7343C234.184 27.5368 233.477 27.474 232.779 27.5496Z" stroke="#FFCC00" stroke-linecap="round" stroke-linejoin="round"/>
<path d="M242.899 71.3682L207.721 75.1684" stroke="#FFCC00" stroke-linecap="round" stroke-linejoin="round"/>
<path d="M203.498 36.0942L238.674 32.2939" stroke="#FFCC00" stroke-linecap="round" stroke-linejoin="round"/>
<path d="M223.424 76.1614L227.765 75.6953" stroke="#FFCC00" stroke-linecap="round" stroke-linejoin="round"/>
<path d="M288.176 92.871L284.255 91.3331L265.001 140.45L301.28 154.671L302.818 150.749" stroke="#FFCC00" stroke-linecap="round" stroke-linejoin="round"/>
<path d="M294.33 90.7567L289.714 88.9482L270.46 138.065L306.739 152.286L308.548 147.671" stroke="#FFCC00" stroke-linecap="round" stroke-linejoin="round"/>
<path d="M296.138 86.1416L276.884 135.258L313.163 149.482L332.417 100.363L296.138 86.1416Z" stroke="#FFCC00" stroke-linecap="round" stroke-linejoin="round"/>
<path d="M300.69 102.806L318.108 109.635" stroke="#FFCC00" stroke-linecap="round" stroke-linejoin="round"/>
<path d="M298.524 108.341L315.944 115.166" stroke="#FFCC00" stroke-linecap="round" stroke-linejoin="round"/>
<path d="M296.53 113.421L313.948 120.248" stroke="#FFCC00" stroke-linecap="round" stroke-linejoin="round"/>
<path d="M294.573 118.418L311.993 125.247" stroke="#FFCC00" stroke-linecap="round" stroke-linejoin="round"/>
<path d="M77.273 151.274H9.84473V112.774H77.273V142.981L90.524 145.646L77.273 151.274Z" fill="#0E1416"/>
<path d="M77.273 151.274H9.84473V112.774H77.273V142.981L90.524 145.646L77.273 151.274Z" stroke="#FFCC00" stroke-linecap="round" stroke-linejoin="round"/>
<path d="M27.7744 125.378H59.1485" stroke="#FFCC00" stroke-linecap="round" stroke-linejoin="round"/>
<path d="M27.7744 132.013H59.1485" stroke="#FFCC00" stroke-linecap="round" stroke-linejoin="round"/>
<path d="M27.7744 138.671H59.1485" stroke="#FFCC00" stroke-linecap="round" stroke-linejoin="round"/>
<path d="M100.447 66.7424H46.6865V33.6279H104.681V59.6081L114.485 70.8708L100.447 66.7424Z" stroke="#FFCC00" stroke-linecap="round" stroke-linejoin="round"/>
<path d="M72.0046 45.4509C71.8475 43.6127 73.3191 42.2913 75.4749 42.3088C76.0545 42.3554 76.6121 42.5514 77.0935 42.8775C77.5748 43.2037 77.9635 43.6489 78.2217 44.1699C78.4799 44.6909 78.5988 45.2698 78.5668 45.8504C78.5349 46.4309 78.3531 46.9933 78.0393 47.4828C77.341 48.6367 76.037 49.2878 75.2114 50.3526C74.3857 51.4174 75.1468 53.6937 75.1468 53.6937" stroke="#FFCC00" stroke-linecap="round" stroke-linejoin="round"/>
<path d="M75.292 58.6077V57" stroke="#FFCC00" stroke-linecap="round" stroke-linejoin="round"/>
<path d="M138.424 163.5C134.318 175.382 131.713 187.731 130.67 200.259H193.935C192.545 187.722 189.714 175.388 185.497 163.5H138.424Z" fill="#1F2C2C"/>
<path d="M138.424 163.5C134.318 175.382 131.713 187.731 130.67 200.259H193.935C192.545 187.722 189.714 175.388 185.497 163.5H138.424Z" stroke="#FFCC00" stroke-linecap="round" stroke-linejoin="round"/>
<path d="M140.758 156.698C139.92 159.042 139.162 161.256 138.464 163.384H185.461C184.73 161.174 183.953 158.864 183.119 156.366" stroke="#FFCC00" stroke-linecap="round" stroke-linejoin="round"/>
<path d="M189.932 99.7517C184.695 90.3254 177.976 89.7406 169.937 84.9314H160.872C150.894 88.6618 137.048 92.38 130.973 97.7321C125.059 102.943 121.721 114.403 120.15 122.125C116.182 116.162 113.079 107.207 109.704 99.4323L92.4629 109.382C94.8719 120.755 105.468 170.289 135.65 147.294C136.999 149.619 139.061 153.218 140.761 156.699L166.655 156.401C173.591 158.103 183.192 158.199 188.525 153.379C196.15 146.487 197.513 113.42 189.932 99.7517Z" stroke="#FFCC00" stroke-linecap="round" stroke-linejoin="round"/>
<path d="M135.646 106.605C133.927 111.692 125.31 120.546 129.095 128.759" stroke="#FFCC00" stroke-linecap="round" stroke-linejoin="round"/>
<path d="M142.543 136.419C143.514 131.007 145.493 126.833 146.965 127.097C148.436 127.361 148.843 131.962 147.873 137.374C146.902 142.785 144.922 146.957 143.451 146.693C141.979 146.43 141.573 141.83 142.543 136.419Z" fill="#1F2C2C"/>
<path d="M142.543 136.419C143.514 131.007 145.493 126.833 146.965 127.097C148.436 127.361 148.843 131.962 147.873 137.374C146.902 142.785 144.922 146.957 143.451 146.693C141.979 146.43 141.573 141.83 142.543 136.419Z" stroke="#FFCC00" stroke-linecap="round" stroke-linejoin="round"/>
<path d="M122.191 129.894C116.623 132.406 113.676 137.595 111.419 140.182C109.263 142.653 107.928 145.959 110.171 145.756C109.148 147.355 108.979 148.532 109.776 149.165C109.986 149.328 110.244 149.412 110.508 149.403C109.408 151.03 110.471 152.182 111.824 152.529C111.605 152.828 111.483 153.186 111.473 153.556C111.463 153.926 111.567 154.29 111.77 154.6C111.974 154.909 112.267 155.149 112.61 155.287C112.953 155.425 113.331 155.455 113.692 155.373C115.558 154.739 121.238 149.473 123.228 148.157C128.711 144.531 138.616 144.815 145.123 145.463C147.234 141.437 148.355 136.967 148.393 132.421C141.693 130.288 128.596 127.007 122.191 129.894Z" fill="#0E1416"/>
<path d="M122.191 129.894C116.623 132.406 113.676 137.595 111.419 140.182C109.263 142.653 107.928 145.959 110.171 145.756C109.148 147.355 108.979 148.532 109.776 149.165C109.986 149.328 110.244 149.412 110.508 149.403C109.408 151.03 110.471 152.182 111.824 152.529C111.605 152.828 111.483 153.186 111.473 153.556C111.463 153.926 111.567 154.29 111.77 154.6C111.974 154.909 112.267 155.149 112.61 155.287C112.953 155.425 113.331 155.455 113.692 155.373C115.558 154.739 121.238 149.473 123.228 148.157C128.711 144.531 138.616 144.815 145.123 145.463C147.234 141.437 148.355 136.967 148.393 132.421C141.693 130.288 128.596 127.007 122.191 129.894Z" stroke="#FFCC00" stroke-linecap="round" stroke-linejoin="round"/>
<path d="M122.769 141.746C120.136 142.532 113.934 150.057 111.818 152.529" stroke="#FFCC00" stroke-linecap="round" stroke-linejoin="round"/>
<path d="M121.46 138.62C118.827 139.406 112.634 146.924 110.508 149.403" stroke="#FFCC00" stroke-linecap="round" stroke-linejoin="round"/>
<path d="M120.074 135.905C117.841 136.57 113.694 141.631 110.171 145.756" stroke="#FFCC00" stroke-linecap="round" stroke-linejoin="round"/>
<path d="M143.451 146.697C150.977 150.353 158.621 154.497 166.652 156.403" stroke="#FFCC00" stroke-linecap="round" stroke-linejoin="round"/>
<path d="M146.965 127.097C159.902 128.345 164.442 131.019 175.256 133.821C175.254 126.108 174.787 118.403 173.86 110.747" stroke="#FFCC00" stroke-linecap="round" stroke-linejoin="round"/>
<path d="M99.7267 102.058C104.489 99.3084 108.954 98.1301 109.701 99.4253C110.448 100.721 107.196 103.997 102.434 106.746C97.6721 109.496 93.2086 110.674 92.4597 109.381C91.7108 108.087 94.9664 104.802 99.7267 102.058Z" fill="#1F2C2C"/>
<path d="M99.7267 102.058C104.489 99.3084 108.954 98.1301 109.701 99.4253C110.448 100.721 107.196 103.997 102.434 106.746C97.6721 109.496 93.2086 110.674 92.4597 109.381C91.7108 108.087 94.9664 104.802 99.7267 102.058Z" stroke="#FFCC00" stroke-linecap="round" stroke-linejoin="round"/>
<path d="M102.104 84.4636C103.478 80.6041 102.743 75.4196 101.685 71.0223C101.362 69.6764 98.7175 69.5717 98.3684 70.8914C97.2058 75.8804 98.742 77.455 96.8637 80.8415C92.4769 83.0532 87.5438 81.1766 83.1483 78.9789C80.4601 77.5781 77.6569 76.41 74.7693 75.4876C72.4424 74.7894 70.613 77.1757 72.4651 78.4814C74.476 79.8988 76.0419 80.6809 78.3042 82.0529C75.6292 81.2416 72.9067 80.5962 70.1521 80.1205C67.5337 79.6457 65.8038 82.3724 67.9963 83.5629C67.6451 83.6371 67.323 83.8116 67.069 84.0651C66.815 84.3187 66.64 84.6405 66.5652 84.9915C66.4904 85.3426 66.5189 85.7078 66.6475 86.0429C66.776 86.378 66.9989 86.6686 67.2893 86.8796C68.2477 87.419 69.2269 87.9147 70.2289 88.3669C68.2215 88.1452 66.9122 90.2661 68.6422 91.2052C74.1915 94.2112 85.5119 97.8177 91.2253 99.9648C91.8817 100.213 93.6692 107.015 94.4914 109.862C99.414 108.751 103.961 106.371 107.685 102.964C107.032 101.166 101.472 86.2581 102.104 84.4636ZM70.2412 88.3634C72.7357 89.1489 75.3122 90.1439 81.7309 92.0623C78.7493 91.1668 70.2412 88.3616 70.2412 88.3616V88.3634Z" fill="#0E1416"/>
<path d="M68.0085 83.5646L82.5077 87.728M70.2412 88.3634C72.7357 89.1489 75.3122 90.1439 81.7309 92.0623M102.104 84.4636C103.478 80.6041 102.743 75.4196 101.685 71.0223C101.362 69.6764 98.7175 69.5717 98.3684 70.8914C97.2058 75.8804 98.742 77.455 96.8637 80.8415C92.4769 83.0532 87.5438 81.1766 83.1483 78.9789C80.4601 77.5781 77.6569 76.41 74.7693 75.4876C72.4424 74.7894 70.613 77.1757 72.4651 78.4814C74.476 79.8988 76.0419 80.6809 78.3042 82.0529C75.6292 81.2416 72.9067 80.5962 70.1521 80.1205C67.5337 79.6457 65.8038 82.3724 67.9963 83.5629C67.6451 83.6371 67.323 83.8116 67.069 84.0651C66.815 84.3187 66.64 84.6405 66.5652 84.9915C66.4904 85.3426 66.5189 85.7078 66.6475 86.0429C66.776 86.378 66.9989 86.6686 67.2893 86.8796C68.2477 87.419 69.2269 87.9147 70.2289 88.3669C68.2215 88.1452 66.9122 90.2661 68.6422 91.2052C74.1915 94.2112 85.5119 97.8177 91.2253 99.9648C91.8817 100.213 93.6692 107.015 94.4914 109.862C99.414 108.751 103.961 106.371 107.685 102.964C107.032 101.166 101.472 86.2581 102.104 84.4636Z" stroke="#FFCC00" stroke-linecap="round" stroke-linejoin="round"/>
<path d="M78.3164 82.0547L83.9234 83.5629" stroke="#FFCC00" stroke-linecap="round" stroke-linejoin="round"/>
<path d="M183.356 48.7673C182.817 47.8395 182.1 47.0272 181.246 46.3769C180.392 45.7266 179.419 45.2511 178.381 44.9776C177.343 44.704 176.262 44.6378 175.198 44.7828C174.135 44.9278 173.111 45.2811 172.184 45.8225C168.289 48.0918 169.243 56.9945 169.243 56.9945C169.243 56.9945 176.513 62.2086 180.415 59.9393C181.342 59.3997 182.154 58.6824 182.804 57.8286C183.454 56.9747 183.929 56.0011 184.202 54.9634C184.476 53.9257 184.541 52.8443 184.396 51.7811C184.251 50.7179 183.897 49.6937 183.356 48.7673Z" fill="#1F2C2C"/>
<path d="M183.356 48.7673C182.817 47.8395 182.1 47.0272 181.246 46.3769C180.392 45.7266 179.419 45.2511 178.381 44.9776C177.343 44.704 176.262 44.6378 175.198 44.7828C174.135 44.9278 173.111 45.2811 172.184 45.8225C168.289 48.0918 169.243 56.9945 169.243 56.9945C169.243 56.9945 176.513 62.2086 180.415 59.9393C181.342 59.3997 182.154 58.6824 182.804 57.8286C183.454 56.9747 183.929 56.0011 184.202 54.9634C184.476 53.9257 184.541 52.8443 184.396 51.7811C184.251 50.7179 183.897 49.6937 183.356 48.7673Z" stroke="#FFCC00" stroke-linecap="round" stroke-linejoin="round"/>
<path d="M153.521 63.1007C153.521 69.9854 157.112 74.3163 163.995 74.3163C166.904 74.3553 169.735 73.3755 171.997 71.5468C174.26 69.7181 175.811 67.1556 176.383 64.3033C176.955 61.451 176.511 58.4886 175.128 55.9292C173.745 53.3698 171.51 51.3747 168.811 50.2896C167.282 49.6719 165.645 49.364 163.995 49.3836C157.11 49.3836 153.521 56.2159 153.521 63.1007Z" fill="#1F2C2C"/>
<path d="M153.521 63.1007C153.521 69.9854 157.112 74.3163 163.995 74.3163C166.904 74.3553 169.735 73.3755 171.997 71.5468C174.26 69.7181 175.811 67.1556 176.383 64.3033C176.955 61.451 176.511 58.4886 175.128 55.9292C173.745 53.3698 171.51 51.3747 168.811 50.2896C167.282 49.6719 165.645 49.364 163.995 49.3836C157.11 49.3836 153.521 56.2159 153.521 63.1007Z" stroke="#FFCC00" stroke-linecap="round" stroke-linejoin="round"/>
<path d="M172.018 59.2937C171.201 58.2236 168.747 59.5416 167.549 60.6134C167.452 56.9197 165.629 53.8875 162.854 53.2975C159.362 52.5591 155.697 55.9404 154.661 60.8508C154.239 62.4004 154.207 64.0307 154.57 65.5955C154.932 67.1602 155.678 68.6105 156.739 69.8163L155.201 86.9409C155.201 86.9409 155.714 90.4601 160.729 90.4601C170.005 90.4601 172.076 86.1414 172.076 86.1414C170.786 80.4472 168.958 72.0734 167.202 64.1658C170.348 63.7381 172.844 60.376 172.018 59.2937Z" fill="#0E1416"/>
<path d="M172.018 59.2937C171.201 58.2236 168.747 59.5416 167.549 60.6134C167.452 56.9197 165.629 53.8875 162.854 53.2975C159.362 52.5591 155.697 55.9404 154.661 60.8508C154.239 62.4004 154.207 64.0307 154.57 65.5955C154.932 67.1602 155.678 68.6105 156.739 69.8163L155.201 86.9409C155.201 86.9409 155.714 90.4601 160.729 90.4601C170.005 90.4601 172.076 86.1414 172.076 86.1414C170.786 80.4472 168.958 72.0734 167.202 64.1658C170.348 63.7381 172.844 60.376 172.018 59.2937Z" stroke="#FFCC00" stroke-linecap="round" stroke-linejoin="round"/>
<path d="M164.156 68.748C162.697 71.8902 159.387 73.9186 156.44 72.6757L156.737 69.8164C157.872 70.6334 159.279 70.9786 160.662 70.7793C162.046 70.5801 163.298 69.8519 164.156 68.748Z" fill="#1F2C2C"/>
<path d="M164.156 68.748C162.697 71.8902 159.387 73.9186 156.44 72.6757L156.737 69.8164C157.872 70.6334 159.279 70.9786 160.662 70.7793C162.046 70.5801 163.298 69.8519 164.156 68.748Z" stroke="#FFCC00" stroke-linecap="round" stroke-linejoin="round"/>
<path d="M155.29 69.322C155.29 74.8382 151.682 79.3105 147.232 79.3105C142.782 79.3105 139.178 74.8382 139.178 69.322" stroke="#FFCC00" stroke-linecap="round" stroke-linejoin="round"/>
<path d="M139.178 60.5488C140.341 60.5488 141.457 61.011 142.28 61.8337C143.102 62.6564 143.565 63.7722 143.565 64.9356C143.565 66.099 143.102 67.2148 142.28 68.0375C141.457 68.8602 140.341 69.3223 139.178 69.3223C138.014 69.3223 136.899 68.8602 136.076 68.0375C135.253 67.2148 134.791 66.099 134.791 64.9356C134.791 63.7722 135.253 62.6564 136.076 61.8337C136.899 61.011 138.014 60.5488 139.178 60.5488Z" fill="#1F2C2C"/>
<path d="M139.178 60.5488C140.341 60.5488 141.457 61.011 142.28 61.8337C143.102 62.6564 143.565 63.7722 143.565 64.9356C143.565 66.099 143.102 67.2148 142.28 68.0375C141.457 68.8602 140.341 69.3223 139.178 69.3223C138.014 69.3223 136.899 68.8602 136.076 68.0375C135.253 67.2148 134.791 66.099 134.791 64.9356C134.791 63.7722 135.253 62.6564 136.076 61.8337C136.899 61.011 138.014 60.5488 139.178 60.5488Z" stroke="#FFCC00" stroke-linecap="round" stroke-linejoin="round"/>
</svg>
