<svg xmlns="http://www.w3.org/2000/svg" width="24" height="24" viewBox="0 0 24 24" fill="none">
  <path d="M20 16.2461C20 15.9507 19.9418 15.6581 19.8287 15.3852C19.7156 15.1123 19.5499 14.8643 19.3409 14.6555C19.132 14.4466 18.8839 14.281 18.611 14.168C18.338 14.055 18.0454 13.997 17.75 13.9971H6.25C5.95449 13.997 5.66185 14.0551 5.38881 14.1681C5.11577 14.2811 4.86767 14.4468 4.65872 14.6558C4.44976 14.8648 4.28403 15.1129 4.171 15.3859C4.05798 15.6589 3.99987 15.9516 4 16.2471V17.1671C4 17.7381 4.178 18.2961 4.51 18.7621C6.053 20.9261 8.575 21.9981 11.996 21.9981C15.416 21.9981 17.941 20.9271 19.486 18.7631C19.8195 18.2973 19.9992 17.739 20 17.1661V16.2461ZM16.997 7.00209C16.9971 5.94905 16.6648 4.92284 16.0474 4.0698C15.4299 3.21676 14.5589 2.58044 13.5585 2.25156C12.5582 1.92269 11.4795 1.91805 10.4763 2.23831C9.47318 2.55858 8.59675 3.18739 7.972 4.03509C7.89954 4.01214 7.82401 4.00034 7.748 4.00009H5.25C5.05109 4.00009 4.86032 4.07911 4.71967 4.21976C4.57902 4.36041 4.5 4.55118 4.5 4.75009V10.2481C4.49974 10.6094 4.57067 10.9672 4.70876 11.3011C4.84684 11.635 5.04936 11.9384 5.30475 12.1939C5.56014 12.4495 5.86338 12.6522 6.19716 12.7906C6.53093 12.9289 6.8887 13.0001 7.25 13.0001H7.5V12.9961H7.51C7.67942 12.9964 7.84613 12.9535 7.9944 12.8715C8.14268 12.7895 8.26764 12.6712 8.35752 12.5276C8.44741 12.3839 8.49925 12.2198 8.50817 12.0506C8.51708 11.8814 8.48278 11.7127 8.40849 11.5605C8.3342 11.4082 8.22236 11.2774 8.08353 11.1803C7.94469 11.0832 7.78342 11.023 7.6149 11.0055C7.44639 10.9879 7.27618 11.0136 7.12032 11.08C6.96446 11.1464 6.82807 11.2514 6.724 11.3851C6.50744 11.2846 6.32418 11.1243 6.19588 10.923C6.06758 10.7217 5.99961 10.4878 6 10.2491V10.0001H6.748C7.128 10.0001 7.481 9.87809 7.768 9.67209C8.34639 10.5891 9.20715 11.2932 10.2206 11.6784C11.234 12.0636 12.3451 12.1089 13.3865 11.8076C14.428 11.5063 15.3433 10.8747 15.9945 10.0079C16.6457 9.14118 16.9975 8.08623 16.997 7.00209ZM6.997 6.89609C6.99554 6.96675 6.99554 7.03743 6.997 7.10809V8.24909C6.997 8.31539 6.97066 8.37898 6.92378 8.42587C6.87689 8.47275 6.8133 8.49909 6.747 8.49909H6V5.50109H6.998L6.997 6.89609Z" fill="#FFCC00"/>
</svg>