<svg xmlns="http://www.w3.org/2000/svg" width="24" height="24" viewBox="0 0 24 24" fill="none">
  <path d="M21.3353 12.0788L17.25 10.0373V5.25009C17.2499 5.11084 17.2111 4.97436 17.1378 4.85594C17.0646 4.73752 16.9598 4.64183 16.8353 4.57959L12.3353 2.32959C12.2312 2.27757 12.1164 2.25049 12 2.25049C11.8836 2.25049 11.7689 2.27757 11.6648 2.32959L7.16475 4.57959C7.04019 4.64183 6.93542 4.73752 6.86216 4.85594C6.78891 4.97436 6.75007 5.11084 6.75 5.25009V10.0366L2.66475 12.0788C2.54008 12.1411 2.43523 12.2369 2.36197 12.3555C2.28871 12.4741 2.24994 12.6107 2.25 12.7501V18.0001C2.25007 18.1393 2.28891 18.2758 2.36216 18.3942C2.43542 18.5127 2.54019 18.6083 2.66475 18.6706L7.16475 20.9206C7.26887 20.9725 7.38364 20.9996 7.5 20.9996C7.61636 20.9996 7.73113 20.9725 7.83525 20.9206L12 18.8393L16.1647 20.9221C16.2689 20.9741 16.3836 21.0011 16.5 21.0011C16.6164 21.0011 16.7311 20.9741 16.8353 20.9221L21.3353 18.6721C21.46 18.6097 21.565 18.5138 21.6382 18.3951C21.7115 18.2764 21.7502 18.1396 21.75 18.0001V12.7501C21.7501 12.6107 21.7113 12.4741 21.638 12.3555C21.5648 12.2369 21.4599 12.1411 21.3353 12.0788ZM15.75 10.0373L12.75 11.5373V7.96434L15.75 6.46434V10.0373ZM12 3.83934L14.823 5.25009L12 6.66159L9.177 5.25009L12 3.83934ZM8.25 6.46434L11.25 7.96434V11.5373L8.25 10.0373V6.46434ZM6.75 19.0366L3.75 17.5366V13.9636L6.75 15.4636V19.0366ZM7.5 14.1616L4.677 12.7501L7.5 11.3386L10.323 12.7501L7.5 14.1616ZM8.25 15.4636L11.25 13.9636V17.5366L8.25 19.0366V15.4636ZM15.75 19.0366L12.75 17.5366V13.9636L15.75 15.4636V19.0366ZM16.5 14.1616L13.677 12.7501L16.5 11.3386L19.323 12.7501L16.5 14.1616ZM20.25 17.5366L17.25 19.0366V15.4636L20.25 13.9636V17.5366Z" fill="#FFCC00"/>
</svg>