<svg width="254" height="286" viewBox="0 0 254 286" fill="none" xmlns="http://www.w3.org/2000/svg">
<path d="M253.167 100.726C253.168 101.169 253.07 101.606 252.881 102.006C252.692 102.407 252.416 102.76 252.074 103.041C251.732 103.322 251.332 103.523 250.902 103.631C250.473 103.738 250.025 103.749 249.591 103.662C249.035 103.551 248.522 103.285 248.111 102.894C247.701 102.503 247.409 102.004 247.272 101.454C247.134 100.904 247.155 100.327 247.333 99.7883C247.511 99.2501 247.837 98.7733 248.276 98.4137C248.714 98.054 249.245 97.8262 249.808 97.7567C250.37 97.6872 250.941 97.779 251.453 98.0212C251.966 98.2635 252.399 98.6463 252.702 99.1252C253.006 99.604 253.167 100.159 253.167 100.726Z" stroke="#FFCC00" stroke-linecap="round" stroke-linejoin="round"/>
<path d="M150.255 283.466C150.255 283.798 150.156 284.122 149.972 284.398C149.788 284.674 149.526 284.889 149.22 285.016C148.99 285.11 148.743 285.152 148.496 285.139C148.249 285.126 148.007 285.059 147.789 284.943C147.57 284.826 147.38 284.662 147.232 284.464C147.084 284.265 146.981 284.037 146.932 283.794C146.873 283.496 146.895 283.187 146.998 282.9C147.1 282.614 147.278 282.361 147.513 282.168C147.748 281.975 148.031 281.849 148.332 281.804C148.633 281.759 148.94 281.797 149.221 281.913C149.529 282.038 149.793 282.253 149.977 282.53C150.162 282.807 150.259 283.133 150.255 283.466Z" stroke="#FFCC00" stroke-linecap="round" stroke-linejoin="round"/>
<path d="M131.435 230.049V248.357C131.436 249.093 131.293 249.822 131.011 250.502C130.73 251.182 130.317 251.799 129.796 252.319C129.277 252.84 128.659 253.253 127.979 253.534C127.299 253.815 126.57 253.959 125.834 253.957H8.07924C7.34343 253.959 6.61457 253.815 5.9346 253.534C5.25463 253.253 4.63698 252.84 4.11717 252.319C3.59604 251.799 3.18296 251.182 2.90176 250.502C2.62055 249.822 2.4768 249.093 2.47878 248.357V158.806C2.4772 158.07 2.62099 157.341 2.90188 156.661C3.18277 155.981 3.59523 155.363 4.1156 154.843C4.63597 154.322 5.25398 153.91 5.93417 153.629C6.61436 153.348 7.34334 153.204 8.07924 153.206H42.7922" stroke="#FFCC00" stroke-linecap="round" stroke-linejoin="round"/>
<path d="M47.4565 144.535H42.7942V157.726" stroke="#FFCC00" stroke-linecap="round" stroke-linejoin="round"/>
<path d="M59.5103 217.171V225.017H69.0055" stroke="#FFCC00" stroke-linecap="round" stroke-linejoin="round"/>
<path d="M41.3993 165.743H15.1057V177.768H41.2886" stroke="#FFCC00" stroke-linecap="round" stroke-linejoin="round"/>
<path d="M16.0422 241.335H118.812V237.299H16.0422V241.335Z" stroke="#FFCC00" stroke-linecap="round" stroke-linejoin="round"/>
<path d="M42.9365 187.747H15.1047V224.704H46.8312V198.862" stroke="#FFCC00" stroke-linecap="round" stroke-linejoin="round"/>
<path d="M179.196 99.1597C176.286 96.9742 173.386 94.7757 170.496 92.5642" stroke="#FFCC00" stroke-linecap="round" stroke-linejoin="round"/>
<path d="M187.809 85.6587L178.712 78.8074" stroke="#FFCC00" stroke-linecap="round" stroke-linejoin="round"/>
<path d="M197.504 73.2072C194.062 70.6202 190.226 67.9195 187.411 65.9294" stroke="#FFCC00" stroke-linecap="round" stroke-linejoin="round"/>
<path d="M144.74 93.2196C148.435 96.0071 168.748 111.199 169.984 112.183C180.398 120.475 188.776 107.772 181.384 101.21C181.235 101.078 179.195 99.1627 179.195 99.1627L180.392 100.016C189.53 106.566 199.297 93.6476 187.812 85.6516C188.506 86.1528 189.709 86.9728 189.859 87.073C199.035 93.2376 208.48 80.1364 197.506 73.1998C206.518 78.9709 214.281 68.3071 207.996 62.1126C197.502 52.4629 185.92 44.0674 173.484 37.0953C164.695 32.1846 158.644 29.6739 152.418 26.5767" stroke="#FFCC00" stroke-linecap="round" stroke-linejoin="round"/>
<path d="M139.877 104.931C129.728 95.436 128.348 96.6674 125.662 88.6729C124.282 85.2148 122.122 82.1214 119.353 79.6326" stroke="#FFCC00" stroke-linecap="round" stroke-linejoin="round"/>
<path d="M128.535 0.856201L150.255 14.502C164.299 23.2581 121.485 91.9135 107.441 83.1574L0.833252 16.8047" stroke="#FFCC00" stroke-linecap="round" stroke-linejoin="round"/>
<path d="M128.535 0.856201C139.253 8.30453 94.3351 75.6807 83.6174 68.2039" stroke="#FFCC00" stroke-linecap="round" stroke-linejoin="round"/>
<path d="M237.377 145.635C237.003 145.593 236.717 145.548 236.564 145.134C236.352 144.568 235.976 144.098 236.446 143.603C236.778 143.27 237.004 142.846 237.096 142.385C237.188 141.924 237.142 141.446 236.962 141.011C236.843 140.723 236.667 140.46 236.446 140.239L235.294 139.11C235.073 138.888 234.811 138.713 234.522 138.593C234.233 138.473 233.923 138.412 233.611 138.412C233.298 138.412 232.989 138.473 232.7 138.593C232.411 138.713 232.148 138.888 231.928 139.11C231.458 139.58 230.964 139.204 230.422 138.991C230.274 138.936 230.148 138.836 230.059 138.705C229.971 138.574 229.925 138.419 229.929 138.261C229.927 137.631 229.678 137.027 229.234 136.58C229.013 136.359 228.751 136.184 228.462 136.065C228.173 135.946 227.863 135.885 227.551 135.885H225.928C225.615 135.884 225.306 135.945 225.017 136.064C224.728 136.183 224.466 136.358 224.245 136.579C224.024 136.799 223.849 137.062 223.73 137.351C223.611 137.639 223.55 137.949 223.552 138.261C223.552 138.921 222.94 139.009 222.398 139.25C222.257 139.313 222.1 139.331 221.949 139.301C221.797 139.272 221.658 139.197 221.551 139.086C221.104 138.641 220.499 138.39 219.869 138.39C219.238 138.39 218.633 138.641 218.186 139.086L217.01 140.239C216.676 140.571 216.448 140.995 216.356 141.457C216.264 141.919 216.312 142.398 216.494 142.832C216.613 143.12 216.788 143.383 217.01 143.603C217.48 144.074 217.104 144.568 216.892 145.134C216.836 145.281 216.735 145.408 216.605 145.496C216.474 145.584 216.319 145.63 216.162 145.627C215.849 145.627 215.539 145.687 215.25 145.807C214.961 145.926 214.698 146.101 214.477 146.322C214.255 146.542 214.08 146.805 213.961 147.094C213.842 147.383 213.781 147.692 213.782 148.005L213.806 149.628C213.803 150.099 213.941 150.56 214.202 150.952C214.464 151.343 214.837 151.648 215.273 151.825C215.562 151.945 215.87 152.006 216.182 152.004C216.842 152.004 216.931 152.616 217.172 153.158C217.239 153.302 217.26 153.464 217.23 153.62C217.201 153.776 217.123 153.919 217.007 154.029C216.786 154.25 216.611 154.512 216.491 154.801C216.371 155.089 216.31 155.399 216.31 155.711C216.31 156.024 216.371 156.333 216.491 156.622C216.611 156.911 216.786 157.173 217.007 157.394L218.159 158.546C218.38 158.767 218.642 158.942 218.931 159.062C219.22 159.182 219.529 159.243 219.842 159.243C220.154 159.243 220.463 159.182 220.752 159.062C221.041 158.942 221.303 158.767 221.524 158.546C221.995 158.076 222.489 158.452 223.031 158.664C223.178 158.72 223.305 158.82 223.393 158.951C223.482 159.082 223.527 159.237 223.525 159.394C223.523 159.707 223.583 160.016 223.702 160.305C223.821 160.594 223.997 160.856 224.219 161.076C224.439 161.298 224.702 161.474 224.991 161.593C225.28 161.712 225.59 161.772 225.902 161.77L227.548 161.746C227.861 161.749 228.171 161.688 228.46 161.569C228.749 161.45 229.011 161.274 229.231 161.052C229.677 160.606 229.926 160.001 229.926 159.37C229.926 158.711 230.538 158.622 231.079 158.381C231.223 158.315 231.384 158.295 231.54 158.325C231.696 158.354 231.839 158.432 231.948 158.546C232.169 158.767 232.432 158.942 232.72 159.062C233.009 159.182 233.319 159.243 233.631 159.243C233.944 159.243 234.253 159.182 234.542 159.062C234.83 158.942 235.093 158.767 235.314 158.546L236.443 157.394C236.664 157.173 236.84 156.911 236.959 156.622C237.079 156.333 237.14 156.024 237.14 155.711C237.14 155.399 237.079 155.089 236.959 154.801C236.84 154.512 236.664 154.25 236.443 154.029C235.973 153.557 236.349 153.064 236.561 152.498C236.617 152.351 236.717 152.225 236.848 152.136C236.978 152.048 237.133 152.002 237.29 152.004C237.603 152.006 237.913 151.946 238.202 151.827C238.491 151.708 238.753 151.532 238.973 151.31C239.419 150.864 239.668 150.259 239.668 149.628V148.005C239.668 147.39 239.429 146.799 239.001 146.357C238.574 145.915 237.991 145.656 237.377 145.635Z" stroke="#FFCC00" stroke-linecap="round" stroke-linejoin="round"/>
<path d="M226.728 154.876C225.83 154.876 224.944 154.676 224.132 154.292C223.321 153.908 222.605 153.349 222.035 152.655C221.466 151.961 221.057 151.15 220.839 150.279C220.621 149.408 220.598 148.5 220.773 147.619C221.006 146.441 221.584 145.359 222.434 144.51C223.283 143.661 224.365 143.083 225.543 142.849C226.423 142.675 227.331 142.697 228.202 142.916C229.073 143.134 229.884 143.542 230.578 144.112C231.272 144.681 231.831 145.398 232.215 146.209C232.599 147.02 232.799 147.907 232.799 148.804C232.802 149.602 232.646 150.393 232.342 151.13C232.037 151.868 231.59 152.538 231.026 153.103C230.462 153.667 229.791 154.114 229.054 154.418C228.316 154.723 227.526 154.878 226.728 154.876Z" stroke="#FFCC00" stroke-linecap="round" stroke-linejoin="round"/>
<path d="M187.895 148.828H198.897" stroke="#FFCC00" stroke-linecap="round" stroke-linejoin="round"/>
<path d="M228.689 181.094C227.455 181.075 226.235 181.351 225.129 181.898C224.023 182.445 223.063 183.248 222.329 184.24C221.595 185.233 221.109 186.386 220.91 187.603C220.71 188.821 220.805 190.069 221.184 191.243C223.629 196.48 223.8 196.616 224.283 202.302H233.153C233.176 198.672 234.118 195.106 235.889 191.938C236.437 190.753 236.673 189.448 236.573 188.146C236.474 186.845 236.042 185.591 235.32 184.503C234.598 183.416 233.61 182.532 232.449 181.935C231.288 181.338 229.994 181.049 228.689 181.094Z" stroke="#FFCC00" stroke-linecap="round" stroke-linejoin="round"/>
<path d="M228.718 202.303V189.254C228.73 188.765 228.933 188.301 229.284 187.96C229.635 187.62 230.105 187.431 230.594 187.434H231.447C231.811 187.422 232.171 187.52 232.479 187.715C232.786 187.91 233.028 188.193 233.172 188.528C233.269 188.749 233.321 188.988 233.323 189.23C233.313 189.72 233.11 190.187 232.76 190.53C232.409 190.872 231.938 191.064 231.447 191.063H225.989C225.748 191.073 225.509 191.034 225.283 190.949C225.058 190.864 224.852 190.735 224.678 190.569C224.503 190.404 224.363 190.205 224.266 189.985C224.169 189.765 224.117 189.527 224.113 189.287C224.124 188.798 224.328 188.333 224.678 187.993C225.029 187.653 225.5 187.464 225.989 187.467H227.865" stroke="#FFCC00" stroke-linecap="round" stroke-linejoin="round"/>
<path d="M233.125 209.892H224.283V205.287H233.125V209.892Z" stroke="#FFCC00" stroke-linecap="round" stroke-linejoin="round"/>
<path d="M187.895 195.479H198.897" stroke="#FFCC00" stroke-linecap="round" stroke-linejoin="round"/>
<path d="M187.895 244.433H198.897" stroke="#FFCC00" stroke-linecap="round" stroke-linejoin="round"/>
<path d="M222.833 248.499L209.5 241.704L222.748 235.478" stroke="#FFCC00" stroke-linecap="round" stroke-linejoin="round"/>
<path d="M234.688 248.613L247.907 241.903L234.603 235.592" stroke="#FFCC00" stroke-linecap="round" stroke-linejoin="round"/>
<path d="M233.323 230.02L223.913 254.27" stroke="#FFCC00" stroke-linecap="round" stroke-linejoin="round"/>
<path d="M70.967 212.735L78.2164 205.514L78.1027 217.71" stroke="#FFCC00" stroke-linecap="round" stroke-linejoin="round"/>
<path d="M61.7848 187.491C59.937 189.424 58.0891 191.329 56.2981 193.205" stroke="#FFCC00" stroke-linecap="round" stroke-linejoin="round"/>
<path d="M114.975 223.738C121.684 206.531 119.893 193.632 114.804 184.478" stroke="#FFCC00" stroke-linecap="round" stroke-linejoin="round"/>
<path d="M97.2631 163.349C97.2063 164.856 97.0013 170.546 99.4521 173.524C100.927 175.319 103.546 175.087 107.156 175.343C113.855 175.854 123.56 186.682 132.419 199.791" stroke="#FFCC00" stroke-linecap="round" stroke-linejoin="round"/>
<path d="M148.606 170.007C146.672 160.313 145.815 157.738 143.915 149.709C143.666 148.662 143.345 147.406 142.92 145.985C141.35 140.727 139.585 140.5 140.191 146.724C140.42 149.08 140.382 151.455 140.077 153.803V153.86C139.994 154.635 139.862 155.404 139.679 156.163" stroke="#FFCC00" stroke-linecap="round" stroke-linejoin="round"/>
<path d="M140.078 153.832C139.142 150.927 138.061 148.071 136.837 145.275C134.733 140.038 132.547 139.9 133.994 146.322C135.504 153.03 134.96 156.244 134.96 156.244" stroke="#FFCC00" stroke-linecap="round" stroke-linejoin="round"/>
<path d="M131.35 157.698C131.35 157.698 127.161 146.189 126.861 145.473C124.587 140.078 126.547 139.077 129.477 143.597C132.149 147.719 135.013 153.323 135.013 153.323" stroke="#FFCC00" stroke-linecap="round" stroke-linejoin="round"/>
<path d="M130.923 175.437C130.525 173.276 128.649 170.746 126.773 170.604C123.418 170.35 118.492 170.462 118.614 168.785C118.801 166.196 126.035 166.656 128.279 164.745C129.047 164.093 128.008 161.326 127.483 160.31C126.596 158.592 123.532 152.829 123.219 152.265C120.376 147.091 122.471 146.269 125.522 150.275C126.973 152.301 128.706 154.11 130.667 155.648" stroke="#FFCC00" stroke-linecap="round" stroke-linejoin="round"/>
<path d="M129.075 158.892C132.697 156.613 137.003 155.677 141.243 156.248" stroke="#FFCC00" stroke-linecap="round" stroke-linejoin="round"/>
<path d="M131.691 161.592C136.581 161.592 140.163 163.469 141.417 167.96" stroke="#FFCC00" stroke-linecap="round" stroke-linejoin="round"/>
<path d="M72.7867 156.134C72.7867 156.134 52.2043 164.378 61.7848 187.491C63.6611 185.558 65.5374 183.601 67.4421 181.606C73.9808 174.755 86.0914 177.967 87.5413 171.77C89.446 163.611 88.1951 156.93 86.859 156.333C79.8655 153.234 82.5662 146.838 86.2904 149.539C87.7463 150.601 88.7996 150.939 88.7173 149.133C88.442 142.979 93.5143 132.745 100.761 145.701C91.5213 126.454 70.5409 138.48 72.7867 156.134Z" stroke="#FFCC00" stroke-linecap="round" stroke-linejoin="round"/>
<path d="M72.7581 156.134C72.7581 156.134 62.7572 149.518 65.9921 146.895C69.227 144.272 72.7581 156.134 72.7581 156.134Z" stroke="#FFCC00" stroke-linecap="round" stroke-linejoin="round"/>
<path d="M72.758 156.134C72.758 156.134 61.1875 159.375 61.3297 155.224C61.4718 151.102 72.758 156.134 72.758 156.134Z" stroke="#FFCC00" stroke-linecap="round" stroke-linejoin="round"/>
<path d="M116.823 218.421L120.575 222.259" stroke="#FFCC00" stroke-linecap="round" stroke-linejoin="round"/>
<path d="M98.9691 172.822C99.0544 174.784 86.9991 175.182 86.9153 173.192" stroke="#FFCC00" stroke-linecap="round" stroke-linejoin="round"/>
<path d="M84.7551 174.925L90.6114 183.454L95.5581 174.3L105.878 181.606L100.306 174.271" stroke="#FFCC00" stroke-linecap="round" stroke-linejoin="round"/>
<path d="M95.5579 174.3C99.083 179.616 107.555 195.397 102.352 224.732" stroke="#FFCC00" stroke-linecap="round" stroke-linejoin="round"/>
<path d="M16.8098 75.0837V107.038" stroke="#FFCC00" stroke-linecap="round" stroke-linejoin="round"/>
<path d="M32.7872 91.074H0.833252" stroke="#FFCC00" stroke-linecap="round" stroke-linejoin="round"/>
<path d="M97.3201 167.05L93.3401 162.161C102.385 166.367 108.979 160.085 100.76 145.702" stroke="#FFCC00" stroke-linecap="round" stroke-linejoin="round"/>
<path d="M154.86 186.865C154.036 181.37 152.916 175.922 151.506 170.547C150.624 167.79 127.566 175.036 128.422 177.797C130.865 188.998 132.659 200.332 133.795 211.741L126.402 191.357" stroke="#FFCC00" stroke-linecap="round" stroke-linejoin="round"/>
<path d="M144.598 152.722H153.07" stroke="#FFCC00" stroke-linecap="round" stroke-linejoin="round"/>
<path d="M127.484 152.722H129.531" stroke="#FFCC00" stroke-linecap="round" stroke-linejoin="round"/>
<path d="M103.802 152.723H123.447" stroke="#FFCC00" stroke-linecap="round" stroke-linejoin="round"/>
<path d="M55.7288 152.722H72.6154" stroke="#FFCC00" stroke-linecap="round" stroke-linejoin="round"/>
<path d="M75.5437 115.823C65.7203 120.882 57.3849 128.415 51.3591 137.677C45.3333 146.939 41.825 157.612 41.18 168.643C40.535 179.674 42.7756 190.683 47.6809 200.584C52.5862 210.486 59.987 218.938 69.1537 225.108C78.3205 231.278 88.9369 234.953 99.9565 235.771C110.976 236.589 122.019 234.521 131.996 229.771C141.973 225.021 150.54 217.754 156.853 208.685C163.166 199.616 167.007 189.059 167.997 178.053C172.65 128.216 119.997 92.8566 75.5437 115.823Z" stroke="#FFCC00" stroke-linecap="round" stroke-linejoin="round"/>
<path d="M105.338 119.848C95.2874 119.675 85.3988 122.392 76.8475 127.675C68.2962 132.958 61.4419 140.586 57.0996 149.651C52.7572 158.717 51.1094 168.839 52.3521 178.813C53.5948 188.788 57.6758 198.196 64.1097 205.919C70.5437 213.641 79.06 219.354 88.6462 222.378C98.2324 225.401 108.485 225.609 118.186 222.975C127.886 220.341 136.627 214.977 143.367 207.52C150.108 200.064 154.566 190.828 156.21 180.912C157.44 173.471 157.053 165.853 155.076 158.576C153.098 151.298 149.577 144.532 144.75 138.737C139.923 132.943 133.904 128.256 127.103 124.997C120.302 121.738 112.878 119.982 105.338 119.848Z" stroke="#FFCC00" stroke-linecap="round" stroke-linejoin="round"/>
<path d="M201.939 27.3238C200.589 26.3957 198.993 25.8916 197.355 25.8761C195.718 25.8606 194.113 26.3345 192.746 27.237C191.839 27.8355 191.059 28.6091 190.453 29.5113L181.982 42.1636C187.099 45.4045 191.647 48.6723 195.457 51.5735L204.099 38.6385C205.3 36.8475 205.747 34.6555 205.342 32.5375C204.938 30.4195 203.715 28.5462 201.939 27.3238Z" stroke="#FFCC00" stroke-linejoin="round"/>
<path d="M133.027 115.424C137.946 117.867 142.524 120.945 146.642 124.578L159.947 104.678C155.579 101.377 151.201 98.0883 146.813 94.8132L133.027 115.424Z" stroke="#FFCC00" stroke-linejoin="round"/>
</svg>
