<svg width="564" height="268" viewBox="0 0 564 268" fill="none" xmlns="http://www.w3.org/2000/svg">
<path d="M161.808 70.8315C145.223 63.3783 126.952 60.4743 108.873 62.418C90.7943 64.3616 73.5586 71.0828 58.9364 81.8912C44.3143 92.6996 32.8329 107.206 25.6714 123.919C18.51 140.633 15.9268 158.951 18.1871 176.993H221.332C222.368 168.759 222.408 160.431 221.455 152.188" stroke="#FFCC00" stroke-linecap="round" stroke-linejoin="round"/>
<path d="M18.1874 176.993C-13.5952 194.823 -0.0735655 208.619 52.0979 208.619C104.269 208.619 176.804 194.828 221.296 176.993H18.1874Z" stroke="#FFCC00" stroke-linecap="round" stroke-linejoin="round"/>
<path d="M72.2807 214.468C72.0834 213.755 71.627 213.142 71.0007 212.748C70.3745 212.354 69.6238 212.209 68.8959 212.34C67.4465 212.651 66.106 213.342 65.0119 214.342C58.7695 219.167 52.8763 224.427 47.0215 229.716L56.8982 229.73L70.2313 218.024C71.3119 217.079 72.4867 215.882 72.2807 214.468Z" stroke="#FFCC00" stroke-linecap="round" stroke-linejoin="round"/>
<path d="M28.5963 186.55C23.7081 186.55 19.0203 188.492 15.564 191.949C12.1077 195.406 10.166 200.094 10.166 204.982V229.714H47.0284V204.982C47.0288 202.561 46.5524 200.164 45.6263 197.928C44.7001 195.691 43.3424 193.659 41.6308 191.947C39.9191 190.236 37.887 188.878 35.6505 187.952C33.414 187.026 31.017 186.549 28.5963 186.55Z" fill="#1F2C2C"/>
<path d="M28.5963 186.55C23.7081 186.55 19.0203 188.492 15.564 191.949C12.1077 195.406 10.166 200.094 10.166 204.982V229.714H47.0284V204.982C47.0288 202.561 46.5524 200.164 45.6263 197.928C44.7001 195.691 43.3424 193.659 41.6308 191.947C39.9191 190.236 37.887 188.878 35.6505 187.952C33.414 187.026 31.017 186.549 28.5963 186.55Z" stroke="#FFCC00" stroke-linecap="round" stroke-linejoin="round"/>
<path d="M129.469 214.468C129.273 213.755 128.816 213.142 128.19 212.748C127.565 212.354 126.814 212.209 126.086 212.34C124.637 212.651 123.297 213.342 122.204 214.342C115.96 219.167 110.067 224.427 104.212 229.716L114.089 229.73L127.423 218.024C128.497 217.079 129.672 215.882 129.469 214.468Z" stroke="#FFCC00" stroke-linecap="round" stroke-linejoin="round"/>
<path d="M85.7817 186.55C80.8933 186.55 76.2053 188.492 72.7487 191.949C69.2922 195.406 67.3501 200.094 67.3496 204.982V229.714H104.212V204.982C104.212 200.094 102.27 195.406 98.8135 191.95C95.3573 188.493 90.6697 186.551 85.7817 186.55Z" fill="#1F2C2C"/>
<path d="M85.7817 186.55C80.8933 186.55 76.2053 188.492 72.7487 191.949C69.2922 195.406 67.3501 200.094 67.3496 204.982V229.714H104.212V204.982C104.212 200.094 102.27 195.406 98.8135 191.95C95.3573 188.493 90.6697 186.551 85.7817 186.55Z" stroke="#FFCC00" stroke-linecap="round" stroke-linejoin="round"/>
<path d="M187.061 214.468C186.862 213.757 186.407 213.145 185.783 212.751C185.158 212.358 184.41 212.21 183.683 212.338C182.234 212.649 180.894 213.34 179.801 214.34C173.557 219.165 167.665 224.425 161.808 229.714L171.685 229.728L185.02 218.022C186.094 217.079 187.268 215.882 187.061 214.468Z" stroke="#FFCC00" stroke-linecap="round" stroke-linejoin="round"/>
<path d="M143.378 186.55C138.49 186.55 133.802 188.492 130.345 191.949C126.889 195.406 124.947 200.094 124.946 204.982V229.714H161.808V204.982C161.808 200.094 159.866 195.406 156.41 191.95C152.954 188.493 148.266 186.551 143.378 186.55Z" fill="#1F2C2C"/>
<path d="M143.378 186.55C138.49 186.55 133.802 188.492 130.345 191.949C126.889 195.406 124.947 200.094 124.946 204.982V229.714H161.808V204.982C161.808 200.094 159.866 195.406 156.41 191.95C152.954 188.493 148.266 186.551 143.378 186.55Z" stroke="#FFCC00" stroke-linecap="round" stroke-linejoin="round"/>
<path d="M92.6184 251.312C92.4206 250.601 91.9651 249.989 91.3407 249.596C90.7162 249.202 89.9676 249.055 89.2406 249.183C87.7917 249.494 86.4518 250.185 85.3584 251.185C79.1143 256.01 73.221 261.269 67.3662 266.559L77.243 266.573L90.5778 254.867C91.6513 253.924 92.8262 252.726 92.6184 251.312Z" stroke="#FFCC00" stroke-linecap="round" stroke-linejoin="round"/>
<path d="M48.936 223.395C46.5152 223.394 44.1181 223.87 41.8815 224.796C39.6449 225.722 37.6127 227.08 35.901 228.792C34.1893 230.503 32.8316 232.536 31.9056 234.772C30.9795 237.009 30.5032 239.406 30.5039 241.827V266.559H67.3663V241.827C67.3658 236.939 65.424 232.251 61.9678 228.794C58.5115 225.338 53.824 223.395 48.936 223.395Z" fill="#1F2C2C"/>
<path d="M48.936 223.395C46.5152 223.394 44.1181 223.87 41.8815 224.796C39.6449 225.722 37.6127 227.08 35.901 228.792C34.1893 230.503 32.8316 232.536 31.9056 234.772C30.9795 237.009 30.5032 239.406 30.5039 241.827V266.559H67.3663V241.827C67.3658 236.939 65.424 232.251 61.9678 228.794C58.5115 225.338 53.824 223.395 48.936 223.395Z" stroke="#FFCC00" stroke-linecap="round" stroke-linejoin="round"/>
<path d="M150.216 251.312C150.018 250.601 149.563 249.989 148.938 249.596C148.314 249.202 147.565 249.055 146.838 249.183C145.389 249.494 144.049 250.185 142.956 251.185C136.712 256.01 130.819 261.269 124.964 266.559L134.841 266.573L148.175 254.867C149.249 253.924 150.417 252.726 150.216 251.312Z" stroke="#FFCC00" stroke-linecap="round" stroke-linejoin="round"/>
<path d="M106.533 223.395C104.112 223.395 101.715 223.871 99.4791 224.797C94.9634 226.67 91.3751 230.257 89.5011 234.773C88.5747 237.009 88.0978 239.406 88.0977 241.827V266.559H124.964V241.827C124.963 236.939 123.021 232.251 119.565 228.795C116.109 225.338 111.421 223.396 106.533 223.395Z" fill="#1F2C2C"/>
<path d="M106.533 223.395C104.112 223.395 101.715 223.871 99.4791 224.797C94.9634 226.67 91.3751 230.257 89.5011 234.773C88.5747 237.009 88.0978 239.406 88.0977 241.827V266.559H124.964V241.827C124.963 236.939 123.021 232.251 119.565 228.795C116.109 225.338 111.421 223.396 106.533 223.395Z" stroke="#FFCC00" stroke-linecap="round" stroke-linejoin="round"/>
<path d="M309.258 120.683V44.1692C309.257 42.3793 308.546 40.6629 307.281 39.3967C306.654 38.7699 305.91 38.2728 305.091 37.9337C304.272 37.5947 303.394 37.4203 302.508 37.4207H293.284" stroke="#FFCC00" stroke-linecap="round" stroke-linejoin="round"/>
<path d="M222.303 37.4277H168.559C166.769 37.4277 165.052 38.1387 163.786 39.4042C162.521 40.6698 161.809 42.3863 161.809 44.1763V145.447C161.808 146.334 161.983 147.211 162.322 148.03C162.661 148.849 163.159 149.593 163.787 150.22C164.413 150.846 165.157 151.344 165.976 151.683C166.795 152.022 167.673 152.196 168.559 152.196H266.366" stroke="#FFCC00" stroke-linecap="round" stroke-linejoin="round"/>
<path d="M269.044 155.743V196.343" stroke="#FFCC00" stroke-linecap="round" stroke-linejoin="round"/>
<path d="M202.022 196.342V152.188" stroke="#FFCC00" stroke-linecap="round" stroke-linejoin="round"/>
<path d="M284.753 208.132C284.752 205.005 283.511 202.007 281.3 199.795C279.089 197.585 276.09 196.343 272.963 196.342H198.104C194.977 196.343 191.978 197.585 189.767 199.795C187.556 202.007 186.314 205.005 186.314 208.132" stroke="#FFCC00" stroke-linecap="round" stroke-linejoin="round"/>
<path d="M92.705 1V61.7512" stroke="#FFCC00" stroke-linecap="round" stroke-linejoin="round"/>
<path d="M48.7536 50.5055C39.3273 44.8444 30.0528 57.097 47.1826 70.2921C55.4691 76.6776 50.6825 85.7095 44.8836 84.7529C39.2417 83.8207 24.2486 65.1076 18.2261 76.1993C15.4733 81.2721 22.2987 87.4551 26.256 90.8451C29.2777 93.4287 34.9388 98.4857 30.9291 102.663C23.5102 110.396 14.8571 93.6381 7.86411 93.577C1.73697 93.5282 0.455682 100.649 3.8195 105.217C9.32695 112.695 11.8494 114.266 17.2242 119.456" stroke="#FFCC00" stroke-linecap="round" stroke-linejoin="round"/>
<path d="M90.4512 94.5877C91.9167 97.5174 94.1389 100.002 96.8876 101.784C99.6363 103.566 102.811 104.581 106.084 104.723C109.357 104.865 112.608 104.129 115.501 102.592C118.394 101.055 120.823 98.7727 122.537 95.9811C124.251 93.1895 125.187 89.9904 125.249 86.7152C125.311 83.44 124.495 80.2078 122.888 77.3536C121.28 74.4994 118.939 72.127 116.106 70.4821C113.273 68.8372 110.052 67.9796 106.776 67.9983L90.4512 94.5877Z" fill="#0E1416"/>
<path d="M90.4512 94.5877C91.9167 97.5174 94.1389 100.002 96.8876 101.784C99.6363 103.566 102.811 104.581 106.084 104.723C109.357 104.865 112.608 104.129 115.501 102.592C118.394 101.055 120.823 98.7727 122.537 95.9811C124.251 93.1895 125.187 89.9904 125.249 86.7152C125.311 83.44 124.495 80.2078 122.888 77.3536C121.28 74.4994 118.939 72.127 116.106 70.4821C113.273 68.8372 110.052 67.9796 106.776 67.9983L90.4512 94.5877Z" stroke="#FFCC00" stroke-linecap="round" stroke-linejoin="round"/>
<path d="M59.8624 47.1628C50.3645 42.9437 42.5685 55.6466 50.6316 62.2031L90.451 94.588L106.776 67.9986L59.8624 47.1628Z" fill="#0E1416"/>
<path d="M59.8624 47.1628C50.3645 42.9437 42.5685 55.6466 50.6316 62.2031L90.451 94.588L106.776 67.9986L59.8624 47.1628Z" stroke="#FFCC00" stroke-linecap="round" stroke-linejoin="round"/>
<path d="M113.279 69.1406L124.088 92.8061" stroke="#FFCC00" stroke-linecap="round" stroke-linejoin="round"/>
<path d="M103.877 72.71L117.149 101.6" stroke="#FFCC00" stroke-linecap="round" stroke-linejoin="round"/>
<path d="M97.6045 82.9307L106.999 104.744" stroke="#FFCC00" stroke-linecap="round" stroke-linejoin="round"/>
<path d="M91.9092 92.2119L95.0269 100.418" stroke="#FFCC00" stroke-linecap="round" stroke-linejoin="round"/>
<path d="M176.522 73.672L195.223 48.2383L206.268 68.7965L215.658 57.3051L228.238 68.6062" stroke="#FFCC00" stroke-linecap="round" stroke-linejoin="round"/>
<path d="M176.522 43.1006V81.4328" stroke="#FFCC00" stroke-linecap="round" stroke-linejoin="round"/>
<path d="M168.722 73.6716H228.515" stroke="#FFCC00" stroke-linecap="round" stroke-linejoin="round"/>
<path d="M200.039 94.8584C195.528 94.8606 191.152 96.3973 187.631 99.216C184.11 102.035 181.652 105.968 180.662 110.368L200.039 114.732V94.8584Z" stroke="#FFCC00" stroke-linecap="round" stroke-linejoin="round"/>
<path d="M206.935 133.414C217.257 129.605 222.536 118.149 218.727 107.827C214.918 97.5051 203.463 92.2263 193.141 96.0353C182.82 99.8442 177.541 111.301 181.35 121.621C185.159 131.943 196.613 137.223 206.935 133.414Z" stroke="#FFCC00" stroke-linecap="round" stroke-linejoin="round"/>
<path d="M200.038 94.8584V114.724L214.132 128.741C216.886 125.952 218.755 122.412 219.505 118.565C220.255 114.718 219.852 110.735 218.348 107.116C216.843 103.497 214.302 100.402 211.045 98.2213C207.787 96.0405 203.958 94.8706 200.038 94.8584Z" fill="#1F2C2C"/>
<path d="M200.038 94.8584V114.724L214.132 128.741C216.886 125.952 218.755 122.412 219.505 118.565C220.255 114.718 219.852 110.735 218.348 107.116C216.843 103.497 214.302 100.402 211.045 98.2213C207.787 96.0405 203.958 94.8706 200.038 94.8584Z" stroke="#FFCC00" stroke-linecap="round" stroke-linejoin="round"/>
<path d="M206.915 133.378L200.039 114.726L189.025 131.269" stroke="#FFCC00" stroke-linecap="round" stroke-linejoin="round"/>
<path d="M233.314 216.135L246.347 229.167" stroke="#FFCC00" stroke-linecap="round" stroke-linejoin="round"/>
<path d="M233.314 229.167L246.347 216.135" stroke="#FFCC00" stroke-linecap="round" stroke-linejoin="round"/>
<path d="M298.574 185.945L305.222 192.593" stroke="#FFCC00" stroke-linecap="round" stroke-linejoin="round"/>
<path d="M298.574 192.593L305.222 185.945" stroke="#FFCC00" stroke-linecap="round" stroke-linejoin="round"/>
<path d="M53.4648 26.4637L59.1643 35.8621L65.8658 21.8203" stroke="#FFCC00" stroke-linecap="round" stroke-linejoin="round"/>
<path d="M47.0283 152.404H65.4569" stroke="#FFCC00" stroke-linecap="round" stroke-linejoin="round"/>
<path d="M56.2432 161.621V143.188" stroke="#FFCC00" stroke-linecap="round" stroke-linejoin="round"/>
<path d="M111.19 126.146H121.243" stroke="#FFCC00" stroke-linecap="round" stroke-linejoin="round"/>
<path d="M116.218 131.173V121.118" stroke="#FFCC00" stroke-linecap="round" stroke-linejoin="round"/>
<path d="M219.959 34.3027C218.999 34.3667 218.076 34.6907 217.286 35.24C216.497 35.7892 215.873 36.543 215.479 37.4204H222.303C221.665 36.2808 220.876 35.2322 219.959 34.3027Z" stroke="#FFCC00" stroke-linecap="round" stroke-linejoin="round"/>
<path d="M314.633 153.647C311.414 148.072 316.815 141.407 316.926 134.969C317.08 126.159 307.792 120.599 303.038 113.18C297.894 105.15 298.212 94.9211 298.706 85.3987C299.454 70.9554 294.055 53.9775 293.612 39.0332C293.572 37.762 293.038 36.5566 292.123 35.6729C291.209 34.7892 289.985 34.297 288.714 34.3008H219.959C222.585 37.2537 224.351 40.8703 225.065 44.7571C226.236 51.771 227.411 58.7919 228.032 65.8792C230.127 89.8553 226.009 115.097 235.376 137.265C236.304 139.827 237.796 142.148 239.74 144.057C246.49 149.992 258.129 145.754 265.261 151.225C272.657 156.898 271.963 170.59 280.787 173.588C289.031 170.568 299.737 172.432 302.989 172.455C313.102 172.525 323.308 166.221 332.84 169.615C330.434 163.437 317.949 159.387 314.633 153.647Z" stroke="#FFCC00" stroke-linecap="round" stroke-linejoin="round"/>
<path d="M418.854 52.6923C418.849 53.0354 418.914 53.3758 419.045 53.6932C419.175 54.0106 419.369 54.2983 419.613 54.539C419.857 54.7798 420.148 54.9686 420.467 55.0942C420.787 55.2198 421.128 55.2795 421.471 55.2698C422.17 55.2451 422.832 54.9513 423.32 54.4498C423.807 53.9483 424.082 53.2779 424.087 52.5786C424.091 52.2356 424.027 51.8951 423.896 51.5778C423.766 51.2604 423.573 50.9727 423.329 50.7319C423.084 50.4911 422.794 50.3023 422.475 50.1767C422.155 50.051 421.814 49.9913 421.471 50.001C420.772 50.0257 420.11 50.3194 419.622 50.8209C419.134 51.3223 418.859 51.9928 418.854 52.6923Z" fill="#1F2C2C"/>
<path d="M426.55 85.7853H401V60.2354H426.55V85.7853Z" stroke="#FFCC00" stroke-linecap="round" stroke-linejoin="round"/>
<path d="M413.773 65.4288L420.143 55.0049" stroke="#FFCC00" stroke-linecap="round" stroke-linejoin="round"/>
<path d="M418.854 52.6923C418.849 53.0354 418.914 53.3758 419.045 53.6932C419.175 54.0106 419.369 54.2983 419.613 54.539C419.857 54.7798 420.148 54.9686 420.467 55.0942C420.787 55.2198 421.128 55.2795 421.471 55.2698C422.17 55.2451 422.832 54.9513 423.32 54.4498C423.807 53.9483 424.082 53.2779 424.087 52.5786C424.091 52.2356 424.027 51.8951 423.896 51.5778C423.766 51.2604 423.573 50.9727 423.329 50.7319C423.084 50.4911 422.794 50.3023 422.475 50.1767C422.155 50.051 421.814 49.9913 421.471 50.001C420.772 50.0257 420.11 50.3194 419.622 50.8209C419.134 51.3223 418.859 51.9928 418.854 52.6923Z" stroke="#FFCC00" stroke-linecap="round" stroke-linejoin="round"/>
<path d="M419.616 196.305C420.363 195.558 420.782 194.546 420.782 193.491C420.783 192.435 420.364 191.423 419.617 190.676C418.871 189.929 417.859 189.51 416.803 189.51C415.748 189.509 414.735 189.928 413.989 190.675C413.242 191.421 412.823 192.433 412.822 193.489C412.822 194.544 413.241 195.557 413.987 196.303C414.734 197.05 415.746 197.469 416.801 197.47C417.857 197.47 418.87 197.051 419.616 196.305Z" stroke="#FFCC00" stroke-linecap="round" stroke-linejoin="round"/>
<path d="M513.695 44.6685L517.008 60.5701" stroke="#FFCC00" stroke-linecap="round" stroke-linejoin="round"/>
<path d="M523.322 50.9628L507.4 54.2559" stroke="#FFCC00" stroke-linecap="round" stroke-linejoin="round"/>
<path d="M549 191.759H562.519" stroke="#FFCC00" stroke-linecap="round" stroke-linejoin="round"/>
<path d="M555.759 198.519V185" stroke="#FFCC00" stroke-linecap="round" stroke-linejoin="round"/>
<path d="M519 248.688H526.374" stroke="#FFCC00" stroke-linecap="round" stroke-linejoin="round"/>
<path d="M522.687 252.375V245" stroke="#FFCC00" stroke-linecap="round" stroke-linejoin="round"/>
</svg>
