<svg width="300" height="300" viewBox="0 0 300 300" fill="none" xmlns="http://www.w3.org/2000/svg">
<path d="M184.654 78.5154H132.943C131.232 78.5189 129.593 79.2 128.383 80.4094C127.174 81.6189 126.493 83.2583 126.489 84.9687V136.684C126.494 138.394 127.175 140.032 128.384 141.241C129.594 142.45 131.233 143.13 132.943 143.134H184.654C185.502 143.135 186.342 142.968 187.125 142.644C187.908 142.32 188.62 141.844 189.219 141.245C189.818 140.646 190.294 139.934 190.618 139.151C190.942 138.368 191.108 137.528 191.108 136.681V84.9687C191.104 83.2583 190.423 81.6189 189.214 80.4094C188.004 79.2 186.365 78.5189 184.654 78.5154Z" fill="#0E1416"/>
<path d="M163.219 59.2423C163.22 60.1196 162.96 60.9773 162.472 61.7066C161.985 62.436 161.292 63.0041 160.481 63.339C159.875 63.589 159.221 63.7017 158.567 63.6691C157.912 63.6364 157.273 63.4591 156.694 63.15C156.116 62.8408 155.614 62.4075 155.223 61.8812C154.833 61.3548 154.563 60.7484 154.435 60.1056C154.263 59.2453 154.35 58.3533 154.686 57.5428C155.022 56.7322 155.59 56.0395 156.32 55.5525C157.05 55.0657 157.907 54.8059 158.784 54.8059C159.96 54.8075 161.088 55.2755 161.919 56.1071C162.75 56.9388 163.218 58.0663 163.219 59.2423Z" fill="#0E1416"/>
<path d="M225.819 32.8604C213.51 32.8604 203.525 41.9875 203.525 53.2094C203.535 57.1484 204.778 60.9856 207.079 64.1828L203.525 73.5643L212.862 69.7609C216.719 72.2571 221.219 73.5785 225.813 73.5643C238.123 73.5643 248.107 64.4372 248.107 53.2153C248.107 41.9576 238.129 32.8604 225.819 32.8604Z" fill="#0E1416"/>
<path d="M178.144 189.531H139.424C138.287 189.534 137.197 189.987 136.392 190.791C135.588 191.595 135.135 192.685 135.132 193.822V233.511H182.437V193.822C182.432 192.686 181.978 191.597 181.174 190.793C180.37 189.989 179.281 189.536 178.144 189.531Z" fill="#0E1416"/>
<path d="M148.039 143.134V162.496H169.56V143.134H148.039Z" fill="#1F2C2C"/>
<path d="M127.059 194.506C127.059 195.12 126.877 195.719 126.536 196.229C126.195 196.738 125.71 197.135 125.143 197.369C124.577 197.602 123.954 197.662 123.354 197.542C122.753 197.423 122.201 197.128 121.768 196.695C121.335 196.262 121.041 195.709 120.921 195.108C120.802 194.507 120.863 193.885 121.098 193.318C121.371 192.655 121.866 192.106 122.499 191.768C123.132 191.429 123.863 191.32 124.567 191.46C125.271 191.601 125.904 191.981 126.359 192.537C126.813 193.092 127.061 193.789 127.059 194.506Z" fill="#1F2C2C"/>
<path d="M197.334 220.175C197.335 220.788 197.154 221.388 196.814 221.898C196.474 222.409 195.99 222.806 195.423 223.041C194.856 223.276 194.233 223.337 193.631 223.216C193.03 223.096 192.478 222.8 192.045 222.365C191.611 221.933 191.315 221.381 191.195 220.779C191.075 220.178 191.137 219.554 191.373 218.988C191.608 218.422 192.005 217.939 192.515 217.599C193.024 217.258 193.623 217.076 194.236 217.076C195.056 217.079 195.843 217.407 196.423 217.987C197.004 218.568 197.331 219.354 197.334 220.175Z" fill="#1F2C2C"/>
<path d="M66.1643 106.548C66.174 107.024 66.0886 107.498 65.913 107.941C65.7374 108.384 65.4751 108.787 65.1416 109.128C64.8081 109.468 64.41 109.739 63.9707 109.923C63.5313 110.108 63.0596 110.203 62.583 110.203C62.1064 110.203 61.6347 110.108 61.1953 109.923C60.756 109.739 60.3579 109.468 60.0244 109.128C59.6909 108.787 59.4286 108.384 59.253 107.941C59.0774 107.498 58.992 107.024 59.0017 106.548C59.0209 105.61 59.4066 104.718 60.0761 104.062C60.7457 103.406 61.6457 103.039 62.583 103.039C63.5203 103.039 64.4203 103.406 65.0899 104.062C65.7594 104.718 66.1451 105.61 66.1643 106.548Z" fill="#1F2C2C"/>
<path d="M145.054 97.8184C145.053 98.7006 144.702 99.5463 144.077 100.169C143.453 100.793 142.607 101.142 141.725 101.142C140.842 101.141 139.997 100.79 139.373 100.165C138.75 99.5409 138.401 98.6946 138.401 97.8124C138.402 97.3756 138.488 96.9432 138.656 96.5398C138.823 96.1364 139.069 95.7699 139.378 95.4614C139.687 95.1528 140.054 94.9081 140.457 94.7413C140.861 94.5745 141.294 94.4889 141.731 94.4893C142.167 94.4897 142.6 94.5761 143.003 94.7436C143.407 94.9111 143.773 95.1564 144.082 95.4656C144.39 95.7747 144.635 96.1416 144.802 96.5453C144.968 96.949 145.054 97.3816 145.054 97.8184Z" fill="#1F2C2C"/>
<path d="M179.169 97.819C179.176 98.6491 178.873 99.452 178.318 100.07C177.764 100.687 176.998 101.075 176.172 101.156C175.346 101.238 174.519 101.007 173.855 100.51C173.19 100.012 172.736 99.284 172.581 98.4684C172.49 98.013 172.496 97.5435 172.597 97.0903C172.699 96.637 172.894 96.2101 173.17 95.837C173.447 95.4638 173.799 95.1527 174.203 94.9237C174.607 94.6947 175.054 94.5528 175.516 94.5073C175.979 94.4617 176.445 94.5134 176.886 94.6592C177.327 94.8049 177.733 95.0413 178.077 95.3533C178.421 95.6653 178.696 96.0459 178.884 96.4706C179.072 96.8952 179.169 97.3546 179.169 97.819Z" fill="#1F2C2C"/>
<path d="M218.514 53.2153C218.514 53.5391 218.443 53.859 218.305 54.1518C218.167 54.4447 217.965 54.7032 217.715 54.9086C217.465 55.1141 217.172 55.2614 216.858 55.3398C216.544 55.4183 216.216 55.426 215.898 55.3624C215.473 55.2786 215.083 55.0703 214.776 54.7639C214.47 54.4575 214.262 54.0669 214.178 53.6418C214.09 53.1815 214.151 52.7052 214.353 52.2823C214.555 51.8595 214.887 51.5122 215.3 51.2912C215.713 51.0701 216.186 50.9869 216.65 51.0537C217.114 51.1204 217.544 51.3336 217.878 51.6622C218.081 51.8661 218.242 52.1084 218.352 52.375C218.461 52.6416 218.516 52.9272 218.514 53.2153Z" fill="#1F2C2C"/>
<path d="M228.037 53.2154C228.038 53.6486 227.91 54.0722 227.67 54.4326C227.429 54.793 227.087 55.0739 226.687 55.2398C226.287 55.4057 225.847 55.449 225.422 55.3643C224.997 55.2796 224.607 55.0707 224.301 54.764C223.995 54.4577 223.786 54.0676 223.701 53.6428C223.617 53.2181 223.66 52.7778 223.825 52.3775C223.992 51.9783 224.273 51.6371 224.633 51.3968C224.993 51.1565 225.415 51.0276 225.848 51.0264C226.427 51.0318 226.981 51.2642 227.39 51.6736C227.799 52.0829 228.032 52.6365 228.037 53.2154Z" fill="#1F2C2C"/>
<path d="M237.531 53.2153C237.532 53.5391 237.46 53.859 237.322 54.1518C237.184 54.4447 236.982 54.7032 236.732 54.9086C236.482 55.1141 236.189 55.2614 235.875 55.3398C235.561 55.4183 235.233 55.426 234.916 55.3624C234.491 55.2786 234.1 55.0703 233.794 54.7639C233.487 54.4575 233.279 54.0669 233.195 53.6418C233.107 53.1815 233.169 52.7052 233.37 52.2823C233.572 51.8595 233.904 51.5122 234.317 51.2912C234.73 51.0701 235.203 50.9869 235.667 51.0537C236.131 51.1204 236.561 51.3336 236.895 51.6622C237.099 51.8661 237.26 52.1084 237.369 52.375C237.478 52.6416 237.533 52.9272 237.531 53.2153Z" fill="#1F2C2C"/>
<path d="M122.51 263.076C122.509 263.88 122.27 264.666 121.824 265.334C121.377 266.003 120.743 266.524 120 266.832C119.258 267.141 118.44 267.221 117.651 267.065C116.863 266.908 116.138 266.52 115.57 265.951C115.098 265.478 114.75 264.896 114.556 264.257C114.363 263.617 114.33 262.94 114.46 262.285C114.591 261.63 114.881 261.017 115.305 260.501C115.729 259.984 116.274 259.581 116.891 259.325C117.508 259.069 118.179 258.97 118.844 259.035C119.508 259.1 120.147 259.329 120.702 259.7C121.258 260.071 121.714 260.573 122.029 261.162C122.344 261.751 122.509 262.408 122.51 263.076Z" stroke="#FFCC00" stroke-linecap="round" stroke-linejoin="round"/>
<path d="M235.372 142.88C235.37 143.498 235.186 144.102 234.843 144.616C234.5 145.13 234.012 145.53 233.441 145.768C233.014 145.945 232.553 146.026 232.091 146.004C231.629 145.981 231.177 145.857 230.769 145.639C230.361 145.421 230.006 145.115 229.73 144.744C229.455 144.372 229.265 143.944 229.174 143.49C229.084 143.037 229.096 142.569 229.208 142.12C229.321 141.671 229.531 141.253 229.825 140.895C230.119 140.538 230.488 140.25 230.906 140.052C231.325 139.855 231.782 139.752 232.244 139.753C233.072 139.759 233.864 140.091 234.449 140.676C235.034 141.261 235.365 142.053 235.372 142.88Z" stroke="#FFCC00" stroke-linecap="round" stroke-linejoin="round"/>
<path d="M18.2744 100.407V121.244" stroke="#FFCC00" stroke-linecap="round" stroke-linejoin="round"/>
<path d="M28.6947 110.825H7.85645" stroke="#FFCC00" stroke-linecap="round" stroke-linejoin="round"/>
<path d="M285.606 157.291L277.589 175.131H292.144L284.127 192.969" stroke="#FFCC00" stroke-linecap="round" stroke-linejoin="round"/>
<path d="M191.108 90.7489H247.965C249.236 90.7495 250.494 91.0004 251.667 91.4873C252.84 91.9742 253.906 92.6875 254.804 93.5865C255.702 94.4855 256.413 95.5526 256.898 96.7268C257.384 97.901 257.632 99.1592 257.631 100.43V223.839C257.632 225.108 257.383 226.366 256.898 227.539C256.412 228.712 255.7 229.778 254.803 230.676C253.905 231.574 252.839 232.286 251.666 232.771C250.492 233.257 249.235 233.506 247.965 233.505H58.3171C57.0476 233.505 55.7903 233.256 54.6173 232.77C53.4442 232.285 52.3784 231.573 51.4807 230.675C50.5829 229.778 49.871 228.712 49.3855 227.539C48.9001 226.366 48.6506 225.108 48.6514 223.839V100.398C48.6502 99.1285 48.8994 97.8711 49.3847 96.6979C49.8701 95.5246 50.582 94.4586 51.4798 93.5608C52.3776 92.663 53.4436 91.9511 54.6168 91.4658C55.7901 90.9805 57.0475 90.7312 58.3171 90.7324H126.489" stroke="#FFCC00" stroke-linecap="round" stroke-linejoin="round"/>
<path d="M191.108 120.364H257.632" stroke="#FFCC00" stroke-linecap="round" stroke-linejoin="round"/>
<path d="M48.6514 120.364H126.489" stroke="#FFCC00" stroke-linecap="round" stroke-linejoin="round"/>
<path d="M66.1643 106.548C66.174 107.024 66.0886 107.498 65.913 107.941C65.7374 108.384 65.4751 108.788 65.1416 109.128C64.8081 109.468 64.41 109.739 63.9707 109.923C63.5313 110.108 63.0596 110.203 62.583 110.203C62.1064 110.203 61.6347 110.108 61.1953 109.923C60.756 109.739 60.3579 109.468 60.0244 109.128C59.6909 108.788 59.4286 108.384 59.253 107.941C59.0774 107.498 58.992 107.024 59.0017 106.548C59.0209 105.611 59.4066 104.718 60.0761 104.062C60.7457 103.406 61.6457 103.039 62.583 103.039C63.5203 103.039 64.4203 103.406 65.0899 104.062C65.7594 104.718 66.1451 105.611 66.1643 106.548Z" stroke="#FFCC00" stroke-linecap="round" stroke-linejoin="round"/>
<path d="M76.9668 106.548C76.9668 107.498 76.5894 108.409 75.9176 109.08C75.2459 109.752 74.3348 110.13 73.3848 110.13C72.4347 110.13 71.5236 109.752 70.8519 109.08C70.1801 108.409 69.8027 107.498 69.8027 106.548C69.8027 105.598 70.1801 104.686 70.8519 104.015C71.5236 103.343 72.4347 102.966 73.3848 102.966C74.3348 102.966 75.2459 103.343 75.9176 104.015C76.5894 104.686 76.9668 105.598 76.9668 106.548Z" stroke="#FFCC00" stroke-linecap="round" stroke-linejoin="round"/>
<path d="M87.7978 106.548C87.7978 107.256 87.5878 107.949 87.1942 108.538C86.8006 109.127 86.2411 109.586 85.5866 109.857C84.9321 110.128 84.2118 110.199 83.517 110.061C82.8222 109.923 82.1839 109.582 81.6829 109.081C81.182 108.58 80.8408 107.942 80.7026 107.247C80.5644 106.552 80.6353 105.832 80.9065 105.177C81.1776 104.523 81.6367 103.963 82.2257 103.57C82.8148 103.176 83.5074 102.966 84.2158 102.966C85.1651 102.968 86.0748 103.346 86.7461 104.018C87.4173 104.689 87.7955 105.599 87.7978 106.548Z" stroke="#FFCC00" stroke-linecap="round" stroke-linejoin="round"/>
<path d="M191.108 84.9689C191.104 83.2585 190.423 81.6192 189.214 80.4097C188.004 79.2002 186.365 78.5192 184.654 78.5156H132.943C131.232 78.5192 129.593 79.2002 128.383 80.4097C127.174 81.6192 126.493 83.2585 126.489 84.9689V136.684C126.494 138.394 127.175 140.032 128.384 141.241C129.594 142.45 131.233 143.131 132.943 143.134H184.654C186.365 143.131 188.005 142.45 189.214 141.241C190.424 140.031 191.105 138.391 191.108 136.681V84.9689Z" stroke="#FFCC00" stroke-linecap="round" stroke-linejoin="round"/>
<path d="M211.336 233.511V172.015C211.332 169.488 210.325 167.065 208.537 165.28C206.748 163.494 204.324 162.491 201.797 162.491H115.772C113.246 162.492 110.824 163.496 109.038 165.281C107.252 167.067 106.249 169.489 106.248 172.015V233.511" stroke="#FFCC00" stroke-linecap="round" stroke-linejoin="round"/>
<path d="M182.437 233.511V193.822C182.433 192.686 181.979 191.597 181.175 190.793C180.371 189.989 179.281 189.536 178.145 189.531H139.425C138.287 189.534 137.197 189.987 136.393 190.791C135.588 191.595 135.135 192.685 135.132 193.822V233.511" stroke="#FFCC00" stroke-linecap="round" stroke-linejoin="round"/>
<path d="M148.039 162.495V143.134" stroke="#FFCC00" stroke-linecap="round" stroke-linejoin="round"/>
<path d="M169.56 143.134V162.495" stroke="#FFCC00" stroke-linecap="round" stroke-linejoin="round"/>
<path d="M91.4658 149.851V134.977C91.4911 134.157 91.8346 133.379 92.4236 132.808C93.0127 132.236 93.8009 131.917 94.6214 131.917C95.4419 131.917 96.2301 132.236 96.8192 132.808C97.4082 133.379 97.7517 134.157 97.777 134.977V233.511" stroke="#FFCC00" stroke-linecap="round" stroke-linejoin="round"/>
<path d="M89.3769 149.85V128.636C89.3769 124.375 83.0508 124.547 83.0508 128.663V149.85" stroke="#FFCC00" stroke-linecap="round" stroke-linejoin="round"/>
<path d="M97.9471 164.683L109.29 154.194C109.75 153.77 110.072 153.219 110.218 152.611C110.363 152.003 110.325 151.366 110.107 150.78C109.816 149.994 109.225 149.356 108.464 149.006C107.703 148.656 106.834 148.621 106.048 148.911C105.659 149.055 105.302 149.274 104.997 149.556L97.781 156.211" stroke="#FFCC00" stroke-linecap="round" stroke-linejoin="round"/>
<path d="M80.9754 149.85V132.816C80.9573 131.987 80.6155 131.198 80.023 130.618C79.4305 130.039 78.6345 129.714 77.8055 129.714C76.9766 129.714 76.1806 130.039 75.5881 130.618C74.9956 131.198 74.6537 131.987 74.6357 132.816V149.85" stroke="#FFCC00" stroke-linecap="round" stroke-linejoin="round"/>
<path d="M72.5886 149.85V137.222H72.5602C72.5349 136.402 72.1914 135.624 71.6024 135.053C71.0133 134.482 70.2251 134.162 69.4046 134.162C68.5841 134.162 67.7959 134.482 67.2068 135.053C66.6178 135.624 66.2743 136.402 66.249 137.222V233.51" stroke="#FFCC00" stroke-linecap="round" stroke-linejoin="round"/>
<path d="M66.249 144.783H72.5886" stroke="#FFCC00" stroke-linecap="round" stroke-linejoin="round"/>
<path d="M74.6355 136.568H80.9751" stroke="#FFCC00" stroke-linecap="round" stroke-linejoin="round"/>
<path d="M74.6357 144.783H80.9754" stroke="#FFCC00" stroke-linecap="round" stroke-linejoin="round"/>
<path d="M83.1074 144.783H89.3827" stroke="#FFCC00" stroke-linecap="round" stroke-linejoin="round"/>
<path d="M83.1074 136.568H89.3722" stroke="#FFCC00" stroke-linecap="round" stroke-linejoin="round"/>
<path d="M91.4658 136.568H97.777" stroke="#FFCC00" stroke-linecap="round" stroke-linejoin="round"/>
<path d="M91.4658 144.783H97.777" stroke="#FFCC00" stroke-linecap="round" stroke-linejoin="round"/>
<path d="M69.8877 149.845H93.7678" stroke="#FFCC00" stroke-linecap="round" stroke-linejoin="round"/>
<path d="M100.961 153.278L105.276 157.906" stroke="#FFCC00" stroke-linecap="round" stroke-linejoin="round"/>
<path d="M66.249 173.553H97.7765" stroke="#FFCC00" stroke-linecap="round" stroke-linejoin="round"/>
<path d="M66.249 184.329H97.7765" stroke="#FFCC00" stroke-linecap="round" stroke-linejoin="round"/>
<path d="M66.249 195.102H97.7765" stroke="#FFCC00" stroke-linecap="round" stroke-linejoin="round"/>
<path d="M66.249 205.878H97.7765" stroke="#FFCC00" stroke-linecap="round" stroke-linejoin="round"/>
<path d="M66.249 216.652H97.7765" stroke="#FFCC00" stroke-linecap="round" stroke-linejoin="round"/>
<path d="M66.249 227.425H97.7765" stroke="#FFCC00" stroke-linecap="round" stroke-linejoin="round"/>
<path d="M158.785 78.5167V63.6484" stroke="#FFCC00" stroke-linecap="round" stroke-linejoin="round"/>
<path d="M163.22 59.242C163.221 60.1193 162.961 60.977 162.473 61.7064C161.986 62.4357 161.293 63.0039 160.482 63.3388C159.876 63.5888 159.222 63.7015 158.567 63.6688C157.913 63.6361 157.273 63.4588 156.695 63.1497C156.117 62.8406 155.615 62.4073 155.224 61.8809C154.833 61.3545 154.564 60.7482 154.435 60.1054C154.264 59.2451 154.351 58.3531 154.687 57.5425C155.022 56.732 155.591 56.0393 156.321 55.5523C157.05 55.0654 157.908 54.8056 158.785 54.8057C159.961 54.8072 161.088 55.2752 161.92 56.1069C162.751 56.9386 163.219 58.0661 163.22 59.242Z" stroke="#FFCC00" stroke-linecap="round" stroke-linejoin="round"/>
<path d="M145.054 97.8187C145.053 98.7008 144.702 99.5465 144.077 100.17C143.453 100.793 142.607 101.143 141.725 101.142C140.842 101.141 139.997 100.79 139.373 100.166C138.75 99.5412 138.401 98.6948 138.401 97.8127C138.402 97.3759 138.488 96.9434 138.656 96.54C138.823 96.1366 139.069 95.7702 139.378 95.4616C139.687 95.153 140.054 94.9083 140.457 94.7415C140.861 94.5748 141.294 94.4891 141.731 94.4895C142.167 94.4899 142.6 94.5763 143.003 94.7438C143.407 94.9114 143.773 95.1567 144.082 95.4658C144.39 95.775 144.635 96.1419 144.802 96.5456C144.968 96.9493 145.054 97.3819 145.054 97.8187Z" stroke="#FFCC00" stroke-linecap="round" stroke-linejoin="round"/>
<path d="M179.168 97.8181C179.175 98.6481 178.872 99.451 178.317 100.069C177.763 100.686 176.997 101.074 176.171 101.155C175.345 101.237 174.518 101.006 173.854 100.509C173.189 100.011 172.735 99.283 172.58 98.4674C172.489 98.012 172.495 97.5425 172.596 97.0893C172.698 96.6361 172.893 96.2091 173.169 95.836C173.446 95.4628 173.798 95.1517 174.202 94.9227C174.606 94.6937 175.053 94.5518 175.516 94.5063C175.978 94.4607 176.444 94.5125 176.885 94.6582C177.326 94.8039 177.732 95.0404 178.076 95.3523C178.42 95.6643 178.695 96.0449 178.883 96.4696C179.071 96.8943 179.168 97.3536 179.168 97.8181Z" stroke="#FFCC00" stroke-linecap="round" stroke-linejoin="round"/>
<path d="M152.417 103.562C156.767 106.377 161.031 106.555 165.153 103.562" stroke="#FFCC00" stroke-linecap="round" stroke-linejoin="round"/>
<path d="M148.039 149.361H169.56" stroke="#FFCC00" stroke-linecap="round" stroke-linejoin="round"/>
<path d="M148.039 156.297H169.56" stroke="#FFCC00" stroke-linecap="round" stroke-linejoin="round"/>
<path d="M123.959 233.51V197.604" stroke="#FFCC00" stroke-linecap="round" stroke-linejoin="round"/>
<path d="M127.058 194.506C127.058 195.119 126.876 195.719 126.535 196.228C126.194 196.738 125.71 197.135 125.143 197.368C124.576 197.601 123.954 197.662 123.353 197.542C122.753 197.422 122.201 197.128 121.767 196.695C121.335 196.261 121.04 195.709 120.921 195.108C120.801 194.507 120.863 193.884 121.097 193.318C121.37 192.654 121.866 192.106 122.498 191.767C123.131 191.428 123.862 191.32 124.566 191.46C125.27 191.6 125.903 191.981 126.358 192.536C126.812 193.092 127.06 193.788 127.058 194.506Z" stroke="#FFCC00" stroke-linecap="round" stroke-linejoin="round"/>
<path d="M194.207 233.511V223.276" stroke="#FFCC00" stroke-linecap="round" stroke-linejoin="round"/>
<path d="M197.334 220.174C197.335 220.787 197.154 221.387 196.814 221.897C196.474 222.408 195.99 222.805 195.423 223.04C194.856 223.275 194.233 223.336 193.631 223.216C193.03 223.095 192.478 222.799 192.045 222.364C191.611 221.932 191.315 221.38 191.195 220.778C191.075 220.177 191.137 219.553 191.373 218.987C191.608 218.421 192.005 217.938 192.515 217.598C193.024 217.257 193.623 217.075 194.236 217.075C195.056 217.078 195.843 217.406 196.423 217.986C197.004 218.567 197.331 219.353 197.334 220.174Z" stroke="#FFCC00" stroke-linecap="round" stroke-linejoin="round"/>
<path d="M194.207 217.049V183.135C194.205 181.816 193.681 180.552 192.748 179.619C191.815 178.686 190.551 178.162 189.232 178.16H128.933C127.614 178.161 126.349 178.685 125.416 179.618C124.483 180.551 123.959 181.816 123.958 183.135V191.38" stroke="#FFCC00" stroke-linecap="round" stroke-linejoin="round"/>
<path d="M150.341 59.2422H143.774" stroke="#FFCC00" stroke-linecap="round" stroke-linejoin="round"/>
<path d="M152.815 65.1836L148.181 69.8459" stroke="#FFCC00" stroke-linecap="round" stroke-linejoin="round"/>
<path d="M158.785 50.7124V43.5498" stroke="#FFCC00" stroke-linecap="round" stroke-linejoin="round"/>
<path d="M152.786 53.2157L147.697 48.127" stroke="#FFCC00" stroke-linecap="round" stroke-linejoin="round"/>
<path d="M167.228 59.2422H173.795" stroke="#FFCC00" stroke-linecap="round" stroke-linejoin="round"/>
<path d="M164.755 65.1836L169.417 69.8459" stroke="#FFCC00" stroke-linecap="round" stroke-linejoin="round"/>
<path d="M164.812 53.2157L169.9 48.127" stroke="#FFCC00" stroke-linecap="round" stroke-linejoin="round"/>
<path d="M218.514 53.2153C218.514 53.5391 218.443 53.859 218.305 54.1518C218.167 54.4447 217.965 54.7032 217.715 54.9086C217.465 55.1141 217.172 55.2614 216.858 55.3398C216.544 55.4183 216.216 55.426 215.898 55.3624C215.473 55.2786 215.083 55.0703 214.776 54.7639C214.47 54.4575 214.262 54.0669 214.178 53.6418C214.09 53.1815 214.151 52.7052 214.353 52.2823C214.555 51.8595 214.887 51.5122 215.3 51.2912C215.713 51.0701 216.186 50.9869 216.65 51.0537C217.114 51.1204 217.544 51.3336 217.878 51.6622C218.081 51.8661 218.242 52.1084 218.352 52.375C218.461 52.6416 218.516 52.9272 218.514 53.2153Z" stroke="#FFCC00" stroke-linecap="round" stroke-linejoin="round"/>
<path d="M228.037 53.2154C228.038 53.6486 227.91 54.0722 227.67 54.4326C227.429 54.793 227.087 55.0739 226.687 55.2398C226.287 55.4057 225.847 55.449 225.422 55.3643C224.997 55.2796 224.607 55.0707 224.301 54.764C223.995 54.4577 223.786 54.0676 223.701 53.6428C223.617 53.2181 223.66 52.7778 223.825 52.3775C223.992 51.9783 224.273 51.6371 224.633 51.3968C224.993 51.1565 225.415 51.0276 225.848 51.0264C226.427 51.0318 226.981 51.2642 227.39 51.6736C227.799 52.0829 228.032 52.6365 228.037 53.2154Z" stroke="#FFCC00" stroke-linecap="round" stroke-linejoin="round"/>
<path d="M237.53 53.2153C237.531 53.5391 237.46 53.859 237.321 54.1518C237.183 54.4447 236.982 54.7032 236.731 54.9086C236.481 55.1141 236.188 55.2614 235.874 55.3398C235.56 55.4183 235.233 55.426 234.915 55.3624C234.49 55.2786 234.099 55.0703 233.793 54.7639C233.487 54.4575 233.278 54.0669 233.194 53.6418C233.106 53.1815 233.168 52.7052 233.37 52.2823C233.572 51.8595 233.903 51.5122 234.316 51.2912C234.73 51.0701 235.203 50.9869 235.666 51.0537C236.13 51.1204 236.56 51.3336 236.895 51.6622C237.098 51.8661 237.259 52.1084 237.368 52.375C237.477 52.6416 237.532 52.9272 237.53 53.2153Z" stroke="#FFCC00" stroke-linecap="round" stroke-linejoin="round"/>
<path d="M225.82 32.8604C213.51 32.8604 203.526 41.9875 203.526 53.2094C203.536 57.1484 204.778 60.9856 207.079 64.1829L203.526 73.5643L212.862 69.7609C216.72 72.2571 221.219 73.5785 225.814 73.5643C238.123 73.5643 248.108 64.4372 248.108 53.2153C248.108 41.9575 238.129 32.8604 225.82 32.8604Z" stroke="#FFCC00" stroke-linecap="round" stroke-linejoin="round"/>
</svg>
