<svg xmlns="http://www.w3.org/2000/svg" width="23" height="23" viewBox="0 0 23 23" fill="none">
  <path d="M21 11C21 5.477 16.523 1 11 1C5.477 1 1 5.477 1 11C1 16.523 5.477 21 11 21" stroke="#FFCC00" stroke-width="1.5" stroke-linecap="round" stroke-linejoin="round"/>
  <path d="M12.0009 1.05005C12.0009 1.05005 15.0009 5.00005 15.0009 11M10.0009 20.9501C10.0009 20.9501 7.00086 17 7.00086 11C7.00086 5.00005 10.0009 1.05005 10.0009 1.05005M1.63086 14.5H11.0009M1.63086 7.50005H20.3709M18.0009 16.5V18H19.5009" stroke="#FFCC00" stroke-width="1.5" stroke-linecap="round" stroke-linejoin="round"/>
  <path d="M18 22C19.0609 22 20.0783 21.5786 20.8284 20.8284C21.5786 20.0783 22 19.0609 22 18C22 16.9391 21.5786 15.9217 20.8284 15.1716C20.0783 14.4214 19.0609 14 18 14C16.9391 14 15.9217 14.4214 15.1716 15.1716C14.4214 15.9217 14 16.9391 14 18C14 19.0609 14.4214 20.0783 15.1716 20.8284C15.9217 21.5786 16.9391 22 18 22Z" stroke="#FFCC00" stroke-width="1.5" stroke-linecap="round" stroke-linejoin="round"/>
</svg>