<svg xmlns="http://www.w3.org/2000/svg" width="24" height="24" viewBox="0 0 24 24" fill="none">
  <path d="M9.65373 2.00196C8.9292 2.04411 8.24818 2.62368 8.28068 3.49805C8.31568 4.43805 7.45554 5.1599 6.53654 4.9629C5.16654 4.6689 4.2245 6.3028 5.1635 7.3418C5.7945 8.0388 5.59996 9.14204 4.76896 9.58204C3.53096 10.237 3.85853 12.0951 5.24553 12.2871C6.17753 12.4161 6.7382 13.3888 6.3842 14.2598C6.20056 14.7117 6.26554 15.1479 6.46623 15.5L4.72795 18.4981C4.63976 18.6501 4.59319 18.8226 4.59292 18.9984C4.59265 19.1741 4.6387 19.3468 4.72643 19.4991C4.81415 19.6514 4.94046 19.7779 5.09262 19.8658C5.24479 19.9538 5.41744 20 5.59318 20H7.35686V20.002L8.05803 21.5391C8.13364 21.7049 8.25313 21.8469 8.40359 21.9498C8.55405 22.0526 8.72976 22.1124 8.91173 22.1227C9.0937 22.1329 9.27502 22.0933 9.43608 22.008C9.59715 21.9227 9.73184 21.795 9.82561 21.6387L11.9838 18.041L14.142 21.6387C14.2358 21.795 14.3705 21.9227 14.5315 22.008C14.6926 22.0933 14.8739 22.1329 15.0559 22.1227C15.2379 22.1124 15.4136 22.0526 15.564 21.9498C15.7145 21.8469 15.834 21.7049 15.9096 21.5391L16.6108 20H18.3744C18.5502 20 18.7228 19.9538 18.875 19.8658C19.0272 19.7779 19.1535 19.6514 19.2412 19.4991C19.3289 19.3468 19.375 19.1741 19.3747 18.9984C19.3744 18.8226 19.3279 18.6501 19.2397 18.4981L17.519 15.5313C17.7339 15.1743 17.8059 14.7251 17.6166 14.2598C17.2626 13.3888 17.8233 12.4161 18.7553 12.2871C20.1413 12.0951 20.4679 10.237 19.2299 9.58204C18.3989 9.14204 18.2044 8.0388 18.8354 7.3418C19.7744 6.3028 18.8313 4.6689 17.4623 4.9629C16.5423 5.1609 15.6832 4.43805 15.7182 3.49805C15.7702 2.09905 13.9981 1.45555 13.1381 2.56055C12.5601 3.30255 11.4378 3.30255 10.8608 2.56055C10.5383 2.14618 10.0884 1.97667 9.65373 2.00196ZM14.5834 7.12501C14.8394 7.12501 15.0954 7.22298 15.2904 7.41798C15.6804 7.80798 15.6804 8.44009 15.2904 8.83009L12.1674 11.9531C11.7934 12.3271 11.1904 12.3442 10.7944 11.9902L9.24553 10.6055C8.81853 10.2225 8.80046 9.5603 9.20646 9.1543L9.23967 9.1211C9.59967 8.7601 10.1737 8.72884 10.5717 9.04884L11.4994 9.79493L13.8764 7.41798C14.0714 7.22298 14.3274 7.12501 14.5834 7.12501ZM9.11662 15.8086C9.68708 15.7548 10.2536 16.0528 10.5287 16.584L9.05803 19.0332C8.70452 18.4187 8.07631 18 7.35686 18H7.32951L8.47209 16.0313C8.47735 16.028 8.48246 16.0267 8.48771 16.0234C8.68696 15.8984 8.90121 15.8289 9.11662 15.8086ZM14.8842 15.8086C15.0894 15.828 15.2926 15.8957 15.4838 16.0098L16.6381 18H16.6108C15.8921 18 15.2632 18.4174 14.9096 19.0332L13.4584 16.6152C13.7273 16.065 14.303 15.7538 14.8842 15.8086Z" fill="#FFCC00"/>
</svg>