<svg xmlns="http://www.w3.org/2000/svg" width="24" height="24" viewBox="0 0 24 24" fill="none">
  <mask id="path-1-inside-1_2242_9649" fill="white">
    <path fill-rule="evenodd" clip-rule="evenodd" d="M9.14286 2C8.47982 2 7.84393 2.26339 7.37509 2.73223C6.90625 3.20107 6.64286 3.83696 6.64286 4.5V6.28571H4.85714C4.09938 6.28571 3.37266 6.58673 2.83684 7.12255C2.30102 7.65837 2 8.3851 2 9.14286V19.1429C2 19.9006 2.30102 20.6273 2.83684 21.1632C3.37266 21.699 4.09938 22 4.85714 22H19.1429C19.9006 22 20.6273 21.699 21.1632 21.1632C21.699 20.6273 22 19.9006 22 19.1429V9.14286C22 8.3851 21.699 7.65837 21.1632 7.12255C20.6273 6.58673 19.9006 6.28571 19.1429 6.28571H17.3571V4.5C17.3571 3.83696 17.0938 3.20107 16.6249 2.73223C16.1561 2.26339 15.5202 2 14.8571 2H9.14286ZM15.2143 6.28571V4.5C15.2143 4.40528 15.1767 4.31444 15.1097 4.24746C15.0427 4.18048 14.9519 4.14286 14.8571 4.14286H9.14286C9.04814 4.14286 8.9573 4.18048 8.89032 4.24746C8.82334 4.31444 8.78571 4.40528 8.78571 4.5V6.28571H15.2143ZM4.85714 8.42857H19.1429C19.3323 8.42857 19.514 8.50383 19.6479 8.63778C19.7819 8.77174 19.8571 8.95342 19.8571 9.14286V10.5714H4.14286V9.14286C4.14286 8.95342 4.21811 8.77174 4.35207 8.63778C4.48602 8.50383 4.6677 8.42857 4.85714 8.42857ZM4.14286 12.7143V19.1429C4.14286 19.3323 4.21811 19.514 4.35207 19.6479C4.48602 19.7819 4.6677 19.8571 4.85714 19.8571H19.1429C19.3323 19.8571 19.514 19.7819 19.6479 19.6479C19.7819 19.514 19.8571 19.3323 19.8571 19.1429V12.7143H13.4286V14.8571H10.5714V12.7143H4.14286Z"/>
  </mask>
  <path d="M9.14286 2L9.14286 -30L9.14286 2ZM6.64286 6.28571V38.2857H38.6429V6.28571H6.64286ZM4.85714 6.28571V-25.7143V6.28571ZM2 9.14286H-30H2ZM2 19.1429L-30 19.1429L2 19.1429ZM19.1429 6.28571V-25.7143V6.28571ZM17.3571 6.28571H-14.6429V38.2857H17.3571V6.28571ZM15.2143 6.28571V38.2857H47.2143V6.28571H15.2143ZM8.78571 6.28571H-23.2143V38.2857H8.78571V6.28571ZM19.8571 10.5714V42.5714H51.8571V10.5714H19.8571ZM4.14286 10.5714H-27.8571V42.5714H4.14286V10.5714ZM4.14286 12.7143V-19.2857H-27.8571V12.7143H4.14286ZM19.8571 12.7143H51.8571V-19.2857H19.8571V12.7143ZM13.4286 12.7143V-19.2857H-18.5714V12.7143H13.4286ZM13.4286 14.8571V46.8571H45.4286V14.8571H13.4286ZM10.5714 14.8571H-21.4286V46.8571H10.5714V14.8571ZM10.5714 12.7143H42.5714V-19.2857H10.5714V12.7143ZM9.14286 -30C-0.00711226 -30 -8.78232 -26.3652 -15.2523 -19.8952L30.0025 25.3596C24.4702 30.892 16.9667 34 9.14286 34L9.14286 -30ZM-15.2523 -19.8952C-21.7223 -13.4252 -25.3571 -4.64997 -25.3571 4.5H38.6429C38.6429 12.3239 35.5348 19.8273 30.0025 25.3596L-15.2523 -19.8952ZM-25.3571 4.5V6.28571H38.6429V4.5H-25.3571ZM6.64286 -25.7143H4.85714V38.2857H6.64286V-25.7143ZM4.85714 -25.7143C-4.38754 -25.7143 -13.2536 -22.0418 -19.7906 -15.5049L25.4643 29.75C19.9989 35.2153 12.5863 38.2857 4.85714 38.2857V-25.7143ZM-19.7906 -15.5049C-26.3276 -8.96788 -30 -0.101831 -30 9.14286L34 9.14286C34 16.872 30.9296 24.2846 25.4643 29.75L-19.7906 -15.5049ZM-30 9.14286V19.1429H34V9.14286H-30ZM-30 19.1429C-30 28.3876 -26.3276 37.2536 -19.7906 43.7906L25.4643 -1.46425C30.9296 4.00109 34 11.4137 34 19.1429L-30 19.1429ZM-19.7906 43.7906C-13.2536 50.3275 -4.38756 54 4.85714 54V-10C12.5863 -10 19.9989 -6.92959 25.4643 -1.46425L-19.7906 43.7906ZM4.85714 54H19.1429V-10H4.85714V54ZM19.1429 54C28.3876 54 37.2536 50.3275 43.7906 43.7906L-1.46425 -1.46425C4.00108 -6.92958 11.4137 -10 19.1429 -10V54ZM43.7906 43.7906C50.3275 37.2536 54 28.3876 54 19.1429H-10C-10 11.4137 -6.92958 4.00108 -1.46425 -1.46425L43.7906 43.7906ZM54 19.1429V9.14286H-10V19.1429H54ZM54 9.14286C54 -0.101846 50.3276 -8.96789 43.7906 -15.5049L-1.46425 29.75C-6.92959 24.2846 -10 16.872 -10 9.14286H54ZM43.7906 -15.5049C37.2536 -22.0418 28.3876 -25.7143 19.1429 -25.7143L19.1429 38.2857C11.4137 38.2857 4.00109 35.2153 -1.46425 29.75L43.7906 -15.5049ZM19.1429 -25.7143H17.3571V38.2857H19.1429V-25.7143ZM49.3571 6.28571V4.5H-14.6429V6.28571H49.3571ZM49.3571 4.5C49.3571 -4.64995 45.7223 -13.4252 39.2523 -19.8952L-6.00251 25.3596C-11.5348 19.8273 -14.6429 12.3239 -14.6429 4.5H49.3571ZM39.2523 -19.8952C32.7823 -26.3652 24.0071 -30 14.8571 -30V34C7.03327 34 -0.470177 30.892 -6.00251 25.3596L39.2523 -19.8952ZM14.8571 -30H9.14286V34H14.8571V-30ZM47.2143 6.28571V4.5H-16.7857V6.28571H47.2143ZM47.2143 4.5C47.2143 -4.08159 43.8053 -12.3118 37.7371 -18.38L-7.51774 26.8749C-13.452 20.9407 -16.7857 12.8922 -16.7857 4.5H47.2143ZM37.7371 -18.38C31.669 -24.4481 23.4388 -27.8571 14.8571 -27.8571V36.1429C6.46495 36.1429 -1.58354 32.8091 -7.51774 26.8749L37.7371 -18.38ZM14.8571 -27.8571H9.14286V36.1429H14.8571V-27.8571ZM9.14286 -27.8571C0.561219 -27.8571 -7.66895 -24.4481 -13.7371 -18.38L31.5177 26.8749C25.5835 32.8091 17.5351 36.1429 9.14286 36.1429V-27.8571ZM-13.7371 -18.38C-19.8053 -12.3118 -23.2143 -4.08159 -23.2143 4.5H40.7857C40.7857 12.8922 37.452 20.9407 31.5177 26.8749L-13.7371 -18.38ZM-23.2143 4.5V6.28571H40.7857V4.5H-23.2143ZM8.78571 38.2857H15.2143V-25.7143H8.78571V38.2857ZM4.85714 40.4286H19.1429V-23.5714H4.85714V40.4286ZM19.1429 40.4286C10.8454 40.4286 2.88773 37.1324 -2.97948 31.2652L42.2754 -13.9896C36.1402 -20.1248 27.8192 -23.5714 19.1429 -23.5714V40.4286ZM-2.97948 31.2652C-8.84673 25.3979 -12.1429 17.4403 -12.1429 9.14286H51.8571C51.8571 0.466545 48.4105 -7.85448 42.2754 -13.9896L-2.97948 31.2652ZM-12.1429 9.14286V10.5714H51.8571V9.14286H-12.1429ZM19.8571 -21.4286H4.14286V42.5714H19.8571V-21.4286ZM36.1429 10.5714V9.14286H-27.8571V10.5714H36.1429ZM36.1429 9.14286C36.1429 17.4404 32.8467 25.398 26.9795 31.2652L-18.2754 -13.9896C-24.4105 -7.85453 -27.8571 0.466467 -27.8571 9.14286H36.1429ZM26.9795 31.2652C21.1123 37.1324 13.1547 40.4286 4.85714 40.4286V-23.5714C-3.81925 -23.5714 -12.1402 -20.1247 -18.2754 -13.9896L26.9795 31.2652ZM-27.8571 12.7143V19.1429H36.1429V12.7143H-27.8571ZM-27.8571 19.1429C-27.8571 27.8192 -24.4105 36.1402 -18.2754 42.2754L26.9795 -2.97948C32.8467 2.88773 36.1429 10.8454 36.1429 19.1429H-27.8571ZM-18.2754 42.2754C-12.1402 48.4105 -3.81917 51.8571 4.85714 51.8571V-12.1429C13.1546 -12.1429 21.1122 -8.84673 26.9795 -2.97948L-18.2754 42.2754ZM4.85714 51.8571H19.1429V-12.1429H4.85714V51.8571ZM19.1429 51.8571C27.8191 51.8571 36.1402 48.4105 42.2754 42.2754L-2.97948 -2.97948C2.88779 -8.84675 10.8455 -12.1429 19.1429 -12.1429V51.8571ZM42.2754 42.2754C48.4105 36.1402 51.8571 27.8191 51.8571 19.1429H-12.1429C-12.1429 10.8455 -8.84675 2.88779 -2.97948 -2.97948L42.2754 42.2754ZM51.8571 19.1429V12.7143H-12.1429V19.1429H51.8571ZM19.8571 -19.2857H13.4286V44.7143H19.8571V-19.2857ZM-18.5714 12.7143V14.8571H45.4286V12.7143H-18.5714ZM13.4286 -17.1429H10.5714V46.8571H13.4286V-17.1429ZM42.5714 14.8571V12.7143H-21.4286V14.8571H42.5714ZM10.5714 -19.2857H4.14286V44.7143H10.5714V-19.2857Z" fill="#FFCC00" mask="url(#path-1-inside-1_2242_9649)"/>
</svg>