<svg width="24" height="24" viewBox="0 0 24 24" fill="none" xmlns="http://www.w3.org/2000/svg">
<path d="M12 2C10.9102 2 10 2.91016 10 4V5H8.8125C8.3125 5 7.91406 5.3125 7.8125 5.8125L6.1875 13.8125C6.08594 14.4141 6.48828 15 7.1875 15H16.8125C17.4141 15 17.9141 14.4141 17.8125 13.8125L16.1875 5.8125C16.0859 5.3125 15.6875 5 15.1875 5H14V4C14 2.91016 13.0898 2 12 2ZM12 3C12.5078 3 13 3.49219 13 4V5H11V4C11 3.49219 11.4922 3 12 3ZM10.5 6C10.8008 6 11 6.19922 11 6.5C11 6.80078 10.8008 7 10.5 7C10.1992 7 10 6.80078 10 6.5C10 6.19922 10.1992 6 10.5 6ZM13.5 6C13.8008 6 14 6.19922 14 6.5C14 6.80078 13.8008 7 13.5 7C13.1992 7 13 6.80078 13 6.5C13 6.19922 13.1992 6 13.5 6ZM5.8125 11.0938L2 13.3125V16.1875L12 22L22 16.1875V13.3125L18.1875 11.0938L18.5938 13L20.7188 14.25L12 19.3125L3.28125 14.25L5.40625 13L5.8125 11.0938Z" fill="#FFCC00"/>
</svg>
