<svg xmlns="http://www.w3.org/2000/svg" width="24" height="24" viewBox="0 0 24 24" fill="none">
  <mask id="path-1-inside-1_2242_8189" fill="white">
    <path d="M4.5 15.75V15H3V15.75C3 17.1424 3.55312 18.4777 4.53769 19.4623C5.52226 20.4469 6.85761 21 8.25 21H10.5V19.5H8.25C7.25544 19.5 6.30161 19.1049 5.59835 18.4017C4.89509 17.6984 4.5 16.7446 4.5 15.75ZM18 8.25V9H19.5V8.25C19.5 6.85761 18.9469 5.52226 17.9623 4.53769C16.9777 3.55312 15.6424 3 14.25 3H12V4.5H14.25C14.7425 4.5 15.2301 4.597 15.6851 4.78545C16.14 4.97391 16.5534 5.25013 16.9017 5.59835C17.2499 5.94657 17.5261 6.35997 17.7145 6.81494C17.903 7.26991 18 7.75754 18 8.25ZM8.25 8.25H3.75C3.15326 8.25 2.58097 8.48705 2.15901 8.90901C1.73705 9.33097 1.5 9.90326 1.5 10.5V12H3V10.5C3 10.3011 3.07902 10.1103 3.21967 9.96967C3.36032 9.82902 3.55109 9.75 3.75 9.75H8.25C8.44891 9.75 8.63968 9.82902 8.78033 9.96967C8.92098 10.1103 9 10.3011 9 10.5V12H10.5V10.5C10.5 9.90326 10.2629 9.33097 9.84099 8.90901C9.41903 8.48705 8.84674 8.25 8.25 8.25ZM6 7.5C6.59334 7.5 7.17336 7.32405 7.66671 6.99441C8.16006 6.66477 8.54458 6.19623 8.77164 5.64805C8.9987 5.09987 9.05811 4.49667 8.94236 3.91473C8.8266 3.33279 8.54088 2.79824 8.12132 2.37868C7.70176 1.95912 7.16721 1.6734 6.58527 1.55765C6.00333 1.44189 5.40013 1.5013 4.85195 1.72836C4.30377 1.95543 3.83524 2.33994 3.50559 2.83329C3.17595 3.32664 3 3.90666 3 4.5C3 5.29565 3.31607 6.05871 3.87868 6.62132C4.44129 7.18393 5.20435 7.5 6 7.5ZM6 3C6.29667 3 6.58668 3.08797 6.83335 3.2528C7.08003 3.41762 7.27229 3.65189 7.38582 3.92598C7.49935 4.20007 7.52906 4.50167 7.47118 4.79264C7.4133 5.08361 7.27044 5.35088 7.06066 5.56066C6.85088 5.77044 6.58361 5.9133 6.29264 5.97118C6.00166 6.02906 5.70006 5.99935 5.42597 5.88582C5.15189 5.77229 4.91762 5.58003 4.7528 5.33336C4.58797 5.08668 4.5 4.79667 4.5 4.5C4.5 4.10218 4.65804 3.72065 4.93934 3.43934C5.22064 3.15804 5.60218 3 6 3ZM20.25 18.75H15.75C15.1533 18.75 14.581 18.9871 14.159 19.409C13.7371 19.831 13.5 20.4033 13.5 21V22.5H15V21C15 20.8011 15.079 20.6103 15.2197 20.4697C15.3603 20.329 15.5511 20.25 15.75 20.25H20.25C20.4489 20.25 20.6397 20.329 20.7803 20.4697C20.921 20.6103 21 20.8011 21 21V22.5H22.5V21C22.5 20.4033 22.2629 19.831 21.841 19.409C21.419 18.9871 20.8467 18.75 20.25 18.75ZM15 15C15 15.5933 15.1759 16.1734 15.5056 16.6667C15.8352 17.1601 16.3038 17.5446 16.8519 17.7716C17.4001 17.9987 18.0033 18.0581 18.5853 17.9424C19.1672 17.8266 19.7018 17.5409 20.1213 17.1213C20.5409 16.7018 20.8266 16.1672 20.9424 15.5853C21.0581 15.0033 20.9987 14.4001 20.7716 13.852C20.5446 13.3038 20.1601 12.8352 19.6667 12.5056C19.1734 12.1759 18.5933 12 18 12C17.2044 12 16.4413 12.3161 15.8787 12.8787C15.3161 13.4413 15 14.2044 15 15ZM19.5 15C19.5 15.2967 19.412 15.5867 19.2472 15.8334C19.0824 16.08 18.8481 16.2723 18.574 16.3858C18.2999 16.4994 17.9983 16.5291 17.7074 16.4712C17.4164 16.4133 17.1491 16.2704 16.9393 16.0607C16.7296 15.8509 16.5867 15.5836 16.5288 15.2926C16.4709 15.0017 16.5006 14.7001 16.6142 14.426C16.7277 14.1519 16.92 13.9176 17.1666 13.7528C17.4133 13.588 17.7033 13.5 18 13.5C18.3978 13.5 18.7794 13.658 19.0607 13.9393C19.342 14.2206 19.5 14.6022 19.5 15Z"/>
  </mask>
  <path d="M4.5 15H20.5V-0.999999H4.5V15ZM3 15V-0.999999H-13V15H3ZM3 15.75H-13H3ZM8.25 21V37V21ZM10.5 21V37H26.5V21H10.5ZM10.5 19.5H26.5V3.5H10.5V19.5ZM18 9H2V25H18V9ZM19.5 9V25H35.5V9H19.5ZM12 3V-13H-4V3H12ZM12 4.5H-4V20.5H12V4.5ZM3.75 8.25V24.25V8.25ZM1.5 10.5H-14.5H1.5ZM1.5 12H-14.5V28H1.5V12ZM3 12V28H19V12H3ZM9 12H-7V28H9V12ZM10.5 12V28H26.5V12H10.5ZM10.5 10.5L26.5 10.5L10.5 10.5ZM3 4.5H-13H3ZM13.5 21H-2.5H13.5ZM13.5 22.5H-2.5V38.5H13.5V22.5ZM15 22.5V38.5H31V22.5H15ZM21 22.5H5V38.5H21V22.5ZM22.5 22.5V38.5H38.5V22.5H22.5ZM22.5 21H38.5H22.5ZM18 12V28V12ZM20.5 15.75V15H-11.5V15.75H20.5ZM4.5 -0.999999H3V31H4.5V-0.999999ZM-13 15V15.75H19V15H-13ZM-13 15.75C-13 21.3859 -10.7612 26.7909 -6.77602 30.776L15.8514 8.1486C17.8674 10.1646 19 12.8989 19 15.75L-13 15.75ZM-6.77602 30.776C-2.79087 34.7612 2.61415 37 8.25 37V5C11.1011 5 13.8354 6.13259 15.8514 8.1486L-6.77602 30.776ZM8.25 37H10.5V5H8.25V37ZM26.5 21V19.5H-5.5V21H26.5ZM10.5 3.5H8.25V35.5H10.5V3.5ZM8.25 3.5C11.4989 3.5 14.6147 4.79062 16.9121 7.08794L-5.71536 29.7154C-2.01152 33.4192 3.01197 35.5 8.25 35.5V3.5ZM16.9121 7.08794C19.2094 9.38526 20.5 12.5011 20.5 15.75H-11.5C-11.5 20.988 -9.4192 26.0115 -5.71536 29.7154L16.9121 7.08794ZM2 8.25V9H34V8.25H2ZM18 25H19.5V-7H18V25ZM35.5 9V8.25H3.5V9H35.5ZM35.5 8.25C35.5 2.61415 33.2612 -2.79087 29.276 -6.77602L6.6486 15.8514C4.63259 13.8354 3.5 11.1011 3.5 8.25H35.5ZM29.276 -6.77602C25.2909 -10.7612 19.8859 -13 14.25 -13V19C11.3989 19 8.66462 17.8674 6.6486 15.8514L29.276 -6.77602ZM14.25 -13H12V19H14.25V-13ZM-4 3V4.5H28V3H-4ZM12 20.5H14.25V-11.5H12V20.5ZM14.25 20.5C12.6413 20.5 11.0484 20.1831 9.56213 19.5675L21.808 -9.99662C19.4118 -10.9892 16.8436 -11.5 14.25 -11.5V20.5ZM9.56213 19.5675C8.07588 18.9519 6.72546 18.0496 5.58794 16.9121L28.2154 -5.71536C26.3814 -7.54931 24.2042 -9.00409 21.808 -9.99662L9.56213 19.5675ZM5.58794 16.9121C4.45043 15.7745 3.5481 14.4241 2.93248 12.9379L32.4966 0.692004C31.5041 -1.70418 30.0493 -3.8814 28.2154 -5.71536L5.58794 16.9121ZM2.93248 12.9379C2.31685 11.4516 2 9.85869 2 8.25H34C34 5.6564 33.4892 3.08819 32.4966 0.692004L2.93248 12.9379ZM8.25 -7.75H3.75V24.25H8.25V-7.75ZM3.75 -7.75C-1.0902 -7.75 -5.73216 -5.82724 -9.1547 -2.4047L13.4727 20.2227C10.8941 22.8013 7.39672 24.25 3.75 24.25V-7.75ZM-9.1547 -2.4047C-12.5772 1.01784 -14.5 5.6598 -14.5 10.5L17.5 10.5C17.5 14.1467 16.0513 17.6441 13.4727 20.2227L-9.1547 -2.4047ZM-14.5 10.5V12H17.5V10.5H-14.5ZM1.5 28H3V-4H1.5V28ZM19 12V10.5H-13V12H19ZM19 10.5C19 14.5446 17.3933 18.4235 14.5334 21.2834L-8.09404 -1.34404C-11.2353 1.79719 -13 6.05761 -13 10.5H19ZM14.5334 21.2834C11.6735 24.1433 7.79456 25.75 3.75 25.75V-6.25C-0.692387 -6.25 -4.95281 -4.48526 -8.09404 -1.34404L14.5334 21.2834ZM3.75 25.75H8.25V-6.25H3.75V25.75ZM8.25 25.75C4.20544 25.75 0.326543 24.1433 -2.53338 21.2834L20.094 -1.34404C16.9528 -4.48526 12.6924 -6.25 8.25 -6.25V25.75ZM-2.53338 21.2834C-5.3933 18.4235 -7 14.5446 -7 10.5H25C25 6.05761 23.2353 1.79719 20.094 -1.34404L-2.53338 21.2834ZM-7 10.5V12H25V10.5H-7ZM9 28H10.5V-4H9V28ZM26.5 12V10.5H-5.5V12H26.5ZM26.5 10.5C26.5 5.65981 24.5772 1.01785 21.1547 -2.4047L-1.47272 20.2227C-4.05135 17.6441 -5.5 14.1467 -5.5 10.5L26.5 10.5ZM21.1547 -2.4047C17.7322 -5.82724 13.0902 -7.75 8.25 -7.75V24.25C4.60328 24.25 1.10591 22.8013 -1.47272 20.2227L21.1547 -2.4047ZM6 23.5C9.75785 23.5 13.4313 22.3857 16.5558 20.2979L-1.22241 -6.3091C0.915421 -7.73756 3.42884 -8.5 6 -8.5V23.5ZM16.5558 20.2979C19.6804 18.2102 22.1156 15.2428 23.5537 11.771L-6.01043 -0.474883C-5.02649 -2.85033 -3.36024 -4.88065 -1.22241 -6.3091L16.5558 20.2979ZM23.5537 11.771C24.9918 8.29919 25.368 4.47892 24.6349 0.793285L-6.75021 7.03618C-7.25182 4.51442 -6.99437 1.90056 -6.01043 -0.474883L23.5537 11.771ZM24.6349 0.793285C23.9018 -2.89236 22.0922 -6.27783 19.435 -8.93503L-3.19239 13.6924C-5.01047 11.8743 -6.2486 9.55793 -6.75021 7.03618L24.6349 0.793285ZM19.435 -8.93503C16.7778 -11.5922 13.3924 -13.4018 9.70672 -14.1349L3.46383 17.2502C0.942076 16.7486 -1.3743 15.5105 -3.19239 13.6924L19.435 -8.93503ZM9.70672 -14.1349C6.02108 -14.868 2.20081 -14.4918 -1.27098 -13.0537L10.9749 16.5104C8.59945 17.4944 5.98558 17.7518 3.46383 17.2502L9.70672 -14.1349ZM-1.27098 -13.0537C-4.74278 -11.6156 -7.71017 -9.18037 -9.79792 -6.05583L16.8091 11.7224C15.3806 13.8603 13.3503 15.5265 10.9749 16.5104L-1.27098 -13.0537ZM-9.79792 -6.05583C-11.8857 -2.9313 -13 0.74216 -13 4.5H19C19 7.07116 18.2376 9.58457 16.8091 11.7224L-9.79792 -6.05583ZM-13 4.5C-13 9.53911 -10.9982 14.3718 -7.43503 17.935L15.1924 -4.69239C17.6304 -2.25441 19 1.05219 19 4.5H-13ZM-7.43503 17.935C-3.87184 21.4982 0.960889 23.5 6 23.5V-8.5C9.44781 -8.5 12.7544 -7.13036 15.1924 -4.69239L-7.43503 17.935ZM6 19C3.13216 19 0.328739 18.1496 -2.05577 16.5563L15.7225 -10.0507C12.8446 -11.9736 9.46118 -13 6 -13V19ZM-2.05577 16.5563C-4.44027 14.963 -6.29878 12.6985 -7.39625 10.0489L22.1679 -2.19696C20.8434 -5.39468 18.6003 -8.1278 15.7225 -10.0507L-2.05577 16.5563ZM-7.39625 10.0489C-8.49372 7.39938 -8.78087 4.48392 -8.22139 1.67119L23.1637 7.91408C23.839 4.51942 23.4924 1.00075 22.1679 -2.19696L-7.39625 10.0489ZM-8.22139 1.67119C-7.6619 -1.14154 -6.2809 -3.72519 -4.25305 -5.75305L18.3744 16.8744C20.8218 14.427 22.4885 11.3088 23.1637 7.91408L-8.22139 1.67119ZM-4.25305 -5.75305C-2.22519 -7.7809 0.358459 -9.1619 3.17119 -9.72139L9.41408 21.6637C12.8088 20.9885 15.927 19.3218 18.3744 16.8744L-4.25305 -5.75305ZM3.17119 -9.72139C5.98391 -10.2809 8.89938 -9.99372 11.5489 -8.89625L-0.69696 20.6679C2.50075 21.9924 6.01941 22.339 9.41408 21.6637L3.17119 -9.72139ZM11.5489 -8.89625C14.1985 -7.79878 16.463 -5.94027 18.0563 -3.55577L-8.55072 14.2225C-6.6278 17.1003 -3.89468 19.3434 -0.69696 20.6679L11.5489 -8.89625ZM18.0563 -3.55577C19.6496 -1.17126 20.5 1.63217 20.5 4.5H-11.5C-11.5 7.96118 -10.4736 11.3446 -8.55072 14.2225L18.0563 -3.55577ZM20.5 4.5C20.5 8.34564 18.9723 12.0338 16.253 14.753L-6.37437 -7.87437C-9.65626 -4.59248 -11.5 -0.141283 -11.5 4.5H20.5ZM16.253 14.753C13.5338 17.4723 9.84564 19 6 19V-13C1.35871 -13 -3.09248 -11.1563 -6.37437 -7.87437L16.253 14.753ZM20.25 2.75H15.75V34.75H20.25V2.75ZM15.75 2.75C10.9098 2.75 6.26785 4.67276 2.8453 8.0953L25.4727 30.7227C22.8941 33.3013 19.3967 34.75 15.75 34.75V2.75ZM2.8453 8.0953C-0.577243 11.5178 -2.5 16.1598 -2.5 21H29.5C29.5 24.6467 28.0513 28.1441 25.4727 30.7227L2.8453 8.0953ZM-2.5 21V22.5H29.5V21H-2.5ZM13.5 38.5H15V6.5H13.5V38.5ZM31 22.5V21H-1V22.5H31ZM31 21C31 25.0445 29.3933 28.9234 26.5334 31.7834L3.90596 9.15596C0.764695 12.2972 -1 16.5577 -1 21H31ZM26.5334 31.7834C23.6734 34.6433 19.7945 36.25 15.75 36.25V4.25C11.3077 4.25 7.04723 6.0147 3.90596 9.15596L26.5334 31.7834ZM15.75 36.25H20.25V4.25H15.75V36.25ZM20.25 36.25C16.2055 36.25 12.3266 34.6433 9.46662 31.7834L32.094 9.15596C28.9528 6.0147 24.6923 4.25 20.25 4.25V36.25ZM9.46662 31.7834C6.60666 28.9234 5 25.0445 5 21H37C37 16.5577 35.2353 12.2972 32.094 9.15596L9.46662 31.7834ZM5 21V22.5H37V21H5ZM21 38.5H22.5V6.5H21V38.5ZM38.5 22.5V21H6.5V22.5H38.5ZM38.5 21C38.5 16.1598 36.5772 11.5178 33.1547 8.0953L10.5273 30.7227C7.94865 28.1441 6.5 24.6467 6.5 21H38.5ZM33.1547 8.0953C29.7322 4.67276 25.0902 2.75 20.25 2.75V34.75C16.6033 34.75 13.1059 33.3013 10.5273 30.7227L33.1547 8.0953ZM-1 15C-1 18.7579 0.114334 22.4313 2.20208 25.5558L28.8091 7.77759C30.2376 9.91542 31 12.4288 31 15H-1ZM2.20208 25.5558C4.28982 28.6804 7.25721 31.1156 10.729 32.5537L22.9749 2.98957C25.3503 3.97351 27.3806 5.63975 28.8091 7.77759L2.20208 25.5558ZM10.729 32.5537C14.2008 33.9918 18.0211 34.368 21.7067 33.6349L15.4638 2.24979C17.9856 1.74819 20.5994 2.00563 22.9749 2.98957L10.729 32.5537ZM21.7067 33.6349C25.3924 32.9018 28.7778 31.0922 31.435 28.435L8.80761 5.80761C10.6257 3.98954 12.9421 2.7514 15.4638 2.24979L21.7067 33.6349ZM31.435 28.435C34.0922 25.7778 35.9018 22.3924 36.6349 18.7067L5.24979 12.4638C5.7514 9.94206 6.98954 7.62568 8.80761 5.80761L31.435 28.435ZM36.6349 18.7067C37.368 15.0211 36.9918 11.2008 35.5537 7.72902L5.98957 19.9749C5.00563 17.5994 4.74818 14.9856 5.24979 12.4638L36.6349 18.7067ZM35.5537 7.72902C34.1156 4.25722 31.6804 1.28982 28.5558 -0.797921L10.7776 25.8091C8.63975 24.3807 6.97351 22.3503 5.98957 19.9749L35.5537 7.72902ZM28.5558 -0.797921C25.4313 -2.88566 21.7579 -4 18 -4V28C15.4288 28 12.9154 27.2376 10.7776 25.8091L28.5558 -0.797921ZM18 -4C12.9609 -4 8.12815 -1.99821 4.56497 1.56497L27.1924 24.1924C24.7544 26.6304 21.4478 28 18 28V-4ZM4.56497 1.56497C1.00179 5.12816 -1 9.96088 -1 15H31C31 18.4478 29.6304 21.7544 27.1924 24.1924L4.56497 1.56497ZM3.5 15C3.5 12.1322 4.35041 9.32875 5.94369 6.94423L32.5507 24.7225C34.4736 21.8446 35.5 18.4612 35.5 15H3.5ZM5.94369 6.94423C7.53697 4.55972 9.80156 2.70122 12.4511 1.60375L24.697 31.1679C27.8947 29.8434 30.6278 27.6003 32.5507 24.7225L5.94369 6.94423ZM12.4511 1.60375C15.1006 0.506277 18.0161 0.21913 20.8288 0.778615L14.5859 32.1637C17.9806 32.839 21.4993 32.4924 24.697 31.1679L12.4511 1.60375ZM20.8288 0.778615C23.6416 1.3381 26.2252 2.7191 28.253 4.74695L5.62563 27.3744C8.07304 29.8218 11.1912 31.4885 14.5859 32.1637L20.8288 0.778615ZM28.253 4.74695C30.2809 6.7748 31.6619 9.35845 32.2214 12.1712L0.836257 18.4141C1.5115 21.8088 3.17823 24.927 5.62563 27.3744L28.253 4.74695ZM32.2214 12.1712C32.7809 14.9839 32.4937 17.8994 31.3963 20.5489L1.83211 8.30304C0.507574 11.5007 0.161016 15.0194 0.836257 18.4141L32.2214 12.1712ZM31.3963 20.5489C30.2988 23.1984 28.4403 25.463 26.0558 27.0563L8.27752 0.449283C5.39966 2.37221 3.15664 5.10533 1.83211 8.30304L31.3963 20.5489ZM26.0558 27.0563C23.6713 28.6496 20.8678 29.5 18 29.5V-2.5C14.5388 -2.5 11.1554 -1.47364 8.27752 0.449283L26.0558 27.0563ZM18 29.5C14.1543 29.5 10.4662 27.9723 7.74695 25.253L30.3744 2.62563C27.0925 -0.656246 22.6413 -2.5 18 -2.5V29.5ZM7.74695 25.253C5.02768 22.5338 3.5 18.8457 3.5 15H35.5C35.5 10.3587 33.6562 5.90751 30.3744 2.62563L7.74695 25.253Z" fill="#FFCC00" mask="url(#path-1-inside-1_2242_8189)"/>
</svg>