<svg width="300" height="300" viewBox="0 0 300 300" fill="none" xmlns="http://www.w3.org/2000/svg">
<path d="M57.8785 81.5412C58.934 81.5412 59.9464 81.1219 60.6928 80.3755C61.4392 79.6291 61.8585 78.6168 61.8585 77.5612C61.8585 76.5056 61.4392 75.4933 60.6928 74.7469C59.9464 74.0005 58.934 73.5812 57.8785 73.5812C56.8229 73.5812 55.8106 74.0005 55.0642 74.7469C54.3178 75.4933 53.8984 76.5056 53.8984 77.5612C53.8984 78.6168 54.3178 79.6291 55.0642 80.3755C55.8106 81.1219 56.8229 81.5412 57.8785 81.5412Z" stroke="#FFCC00" stroke-linecap="round" stroke-linejoin="round"/>
<path d="M231.616 40.8009L222.718 54.3898" stroke="#FFCC00" stroke-linecap="round" stroke-linejoin="round"/>
<path d="M233.975 52.0586L220.386 43.132" stroke="#FFCC00" stroke-linecap="round" stroke-linejoin="round"/>
<path d="M135.202 28.1993C135.371 27.9689 135.534 27.7339 135.692 27.496C142.793 16.8592 155.283 20.1884 162.673 28.5763C169.81 36.677 171.67 49.5702 164.435 56.5233C163.596 57.3163 162.808 58.1614 162.076 59.0535C154.918 67.9068 142.518 66.213 133.446 59.7642C124.523 53.4201 121.098 40.2561 130.66 32.8407C131.77 31.9821 132.803 31.0279 133.746 29.9888" stroke="#FFCC00" stroke-linecap="round" stroke-linejoin="round"/>
<path d="M133.922 30.3359C132.613 28.8172 130.853 27.1863 128.642 25.9878C123.184 23.0312 117.015 23.7988 117.015 23.7988C117.015 23.7988 119.715 29.3992 125.174 32.3558C129.528 34.7139 134.332 34.7019 136.099 34.6017L133.921 30.3344L133.922 30.3359Z" fill="#0E1416"/>
<path d="M133.922 30.3359C132.613 28.8172 130.853 27.1863 128.642 25.9878C123.184 23.0312 117.015 23.7988 117.015 23.7988C117.015 23.7988 119.715 29.3992 125.174 32.3558C129.528 34.7139 134.332 34.7019 136.099 34.6017L133.921 30.3344L133.922 30.3359Z" stroke="#FFCC00" stroke-linecap="round" stroke-linejoin="round"/>
<path d="M130.774 37.3327C133.333 39.7207 142.572 29.8275 140.014 27.4679" stroke="#FFCC00" stroke-linecap="round" stroke-linejoin="round"/>
<path d="M132.736 22.974L137.768 33.6348C137.313 34.1465 136.858 34.6298 136.346 35.0846L130.746 24.1111C129.978 22.5191 131.912 21.4104 132.736 22.974Z" stroke="#FFCC00" stroke-linecap="round" stroke-linejoin="round"/>
<path d="M211.145 133.084L209.639 139.054L284.155 169.503L285.662 163.533L211.145 133.084Z" stroke="#FFCC00" stroke-linecap="round" stroke-linejoin="round"/>
<path d="M217.18 122.812L210.918 125.066C207.279 126.374 207.166 131.463 210.748 132.913L284.781 163.163C287.538 164.3 290.58 162.253 290.58 159.268V152.804L217.18 122.812Z" fill="#0E1416"/>
<path d="M217.18 122.812L210.918 125.066C207.279 126.374 207.166 131.463 210.748 132.913L284.781 163.163C287.538 164.3 290.58 162.253 290.58 159.268V152.804L217.18 122.812Z" stroke="#FFCC00" stroke-linecap="round" stroke-linejoin="round"/>
<path d="M289.329 91.8468V145.707L287.822 151.677L213.306 121.229L214.138 117.931L212.482 118.528C208.843 119.836 208.757 124.924 212.311 126.374L286.344 156.624C289.102 157.761 292.143 155.714 292.143 152.729V95.8134C292.142 94.9422 291.871 94.0929 291.367 93.3824C290.863 92.672 290.151 92.1354 289.329 91.8468Z" fill="#1F2C2C"/>
<path d="M214.14 117.932L212.484 118.529C208.845 119.837 208.759 124.925 212.313 126.375L286.346 156.625C289.103 157.762 292.145 155.715 292.145 152.73V95.8128C292.144 94.9419 291.873 94.0928 291.369 93.3826C290.865 92.6724 290.153 92.1361 289.331 91.8478" stroke="#FFCC00" stroke-linecap="round" stroke-linejoin="round"/>
<path d="M214.813 115.258L213.307 121.23L287.823 151.678L289.33 145.707V88.42L214.813 115.258Z" stroke="#FFCC00" stroke-linecap="round" stroke-linejoin="round"/>
<path d="M289.329 145.707L214.812 115.258" stroke="#FFCC00" stroke-linecap="round" stroke-linejoin="round"/>
<path d="M32.0637 142.865L29.9884 143.746H29.96C28.353 141.382 28.3006 141.414 28.368 141.074L29.164 138.317C29.0368 138.632 29.0742 138.548 32.0637 142.865Z" fill="#1F2C2C"/>
<path d="M32.0637 142.865L29.9884 143.746H29.96C28.353 141.382 28.3006 141.414 28.368 141.074L29.164 138.317C29.0368 138.632 29.0742 138.548 32.0637 142.865Z" stroke="#FFCC00" stroke-linecap="round" stroke-linejoin="round"/>
<path d="M67.0629 127.94L64.9876 128.821L63.4524 126.604C63.2504 126.266 63.3253 126.293 64.1632 123.448C64.1018 123.752 64.045 123.552 67.0629 127.94Z" fill="#1F2C2C"/>
<path d="M67.0629 127.94L64.9876 128.821L63.4524 126.604C63.2504 126.266 63.3253 126.293 64.1632 123.448C64.1018 123.752 64.045 123.552 67.0629 127.94Z" stroke="#FFCC00" stroke-linecap="round" stroke-linejoin="round"/>
<path d="M213.42 209.988L149.367 181.245C148.799 180.994 148.186 180.863 147.565 180.858C146.944 180.853 146.329 180.975 145.757 181.217L60.7218 217.465C57.1084 219.021 57.0754 224.105 60.6365 225.709L78.8324 233.897L151.101 203.903C152.235 203.399 153.605 203.482 154.655 203.96L199.517 224.117L213.306 218.232C216.965 216.703 216.908 211.585 213.42 209.988Z" fill="#0E1416"/>
<path d="M213.42 209.988L149.367 181.245C148.799 180.994 148.186 180.863 147.565 180.858C146.944 180.853 146.329 180.975 145.757 181.217L60.7218 217.465C57.1084 219.021 57.0754 224.105 60.6365 225.709L78.8324 233.897L151.101 203.903C152.235 203.399 153.605 203.482 154.655 203.96L199.517 224.117L213.306 218.232C216.965 216.703 216.908 211.585 213.42 209.988Z" stroke="#FFCC00" stroke-linecap="round" stroke-linejoin="round"/>
<path d="M199.518 224.118L128.244 254.539C126.951 255.101 125.904 254.944 124.634 254.482L78.832 233.898L151.072 203.904C152.208 203.4 153.577 203.484 154.626 203.961L199.517 224.118H199.518Z" stroke="#FFCC00" stroke-linecap="round" stroke-linejoin="round"/>
<path d="M140.298 178.942L52.4774 216.413C50.4859 217.233 48.2385 216.596 47.0191 214.821L8.63875 158.701C7.09013 156.46 7.89511 153.204 10.5719 152.049L98.4212 114.578C100.402 113.712 102.7 114.478 103.88 116.17L142.231 172.292C143.852 174.594 142.914 177.805 140.298 178.942Z" stroke="#FFCC00" stroke-linecap="round" stroke-linejoin="round"/>
<path d="M28.3399 164.529L91.6822 137.492C92.6353 137.082 93.7014 137.016 94.6975 137.307C95.6936 137.597 96.5574 138.226 97.1405 139.084L120.454 173.2C120.826 173.747 121.074 174.37 121.178 175.023C121.282 175.677 121.24 176.346 121.055 176.982C120.87 177.617 120.547 178.204 120.109 178.701C119.671 179.197 119.128 179.59 118.52 179.852L55.1782 206.889C54.2251 207.3 53.1589 207.365 52.1629 207.075C51.1668 206.784 50.303 206.156 49.7199 205.297L26.4068 171.181C26.0274 170.636 25.7747 170.013 25.6672 169.358C25.5596 168.703 25.6 168.031 25.7853 167.394C25.9707 166.756 26.2963 166.168 26.7383 165.672C27.1803 165.176 27.7275 164.786 28.3399 164.529Z" stroke="#FFCC00" stroke-linecap="round" stroke-linejoin="round"/>
<path d="M156.73 242.421L179.507 232.7L104.078 199.071L109.281 221.276L156.73 242.421Z" fill="#0E1416"/>
<path d="M156.73 242.421L179.507 232.7L104.078 199.071L109.281 221.276L156.73 242.421Z" stroke="#FFCC00" stroke-linecap="round" stroke-linejoin="round"/>
<path d="M142.942 175.673L121.135 176.64C121.255 176.048 121.254 175.438 121.132 174.847C121.01 174.256 120.769 173.695 120.425 173.2L97.1117 139.084C95.8893 137.321 93.615 136.639 91.6534 137.492L28.3396 164.529C27.6986 164.795 27.1299 165.21 26.6802 165.739C26.2305 166.268 25.9126 166.895 25.7525 167.571L8.06836 154.806C8.26056 154.193 8.58384 153.628 9.01582 153.152C9.4478 152.676 9.97814 152.3 10.5701 152.049L98.4194 114.578C100.4 113.712 102.699 114.478 103.878 116.17L142.23 172.292C142.969 173.315 143.168 174.537 142.94 175.675L142.942 175.673Z" fill="#0E1416"/>
<path d="M142.942 175.673L121.135 176.64C121.255 176.048 121.254 175.438 121.132 174.847C121.01 174.256 120.769 173.695 120.425 173.2L97.1117 139.084C95.8893 137.321 93.615 136.639 91.6534 137.492L28.3396 164.529C27.6986 164.795 27.1299 165.21 26.6802 165.739C26.2305 166.268 25.9126 166.895 25.7525 167.571L8.06836 154.806C8.26056 154.193 8.58384 153.628 9.01582 153.152C9.4478 152.676 9.97814 152.3 10.5701 152.049L98.4194 114.578C100.4 113.712 102.699 114.478 103.878 116.17L142.23 172.292C142.969 173.315 143.168 174.537 142.94 175.675L142.942 175.673Z" stroke="#FFCC00" stroke-linecap="round" stroke-linejoin="round"/>
<path d="M59.499 213.428L136.659 180.478C134.174 181.637 135.889 185.457 138.393 184.344L61.2332 217.294C63.7244 216.048 61.9663 212.331 59.499 213.428Z" stroke="#FFCC00" stroke-linecap="round" stroke-linejoin="round"/>
<path d="M147.576 181.217L152.722 203.563" stroke="#FFCC00" stroke-linecap="round" stroke-linejoin="round"/>
<path d="M215.979 214.879L214.273 240.751C214.217 241.58 213.933 242.378 213.451 243.055C212.969 243.733 212.309 244.264 211.544 244.589L131.655 278.676C130.825 279.026 129.933 279.201 129.033 279.191C128.133 279.182 127.245 278.987 126.424 278.619L66.4076 251.355C65.1927 250.81 64.1327 249.971 63.3236 248.914C62.5145 247.857 61.9818 246.614 61.7738 245.299L58.1064 222.583C58.2432 223.281 58.5475 223.936 58.9932 224.491C59.4389 225.045 60.0126 225.483 60.665 225.767L124.661 254.539C125.798 255.05 127.106 255.079 128.272 254.567L213.335 218.262C214.019 217.957 214.617 217.489 215.078 216.9C215.539 216.31 215.848 215.616 215.979 214.879Z" stroke="#FFCC00" stroke-linecap="round" stroke-linejoin="round"/>
<path d="M129.012 279.188L126.481 254.88" stroke="#FFCC00" stroke-linecap="round" stroke-linejoin="round"/>
<path d="M94.6953 137.321L101.207 114.32" stroke="#FFCC00" stroke-linecap="round" stroke-linejoin="round"/>
<path d="M52.1928 207.088L49.5205 216.613" stroke="#FFCC00" stroke-linecap="round" stroke-linejoin="round"/>
<path d="M157.356 246.777L159.914 248.198C160.02 248.039 160.023 248.423 159.298 241.324L156.908 242.345L157.356 246.777Z" stroke="#FFCC00" stroke-linecap="round" stroke-linejoin="round"/>
<path d="M159.944 248.2C159.823 248.442 160.432 247.992 151.416 251.952C151.101 252.09 150.733 251.867 150.677 251.526L150.478 249.735L157.357 246.807L159.944 248.2Z" stroke="#FFCC00" stroke-linecap="round" stroke-linejoin="round"/>
<path d="M150.504 249.706L157.384 246.806L156.935 242.334L150.025 245.283L150.504 249.706Z" fill="#1F2C2C"/>
<path d="M150.504 249.706L157.384 246.806L156.935 242.334L150.025 245.283L150.504 249.706Z" stroke="#FFCC00" stroke-linecap="round" stroke-linejoin="round"/>
<path d="M203.64 229.577L201.138 228.098L200.684 223.635L203.128 222.583C203.736 229.714 203.746 229.418 203.64 229.577Z" stroke="#FFCC00" stroke-linecap="round" stroke-linejoin="round"/>
<path d="M201.11 228.098L194.202 231.026L193.747 226.563L200.655 223.635L201.11 228.098Z" fill="#1F2C2C"/>
<path d="M201.11 228.098L194.202 231.026L193.747 226.563L200.655 223.635L201.11 228.098Z" stroke="#FFCC00" stroke-linecap="round" stroke-linejoin="round"/>
<path d="M203.612 229.577C203.453 229.813 204.052 229.375 195.112 233.301C194.798 233.439 194.401 233.216 194.373 232.875L194.202 231.055L201.11 228.127L203.612 229.577Z" stroke="#FFCC00" stroke-linecap="round" stroke-linejoin="round"/>
<path d="M41.0487 139.027L32.0652 142.836L29.2508 138.742C29.0518 138.494 29.143 138.03 29.4782 137.918L37.3814 134.535C37.4998 134.479 37.6346 134.468 37.7603 134.505C37.886 134.542 37.9939 134.623 38.0637 134.734L41.0487 139.027Z" stroke="#FFCC00" stroke-linecap="round" stroke-linejoin="round"/>
<path d="M76.0176 124.102L67.0341 127.94L64.2197 123.846C64.0372 123.603 64.1165 123.176 64.4756 123.021L72.3787 119.638C72.4971 119.582 72.6319 119.572 72.7577 119.608C72.8834 119.645 72.9913 119.727 73.061 119.837L76.0176 124.102Z" stroke="#FFCC00" stroke-linecap="round" stroke-linejoin="round"/>
</svg>
