<svg width="24" height="24" viewBox="0 0 24 24" fill="none" xmlns="http://www.w3.org/2000/svg">
<g clip-path="url(#clip0_1859_17024)">
<path d="M12 3C10.9391 3 9.92172 3.42143 9.17157 4.17157C8.42143 4.92172 8 5.93913 8 7C8 8.06087 8.42143 9.07828 9.17157 9.82843C9.92172 10.5786 10.9391 11 12 11C13.0609 11 14.0783 10.5786 14.8284 9.82843C15.5786 9.07828 16 8.06087 16 7C16 5.93913 15.5786 4.92172 14.8284 4.17157C14.0783 3.42143 13.0609 3 12 3ZM18 13C15.2 13 13 15.2 13 18C13 20.8 15.2 23 18 23C19 23 20.0008 22.6992 20.8008 22.1992L22.293 23.707C22.684 24.098 23.317 24.098 23.707 23.707C24.098 23.317 24.098 22.683 23.707 22.293L22.1992 20.8008C22.6992 20.0008 23 19 23 18C23 15.2 20.8 13 18 13ZM12.252 14.0039C9.34795 13.9139 3 15.421 3 18.5V20C3 20.552 3.448 21 4 21H11.6836C11.2506 20.09 11 19.075 11 18C11 16.515 11.4659 15.1398 12.2539 14.0078L12.252 14.0039ZM18 15C19.7 15 21 16.3 21 18C21 19.7 19.7 21 18 21C16.3 21 15 19.7 15 18C15 16.3 16.3 15 18 15Z" fill="#FFCC00"/>
</g>
<defs>
<clipPath id="clip0_1859_17024">
<rect width="24" height="24" fill="white"/>
</clipPath>
</defs>
</svg>
