<svg width="382" height="285" viewBox="0 0 382 285" fill="none" xmlns="http://www.w3.org/2000/svg">
<path d="M380.431 76.1314C380.595 76.8511 380.542 77.6032 380.28 78.2931C380.017 78.9829 379.556 79.5795 378.955 80.0077C378.302 80.4721 377.517 80.7141 376.715 80.698C375.914 80.682 375.14 80.4086 374.506 79.9184C373.872 79.4282 373.412 78.7471 373.195 77.9758C372.978 77.2045 373.015 76.3838 373.3 75.6349C373.585 74.8861 374.104 74.2488 374.779 73.8173C375.454 73.3858 376.25 73.1829 377.05 73.2385C377.849 73.2942 378.609 73.6055 379.218 74.1264C379.827 74.6473 380.252 75.3503 380.431 76.1314Z" stroke="#FFCC00" stroke-linecap="round" stroke-linejoin="round"/>
<path d="M30.0194 136.366C30.1213 136.759 30.1435 137.168 30.0846 137.57C30.0258 137.971 29.8871 138.357 29.6767 138.703C29.4664 139.05 29.1887 139.352 28.8599 139.589C28.5312 139.827 28.1582 139.997 27.7629 140.088C27.3676 140.179 26.958 140.19 26.5583 140.12C26.1587 140.051 25.7771 139.901 25.436 139.682C25.0949 139.462 24.8014 139.176 24.5726 138.841C24.3439 138.506 24.1846 138.129 24.1042 137.731C23.9474 136.956 24.0994 136.15 24.5277 135.485C24.9561 134.82 25.627 134.348 26.3978 134.17C27.1686 133.993 27.9783 134.123 28.6547 134.533C29.331 134.943 29.8207 135.601 30.0194 136.366Z" stroke="#FFCC00" stroke-linecap="round" stroke-linejoin="round"/>
<path d="M54.3162 187.465V45.7299C54.3199 42.3448 55.6662 39.0993 58.0599 36.7057C60.4536 34.312 63.699 32.9656 67.0842 32.9619L317.878 32.9998C321.263 33.0035 324.508 34.3499 326.902 36.7436C329.296 39.1372 330.642 42.3827 330.646 45.7678V226.092C330.643 229.477 329.297 232.723 326.903 235.117C324.509 237.511 321.263 238.857 317.878 238.86L262.161 238.852M58.0608 235.077C55.667 232.684 54.3203 229.439 54.3162 226.054V217.675" stroke="#FFCC00" stroke-linecap="round" stroke-linejoin="round"/>
<path d="M252.799 72.1133H54.3164" stroke="#FFCC00" stroke-linecap="round" stroke-linejoin="round"/>
<path d="M330.659 72.1133H274.879" stroke="#FFCC00" stroke-linecap="round" stroke-linejoin="round"/>
<path d="M77.4401 53.8817C77.4399 54.5039 77.317 55.12 77.0787 55.6948C76.8403 56.2695 76.4911 56.7917 76.0509 57.2315C75.162 58.1197 73.9566 58.6184 72.7 58.6179C71.4434 58.6173 70.2384 58.1176 69.3502 57.2287C68.462 56.3397 67.9633 55.1344 67.9639 53.8777C67.9641 53.2555 68.0869 52.6394 68.3253 52.0647C68.5637 51.4899 68.9129 50.9677 69.353 50.528C69.7932 50.0882 70.3157 49.7394 70.8906 49.5015C71.4656 49.2636 72.0818 49.1413 72.704 49.1416C73.3262 49.1419 73.9423 49.2647 74.517 49.503C75.0918 49.7414 75.614 50.0906 76.0538 50.5308C76.4935 50.9709 76.8423 51.4934 77.0802 52.0684C77.3181 52.6433 77.4404 53.2595 77.4401 53.8817Z" stroke="#FFCC00" stroke-linecap="round" stroke-linejoin="round"/>
<path d="M91.7302 53.8817C91.7296 55.1384 91.2299 56.3433 90.341 57.2315C89.452 58.1197 88.2467 58.6184 86.99 58.6179C85.7334 58.6173 84.5285 58.1176 83.6403 57.2287C82.7521 56.3397 82.2534 55.1344 82.2539 53.8777C82.2542 53.2555 82.377 52.6394 82.6153 52.0647C82.8537 51.4899 83.2029 50.9677 83.6431 50.528C84.0832 50.0882 84.6057 49.7394 85.1807 49.5015C85.7556 49.2636 86.3718 49.1413 86.994 49.1416C87.6162 49.1419 88.2323 49.2647 88.8071 49.503C89.3818 49.7414 89.904 50.0906 90.3438 50.5308C90.7836 50.9709 91.1324 51.4934 91.3702 52.0684C91.6081 52.6433 91.7304 53.2595 91.7302 53.8817Z" stroke="#FFCC00" stroke-linecap="round" stroke-linejoin="round"/>
<path d="M106.06 53.8817C106.06 54.5039 105.937 55.12 105.699 55.6948C105.46 56.2695 105.111 56.7917 104.671 57.2315C103.782 58.1197 102.577 58.6184 101.32 58.6179C100.063 58.6173 98.8585 58.1176 97.9703 57.2287C97.0821 56.3397 96.5835 55.1344 96.584 53.8777C96.5842 53.2555 96.7071 52.6394 96.9454 52.0647C97.1838 51.4899 97.533 50.9677 97.9732 50.528C98.4133 50.0882 98.9358 49.7394 99.5108 49.5015C100.086 49.2636 100.702 49.1413 101.324 49.1416C101.946 49.1419 102.562 49.2647 103.137 49.503C103.712 49.7414 104.234 50.0906 104.674 50.5308C105.114 50.9709 105.462 51.4934 105.7 52.0684C105.938 52.6433 106.06 53.2595 106.06 53.8817Z" stroke="#FFCC00" stroke-linecap="round" stroke-linejoin="round"/>
<path d="M192.488 136.025L192.336 147.965" stroke="#FFCC00" stroke-linecap="round" stroke-linejoin="round"/>
<path d="M192.488 72.1133V110.058" stroke="#FFCC00" stroke-linecap="round" stroke-linejoin="round"/>
<path d="M167.317 148.041H164.815C163.046 148.043 161.35 148.746 160.099 149.997C158.849 151.247 158.145 152.943 158.144 154.712V203.083C158.147 204.851 158.851 206.546 160.101 207.797C161.351 209.047 163.046 209.751 164.815 209.754H167.317" stroke="#FFCC00" stroke-linecap="round" stroke-linejoin="round"/>
<path d="M160.646 203.121V154.712C160.649 152.944 161.353 151.249 162.603 149.998C163.853 148.748 165.548 148.044 167.317 148.041H233.541C235.31 148.042 237.006 148.745 238.257 149.996C239.508 151.247 240.211 152.943 240.212 154.712V203.121H240.174C240.172 204.89 239.469 206.585 238.218 207.836C236.967 209.087 235.272 209.79 233.503 209.792H167.317C165.548 209.791 163.852 209.087 162.601 207.837C161.35 206.586 160.647 204.89 160.646 203.121Z" stroke="#FFCC00" stroke-linecap="round" stroke-linejoin="round"/>
<path d="M180.169 235.267H192.298L195.103 209.755H192.596L190.473 230.261C190.39 231.056 190.015 231.792 189.419 232.325C188.823 232.857 188.05 233.149 187.251 233.142H182.291C182.012 233.141 181.736 233.195 181.478 233.302C181.22 233.408 180.986 233.565 180.789 233.763C180.391 234.162 180.168 234.703 180.169 235.267Z" stroke="#FFCC00" stroke-linejoin="round"/>
<path d="M192.299 235.267H212.011L209.548 209.793H195.104L192.299 235.267Z" stroke="#FFCC00" stroke-linecap="round" stroke-linejoin="round"/>
<path d="M196.089 180.528C196.203 181.935 196.724 183.279 197.589 184.394C198.454 185.51 199.625 186.35 200.959 186.812C201.956 187.158 203.018 187.281 204.068 187.174C205.119 187.067 206.133 186.732 207.041 186.192C207.948 185.653 208.728 184.922 209.324 184.051C209.92 183.179 210.319 182.188 210.493 181.147C210.668 180.105 210.613 179.039 210.334 178.021C210.054 177.003 209.556 176.058 208.874 175.252C208.192 174.446 207.343 173.799 206.385 173.355C205.427 172.911 204.384 172.681 203.329 172.682C201.329 172.764 199.443 173.637 198.086 175.108C196.729 176.579 196.01 178.528 196.089 180.528Z" stroke="#FFCC00" stroke-linecap="round" stroke-linejoin="round"/>
<path d="M198.932 169.384C200.094 170.234 201.511 170.662 202.95 170.597C202.814 169.165 202.184 167.825 201.168 166.806C200.006 165.956 198.589 165.528 197.15 165.594C197.294 167.024 197.922 168.361 198.932 169.384Z" stroke="#FFCC00" stroke-linecap="round" stroke-linejoin="round"/>
<path d="M44.9916 241.944H258.901C259.34 241.944 259.774 241.858 260.179 241.691C260.583 241.523 260.951 241.278 261.261 240.968C261.571 240.658 261.817 240.29 261.984 239.885C262.152 239.48 262.238 239.046 262.237 238.608C262.238 238.17 262.152 237.736 261.984 237.331C261.817 236.926 261.571 236.558 261.261 236.248C260.951 235.938 260.583 235.693 260.179 235.525C259.774 235.358 259.34 235.272 258.901 235.272H44.9916C44.3311 235.271 43.6851 235.465 43.1355 235.832C42.586 236.198 42.1576 236.719 41.9049 237.329C41.6522 237.939 41.5865 238.611 41.7163 239.259C41.846 239.906 42.1652 240.5 42.6335 240.966C43.2579 241.593 44.1058 241.944 44.9916 241.944Z" stroke="#FFCC00" stroke-linejoin="round"/>
<path d="M330.659 155.509H240.212" stroke="#FFCC00" stroke-linecap="round" stroke-linejoin="round"/>
<path d="M261.555 211.872V155.509" stroke="#FFCC00" stroke-linecap="round" stroke-linejoin="round"/>
<path d="M261.555 238.868V233.278" stroke="#FFCC00" stroke-linecap="round" stroke-linejoin="round"/>
<path d="M261.555 218.056V213.621" stroke="#FFCC00" stroke-linecap="round" stroke-linejoin="round"/>
<path d="M261.555 225.03V222.002" stroke="#FFCC00" stroke-linecap="round" stroke-linejoin="round"/>
<path d="M261.555 231.551V228.121" stroke="#FFCC00" stroke-linecap="round" stroke-linejoin="round"/>
<path d="M240.212 197.168H330.659" stroke="#FFCC00" stroke-linecap="round" stroke-linejoin="round"/>
<path d="M126.908 151.984C127.59 156.267 128.803 162.789 140.746 164.305C142.97 164.558 145.157 165.067 147.265 165.821C149.566 166.432 151.718 167.508 153.589 168.981C155.46 170.454 157.01 172.294 158.144 174.387" stroke="#FFCC00" stroke-linecap="round" stroke-linejoin="round"/>
<path d="M111.14 203.273L107.236 224.538C106.876 226.587 106.305 228.593 105.53 230.523C104.872 232.171 104.032 233.741 103.026 235.203M41.2393 205.506C50.915 214.597 64.2316 227.178 75.5792 235.203" stroke="#FFCC00" stroke-linecap="round" stroke-linejoin="round"/>
<path d="M57.8431 190.99C57.0451 190.192 56.0217 189.133 54.8506 187.998C57.1608 187.389 58.1842 188.943 57.8431 190.99Z" stroke="#FFCC00" stroke-linecap="round" stroke-linejoin="round"/>
<path d="M57.1992 188.337C67.3742 198.022 78.08 207.134 89.2668 215.631" stroke="#FFCC00" stroke-linecap="round" stroke-linejoin="round"/>
<path d="M109.131 214.076C109.472 218.625 109.434 222.795 109.472 226.585C118.759 229.125 138.812 229.466 148.592 226.585C149.881 207.746 155.718 205.661 153.027 184.85" stroke="#FFCC00" stroke-linecap="round" stroke-linejoin="round"/>
<path d="M128.197 156.836L122.359 150.619" stroke="#FFCC00" stroke-linecap="round" stroke-linejoin="round"/>
<path d="M122.359 150.619C141.571 157.912 134.928 138.369 128.111 129.942" stroke="#FFCC00" stroke-linecap="round" stroke-linejoin="round"/>
<path d="M119.138 150.573C119.726 154.094 119.413 157.706 118.228 161.073C117.84 162.051 117.252 162.938 116.501 163.676C115.751 164.414 114.854 164.987 113.869 165.358C107.346 167.548 101.515 171.418 96.9634 176.578C92.1853 182.226 88.8497 199.854 86.1584 213.272" stroke="#FFCC00" stroke-linecap="round" stroke-linejoin="round"/>
<path d="M113.035 124.652C111.64 125.299 110.396 126.23 109.381 127.384C108.366 128.539 107.602 129.892 107.138 131.357C106.675 132.823 106.522 134.369 106.688 135.897C106.855 137.425 107.338 138.902 108.107 140.233C111.329 146.418 117.962 145.275 119.137 150.581C118.84 147.089 117.793 143.701 116.067 140.65C111.215 139.703 112.618 133.979 116.029 135.723C117.19 136.303 118.224 136.672 118.224 135.382C118.485 128.138 123.712 124.72 128.107 129.943C124.117 123.994 119.018 122.073 113.035 124.652Z" stroke="#FFCC00" stroke-linecap="round" stroke-linejoin="round"/>
<path d="M108.145 129.203C103.255 135.533 91.2372 133.41 84.2248 127.952C77.1745 122.529 75.4309 112.977 80.3206 106.647C85.2103 100.317 94.8841 99.5969 101.928 105.017C108.941 110.474 112.995 122.871 108.145 129.203Z" stroke="#FFCC00" stroke-linecap="round" stroke-linejoin="round"/>
<path d="M301.323 209.226C301.323 210.252 301.018 211.255 300.449 212.109C299.878 212.96 299.068 213.624 298.12 214.016C297.173 214.409 296.131 214.512 295.125 214.313C294.119 214.113 293.195 213.619 292.469 212.893C291.744 212.168 291.25 211.244 291.049 210.238C290.908 209.527 290.917 208.796 291.075 208.089C291.234 207.383 291.539 206.717 291.97 206.135C292.401 205.554 292.95 205.069 293.58 204.712C294.21 204.355 294.907 204.134 295.628 204.063C296.349 203.992 297.076 204.073 297.764 204.3C298.451 204.527 299.084 204.896 299.62 205.382C300.156 205.869 300.585 206.462 300.879 207.124C301.172 207.786 301.323 208.502 301.323 209.226Z" stroke="#FFCC00" stroke-linecap="round" stroke-linejoin="round"/>
<path d="M280.851 233.408C280.851 233.408 284.679 221.013 296.088 221.164C307.498 221.354 311.402 233.408 311.402 233.408" stroke="#FFCC00" stroke-linecap="round" stroke-linejoin="round"/>
<path d="M301.323 166.806C301.323 167.832 301.018 168.835 300.449 169.689C299.878 170.541 299.068 171.204 298.12 171.596C297.173 171.989 296.131 172.092 295.125 171.893C294.118 171.693 293.194 171.199 292.469 170.473C291.744 169.748 291.249 168.824 291.049 167.818C290.899 167.065 290.918 166.289 291.105 165.546C291.291 164.802 291.64 164.108 292.127 163.515C292.613 162.923 293.225 162.445 293.918 162.117C294.612 161.789 295.369 161.619 296.136 161.619C297.507 161.635 298.817 162.186 299.787 163.156C300.756 164.125 301.307 165.435 301.323 166.806Z" stroke="#FFCC00" stroke-linecap="round" stroke-linejoin="round"/>
<path d="M280.85 191.028C280.85 191.028 284.679 178.633 296.088 178.784C307.498 178.974 311.402 191.028 311.402 191.028" stroke="#FFCC00" stroke-linecap="round" stroke-linejoin="round"/>
<path d="M43.7411 206.002C41.77 206.381 40.3297 205.434 40.7486 203.197C41.7321 204.107 42.7556 205.055 43.7411 206.002Z" stroke="#FFCC00" stroke-linecap="round" stroke-linejoin="round"/>
<path d="M30.2843 191.369C29.7159 190.774 29.3797 189.996 29.3367 189.174C29.4883 187.165 34.1127 186.256 38.1306 188.416C40.4807 189.667 40.8977 191.714 36.766 191.409" stroke="#FFCC00" stroke-linecap="round" stroke-linejoin="round"/>
<path d="M37.2215 187.957C40.5571 187.806 40.7467 186.361 38.7377 185.228C33.7342 182.575 29.4131 184.887 30.7018 187.622" stroke="#FFCC00" stroke-linecap="round" stroke-linejoin="round"/>
<path d="M46.0529 191.072C41.6639 190.048 42.9447 182.922 42.9447 182.922" stroke="#FFCC00" stroke-linecap="round" stroke-linejoin="round"/>
<path d="M38.7372 185.228C35.2879 183.106 27.0625 178.747 24.3333 176.624C22.9368 175.525 33.1273 176.851 42.9447 182.916C42.4898 181.779 39.9881 175.638 40.7502 174.804C41.0534 174.501 43.631 176.889 46.7771 179.991C49.5062 182.721 54.7371 187.762 57.8473 190.984C57.0493 196.063 48.6703 205.049 43.7447 205.996C40.0487 202.468 36.1233 199.187 31.9941 196.177C26.5737 192.235 31.1961 188.937 36.7702 191.401C36.9976 191.515 37.2629 191.628 37.4904 191.742C39.234 192.652 38.021 195.002 33.2071 193.827" stroke="#FFCC00" stroke-linecap="round" stroke-linejoin="round"/>
<path d="M34.6436 196.032C34.6974 195.339 34.9687 194.683 35.4196 194.154" stroke="#FFCC00" stroke-linecap="round" stroke-linejoin="round"/>
<path d="M109.51 226.547C109.51 228.941 107.914 232.195 107.614 235.267" stroke="#FFCC00" stroke-linecap="round" stroke-linejoin="round"/>
<path d="M148.63 226.547C155.946 231.436 170.238 235.267 170.238 235.267" stroke="#FFCC00" stroke-linecap="round" stroke-linejoin="round"/>
<path d="M237.862 229.503C239.752 228.37 244.845 225.09 244.087 221.014C246.602 221.619 249.194 221.836 251.775 221.657C252.799 221.467 254.239 220.936 252.761 219.875C250.31 218.546 247.733 217.467 245.066 216.653C244.511 216.452 243.92 216.371 243.331 216.417C242.742 216.463 242.17 216.634 241.653 216.918C237.72 218.978 233.464 220.35 229.068 220.974" stroke="#FFCC00" stroke-linecap="round" stroke-linejoin="round"/>
<path d="M252.117 229.162C254.228 229.4 256.31 229.844 258.333 230.489C264.626 232.119 263.943 233.521 258.257 233.521C253.476 233.442 248.706 234.022 244.083 235.245" stroke="#FFCC00" stroke-linecap="round" stroke-linejoin="round"/>
<path d="M252.344 223.893C255.472 224.085 258.586 224.465 261.668 225.03C268.15 225.789 267.619 227.305 261.972 228.063C259.418 228.39 256.886 228.871 254.391 229.503" stroke="#FFCC00" stroke-linecap="round" stroke-linejoin="round"/>
<path d="M253.595 219.534C257.06 218.75 260.565 218.156 264.094 217.753C270.614 217.374 270.349 218.966 264.928 220.671C262.153 221.705 259.444 222.907 256.817 224.272" stroke="#FFCC00" stroke-linecap="round" stroke-linejoin="round"/>
<path d="M247.984 217.677C251.079 215.924 254.268 214.343 257.536 212.939C263.639 210.665 263.867 212.257 259.204 215.479C257.628 216.638 256.134 217.905 254.731 219.269" stroke="#FFCC00" stroke-linecap="round" stroke-linejoin="round"/>
<path d="M251.472 231.55C251.547 231.323 253.026 225.144 251.813 221.657" stroke="#FFCC00" stroke-linecap="round" stroke-linejoin="round"/>
<path d="M192.185 213.811L186.651 213.242L184.263 209.793" stroke="#FFCC00" stroke-linecap="round" stroke-linejoin="round"/>
<path d="M231.781 217.667L210.115 215.555" stroke="#FFCC00" stroke-linecap="round" stroke-linejoin="round"/>
<path d="M234.526 219.761C233.615 217.936 231.891 216.956 230.536 218.261C228.119 220.589 227.311 229.359 228.158 235.266" stroke="#FFCC00" stroke-linecap="round" stroke-linejoin="round"/>
<path d="M19.3283 35.6474C19.3239 35.9905 19.3889 36.3309 19.5193 36.6483C19.6498 36.9656 19.8431 37.2533 20.0876 37.4941C20.3321 37.7349 20.6227 37.9237 20.942 38.0493C21.2614 38.1749 21.6028 38.2346 21.9458 38.2249C22.6447 38.2002 23.307 37.9064 23.7944 37.4049C24.2818 36.9034 24.5565 36.2329 24.5612 35.5336C24.5659 35.1906 24.5012 34.8502 24.371 34.5329C24.2407 34.2155 24.0476 33.9278 23.8033 33.687C23.5589 33.4462 23.2684 33.2573 22.9492 33.1317C22.63 33.0061 22.2887 32.9464 21.9458 32.9561C21.2467 32.9808 20.5842 33.2745 20.0965 33.7759C19.6087 34.2774 19.3336 34.9479 19.3283 35.6474Z" fill="#1F2C2C"/>
<path d="M27.0246 68.7404H1.47461V43.1904H27.0246V68.7404Z" stroke="#FFCC00" stroke-linecap="round" stroke-linejoin="round"/>
<path d="M14.248 48.3838L20.6181 37.96" stroke="#FFCC00" stroke-linecap="round" stroke-linejoin="round"/>
<path d="M19.3283 35.6474C19.3239 35.9905 19.3889 36.3309 19.5193 36.6483C19.6498 36.9656 19.8431 37.2533 20.0876 37.4941C20.3321 37.7349 20.6227 37.9237 20.942 38.0493C21.2614 38.1749 21.6028 38.2346 21.9458 38.2249C22.6447 38.2002 23.307 37.9064 23.7944 37.4049C24.2818 36.9034 24.5565 36.2329 24.5612 35.5336C24.5659 35.1906 24.5012 34.8502 24.371 34.5329C24.2407 34.2155 24.0476 33.9278 23.8033 33.687C23.5589 33.4462 23.2684 33.2573 22.9492 33.1317C22.63 33.0061 22.2887 32.9464 21.9458 32.9561C21.2467 32.9808 20.5842 33.2745 20.0965 33.7759C19.6087 34.2774 19.3336 34.9479 19.3283 35.6474Z" stroke="#FFCC00" stroke-linecap="round" stroke-linejoin="round"/>
<path d="M351.355 202.363C351.355 202.363 348.626 199.444 344.608 202.742C340.59 206.04 343.964 210.323 343.964 210.323C347.792 214.834 375.844 190.989 372.016 186.479C372.016 186.479 368.339 182.461 364.435 185.91C360.53 189.322 362.956 192.506 362.956 192.506C363.639 193.339 352.038 203.197 351.355 202.363Z" stroke="#FFCC00" stroke-linecap="round" stroke-linejoin="round"/>
<path d="M152.989 203.273C152.989 203.273 165.725 235.267 174.37 235.495" stroke="#FFCC00" stroke-linecap="round" stroke-linejoin="round"/>
<path d="M264.322 75.6385C262.373 70.7727 255.083 64.5882 252.845 73.2166C251.826 77.1447 251.648 86.8185 254.565 90.5471C257.096 93.7691 261.064 92.3147 263.542 90.8903C264.203 91.6284 264.574 92.58 264.588 93.5696C264.537 93.8335 264.396 94.0714 264.189 94.2419C262.925 95.2038 261.526 95.9735 260.037 96.5261C264.699 102.174 271.257 100.809 280.963 96.4882C278.384 95.4949 276.082 93.8958 274.251 91.8259C268.675 85.3182 268.719 81.1008 268.907 80.8694C273.683 75.1836 268.604 70.7867 266.513 74.7288C265.489 76.624 264.883 76.624 264.352 75.7143L264.322 75.6385Z" stroke="#FFCC00" stroke-linecap="round" stroke-linejoin="round"/>
<path d="M263.542 90.8907C264.333 90.44 265.088 89.9291 265.8 89.3625C265.958 90.8694 265.523 92.3784 264.587 93.57" stroke="#FFCC00" stroke-linecap="round" stroke-linejoin="round"/>
<path d="M280.974 96.4883C287.91 99.3691 300.381 99.786 315.619 127.989C318.232 133.012 320.537 138.189 322.52 143.492C323.95 147.35 324.081 151.569 322.893 155.508" stroke="#FFCC00" stroke-linecap="round" stroke-linejoin="round"/>
<path d="M246.582 128.559C246.033 124.564 245.766 120.535 245.784 116.503L242.484 132.16" stroke="#FFCC00" stroke-linecap="round" stroke-linejoin="round"/>
<path d="M292.583 133.261C291.697 131.984 290.691 130.667 289.53 129.203L291.126 140.271" stroke="#FFCC00" stroke-linecap="round" stroke-linejoin="round"/>
<path d="M289.53 148.307C290.923 148.969 292.182 149.881 293.245 150.998" stroke="#FFCC00" stroke-linecap="round" stroke-linejoin="round"/>
<path d="M252.268 151.149L252.041 155.584" stroke="#FFCC00" stroke-linecap="round" stroke-linejoin="round"/>
<path d="M253.669 71.0407C257.222 62.8133 266.551 58.9989 272.282 65.5185C279.598 73.8197 268.605 83.7129 273.571 90.9927" stroke="#FFCC00" stroke-linecap="round" stroke-linejoin="round"/>
<path d="M219.175 122.074L223.686 123.704" stroke="#FFCC00" stroke-linecap="round" stroke-linejoin="round"/>
<path d="M260.039 96.5264C242.754 100.014 229.789 114.455 219.175 122.074C215.185 121.013 185.097 106.647 182.866 105.282C179.157 107.123 176.121 110.085 174.192 113.749C172.611 117.247 172.019 121.111 172.48 124.921C184.043 132.439 196.512 138.463 209.587 142.85C212.459 143.841 215.497 144.253 218.529 144.065C221.56 143.876 224.525 143.09 227.251 141.751C234.349 138.408 240.875 133.964 246.587 128.584C247.68 136.288 249.585 143.854 252.27 151.157C265.12 153.204 278.387 151.195 289.533 148.315L292.585 133.268C295.968 137.965 298.894 142.976 301.321 148.231C293.123 151.243 284.724 153.675 276.184 155.509" stroke="#FFCC00" stroke-linecap="round" stroke-linejoin="round"/>
<path d="M239.341 1V18.0213" stroke="#FFCC00" stroke-linecap="round" stroke-linejoin="round"/>
<path d="M247.871 9.52814L230.812 9.49023" stroke="#FFCC00" stroke-linecap="round" stroke-linejoin="round"/>
<path d="M259.015 96.7536L255.148 105.396L266.899 100.203L274.632 106.495L280.964 96.4883" stroke="#FFCC00" stroke-linecap="round" stroke-linejoin="round"/>
<path d="M301.319 148.193L302.646 150.619" stroke="#FFCC00" stroke-linecap="round" stroke-linejoin="round"/>
<path d="M112.277 166.2L124.483 177.42L131.457 168.436L142.111 174.35L136.69 163.509" stroke="#FFCC00" stroke-linecap="round" stroke-linejoin="round"/>
<path d="M136.69 163.509C135.97 170.142 126.264 169.839 112.277 166.2" stroke="#FFCC00" stroke-linecap="round" stroke-linejoin="round"/>
<path d="M131.457 168.436C131.457 168.436 144.384 191.407 137.107 228.366" stroke="#FFCC00" stroke-linecap="round" stroke-linejoin="round"/>
<path d="M51.0986 214.713C55.5714 219.102 72.096 202.288 67.6232 197.889" stroke="#FFCC00" stroke-linecap="round" stroke-linejoin="round"/>
<path d="M214.854 216.01C213.224 215.858 211.708 225.865 211.708 232.195" stroke="#FFCC00" stroke-linecap="round" stroke-linejoin="round"/>
<path d="M111.14 203.273L109.51 226.547" stroke="#FFCC00" stroke-linecap="round" stroke-linejoin="round"/>
<path d="M153.747 193.34L155.529 209.186" stroke="#FFCC00" stroke-linecap="round" stroke-linejoin="round"/>
<path d="M186.651 213.242L183.77 212.977" stroke="#FFCC00" stroke-linecap="round" stroke-linejoin="round"/>
<path d="M172.414 120.622C171.694 120.223 169.023 118.747 168.494 118.549C163.792 116.654 157.424 116.806 151.359 117.033C147.902 117.273 144.435 117.323 140.973 117.185C140.774 116.73 141.248 116.309 141.655 116.026C145.556 113.315 158.202 110.599 161.972 109.793C168.666 108.421 176.574 107.29 178.99 107.832" stroke="#FFCC00" stroke-linecap="round" stroke-linejoin="round"/>
<path d="M177.894 107.709C171.564 106.799 165.763 103.274 160.267 100.327C159.167 99.7285 156.59 98.2043 157.727 100.1C158.393 101.111 159.115 102.085 159.887 103.018C161.236 104.423 162.439 105.96 163.478 107.607C164.047 108.782 163.706 109.203 162.986 109.616" stroke="#FFCC00" stroke-linecap="round" stroke-linejoin="round"/>
<path d="M168.303 118.512C165.498 117.943 159.244 119.11 153.709 120.293C152.004 120.634 146.09 121.961 144.532 121.999C142.182 122.151 143.244 121.051 151.355 117.071" stroke="#FFCC00" stroke-linecap="round" stroke-linejoin="round"/>
<path d="M153.747 120.293L150.9 122.643C145.701 127.612 165.352 117.827 168.456 118.537" stroke="#FFCC00" stroke-linecap="round" stroke-linejoin="round"/>
<path d="M174.369 270.215V273.702" stroke="#FFCC00" stroke-linecap="round" stroke-linejoin="round"/>
<path d="M181.154 277.002H177.667" stroke="#FFCC00" stroke-linecap="round" stroke-linejoin="round"/>
<path d="M174.369 283.787V280.3" stroke="#FFCC00" stroke-linecap="round" stroke-linejoin="round"/>
<path d="M167.582 277.002H171.071" stroke="#FFCC00" stroke-linecap="round" stroke-linejoin="round"/>
<path d="M177.667 277.002C176.792 277.002 175.952 276.655 175.333 276.036C175.026 275.73 174.784 275.366 174.618 274.965C174.453 274.565 174.368 274.135 174.369 273.702C174.37 274.135 174.285 274.565 174.119 274.965C173.954 275.366 173.711 275.729 173.404 276.036C173.098 276.342 172.734 276.585 172.334 276.751C171.934 276.917 171.505 277.002 171.071 277.002C171.724 277.002 172.361 277.196 172.904 277.558C173.446 277.92 173.869 278.435 174.12 279.037C174.285 279.438 174.369 279.867 174.369 280.3C174.369 279.866 174.454 279.438 174.62 279.037C174.785 278.637 175.028 278.273 175.334 277.967C175.641 277.661 176.004 277.418 176.404 277.252C176.805 277.087 177.234 277.002 177.667 277.002Z" stroke="#FFCC00" stroke-linecap="round" stroke-linejoin="round"/>
</svg>
