<svg xmlns="http://www.w3.org/2000/svg" width="24" height="24" viewBox="0 0 24 24" fill="none">
  <mask id="path-1-inside-1_2242_8734" fill="white">
    <path d="M19.5 22.5H18V20.25C17.9988 19.2558 17.6033 18.3027 16.9003 17.5997C16.1973 16.8967 15.2442 16.5012 14.25 16.5H9.75C8.7558 16.5012 7.80267 16.8967 7.09966 17.5997C6.39666 18.3027 6.00119 19.2558 6 20.25V22.5H4.5V20.25C4.50159 18.8581 5.05522 17.5237 6.03944 16.5394C7.02367 15.5552 8.3581 15.0016 9.75 15H14.25C15.6419 15.0016 16.9763 15.5552 17.9606 16.5394C18.9448 17.5237 19.4984 18.8581 19.5 20.25V22.5ZM3.75 4.5C3.55109 4.5 3.36032 4.57902 3.21967 4.71967C3.07902 4.86032 3 5.05109 3 5.25V12H4.5V5.25C4.5 5.05109 4.42098 4.86032 4.28033 4.71967C4.13968 4.57902 3.94891 4.5 3.75 4.5Z"/>
  </mask>
  <path d="M19.5 22.5V38.5H35.5V22.5H19.5ZM18 22.5H2V38.5H18V22.5ZM18 20.25H34V20.2404L34 20.2308L18 20.25ZM14.25 16.5L14.2692 0.500011L14.2596 0.5H14.25V16.5ZM9.75 16.5V0.5H9.74042L9.73083 0.500011L9.75 16.5ZM6 20.25L-9.99999 20.2308L-10 20.2404V20.25H6ZM6 22.5V38.5H22V22.5H6ZM4.5 22.5H-11.5V38.5H4.5V22.5ZM4.5 20.25L-11.5 20.2317L-11.5 20.2409V20.25H4.5ZM9.75 15V-1H9.74087L9.73175 -0.99999L9.75 15ZM14.25 15L14.2683 -0.99999L14.2591 -1H14.25V15ZM19.5 20.25H35.5V20.2409L35.5 20.2317L19.5 20.25ZM3 5.25H-13H3ZM3 12H-13V28H3V12ZM4.5 12V28H20.5V12H4.5ZM19.5 6.5H18V38.5H19.5V6.5ZM34 22.5V20.25H2V22.5H34ZM34 20.2308C33.9937 14.9998 31.9129 9.98485 28.214 6.28596L5.58663 28.9134C3.29374 26.6205 2.0039 23.5118 2.00001 20.2692L34 20.2308ZM28.214 6.28596C24.5151 2.58706 19.5002 0.506277 14.2692 0.500011L14.2308 32.5C10.9882 32.4961 7.87952 31.2063 5.58663 28.9134L28.214 6.28596ZM14.25 0.5H9.75V32.5H14.25V0.5ZM9.73083 0.500011C4.49983 0.506277 -0.515149 2.58706 -4.21404 6.28596L18.4134 28.9134C16.1205 31.2063 13.0118 32.4961 9.76917 32.5L9.73083 0.500011ZM-4.21404 6.28596C-7.91294 9.98485 -9.99372 14.9998 -9.99999 20.2308L22 20.2692C21.9961 23.5118 20.7063 26.6205 18.4134 28.9134L-4.21404 6.28596ZM-10 20.25V22.5H22V20.25H-10ZM6 6.5H4.5V38.5H6V6.5ZM20.5 22.5V20.25H-11.5V22.5H20.5ZM20.5 20.2683C20.4967 23.1135 19.365 25.8413 17.3532 27.8532L-5.27427 5.22574C-9.25459 9.20607 -11.4936 14.6027 -11.5 20.2317L20.5 20.2683ZM17.3532 27.8532C15.3413 29.865 12.6135 30.9967 9.76825 31L9.73175 -0.99999C4.10271 -0.993567 -1.29393 1.2454 -5.27427 5.22574L17.3532 27.8532ZM9.75 31H14.25V-1H9.75V31ZM14.2317 31C11.3865 30.9967 8.65873 29.865 6.64685 27.8532L29.2743 5.22574C25.2939 1.2454 19.8973 -0.993567 14.2683 -0.99999L14.2317 31ZM6.64685 27.8532C4.63496 25.8413 3.50326 23.1135 3.50001 20.2683L35.5 20.2317C35.4936 14.6027 33.2546 9.20607 29.2743 5.22574L6.64685 27.8532ZM3.5 20.25V22.5H35.5V20.25H3.5ZM3.75 -11.5C-0.692387 -11.5 -4.95281 -9.73526 -8.09404 -6.59404L14.5334 16.0334C11.6735 18.8933 7.79456 20.5 3.75 20.5V-11.5ZM-8.09404 -6.59404C-11.2353 -3.45281 -13 0.807613 -13 5.25H19C19 9.29456 17.3933 13.1735 14.5334 16.0334L-8.09404 -6.59404ZM-13 5.25V12H19V5.25H-13ZM3 28H4.5V-4H3V28ZM20.5 12V5.25H-11.5V12H20.5ZM20.5 5.25C20.5 0.807613 18.7353 -3.45281 15.594 -6.59404L-7.03338 16.0334C-9.8933 13.1735 -11.5 9.29456 -11.5 5.25H20.5ZM15.594 -6.59404C12.4528 -9.73526 8.19239 -11.5 3.75 -11.5V20.5C-0.294563 20.5 -4.17346 18.8933 -7.03338 16.0334L15.594 -6.59404Z" fill="#FFCC00" mask="url(#path-1-inside-1_2242_8734)"/>
  <path d="M3 1.5V3H6.75V8.25C6.75 9.64239 7.30312 10.9777 8.28769 11.9623C9.27226 12.9469 10.6076 13.5 12 13.5C13.3924 13.5 14.7277 12.9469 15.7123 11.9623C16.6969 10.9777 17.25 9.64239 17.25 8.25V3H21V1.5H3ZM8.25 3H15.75V5.25H8.25V3ZM12 12C11.0054 12 10.0516 11.6049 9.34835 10.9017C8.64509 10.1984 8.25 9.24456 8.25 8.25V6.75H15.75V8.25C15.75 9.24456 15.3549 10.1984 14.6517 10.9017C13.9484 11.6049 12.9946 12 12 12Z" fill="#FFCC00"/>
</svg>