<svg xmlns="http://www.w3.org/2000/svg" width="24" height="24" viewBox="0 0 24 24" fill="none">
  <path d="M6.00034 2C5.4699 2 4.9612 2.21071 4.58612 2.58579C4.21105 2.96086 4.00034 3.46957 4.00034 4C4.00034 4.53043 4.21105 5.03914 4.58612 5.41421C4.9612 5.78929 5.4699 6 6.00034 6C6.53077 6 7.03948 5.78929 7.41455 5.41421C7.78962 5.03914 8.00034 4.53043 8.00034 4C8.00034 3.46957 7.78962 2.96086 7.41455 2.58579C7.03948 2.21071 6.53077 2 6.00034 2ZM18.0003 2C17.4699 2 16.9612 2.21071 16.5861 2.58579C16.2111 2.96086 16.0003 3.46957 16.0003 4C16.0003 4.53043 16.2111 5.03914 16.5861 5.41421C16.9612 5.78929 17.4699 6 18.0003 6C18.5308 6 19.0395 5.78929 19.4145 5.41421C19.7896 5.03914 20.0003 4.53043 20.0003 4C20.0003 3.46957 19.7896 2.96086 19.4145 2.58579C19.0395 2.21071 18.5308 2 18.0003 2ZM5.26596 8C4.27896 8 3.43845 8.71936 3.28745 9.69336L2.01401 16.6504C1.91304 17.3012 2.36979 17.8874 3.00034 17.9805V21C3.00034 21.552 3.44834 22 4.00034 22C4.55234 22 5.00034 21.552 5.00034 21V18H7.00034V21C7.00034 21.552 7.44834 22 8.00034 22C8.55234 22 9.00034 21.552 9.00034 21V17.9805C9.62538 17.8884 10.0803 17.3107 9.98862 16.6641L9.30112 12.5723L10.9456 14.1562C11.5346 14.7242 12.467 14.7242 13.057 14.1562L14.6996 12.5742L14.0121 16.6641C13.9203 17.3107 14.3753 17.8884 15.0003 17.9805V21C15.0003 21.552 15.4483 22 16.0003 22C16.5523 22 17.0003 21.552 17.0003 21V18H19.0003V21C19.0003 21.552 19.4483 22 20.0003 22C20.5523 22 21.0003 21.552 21.0003 21V17.9805C21.6309 17.8874 22.0876 17.3012 21.9867 16.6504L20.7132 9.69336C20.5622 8.71836 19.7217 8 18.7347 8H17.1566C16.5811 8 16.0612 8.24971 15.6937 8.64648L12.0003 12.1719L8.30698 8.64648C7.93946 8.24971 7.41953 8 6.84409 8H5.26596Z" fill="#FFCC00"/>
</svg>