<svg width="24" height="24" viewBox="0 0 24 24" fill="none" xmlns="http://www.w3.org/2000/svg">
<path d="M12 4C11.0717 4 10.1815 4.36875 9.52513 5.02513C8.86875 5.6815 8.5 6.57174 8.5 7.5C8.5 8.42826 8.86875 9.3185 9.52513 9.97487C10.1815 10.6313 11.0717 11 12 11C12.9283 11 13.8185 10.6313 14.4749 9.97487C15.1313 9.3185 15.5 8.42826 15.5 7.5C15.5 6.57174 15.1313 5.6815 14.4749 5.02513C13.8185 4.36875 12.9283 4 12 4ZM4.5 7C3.83696 7 3.20107 7.26339 2.73223 7.73223C2.26339 8.20107 2 8.83696 2 9.5C2 9.8283 2.06466 10.1534 2.1903 10.4567C2.31594 10.76 2.50009 11.0356 2.73223 11.2678C3.20107 11.7366 3.83696 12 4.5 12C4.8283 12 5.15339 11.9353 5.45671 11.8097C5.76002 11.6841 6.03562 11.4999 6.26777 11.2678C6.49991 11.0356 6.68406 10.76 6.8097 10.4567C6.93534 10.1534 7 9.8283 7 9.5C7 9.1717 6.93534 8.84661 6.8097 8.54329C6.68406 8.23998 6.49991 7.96438 6.26777 7.73223C6.03562 7.50009 5.76002 7.31594 5.45671 7.1903C5.15339 7.06466 4.8283 7 4.5 7ZM19.5 7C18.837 7 18.2011 7.26339 17.7322 7.73223C17.2634 8.20107 17 8.83696 17 9.5C17 9.8283 17.0647 10.1534 17.1903 10.4567C17.3159 10.76 17.5001 11.0356 17.7322 11.2678C18.2011 11.7366 18.837 12 19.5 12C19.8283 12 20.1534 11.9353 20.4567 11.8097C20.76 11.6841 21.0356 11.4999 21.2678 11.2678C21.4999 11.0356 21.6841 10.76 21.8097 10.4567C21.9353 10.1534 22 9.8283 22 9.5C22 8.83696 21.7366 8.20107 21.2678 7.73223C20.7989 7.26339 20.163 7 19.5 7ZM12 13C9.664 13 5 14.173 5 16.5V19C5 19.552 5.448 20 6 20H18C18.552 20 19 19.552 19 19V16.5C19 14.173 14.336 13 12 13ZM3.89844 14.0527C2.31744 14.2967 0 15.3891 0 16.7051V19C0 19.552 0.448 20 1 20H3V16.5C3 15.539 3.34544 14.7327 3.89844 14.0527ZM20.1016 14.0527C20.6546 14.7327 21 15.539 21 16.5V20H23C23.552 20 24 19.552 24 19V16.7051C24 15.3891 21.6826 14.2967 20.1016 14.0527Z" fill="#FFCC00"/>
</svg>
