<svg xmlns="http://www.w3.org/2000/svg" width="24" height="24" viewBox="0 0 24 24" fill="none">
  <path d="M11.8039 4.08719C11.8638 4.02586 11.9353 4 12 4C12.0647 4 12.1362 4.02586 12.1961 4.08719C12.2576 4.15007 12.3 4.24484 12.3 4.35294C12.3 4.46105 12.2576 4.55581 12.1961 4.61869C12.1362 4.68002 12.0647 4.70588 12 4.70588C11.9353 4.70588 11.8638 4.68002 11.8039 4.61869C11.7424 4.55581 11.7 4.46105 11.7 4.35294C11.7 4.24484 11.7424 4.15007 11.8039 4.08719ZM4.90387 12.3225C4.96382 12.2612 5.03531 12.2353 5.1 12.2353C5.16469 12.2353 5.23618 12.2612 5.29613 12.3225C5.35759 12.3854 5.4 12.4801 5.4 12.5882C5.4 12.6963 5.35759 12.7911 5.29613 12.854C5.23618 12.9153 5.16469 12.9412 5.1 12.9412C5.03531 12.9412 4.96382 12.9153 4.90387 12.854C4.84241 12.7911 4.8 12.6963 4.8 12.5882C4.8 12.4801 4.84241 12.3854 4.90387 12.3225ZM18.7039 12.3225C18.7638 12.2612 18.8353 12.2353 18.9 12.2353C18.9647 12.2353 19.0362 12.2612 19.0961 12.3225C19.1576 12.3854 19.2 12.4801 19.2 12.5882C19.2 12.6963 19.1576 12.7911 19.0961 12.854C19.0362 12.9153 18.9647 12.9412 18.9 12.9412C18.8353 12.9412 18.7638 12.9153 18.7039 12.854C18.6424 12.7911 18.6 12.6963 18.6 12.5882C18.6 12.4801 18.6424 12.3854 18.7039 12.3225ZM7.1928 19.7541C7.40671 19.8451 7.56115 19.9309 7.66586 20H2.53414C2.63885 19.9309 2.79329 19.8451 3.0072 19.7541C3.72424 19.449 4.60843 19.2941 5.1 19.2941C5.59157 19.2941 6.47576 19.449 7.1928 19.7541ZM20.9928 19.7541C21.2067 19.8451 21.3611 19.9309 21.4659 20H16.3341C16.4388 19.9309 16.5933 19.8451 16.8072 19.7541C17.5242 19.449 18.4084 19.2941 18.9 19.2941C19.3916 19.2941 20.2758 19.449 20.9928 19.7541Z" stroke="#FFCC00" stroke-width="4"/>
</svg>