<svg width="300" height="300" viewBox="0 0 300 300" fill="none" xmlns="http://www.w3.org/2000/svg">
<path d="M266.146 179.013H279.665" stroke="#FFCC00" stroke-linecap="round" stroke-linejoin="round"/>
<path d="M272.905 185.773V172.255" stroke="#FFCC00" stroke-linecap="round" stroke-linejoin="round"/>
<path d="M65.999 40.8555L75.5586 50.4135" stroke="#FFCC00" stroke-linecap="round" stroke-linejoin="round"/>
<path d="M65.999 50.4135L75.5586 40.8555" stroke="#FFCC00" stroke-linecap="round" stroke-linejoin="round"/>
<path d="M15.2207 143.56L20.0955 148.434" stroke="#FFCC00" stroke-linecap="round" stroke-linejoin="round"/>
<path d="M15.2207 148.434L20.0955 143.56" stroke="#FFCC00" stroke-linecap="round" stroke-linejoin="round"/>
<path d="M222.373 92.5627L226.552 99.4559L231.467 89.1572" stroke="#FFCC00" stroke-linecap="round" stroke-linejoin="round"/>
<path d="M235.044 205.413H242.417" stroke="#FFCC00" stroke-linecap="round" stroke-linejoin="round"/>
<path d="M238.73 209.1V201.725" stroke="#FFCC00" stroke-linecap="round" stroke-linejoin="round"/>
<path d="M136.605 89.5684L108.481 97.8277L173 123.114V133.177L201.123 124.917V114.855L136.605 89.5684Z" fill="#0E1416"/>
<path d="M136.605 89.5684L108.481 97.8277L173 123.114V133.177L201.123 124.917V114.855L136.605 89.5684Z" stroke="#FFCC00" stroke-linecap="round" stroke-linejoin="round"/>
<path d="M109.266 191.455L144.877 205.412L229.247 180.633V106.595L164.729 81.3086L80.3584 106.086V177.664" stroke="#FFCC00" stroke-linecap="round" stroke-linejoin="round"/>
<path d="M229.248 106.596L144.877 131.375V205.413" stroke="#FFCC00" stroke-linecap="round" stroke-linejoin="round"/>
<path d="M80.3584 106.087L112.618 151.48L144.877 131.375L80.3584 106.088V106.087Z" stroke="#FFCC00" stroke-linecap="round" stroke-linejoin="round"/>
<path d="M156.171 81.4214C149.012 77.9801 139.888 80.2244 135.791 86.4548C131.694 92.6852 134.178 100.52 141.338 103.961C148.497 107.402 157.621 105.158 161.718 98.9276C165.815 92.6972 163.331 84.8658 156.171 81.4214Z" fill="#1F2C2C"/>
<path d="M156.171 81.4214C149.012 77.9801 139.888 80.2244 135.791 86.4548C131.694 92.6852 134.178 100.52 141.338 103.961C148.497 107.402 157.621 105.158 161.718 98.9276C165.815 92.6972 163.331 84.8658 156.171 81.4214Z" stroke="#FFCC00" stroke-linecap="round" stroke-linejoin="round"/>
<path d="M178.535 41.6217C178.518 38.6557 177.743 35.7433 176.284 33.1612C174.825 30.5791 172.729 28.413 170.197 26.8686L159.656 20.4662C154.844 17.6842 149.231 16.618 143.734 17.4423C137.084 18.2097 130.944 21.3807 126.469 26.3587C121.994 31.3366 119.492 37.7784 119.434 44.472L137.377 42.1498C137.287 30.2143 150.376 31.0566 150.427 37.7778C150.457 41.7863 147.698 42.9578 142.896 48.9174C137.57 55.3736 134.816 63.5689 135.161 71.9312L153.102 69.609L163.277 75.7751C163.212 67.1133 166.179 63.8874 169.937 59.8026C173.589 55.8256 178.601 50.3777 178.535 41.6217Z" stroke="#FFCC00" stroke-linecap="round" stroke-linejoin="round"/>
<path d="M153.103 69.6094L135.161 71.9316L145.327 78.0976L163.27 75.7754L153.103 69.6094Z" fill="#1F2C2C"/>
<path d="M153.103 69.6094L135.161 71.9316L145.327 78.0976L163.27 75.7754L153.103 69.6094Z" stroke="#FFCC00" stroke-linecap="round" stroke-linejoin="round"/>
<path d="M150.427 37.7807C150.376 30.9878 137.287 30.2995 137.377 42.1528L119.434 44.472L129.599 50.6365L142.896 48.9158C147.645 43.0176 150.457 41.7787 150.427 37.7807Z" fill="#1F2C2C"/>
<path d="M150.427 37.7807C150.376 30.9878 137.287 30.2995 137.377 42.1528L119.434 44.472L129.599 50.6365L142.896 48.9158C147.645 43.0176 150.457 41.7787 150.427 37.7807Z" stroke="#FFCC00" stroke-linecap="round" stroke-linejoin="round"/>
<path d="M143.734 17.4422C157.23 15.6961 168.282 23.7759 168.368 35.4556C168.434 44.2117 163.422 49.6595 159.763 53.638C156.005 57.7213 153.03 60.9472 153.102 69.609" stroke="#FFCC00" stroke-linecap="round" stroke-linejoin="round"/>
<path d="M276.061 88.2524C272.259 87.2316 268.252 87.2595 264.465 88.3331C260.677 89.4068 257.251 91.486 254.551 94.3502C251.85 97.2143 249.976 100.756 249.126 104.6C248.277 108.444 248.485 112.446 249.727 116.181L243.144 126.631L255.464 125.135C257.875 127.4 260.77 129.086 263.93 130.065C267.091 131.044 270.432 131.289 273.702 130.783C276.971 130.277 280.082 129.032 282.798 127.144C285.515 125.256 287.765 122.773 289.378 119.885C290.991 116.996 291.925 113.778 292.108 110.475C292.291 107.172 291.719 103.87 290.435 100.821C289.152 97.7723 287.19 95.0559 284.699 92.8785C282.209 90.7012 279.254 89.1201 276.061 88.2554V88.2524ZM270.045 126.67L258.271 109.264L270.045 91.8584L281.82 109.264L270.045 126.67Z" fill="#1F2C2C"/>
<path d="M276.061 88.2524C272.259 87.2316 268.252 87.2595 264.465 88.3331C260.677 89.4068 257.251 91.486 254.551 94.3502C251.85 97.2143 249.976 100.756 249.126 104.6C248.277 108.444 248.485 112.446 249.727 116.181L243.144 126.631L255.464 125.135C257.875 127.4 260.77 129.086 263.93 130.065C267.091 131.044 270.432 131.289 273.702 130.783C276.971 130.277 280.082 129.032 282.798 127.144C285.515 125.256 287.765 122.773 289.378 119.885C290.991 116.996 291.925 113.778 292.108 110.475C292.291 107.172 291.719 103.87 290.435 100.821C289.152 97.7723 287.19 95.0559 284.699 92.8785C282.209 90.7012 279.254 89.1201 276.061 88.2554V88.2524Z" stroke="#FFCC00" stroke-linecap="round" stroke-linejoin="round"/>
<path d="M270.045 91.8584L258.271 109.264L270.045 126.67L281.82 109.264L270.045 91.8584Z" stroke="#FFCC00" stroke-linecap="round" stroke-linejoin="round"/>
<path d="M270.045 91.8584L274.462 109.264L270.045 126.67" stroke="#FFCC00" stroke-linecap="round" stroke-linejoin="round"/>
<path d="M213.923 223.701L203.059 217.827L205.373 230.02C202.002 234.123 200.246 239.317 200.438 244.624C200.63 249.931 202.755 254.984 206.413 258.833C210.07 262.684 215.008 265.065 220.298 265.528C225.588 265.991 230.865 264.504 235.135 261.347C239.405 258.19 242.374 253.582 243.484 248.39C244.594 243.197 243.768 237.778 241.162 233.152C238.556 228.525 234.348 225.011 229.332 223.27C224.315 221.53 218.835 221.683 213.923 223.701Z" stroke="#FFCC00" stroke-linecap="round" stroke-linejoin="round"/>
<path d="M213.986 230.244L209.266 234.965H230.406V256.105L235.127 251.383V230.244H213.986Z" fill="#1F2C2C"/>
<path d="M213.986 230.244L209.266 234.965H230.406V256.105L235.127 251.383V230.244H213.986Z" stroke="#FFCC00" stroke-linecap="round" stroke-linejoin="round"/>
<path d="M230.406 234.965H209.266V256.105H230.406V234.965Z" stroke="#FFCC00" stroke-linecap="round" stroke-linejoin="round"/>
<path d="M222.631 242.738H217.038V248.331H222.631V242.738Z" fill="#1F2C2C"/>
<path d="M222.631 242.738H217.038V248.331H222.631V242.738Z" stroke="#FFCC00" stroke-linecap="round" stroke-linejoin="round"/>
<path d="M63.218 95.3564C65.7159 90.6705 66.4151 85.2332 65.184 80.0678C63.9529 74.9024 60.8764 70.3651 56.5334 67.3097C52.1904 64.2543 46.8804 62.8916 41.6028 63.4779C36.3252 64.0643 31.4439 66.5593 27.8774 70.4934C24.311 74.4276 22.3054 79.5295 22.2381 84.8392C22.1708 90.1488 24.0464 95.3 27.5119 99.3233C30.9774 103.347 35.7939 105.965 41.055 106.685C46.316 107.405 51.6588 106.177 56.0779 103.233L67.8863 106.855L63.218 95.3564ZM44.0061 96.4037C41.394 96.4029 38.863 95.4964 36.8443 93.8387C34.8256 92.181 33.4441 89.8746 32.9353 87.3125C32.4264 84.7505 32.8216 82.0912 34.0536 79.7879C35.2856 77.4845 37.2781 75.6796 39.6917 74.6806C42.1052 73.6817 44.7905 73.5504 47.2899 74.3093C49.7894 75.0682 51.9484 76.6703 53.399 78.8425C54.8497 81.0148 55.5024 83.6228 55.2457 86.2223C54.9891 88.8218 53.8391 91.2519 51.9916 93.0985C49.8744 95.2167 47.0025 96.4072 44.0076 96.4082L44.0046 96.4037H44.0061Z" fill="#0E1416"/>
<path d="M67.8893 106.855L63.218 95.3564C65.7159 90.6705 66.4151 85.2332 65.184 80.0678C63.9529 74.9024 60.8764 70.3651 56.5334 67.3097C52.1904 64.2543 46.8804 62.8916 41.6028 63.4779C36.3252 64.0643 31.4439 66.5593 27.8774 70.4934C24.311 74.4276 22.3054 79.5295 22.2381 84.8392C22.1708 90.1488 24.0464 95.3 27.5119 99.3233C30.9774 103.347 35.7939 105.965 41.055 106.685C46.316 107.405 51.6588 106.177 56.0779 103.233L67.8893 106.855Z" stroke="#FFCC00" stroke-linecap="round" stroke-linejoin="round"/>
<path d="M54.4391 89.4397C55.0066 88.0698 55.2986 86.6015 55.2987 85.1187C55.2987 83.6359 55.0066 82.1676 54.4392 80.7977C53.8718 79.4277 53.0401 78.1829 51.9916 77.1344C50.9431 76.0859 49.6983 75.2542 48.3284 74.6867C46.9585 74.1193 45.4902 73.8272 44.0074 73.8271C42.5246 73.8271 41.0563 74.1192 39.6863 74.6866C38.3164 75.254 37.0716 76.0857 36.0231 77.1342C34.9746 78.1827 34.1428 79.4275 33.5754 80.7974C32.4293 83.5641 32.4293 86.6727 33.5753 89.4395C34.7212 92.2062 36.9194 94.4044 39.6861 95.5504C42.4528 96.6965 45.5614 96.6965 48.3281 95.5505C51.0949 94.4046 53.293 92.2064 54.4391 89.4397Z" stroke="#FFCC00" stroke-linecap="round" stroke-linejoin="round"/>
<path d="M44.0823 91.0289C42.842 91.0289 41.6368 90.6168 40.6562 89.8574C39.6755 89.0981 38.9749 88.0344 38.6645 86.8336C38.354 85.6327 38.4513 84.3628 38.9411 83.2233C39.4308 82.0837 40.2853 81.1392 41.3702 80.5381C42.4551 79.937 43.7089 79.7133 44.9348 79.9022C46.1606 80.0912 47.2889 80.682 48.1425 81.5819C48.996 82.4818 49.5264 83.6398 49.6503 84.8739C49.7742 86.108 49.4846 87.3483 48.8269 88.4" stroke="#FFCC00" stroke-linecap="round" stroke-linejoin="round"/>
<path d="M47.4043 85.4365L48.8272 88.4006L52.493 87.7572" stroke="#FFCC00" stroke-linecap="round" stroke-linejoin="round"/>
<path d="M107.073 198.606L116.083 169.233L87.4779 180.844C51.8282 161.809 7.85645 187.491 7.85645 228.639C7.85713 237.092 9.83662 245.427 13.6365 252.978C17.4363 260.529 22.951 267.085 29.7391 272.122C36.5273 277.159 44.4003 280.537 52.7281 281.986C61.0559 283.434 69.6072 282.913 77.6976 280.464C85.7879 278.015 93.1927 273.707 99.3191 267.883C105.445 262.059 110.123 254.881 112.979 246.925C115.834 238.969 116.787 230.455 115.761 222.065C114.736 213.674 111.76 205.641 107.073 198.606Z" stroke="#FFCC00" stroke-linecap="round" stroke-linejoin="round"/>
<path d="M62.0102 198.626L26.7705 250.923H97.2499L62.0102 198.626Z" fill="#0E1416"/>
<path d="M62.0102 198.626L26.7705 250.923H97.2499L62.0102 198.626Z" stroke="#FFCC00" stroke-linecap="round" stroke-linejoin="round"/>
<path d="M53.332 230.614H70.6885" stroke="#FFCC00" stroke-linecap="round" stroke-linejoin="round"/>
<path d="M62.0107 239.294V221.936" stroke="#FFCC00" stroke-linecap="round" stroke-linejoin="round"/>
</svg>
