<svg xmlns="http://www.w3.org/2000/svg" width="24" height="24" viewBox="0 0 24 24" fill="none">
  <path d="M13.5 6H10.5V3H12V4.5H13.5V6ZM19.5 18.0938C19.8281 18.1797 20.1289 18.3164 20.4023 18.5039C20.6758 18.6914 20.9102 18.9141 21.1055 19.1719C21.3008 19.4297 21.457 19.7148 21.5742 20.0273C21.6914 20.3398 21.75 20.6641 21.75 21C21.75 21.4141 21.6719 21.8008 21.5156 22.1602C21.3594 22.5195 21.1445 22.8398 20.8711 23.1211C20.5977 23.4023 20.2812 23.6172 19.9219 23.7656C19.5625 23.9141 19.1719 23.9922 18.75 24C18.3359 24 17.9492 23.9219 17.5898 23.7656C17.2305 23.6094 16.9102 23.3945 16.6289 23.1211C16.3477 22.8477 16.1328 22.5312 15.9844 22.1719C15.8359 21.8125 15.7578 21.4219 15.75 21C15.75 20.6641 15.8047 20.3398 15.9141 20.0273C16.0234 19.7148 16.1758 19.4297 16.3711 19.1719C16.5664 18.9141 16.8047 18.6914 17.0859 18.5039C17.3672 18.3164 17.6719 18.1797 18 18.0938V15H12V18.0938C12.3281 18.1797 12.6289 18.3164 12.9023 18.5039C13.1758 18.6914 13.4102 18.9141 13.6055 19.1719C13.8008 19.4297 13.957 19.7148 14.0742 20.0273C14.1914 20.3398 14.25 20.6641 14.25 21C14.25 21.4141 14.1719 21.8008 14.0156 22.1602C13.8594 22.5195 13.6445 22.8398 13.3711 23.1211C13.0977 23.4023 12.7812 23.6172 12.4219 23.7656C12.0625 23.9141 11.6719 23.9922 11.25 24C10.8359 24 10.4492 23.9219 10.0898 23.7656C9.73047 23.6094 9.41016 23.3945 9.12891 23.1211C8.84766 22.8477 8.63281 22.5312 8.48438 22.1719C8.33594 21.8125 8.25781 21.4219 8.25 21C8.25 20.6641 8.30469 20.3398 8.41406 20.0273C8.52344 19.7148 8.67578 19.4297 8.87109 19.1719C9.06641 18.9141 9.30469 18.6914 9.58594 18.5039C9.86719 18.3164 10.1719 18.1797 10.5 18.0938V15H4.5V18.0938C4.82812 18.1797 5.12891 18.3164 5.40234 18.5039C5.67578 18.6914 5.91016 18.9141 6.10547 19.1719C6.30078 19.4297 6.45703 19.7148 6.57422 20.0273C6.69141 20.3398 6.75 20.6641 6.75 21C6.75 21.4141 6.67188 21.8008 6.51562 22.1602C6.35938 22.5195 6.14453 22.8398 5.87109 23.1211C5.59766 23.4023 5.28125 23.6172 4.92188 23.7656C4.5625 23.9141 4.17188 23.9922 3.75 24C3.33594 24 2.94922 23.9219 2.58984 23.7656C2.23047 23.6094 1.91016 23.3945 1.62891 23.1211C1.34766 22.8477 1.13281 22.5312 0.984375 22.1719C0.835938 21.8125 0.757812 21.4219 0.75 21C0.75 20.6641 0.804688 20.3398 0.914062 20.0273C1.02344 19.7148 1.17578 19.4297 1.37109 19.1719C1.56641 18.9141 1.80469 18.6914 2.08594 18.5039C2.36719 18.3164 2.67188 18.1797 3 18.0938V13.5H10.5V10.4414C9.85156 10.3555 9.25391 10.1602 8.70703 9.85547C8.16016 9.55078 7.68359 9.16406 7.27734 8.69531C6.87109 8.22656 6.55859 7.69922 6.33984 7.11328C6.12109 6.52734 6.00781 5.90625 6 5.25C6 4.52344 6.13672 3.84375 6.41016 3.21094C6.68359 2.57812 7.05859 2.01953 7.53516 1.53516C8.01172 1.05078 8.56641 0.675781 9.19922 0.410156C9.83203 0.144531 10.5156 0.0078125 11.25 0C11.9766 0 12.6562 0.136719 13.2891 0.410156C13.9219 0.683594 14.4805 1.05859 14.9648 1.53516C15.4492 2.01172 15.8242 2.56641 16.0898 3.19922C16.3555 3.83203 16.4922 4.51562 16.5 5.25C16.5 5.89844 16.3867 6.51562 16.1602 7.10156C15.9336 7.6875 15.6211 8.21484 15.2227 8.68359C14.8242 9.15234 14.3516 9.53906 13.8047 9.84375C13.2578 10.1484 12.6562 10.3477 12 10.4414V13.5H19.5V18.0938ZM7.5 5.25C7.5 5.76562 7.59766 6.25 7.79297 6.70312C7.98828 7.15625 8.25391 7.55469 8.58984 7.89844C8.92578 8.24219 9.32422 8.51172 9.78516 8.70703C10.2461 8.90234 10.7344 9 11.25 9C11.7656 9 12.25 8.90234 12.7031 8.70703C13.1562 8.51172 13.5508 8.24609 13.8867 7.91016C14.2227 7.57422 14.4922 7.17578 14.6953 6.71484C14.8984 6.25391 15 5.76562 15 5.25C15 4.73438 14.9023 4.25 14.707 3.79688C14.5117 3.34375 14.2422 2.94922 13.8984 2.61328C13.5547 2.27734 13.1562 2.00781 12.7031 1.80469C12.25 1.60156 11.7656 1.5 11.25 1.5C10.7344 1.5 10.25 1.59766 9.79688 1.79297C9.34375 1.98828 8.94531 2.25781 8.60156 2.60156C8.25781 2.94531 7.98828 3.34375 7.79297 3.79688C7.59766 4.25 7.5 4.73438 7.5 5.25ZM5.25 21C5.25 20.7891 5.21094 20.5938 5.13281 20.4141C5.05469 20.2344 4.94922 20.0781 4.81641 19.9453C4.68359 19.8125 4.52344 19.7031 4.33594 19.6172C4.14844 19.5312 3.95312 19.4922 3.75 19.5C3.53906 19.5 3.34375 19.5391 3.16406 19.6172C2.98438 19.6953 2.82812 19.8008 2.69531 19.9336C2.5625 20.0664 2.45312 20.2266 2.36719 20.4141C2.28125 20.6016 2.24219 20.7969 2.25 21C2.25 21.2109 2.28906 21.4062 2.36719 21.5859C2.44531 21.7656 2.55078 21.9219 2.68359 22.0547C2.81641 22.1875 2.97656 22.2969 3.16406 22.3828C3.35156 22.4688 3.54688 22.5078 3.75 22.5C3.96094 22.5 4.15625 22.4609 4.33594 22.3828C4.51562 22.3047 4.67188 22.1992 4.80469 22.0664C4.9375 21.9336 5.04688 21.7734 5.13281 21.5859C5.21875 21.3984 5.25781 21.2031 5.25 21ZM12.75 21C12.75 20.7891 12.7109 20.5938 12.6328 20.4141C12.5547 20.2344 12.4492 20.0781 12.3164 19.9453C12.1836 19.8125 12.0234 19.7031 11.8359 19.6172C11.6484 19.5312 11.4531 19.4922 11.25 19.5C11.0391 19.5 10.8438 19.5391 10.6641 19.6172C10.4844 19.6953 10.3281 19.8008 10.1953 19.9336C10.0625 20.0664 9.95312 20.2266 9.86719 20.4141C9.78125 20.6016 9.74219 20.7969 9.75 21C9.75 21.2109 9.78906 21.4062 9.86719 21.5859C9.94531 21.7656 10.0508 21.9219 10.1836 22.0547C10.3164 22.1875 10.4766 22.2969 10.6641 22.3828C10.8516 22.4688 11.0469 22.5078 11.25 22.5C11.4609 22.5 11.6562 22.4609 11.8359 22.3828C12.0156 22.3047 12.1719 22.1992 12.3047 22.0664C12.4375 21.9336 12.5469 21.7734 12.6328 21.5859C12.7188 21.3984 12.7578 21.2031 12.75 21ZM18.75 22.5C18.9609 22.5 19.1562 22.4609 19.3359 22.3828C19.5156 22.3047 19.6719 22.1992 19.8047 22.0664C19.9375 21.9336 20.0469 21.7734 20.1328 21.5859C20.2188 21.3984 20.2578 21.2031 20.25 21C20.25 20.7891 20.2109 20.5938 20.1328 20.4141C20.0547 20.2344 19.9492 20.0781 19.8164 19.9453C19.6836 19.8125 19.5234 19.7031 19.3359 19.6172C19.1484 19.5312 18.9531 19.4922 18.75 19.5C18.5391 19.5 18.3438 19.5391 18.1641 19.6172C17.9844 19.6953 17.8281 19.8008 17.6953 19.9336C17.5625 20.0664 17.4531 20.2266 17.3672 20.4141C17.2812 20.6016 17.2422 20.7969 17.25 21C17.25 21.2109 17.2891 21.4062 17.3672 21.5859C17.4453 21.7656 17.5508 21.9219 17.6836 22.0547C17.8164 22.1875 17.9766 22.2969 18.1641 22.3828C18.3516 22.4688 18.5469 22.5078 18.75 22.5Z" fill="#FFCC00"/>
</svg>